<?xml version="1.0" encoding="utf-8"?>
<!-- Generator: Adobe Illustrator 16.0.0, SVG Export Plug-In . SVG Version: 6.00 Build 0)  -->
<!DOCTYPE svg PUBLIC "-//W3C//DTD SVG 1.1//EN" "http://www.w3.org/Graphics/SVG/1.1/DTD/svg11.dtd">
<svg version="1.1" id="Layer_1" xmlns="http://www.w3.org/2000/svg" xmlns:xlink="http://www.w3.org/1999/xlink" x="0px" y="0px"
	 width="100px" height="100px" viewBox="0 0 100 100" enable-background="new 0 0 100 100" xml:space="preserve">
<g>
	<path fill="#1D1D1B" d="M74.089,38.959c0-1.605,0.232-3.151,0.633-4.632c-0.211,0.005-0.418,0.032-0.633,0.032
		c-15.208,0-27.537-12.281-27.637-27.465C24.262,8.701,6.806,27.249,6.806,49.909c0,23.854,19.339,43.196,43.192,43.196
		c21.54,0,39.341-15.775,42.606-36.394c-0.241,0.008-0.479,0.034-0.724,0.034C82.054,56.746,74.089,48.783,74.089,38.959z
		 M33.201,73.259c-3.925,0-7.112-3.188-7.112-7.121c0-3.929,3.188-7.112,7.112-7.112c3.929,0,7.117,3.184,7.117,7.112
		C40.318,70.071,37.13,73.259,33.201,73.259z M36.135,49.221c-5.381,0-9.74-4.364-9.74-9.745c0-5.383,4.359-9.745,9.74-9.745
		c5.385,0,9.749,4.362,9.749,9.745C45.884,44.856,41.52,49.221,36.135,49.221z M58.493,74.556c-3.209,0-5.812-2.606-5.812-5.816
		c0-3.214,2.603-5.815,5.812-5.815c3.21,0,5.82,2.602,5.82,5.815C64.313,71.949,61.703,74.556,58.493,74.556z M88.809,36.481
		c-2.417,0-4.381,1.962-4.381,4.381c0,2.422,1.964,4.384,4.381,4.384c2.421,0,4.386-1.962,4.386-4.384
		C93.194,38.443,91.229,36.481,88.809,36.481z M68.488,20.934c2.68,0,4.859-2.173,4.859-4.854s-2.18-4.855-4.859-4.855
		s-4.851,2.174-4.851,4.855S65.809,20.934,68.488,20.934z M90.123,24.006c1.697,0,3.071-1.375,3.071-3.072
		c0-1.695-1.374-3.071-3.071-3.071c-1.693,0-3.067,1.376-3.067,3.071C87.056,22.631,88.43,24.006,90.123,24.006z"/>
</g>
</svg>
