<?xml version="1.0" encoding="utf-8"?>
<!-- Generator: Adobe Illustrator 16.0.0, SVG Export Plug-In . SVG Version: 6.00 Build 0)  -->
<!DOCTYPE svg PUBLIC "-//W3C//DTD SVG 1.1//EN" "http://www.w3.org/Graphics/SVG/1.1/DTD/svg11.dtd">
<svg version="1.1" id="Layer_1" xmlns="http://www.w3.org/2000/svg" xmlns:xlink="http://www.w3.org/1999/xlink" x="0px" y="0px"
	 width="34.417px" height="37.411px" viewBox="0 0 34.417 37.411" enable-background="new 0 0 34.417 37.411" xml:space="preserve">
<path fill="#1D1D1B" d="M30.19,16.376h-3.618c-0.753,0-1.42-0.501-1.628-1.207l-0.615-2.212c-0.404-1.364-1.677-2.316-3.099-2.316
	h-8.215c-1.422,0-2.698,0.952-3.099,2.328l-0.611,2.189c-0.212,0.717-0.88,1.218-1.628,1.218H4.131C1.853,16.376,0,18.232,0,20.511
	v12.767c0,2.279,1.853,4.134,4.131,4.134h26.281c2.206,0,4.005-1.798,4.005-4.007V20.604C34.417,18.272,32.524,16.376,30.19,16.376z
	 M4.131,17.906h3.547c1.42,0,2.695-0.951,3.099-2.328l0.608-2.19c0.212-0.715,0.882-1.218,1.631-1.218h8.215
	c0.747,0,1.418,0.503,1.624,1.209l0.618,2.211c0.4,1.365,1.676,2.316,3.1,2.316h3.618c1.491,0,2.698,1.21,2.698,2.697v7.504h-9.04
	c0.154-0.571,0.244-1.169,0.244-1.788c0-3.796-3.089-6.883-6.884-6.883c-3.797,0-6.886,3.087-6.886,6.883
	c0,0.619,0.09,1.217,0.244,1.788H1.526v-7.597C1.526,19.075,2.695,17.906,4.131,17.906z M22.562,26.319
	c0,2.954-2.398,5.355-5.353,5.355c-2.95,0-5.355-2.401-5.355-5.355c0-2.951,2.405-5.353,5.355-5.353
	C20.163,20.967,22.562,23.368,22.562,26.319z M30.412,35.882H4.131c-1.436,0-2.604-1.169-2.604-2.604v-3.67h9.635
	c1.169,2.141,3.441,3.597,6.048,3.597c2.605,0,4.877-1.456,6.046-3.597h9.634v3.797C32.889,34.771,31.775,35.882,30.412,35.882z"/>
</svg>
