<?xml version="1.0" encoding="utf-8"?>
<!-- Generator: Adobe Illustrator 16.0.0, SVG Export Plug-In . SVG Version: 6.00 Build 0)  -->
<!DOCTYPE svg PUBLIC "-//W3C//DTD SVG 1.1//EN" "http://www.w3.org/Graphics/SVG/1.1/DTD/svg11.dtd">
<svg version="1.1" id="Layer_1" xmlns="http://www.w3.org/2000/svg" xmlns:xlink="http://www.w3.org/1999/xlink" x="0px" y="0px"
	 width="32.179px" height="37.378px" viewBox="0 0 32.179 37.378" enable-background="new 0 0 32.179 37.378" xml:space="preserve">
<path fill="#1D1D1B" d="M16.088,10.588c-5.022,0-9.108,4.087-9.108,9.11c0,3.28,1.738,6.261,4.566,7.888v5.247
	c0,2.506,2.037,4.545,4.542,4.545c2.506,0,4.545-2.039,4.545-4.545v-5.249c2.827-1.627,4.564-4.607,4.564-7.886
	C25.197,14.675,21.11,10.588,16.088,10.588z M19.133,32.833c0,1.679-1.366,3.045-3.045,3.045c-1.678,0-3.042-1.366-3.042-3.045
	v-0.82h6.087V32.833z M19.542,26.47c-0.251,0.128-0.409,0.387-0.409,0.668v3.375h-6.087V27.14c0-0.282-0.158-0.54-0.409-0.668
	c-2.564-1.309-4.157-3.904-4.157-6.773c0-4.196,3.413-7.61,7.608-7.61c4.196,0,7.609,3.414,7.609,7.61
	C23.697,22.565,22.105,25.16,19.542,26.47z M3.58,18.948H0.75c-0.414,0-0.75,0.336-0.75,0.75s0.336,0.75,0.75,0.75h2.83
	c0.414,0,0.75-0.336,0.75-0.75S3.994,18.948,3.58,18.948z M7.771,11.382c0.293-0.292,0.293-0.767,0-1.061L5.773,8.32
	c-0.292-0.292-0.767-0.294-1.061,0c-0.293,0.292-0.293,0.767,0,1.061l1.998,2.001c0.146,0.146,0.338,0.22,0.53,0.22
	C7.433,11.602,7.625,11.528,7.771,11.382z M16.088,7.937c0.414,0,0.75-0.336,0.75-0.75V4.358c0-0.414-0.336-0.75-0.75-0.75
	s-0.75,0.336-0.75,0.75v2.828C15.338,7.601,15.674,7.937,16.088,7.937z M26.405,8.32l-2,2.001c-0.293,0.293-0.293,0.768,0,1.061
	c0.146,0.146,0.339,0.22,0.53,0.22c0.192,0,0.384-0.073,0.53-0.22l2-2.001c0.293-0.293,0.293-0.768,0-1.061
	C27.172,8.026,26.697,8.028,26.405,8.32z M31.429,18.948h-2.828c-0.414,0-0.75,0.336-0.75,0.75s0.336,0.75,0.75,0.75h2.828
	c0.414,0,0.75-0.336,0.75-0.75S31.843,18.948,31.429,18.948z"/>
</svg>
