<?xml version="1.0" encoding="utf-8"?>
<!-- Generator: Adobe Illustrator 16.0.0, SVG Export Plug-In . SVG Version: 6.00 Build 0)  -->
<!DOCTYPE svg PUBLIC "-//W3C//DTD SVG 1.1//EN" "http://www.w3.org/Graphics/SVG/1.1/DTD/svg11.dtd">
<svg version="1.1" id="Layer_1" xmlns="http://www.w3.org/2000/svg" xmlns:xlink="http://www.w3.org/1999/xlink" x="0px" y="0px"
	 width="27.014px" height="37.378px" viewBox="0 0 27.014 37.378" enable-background="new 0 0 27.014 37.378" xml:space="preserve">
<path fill="#1D1D1B" d="M9.926,21.333c1.799,0,3.263-1.463,3.263-3.261c0-1.799-1.464-3.262-3.263-3.262s-3.262,1.463-3.262,3.262
	C6.664,19.87,8.127,21.333,9.926,21.333z M9.926,16.311c0.972,0,1.763,0.79,1.763,1.762c0,0.971-0.791,1.761-1.763,1.761
	s-1.762-0.79-1.762-1.761C8.164,17.101,8.954,16.311,9.926,16.311z M18.102,3.111c-4.669,0-8.505,3.603-8.888,8.172H7.006
	c-1.126,0-2.587,0.664-3.326,1.512L1.28,15.54C0.562,16.363,0,17.862,0,18.954v16.008c0,1.332,1.084,2.416,2.416,2.416h15.021
	c1.332,0,2.416-1.084,2.416-2.416V18.954c0-1.092-0.562-2.591-1.281-3.414l-2.396-2.745c-0.74-0.848-2.201-1.512-3.327-1.512h-2.135
	c0.377-3.742,3.546-6.672,7.388-6.672c4.087,0,7.412,3.329,7.412,7.422v13.871h1.5V12.033C27.014,7.113,23.016,3.111,18.102,3.111z
	 M12.849,12.783c0.693,0,1.741,0.476,2.197,0.998l2.396,2.745c0.485,0.556,0.911,1.69,0.911,2.428v16.008
	c0,0.505-0.411,0.916-0.916,0.916H2.416c-0.505,0-0.916-0.411-0.916-0.916V18.954c0-0.737,0.426-1.872,0.91-2.428l2.399-2.745
	c0.455-0.522,1.503-0.998,2.196-0.998H12.849z"/>
</svg>
