<?xml version="1.0" encoding="utf-8"?>
<!-- Generator: Adobe Illustrator 16.0.0, SVG Export Plug-In . SVG Version: 6.00 Build 0)  -->
<!DOCTYPE svg PUBLIC "-//W3C//DTD SVG 1.1//EN" "http://www.w3.org/Graphics/SVG/1.1/DTD/svg11.dtd">
<svg version="1.1" id="Layer_1" xmlns="http://www.w3.org/2000/svg" xmlns:xlink="http://www.w3.org/1999/xlink" x="0px" y="0px"
	 width="26.119px" height="37.379px" viewBox="0 0 26.119 37.379" enable-background="new 0 0 26.119 37.379" xml:space="preserve">
<path fill="#1D1D1B" d="M20.666,37.375c-0.143,0-0.285-0.041-0.41-0.121l-7.199-4.707l-7.193,4.707
	c-0.253,0.164-0.584,0.162-0.835-0.01c-0.251-0.174-0.372-0.48-0.309-0.777l1.777-8.223l-6.244-5.527
	c-0.233-0.207-0.314-0.536-0.204-0.827c0.11-0.292,0.39-0.484,0.701-0.484h8.536l3.065-8.446c0.107-0.297,0.39-0.494,0.705-0.494
	l0,0c0.315,0,0.597,0.197,0.705,0.493l3.075,8.447h8.532c0.312,0,0.591,0.192,0.701,0.484c0.11,0.291,0.029,0.62-0.204,0.827
	l-6.243,5.527l1.776,8.223c0.063,0.297-0.058,0.604-0.309,0.777C20.963,37.332,20.814,37.375,20.666,37.375z M13.057,30.9
	c0.143,0,0.286,0.041,0.41,0.123L19.548,35l-1.483-6.867c-0.057-0.266,0.033-0.541,0.236-0.721l5.09-4.505h-7.079
	c-0.315,0-0.597-0.197-0.705-0.493l-2.549-7.002l-2.541,7c-0.107,0.298-0.39,0.495-0.705,0.495H2.729l5.092,4.505
	c0.203,0.18,0.293,0.455,0.236,0.721l-1.484,6.865l6.074-3.975C12.771,30.941,12.914,30.9,13.057,30.9z"/>
</svg>
