<?xml version="1.0" encoding="utf-8"?>
<!-- Generator: Adobe Illustrator 16.0.0, SVG Export Plug-In . SVG Version: 6.00 Build 0)  -->
<!DOCTYPE svg PUBLIC "-//W3C//DTD SVG 1.1//EN" "http://www.w3.org/Graphics/SVG/1.1/DTD/svg11.dtd">
<svg version="1.1" id="Layer_1" xmlns="http://www.w3.org/2000/svg" xmlns:xlink="http://www.w3.org/1999/xlink" x="0px" y="0px"
	 width="31.354px" height="37.311px" viewBox="0 0 31.354 37.311" enable-background="new 0 0 31.354 37.311" xml:space="preserve">
<path fill="#1D1D1B" d="M28.367,17.721l-6.411-3.698c-0.213-0.121-0.473-0.121-0.684,0c-0.211,0.122-0.342,0.348-0.342,0.592v7.404
	c0,0.244,0.131,0.47,0.342,0.592c0.106,0.061,0.224,0.092,0.342,0.092s0.236-0.031,0.342-0.092l6.411-3.706
	c0.212-0.122,0.342-0.348,0.342-0.592S28.578,17.843,28.367,17.721z M24.313,10.666v-2.41c0-1.222-0.996-2.216-2.221-2.216H11.18
	c-0.016,0-0.028,0.008-0.043,0.009c-0.068,0.004-0.135,0.017-0.199,0.039c-0.023,0.009-0.046,0.015-0.067,0.024
	c-0.08,0.037-0.156,0.083-0.221,0.147L0.22,16.697c-0.064,0.064-0.11,0.14-0.146,0.22c-0.011,0.023-0.018,0.047-0.025,0.071
	c-0.021,0.062-0.034,0.125-0.038,0.19C0.009,17.195,0,17.211,0,17.228v17.865c0,1.223,0.993,2.218,2.213,2.218h19.88
	c1.225,0,2.221-0.995,2.221-2.218v-9.126c3.936-0.329,7.04-3.632,7.04-7.65S28.249,10.995,24.313,10.666z M6.505,12.529l3.925-3.928
	v7.158c0,0.389-0.329,0.718-0.718,0.718H2.56L6.505,12.529z M22.813,35.093c0,0.396-0.323,0.718-0.721,0.718H2.213
	c-0.394,0-0.713-0.322-0.713-0.718V17.978h8.212c1.223,0,2.218-0.995,2.218-2.218V7.54h10.163c0.397,0,0.721,0.321,0.721,0.716
	v2.428c-2.641,0.294-4.875,1.933-6.015,4.213c-0.001,0.001-0.001,0.002-0.002,0.003c-0.1,0.199-0.191,0.402-0.273,0.611
	c-0.012,0.029-0.021,0.059-0.032,0.087c-0.07,0.186-0.137,0.373-0.192,0.564c-0.02,0.063-0.033,0.129-0.051,0.193
	c-0.043,0.162-0.086,0.325-0.118,0.491c-0.022,0.116-0.036,0.234-0.054,0.352c-0.018,0.122-0.041,0.243-0.053,0.367
	c-0.024,0.247-0.038,0.498-0.038,0.751s0.014,0.503,0.038,0.75c0.013,0.127,0.035,0.251,0.054,0.376
	c0.018,0.114,0.03,0.229,0.053,0.342c0.033,0.171,0.077,0.338,0.122,0.505c0.016,0.06,0.028,0.119,0.045,0.178
	c0.059,0.198,0.127,0.392,0.2,0.583c0.008,0.021,0.016,0.044,0.023,0.065c1.022,2.601,3.418,4.515,6.293,4.834V35.093z M23.668,24.5
	c-0.02,0-0.037-0.003-0.057-0.003c-0.013-0.001-0.023-0.008-0.036-0.008c-3.358-0.051-6.09-2.82-6.09-6.173
	c0-3.354,2.731-6.124,6.09-6.174c0.011,0,0.021-0.006,0.03-0.007c0.021,0,0.041-0.003,0.062-0.003c3.411,0,6.186,2.773,6.186,6.184
	S27.079,24.5,23.668,24.5z"/>
</svg>
