<?xml version="1.0" encoding="utf-8"?>
<!-- Generator: Adobe Illustrator 16.0.0, SVG Export Plug-In . SVG Version: 6.00 Build 0)  -->
<!DOCTYPE svg PUBLIC "-//W3C//DTD SVG 1.1//EN" "http://www.w3.org/Graphics/SVG/1.1/DTD/svg11.dtd">
<svg version="1.1" id="Layer_1" xmlns="http://www.w3.org/2000/svg" xmlns:xlink="http://www.w3.org/1999/xlink" x="0px" y="0px"
	 width="16.98px" height="37.378px" viewBox="0 0 16.98 37.378" enable-background="new 0 0 16.98 37.378" xml:space="preserve">
<path fill="#1D1D1B" d="M14.443,6.047H2.536C1.138,6.047,0,7.186,0,8.584v26.254c0,1.4,1.138,2.539,2.536,2.539h11.907
	c1.398,0,2.537-1.139,2.537-2.539V8.584C16.98,7.186,15.842,6.047,14.443,6.047z M15.48,34.838c0,0.572-0.465,1.039-1.037,1.039
	H2.536c-0.571,0-1.036-0.467-1.036-1.039V8.584c0-0.572,0.465-1.037,1.036-1.037h11.907c0.572,0,1.037,0.465,1.037,1.037V34.838z
	 M8.493,12.126c0.846,0,1.534-0.689,1.534-1.534c0-0.85-0.688-1.533-1.534-1.533c-0.849,0-1.54,0.684-1.54,1.533
	C6.953,11.437,7.645,12.126,8.493,12.126z M8.493,28.145c-1.8,0-3.264,1.463-3.264,3.262c0,1.797,1.464,3.26,3.264,3.26
	c1.796,0,3.258-1.463,3.258-3.26C11.751,29.607,10.289,28.145,8.493,28.145z M8.493,33.166c-0.973,0-1.764-0.789-1.764-1.76
	c0-0.973,0.791-1.762,1.764-1.762c0.97,0,1.758,0.789,1.758,1.762C10.251,32.377,9.463,33.166,8.493,33.166z"/>
</svg>
