<?xml version="1.0" encoding="utf-8"?>
<!-- Generator: Adobe Illustrator 16.0.0, SVG Export Plug-In . SVG Version: 6.00 Build 0)  -->
<!DOCTYPE svg PUBLIC "-//W3C//DTD SVG 1.1//EN" "http://www.w3.org/Graphics/SVG/1.1/DTD/svg11.dtd">
<svg version="1.1" id="Layer_1" xmlns="http://www.w3.org/2000/svg" xmlns:xlink="http://www.w3.org/1999/xlink" x="0px" y="0px"
	 width="24.314px" height="37.311px" viewBox="0 0 24.314 37.311" enable-background="new 0 0 24.314 37.311" xml:space="preserve">
<path fill="#1D1D1B" d="M24.257,6.503c-0.076-0.184-0.223-0.33-0.405-0.406c-0.092-0.038-0.189-0.058-0.287-0.058h-8.97
	c0.008-0.044,0.026-0.083,0.026-0.129c0-1.358-1.105-2.463-2.465-2.463c-1.357,0-2.462,1.104-2.462,2.463
	c0,0.046,0.019,0.085,0.026,0.129H0.75c-0.098,0-0.195,0.021-0.287,0.058C0.28,6.173,0.134,6.319,0.058,6.503
	C0.02,6.594,0,6.691,0,6.789v29.771c0,0.098,0.02,0.195,0.058,0.285c0.076,0.184,0.223,0.33,0.405,0.406
	c0.092,0.037,0.189,0.059,0.287,0.059h22.814c0.098,0,0.195-0.021,0.287-0.059c0.183-0.076,0.329-0.223,0.405-0.406
	c0.038-0.09,0.058-0.188,0.058-0.285V6.789C24.314,6.691,24.295,6.594,24.257,6.503z M11.194,5.91c0-0.531,0.432-0.963,0.962-0.963
	c0.532,0,0.965,0.432,0.965,0.963c0,0.046,0.019,0.085,0.026,0.129h-1.979C11.176,5.995,11.194,5.956,11.194,5.91z M21.754,7.539
	l-2.666,2.666H5.228L2.561,7.539H21.754z M18.648,11.705v19.939H5.667V11.705H18.648z M1.5,8.6l2.667,2.666v20.818L1.5,34.75V8.6z
	 M2.561,35.811l2.667-2.666h13.86l2.666,2.666H2.561z M22.814,34.75l-2.666-2.666V11.266L22.814,8.6V34.75z M12.01,25.398
	c0.095,0.066,0.198,0.066,0.293,0.001c0.518-0.376,2.302-1.69,3.291-2.677c1.776-1.779,1.093-4.123-0.59-4.696
	c-1.689-0.574-2.85,1.456-2.85,1.456s-1.16-2.03-2.85-1.456c-1.68,0.573-2.365,2.917-0.585,4.696
	C9.705,23.709,11.489,25.021,12.01,25.398z"/>
</svg>
