<?xml version="1.0" standalone="no"?>
<!DOCTYPE svg PUBLIC "-//W3C//DTD SVG 1.1//EN" "http://www.w3.org/Graphics/SVG/1.1/DTD/svg11.dtd" >
<svg xmlns="http://www.w3.org/2000/svg">
<metadata>
<json>
<![CDATA[
{
	"fontFamily": "klloom-icons",
	"majorVersion": 1,
	"minorVersion": 0,
	"description": "Klloom Icons Typeface\nFont generated by IcoMoon.",
	"copyright": "Klloom™ 2018 All Rights Reserved",
	"designer": "Zans",
	"version": "Version 1.0",
	"fontId": "klloom-icons",
	"psName": "klloom-icons",
	"subFamily": "Regular",
	"fullName": "klloom-icons"
}
]]>
</json>
</metadata>
<defs>
<font id="klloom-icons" horiz-adv-x="1024">
<font-face units-per-em="1024" ascent="960" descent="-64" />
<missing-glyph horiz-adv-x="1024" />
<glyph unicode="&#x20;" horiz-adv-x="512" d="" />
<glyph unicode="&#xe900;" glyph-name="big-button" data-tags="big button" horiz-adv-x="2692" d="M2483.477 860.331c-26.176 0-1129.493-123.563-1129.493-123.563s-1108.885 123.563-1131.008 123.563c-87.957 0-159.125-180.203-159.125-402.496s71.168-402.453 159.125-402.453c21.995 0 1131.008 126.421 1131.008 126.421s1103.296-126.421 1129.493-126.421c87.872 0 159.125 180.16 159.125 402.453s-71.253 402.496-159.125 402.496z" />
<glyph unicode="&#xe901;" glyph-name="brand-symbol" data-tags="brand symbol" horiz-adv-x="1682" d="M1335.36 841.408c-39.659 0-76.651-16.896-108.864-46.72l-0.085 0.085-386.432-306.155-383.701 305.152c-32.491 30.549-69.931 47.744-110.101 47.744-128.533 0-229.227-176.085-229.227-400.896 0-224.768 100.693-400.832 229.227-400.832 39.68 0 76.672 16.896 108.885 46.72l0.064-0.064 386.624 306.219 384.853-306.24c32.192-29.781 69.12-46.656 108.757-46.656 128.576 0 229.291 176.043 229.291 400.789 0 224.789-100.715 400.853-229.291 400.853zM346.176 120.299c-70.357 0-148.736 131.563-148.736 320.341 0 188.821 78.379 320.405 148.736 320.405 18.688 0 37.888-9.536 56.085-26.731l-0.128-0.149c14.016-13.248 26.795-30.357 38.080-50.496 0.107-0.213 0.235-0.427 0.341-0.619 19.691-35.285 34.795-79.829 43.989-129.344 0.043-0.149 0.064-0.32 0.107-0.448 1.301-7.019 2.453-14.123 3.52-21.333 0.043-0.299 0.085-0.597 0.128-0.896 1.557-10.816 2.795-21.867 3.797-33.024 0.469-5.525 0.96-11.029 1.323-16.661 0.235-3.648 0.427-7.317 0.576-10.987 0.448-9.749 0.768-19.605 0.768-29.696s-0.341-19.904-0.768-29.653c-0.171-3.691-0.363-7.381-0.597-11.051-0.341-5.547-0.789-10.987-1.28-16.405-1.024-11.413-2.261-22.72-3.883-33.771-0.021-0.064-0.021-0.107-0.021-0.149-8.427-57.408-24.64-109.312-46.677-149.568-0.597-1.109-1.216-2.219-1.813-3.307-2.453-4.373-4.971-8.597-7.573-12.693-0.448-0.661-0.875-1.301-1.323-1.963-8.768-13.461-18.261-25.259-28.459-34.944l0.021-0.021c-18.24-17.259-37.504-26.837-56.213-26.837zM553.28 266.901c0.363 1.323 0.597 2.752 0.939 4.096 2.709 10.347 5.12 20.928 7.339 31.765 0.533 2.645 1.131 5.248 1.621 7.915 2.112 11.115 3.925 22.485 5.483 34.027 0.363 2.688 0.811 5.333 1.152 8.043 1.429 11.541 2.496 23.339 3.349 35.264 0.213 2.795 0.533 5.547 0.704 8.363 0.875 14.528 1.387 29.248 1.387 44.245 0 14.933-0.512 29.632-1.365 44.075-0.192 2.901-0.512 5.717-0.725 8.576-0.853 11.797-1.899 23.445-3.285 34.859-0.363 2.795-0.811 5.525-1.195 8.299-1.557 11.392-3.307 22.635-5.376 33.6-0.512 2.731-1.131 5.397-1.664 8.107-2.197 10.752-4.587 21.269-7.253 31.552-0.341 1.28-0.555 2.645-0.896 3.925l218.304-173.632-218.517-173.077zM909.931 441.323l218.368 172.992c-0.384-1.429-0.64-2.965-1.024-4.395-2.603-10.091-4.971-20.373-7.125-30.891-0.597-2.965-1.237-5.824-1.792-8.811-2.069-10.795-3.797-21.824-5.312-33.045-0.427-2.987-0.917-5.888-1.301-8.896-1.365-11.307-2.411-22.827-3.264-34.496-0.235-3.029-0.576-5.973-0.768-9.003-0.853-14.507-1.365-29.205-1.365-44.181 0-14.933 0.491-29.611 1.365-44.075 0.171-2.88 0.512-5.653 0.725-8.491 0.853-11.84 1.899-23.509 3.285-34.965 0.363-2.731 0.811-5.397 1.173-8.107 1.557-11.477 3.328-22.763 5.419-33.813 0.491-2.667 1.088-5.248 1.621-7.893 2.197-10.816 4.587-21.397 7.275-31.723 0.341-1.28 0.555-2.624 0.896-3.883l-218.176 173.675zM1335.36 120.299c-18.667 0-37.867 9.536-56.064 26.731l0.043 0.043c-10.283 9.771-19.904 21.675-28.736 35.243-0.341 0.491-0.64 0.96-0.96 1.451-2.688 4.181-5.291 8.533-7.829 13.035-0.512 0.939-1.024 1.899-1.536 2.859-26.411 48.085-44.395 112.917-50.773 183.915-0.469 5.376-0.939 10.752-1.28 16.235-0.256 3.712-0.448 7.445-0.597 11.157-0.448 9.728-0.768 19.541-0.768 29.611 0 10.091 0.341 19.925 0.768 29.675 0.171 3.669 0.363 7.339 0.576 10.965 0.363 5.717 0.832 11.264 1.323 16.832 0.939 10.411 2.069 20.715 3.499 30.805 0.149 1.067 0.277 2.133 0.427 3.157 1.024 6.912 2.155 13.739 3.371 20.459 0.128 0.597 0.235 1.216 0.363 1.813 3.84 20.608 8.704 40.341 14.507 58.901 0.171 0.533 0.341 1.088 0.491 1.6 1.877 5.931 3.861 11.776 5.909 17.451 0.341 0.896 0.683 1.771 1.024 2.645 3.861 10.389 8.021 20.309 12.48 29.739 0.491 1.045 0.96 2.176 1.451 3.179 1.899 3.925 3.904 7.616 5.888 11.328 1.195 2.24 2.389 4.48 3.648 6.656 2.027 3.541 4.075 7.019 6.208 10.368 1.067 1.685 2.176 3.285 3.243 4.907 8.405 12.608 17.429 23.765 27.115 32.96v0c18.219 17.28 37.483 26.88 56.192 26.88 70.379 0 148.8-131.563 148.8-320.341 0-188.715-78.4-320.256-148.779-320.256z" />
<glyph unicode="&#xe902;" glyph-name="brand-tag-active" data-tags="brand tag active" d="M787.051 666.923l-226.965 168.96c-23.040 17.152-61.077 17.173-84.245 0l-232.085-168.981c-21.376-15.765-42.24-48.533-42.24-76.267v-488.917c0-30.037 32.128-64.341 66.581-64.341h502.080c32.384 0 52.331 32.235 52.331 64.341v488.939c0 28.907-15.424 61.483-35.456 76.267zM589.909 604.864c0-39.083-31.744-70.869-70.784-70.869s-70.869 31.787-70.869 70.869c0 39.104 31.829 70.933 70.869 70.933s70.784-31.829 70.784-70.933z" />
<glyph unicode="&#xe903;" glyph-name="brand-tag" data-tags="brand tag" d="M762.005 37.739h-500.011c-34.539 0-62.635 28.075-62.635 62.635v486.997c0 28.437 17.237 62.613 40.064 79.509l227.605 168.448c24.576 18.197 65.344 18.197 89.899 0l227.584-168.448c22.827-16.896 40.064-51.093 40.064-79.509v-487.019c0.043-34.539-28.053-62.613-62.571-62.613zM512.021 797.909c-5.589 0-10.944-1.493-14.315-3.989l-227.627-168.427c-9.707-7.168-19.2-26.048-19.2-38.123v-487.019c0-6.016 5.099-11.115 11.115-11.115h500.011c6.037 0 11.115 5.099 11.115 11.115v487.019c0 12.053-9.515 30.933-19.2 38.123l-227.584 168.427c-3.371 2.517-8.725 3.989-14.315 3.989zM512.021 497.472c-57.429 0-104.149 46.677-104.149 104.085s46.72 104.107 104.149 104.107c57.387 0 104.064-46.699 104.064-104.107 0-57.387-46.677-104.085-104.064-104.085zM512.021 654.165c-29.035 0-52.651-23.595-52.651-52.608 0-28.992 23.616-52.587 52.651-52.587 28.971 0 52.565 23.595 52.565 52.587 0 29.013-23.595 52.608-52.565 52.608z" />
<glyph unicode="&#xe904;" glyph-name="buy-active" data-tags="buy active" d="M900.693 466.645l-96.341 96.256c-19.008 19.051-51.051 19.051-70.080 0l-94.272-95.595v319.979c0 27.819-25.195 44.715-52.992 44.715h-136.085c-27.819 0-45.589-16.896-45.589-44.715v-320.021l-98.133 95.616c-19.008 19.051-53.547 19.051-72.576 0l-96.832-96.277c-19.691-19.669-19.989-51.669-0.299-71.339l345.877-346.091c9.493-9.515 22.101-14.741 35.605-14.741s26.133 5.227 35.627 14.741l346.112 346.091c19.691 19.691 19.669 51.691-0.021 71.381z" />
<glyph unicode="&#xe905;" glyph-name="buy" data-tags="buy" d="M518.891 34.453c-13.483 0-26.176 5.227-35.669 14.741l-346.048 346.091c-19.669 19.669-19.669 51.669 0 71.339l96.256 96.277c19.029 19.051 52.331 19.051 71.36 0l95.68-95.616v320.021c0 27.819 22.635 50.453 50.453 50.453h136.085c27.819 0 50.453-22.656 50.453-50.453v-319.979l95.573 95.573c19.008 19.051 52.331 19.051 71.339 0l96.32-96.256c19.669-19.691 19.669-51.691 0-71.36l-346.112-346.069c-9.515-9.536-22.187-14.763-35.691-14.763zM268.352 526.464l-94.741-96.256 345.28-343.808 345.365 345.323-96.32 94.741-120.576-122.133c-10.795-10.816-21.333-13.077-28.245-13.077-11.264 0-21.525 5.888-27.456 15.723-3.797 6.315-5.717 13.973-5.717 22.784v357.525l-135.019-1.088 1.067-356.437c0-26.453-17.195-38.507-33.173-38.528-6.933 0-17.451 2.261-28.267 13.077l-122.197 122.155z" />
<glyph unicode="&#xe906;" glyph-name="camera-especs" data-tags="camera especs" horiz-adv-x="1148" d="M573.845 572.437c84.459 0 152.96-68.459 152.96-152.853 0-84.501-68.501-152.875-152.96-152.875-84.331 0-152.917 68.373-152.917 152.875 0 84.395 68.587 152.853 152.917 152.853zM430.613 897.237l-87.381-95.403h-151.595c-52.416 0-95.509-43.093-95.509-95.637v-573.333c0-52.501 43.093-95.467 95.509-95.467h764.501c52.416 0 95.424 42.965 95.424 95.467v573.333c0 52.565-43.008 95.637-95.424 95.637h-151.467l-87.339 95.403h-286.72zM573.845 180.672c-131.797 0-238.784 107.051-238.784 238.912 0 131.733 107.008 238.891 238.784 238.891 131.925 0 238.997-107.157 238.997-238.891 0.021-131.883-107.072-238.912-238.997-238.912z" />
<glyph unicode="&#xe907;" glyph-name="collect-active" data-tags="collect active" d="M859.861 554.837l-241.195-1.493v235.221c0 27.605-12.117 43.435-39.723 43.435h-133.973c-27.605 0-50.069-19.221-50.069-46.827l1.472-230.507h-235.157c-27.605 0-54.549-22.293-54.549-49.899v-133.995c0-27.605 29.909-50.069 57.515-50.069l241.152 1.493v-235.2c0-27.627 12.032-44.331 39.637-44.331h133.973c27.605 0 50.069 19.221 50.069 46.827l-1.451 230.507h235.221c27.605 0 54.549 23.168 54.549 50.773v133.995c0 27.605-29.867 50.069-57.472 50.069z" />
<glyph unicode="&#xe908;" glyph-name="collect" data-tags="collect" d="M578.965 36.907h-133.995c-27.605 0-50.069 22.464-50.069 50.069v235.221l-233.685-1.493c-27.605 0-50.069 22.464-50.069 50.069v133.995c0 27.605 22.464 50.069 50.069 50.069h235.157l-1.472 233.707c0 27.605 22.464 50.069 50.069 50.069h133.995c27.605 0 50.069-22.464 50.069-50.069v-235.179l233.771 1.451c27.605 0 50.069-22.464 50.069-50.069v-133.995c0-27.605-22.464-50.069-50.069-50.069h-235.264l1.472-233.728c0-27.584-22.443-50.048-50.048-50.048zM396.373 372.245c27.605 0 50.069-22.464 50.069-50.069v-235.2l131.051 1.451v233.771c0 27.605 22.464 50.069 50.069 50.069h235.243l-1.472 132.501-233.771-1.451c-27.605 0-50.069 22.464-50.069 50.069v235.157l-132.523-1.451 1.472-233.728c0-27.605-22.464-50.069-50.069-50.069h-235.157l1.472-132.523 233.685 1.472z" />
<glyph unicode="&#xe909;" glyph-name="comment-active" data-tags="comment active" d="M853.035 849.899h-682.069c-56.939 0-105.045-47.403-105.045-103.509v-475.456c0-58.901 50.069-112.533 105.045-112.533l192.149 0.021c0.512 0 1.024 0.149 1.557 0 11.947-10.368 56.427-49.152 90.987-79.787 21.611-19.157 35.883-31.829 55.467-32.491l0.875-0.064 0.875 0.043c19.584 0.661 33.856 13.333 55.467 32.491 34.389 30.485 78.571 68.971 90.987 79.787l193.728-0.021c54.976 0 105.045 53.653 105.045 112.533v475.477c-0.021 56.107-48.128 103.509-105.067 103.509z" />
<glyph unicode="&#xe90a;" glyph-name="comment" data-tags="comment" d="M512 46.080l-0.875 0.021c-19.584 0.661-33.856 13.333-55.467 32.512-34.581 30.656-79.061 69.397-90.987 79.787-0.512-0.043-1.045-0.021-1.579 0l-192.149-0.021c-54.976 0-105.045 53.632-105.045 112.533v475.477c0 56.107 48.107 103.509 105.045 103.509h682.091c56.939 0 105.045-47.403 105.045-103.509v-475.456c0-58.901-50.069-112.533-105.045-112.533h-190.059c-1.643 0-2.837 0.043-3.669 0-12.416-10.795-56.597-49.323-90.987-79.787-21.611-19.157-35.883-31.851-55.467-32.512l-0.853-0.021zM395.733 199.68c0 0 53.781-46.763 94.101-82.517 6.891-6.123 16.747-14.869 22.165-18.411 5.419 3.563 15.275 12.288 22.165 18.411 40.448 35.883 94.421 82.795 94.421 82.795 11.115 9.984 25.963 9.984 32.32 9.984l2.56-0.021h189.589c26.517 0 53.547 30.805 53.547 61.035v475.435c0 28.181-24.512 52.011-53.547 52.011h-682.091c-29.013 0-53.547-23.808-53.547-52.011v-475.456c0-30.229 27.029-61.035 53.547-61.035l192.149 0.021c6.336 0 21.205 0 32.619-10.24v0z" />
<glyph unicode="&#xe90b;" glyph-name="diamond" data-tags="diamond" d="M1018.731 546.112l-244.16 275.2c-5.675 6.4-17.301 10.688-25.835 10.688h-473.429c-8.555 0-20.181-4.288-25.835-10.688l-244.203-275.669c-5.675-6.4-5.333-16.32 0.747-22.315l494.891-487.851c6.080-5.995 16.043-5.952 22.123 0.043l494.912 488c6.101 6.016 6.464 16.192 0.789 22.592zM755.307 777.707l197.205-223.040h-201.301l-93.184 234.667h71.467c8.555 0 20.181-5.248 25.813-11.627zM273.6 512l169.877-361.749-366.869 361.749h196.992zM705.024 512l-193.045-410.88-192.96 410.88h386.005zM317.056 554.667l93.163 234.667h203.584l93.163-234.667h-389.909zM750.443 512h196.949l-366.869-361.728 169.92 361.728zM268.693 777.707c5.653 6.379 17.28 11.627 25.835 11.627h71.467l-93.163-234.667h-201.365l197.227 223.040z" />
<glyph unicode="&#xe90c;" d="M511.936 51.285c219.157 0 396.8 177.6 396.8 396.651 0 219.115-177.621 396.779-396.8 396.779-218.88 0-396.672-177.643-396.672-396.779 0-219.051 177.792-396.651 396.672-396.651z" />
<glyph unicode="&#xe90d;" d="M678.229 503.488l-110.763-0.725v111.467c0 13.12-10.645 23.765-23.744 23.765h-63.467c-13.099 0-23.765-10.645-23.765-23.765l0.725-110.741h-111.445c-13.12 0-23.744-10.645-23.744-23.744v-63.488c0-13.099 10.624-23.744 23.744-23.744l110.699 0.704v-111.445c0-13.12 10.667-23.765 23.765-23.765h63.467c13.099 0 23.744 10.645 23.744 23.765l-0.704 110.72h111.488c13.12 0 23.744 10.645 23.744 23.744v63.488c0 13.12-10.624 23.765-23.744 23.765z" />
<glyph unicode="&#xe90e;" glyph-name="like-active" data-tags="like active" d="M512.064 45.525v0c-10.475 0.043-20.779 3.499-29.803 10.091-52.459 37.909-231.595 169.664-331.733 269.76-91.819 91.797-129.899 207.168-104.448 316.501 21.547 92.544 86.251 165.419 173.099 194.965 26.667 9.045 53.781 13.675 80.64 13.675 102.379 0 177.621-65.323 212.16-102.549 34.539 37.205 109.76 102.549 212.16 102.549 26.837 0 53.973-4.629 80.661-13.675 86.827-29.547 151.552-102.421 173.077-194.965 25.451-109.333-12.629-224.704-104.427-316.501-99.883-99.797-279.296-231.829-331.925-269.909-8.789-6.485-19.029-9.941-29.461-9.941z" />
<glyph unicode="&#xe90f;" glyph-name="like" data-tags="like" d="M512.064 45.525v0c-10.475 0.043-20.779 3.499-29.803 10.091-52.459 37.909-231.595 169.664-331.733 269.76-91.819 91.797-129.877 207.168-104.427 316.501 21.547 92.544 86.251 165.419 173.099 194.965 26.667 9.045 53.781 13.675 80.64 13.675 102.4 0 177.621-65.323 212.181-102.549 34.539 37.205 109.76 102.549 212.16 102.549 26.837 0 53.973-4.629 80.661-13.675 86.827-29.547 151.552-102.421 173.077-194.965 25.451-109.333-12.608-224.704-104.427-316.501-99.861-99.797-279.296-231.829-331.904-269.909-8.853-6.485-19.093-9.941-29.525-9.941zM299.819 798.933c-21.184 0-42.731-3.669-64.043-10.923-69.867-23.744-122.027-82.795-139.499-157.824-21.333-91.627 11.712-189.461 90.667-268.373 97.109-97.088 272.661-226.261 325.056-264.128 53.675 38.827 228.565 167.659 325.077 264.128 78.955 78.912 112 176.747 90.667 268.373-17.472 75.051-69.632 134.037-139.499 157.824-21.333 7.253-42.88 10.923-64.064 10.923-130.667 0-212.181-135.296-212.181-135.296s-80.832 135.296-212.181 135.296z" />
<glyph unicode="&#xe910;" d="M511.936 51.285c219.157 0 396.8 177.6 396.8 396.651 0 219.115-177.621 396.779-396.8 396.779-218.88 0-396.672-177.643-396.672-396.779 0-219.051 177.792-396.651 396.672-396.651z" />
<glyph unicode="&#xe911;" d="M678.229 503.488l-110.763-0.725v111.467c0 13.12-10.645 23.765-23.744 23.765h-63.467c-13.099 0-23.765-10.645-23.765-23.765l0.725-110.741h-111.445c-13.12 0-23.744-10.645-23.744-23.744v-63.488c0-13.099 10.624-23.744 23.744-23.744l110.699 0.704v-111.445c0-13.12 10.667-23.765 23.765-23.765h63.467c13.099 0 23.744 10.645 23.744 23.765l-0.704 110.72h111.488c13.12 0 23.744 10.645 23.744 23.744v63.488c0 13.12-10.624 23.765-23.744 23.765z" />
<glyph unicode="&#xe912;" glyph-name="photo-dimensions" data-tags="photo dimensions" d="M352.363 830.699v-98.325h388.501l-527.232-527.104v388.48h-98.347v-556.352h556.395v98.325h-388.501l527.232 527.083v-388.459h98.304v556.352z" />
<glyph unicode="&#xe913;" glyph-name="print-size" data-tags="print size" horiz-adv-x="810" d="M635.051 828.672h-273.771l-271.36-271.573v-434.731c0-46.827 38.059-84.949 84.864-84.949h460.267c46.912 0 85.099 38.123 85.099 84.949v621.269c0 46.912-38.187 85.035-85.099 85.035zM618.133 139.392h-426.197v345.515h156.48c46.891 0 85.013 38.144 85.013 84.971v156.757h184.683v-587.243z" />
<glyph unicode="&#xe914;" glyph-name="private_locker" data-tags="private_locker" d="M511.979 606.315c-23.701 0-39.509-15.829-39.509-39.573v-39.552h79.125v39.552c0 23.744-15.787 39.573-39.616 39.573zM511.936 447.509c32.576 0 58.923-26.389 58.923-58.859 0-32.491-26.325-58.901-58.923-58.901-32.491 0-58.709 26.389-58.709 58.901 0 32.448 26.219 58.859 58.709 58.859zM511.979 843.819c-217.707 0-395.797-178.091-395.797-395.84 0-217.664 178.091-395.797 395.797-395.797s395.84 178.133 395.84 395.797c0 217.749-178.133 395.84-395.84 395.84zM670.315 289.685c0-23.744-15.744-39.616-39.573-39.616h-237.461c-23.787 0-39.573 15.872-39.573 39.616v197.867c0 23.744 15.787 39.616 39.573 39.616v39.552c0 67.285 51.456 118.741 118.699 118.741 67.328 0 118.741-51.456 118.741-118.741v-39.552c23.829 0 39.573-15.872 39.573-39.616v-197.867z" />
<glyph unicode="&#xe915;" glyph-name="report" data-tags="report" d="M870.016 649.365l-156.075 156.139c-20.8 20.864-61.909 37.867-91.371 37.867h-221.013c-29.461 0-70.635-17.024-91.371-37.845l-156.16-156.181c-20.8-20.8-37.824-61.931-37.824-91.392v-220.779c0-29.461 17.045-70.613 37.824-91.413l156.16-156.16c20.757-20.843 61.909-37.845 91.371-37.845h220.992c29.461 0 70.592 17.024 91.371 37.845l156.075 156.16c20.843 20.821 37.824 61.952 37.824 91.413v220.779c0.043 29.461-16.96 70.613-37.803 91.413zM468.053 667.477h87.957v-263.872h-87.957v263.872zM512.064 214.443c-31.573 0-57.173 25.621-57.173 57.216 0 31.531 25.579 57.173 57.173 57.173 31.467 0 57.173-25.643 57.173-57.173 0-31.595-25.707-57.216-57.173-57.216z" />
<glyph unicode="&#xe916;" glyph-name="share" data-tags="share" d="M678.016 312.043c-30.379 0-81.387-27.648-143.061 23.36-33.707 27.861-45.739 65.557-49.899 85.995-1.301 6.080-1.792 12.416-1.899 18.453 0.107 6.037 0.597 12.373 1.899 18.581 4.16 20.203 16.192 57.941 49.899 85.845 61.675 51.029 112.683 23.339 143.061 23.339 76.821 0 139.008 62.251 139.008 139.051 0 76.757-62.187 138.944-139.008 138.944-76.757 0-139.008-62.187-139.008-138.944 0-20.203 9.92-50.837-49.621-106.261-50.219-46.784-112.661-22.912-143.339-22.912-75.861 0-137.301-60.779-138.795-136.256h-0.277c0 0 0 0 0-0.043 0-0.448 0.192-0.853 0.192-1.323 0-0.491-0.192-0.875-0.192-1.387v0h0.299c1.493-75.435 62.933-136.171 138.795-136.171 30.677 0 93.12 23.701 143.339-22.976 59.541-55.467 49.621-86.059 49.621-106.325 0-76.693 62.251-138.901 139.008-138.901 76.821 0 139.008 62.208 139.008 138.901-0.021 76.821-62.208 139.029-139.029 139.029z" />
<glyph unicode="&#xe917;" glyph-name="shopping-cart" data-tags="shopping cart" horiz-adv-x="1179" d="M814.528 194.56c-43.797 0-79.125-35.861-79.125-79.637 0-43.755 35.328-79.573 79.125-79.573 43.627 0 79.701 35.84 79.701 79.573 0 43.776-36.075 79.637-79.701 79.637zM468.885 194.56c-43.861 0-79.339-35.861-79.339-79.637 0-43.755 35.477-79.573 79.339-79.573 43.733 0 79.616 35.84 79.616 79.573 0 43.776-35.904 79.637-79.616 79.637zM656.811 720.491c-54.272 0-98.347-43.989-98.347-98.261 0-54.229 44.075-98.197 98.347-98.197 54.251 0 98.24 43.968 98.24 98.197 0.021 54.293-43.989 98.261-98.24 98.261zM1067.008 837.163c-65.493 0-261.952 0-261.952 0l-56.128 61.355h-184.149l-56.277-61.355h-451.349c-3.84 0-6.955-3.136-6.955-6.976v-61.397c0-3.861 3.115-6.955 6.955-6.955h231.253v-323.733c0-33.835 27.605-61.419 61.397-61.419h32.235l-13.568-24.533c-6.357-11.136-9.92-24.235-9.92-38.144 0-43.776 35.733-79.616 79.573-79.616h514.261l29.077 79.616h-526.656c-5.504 0-9.941 4.331-9.941 9.92l1.259 4.864 26.432 47.915h491.285c33.749 0 48.341 18.667 61.461 61.419 13.099 42.645 94.379 309.12 103.083 337.621s-14.315 61.419-61.376 61.419zM656.811 468.779c-84.8 0-153.515 68.8-153.515 153.451 0 84.8 68.736 153.493 153.515 153.493 84.715 0 153.429-68.715 153.429-153.493 0-84.672-68.715-153.451-153.429-153.451zM1012.736 707.648c0-14.997-12.16-27.115-27.072-27.115h-92.224c-14.869 0-27.029 12.096-27.029 27.115v32.555c0 14.912 12.139 27.029 27.029 27.029h92.224c14.891 0 27.072-12.096 27.072-27.029v-32.555z" />
<glyph unicode="&#xe918;" d="M792.448 167.445c154.965 154.987 155.008 406.144 0.107 561.045-154.944 154.944-406.165 154.965-561.152-0.021-154.752-154.752-154.88-406.080 0.085-561.045 154.859-154.88 406.187-154.752 560.96 0.021z" />
<glyph unicode="&#xe919;" d="M590.272 604.779l-77.824-78.805-78.784 78.784c-9.301 9.301-24.341 9.301-33.621 0l-44.864-44.864c-9.28-9.28-9.301-24.341-0.021-33.6l78.827-77.803-78.784-78.784c-9.301-9.28-9.259-24.32 0-33.6l44.885-44.885c9.28-9.259 24.32-9.301 33.579 0l77.781 78.784 78.784-78.784c9.301-9.301 24.384-9.301 33.621 0l44.885 44.864c9.28 9.28 9.28 24.341 0 33.6l-78.805 77.781 78.827 78.827c9.28 9.301 9.28 24.341 0 33.579l-44.885 44.885c-9.259 9.28-24.32 9.28-33.6 0.021z" />
</font>
</defs>
</svg>
