<?xml version="1.0" encoding="utf-8"?>
<!-- Generator: Adobe Illustrator 16.0.5, SVG Export Plug-In . SVG Version: 6.00 Build 0)  -->
<!DOCTYPE svg PUBLIC "-//W3C//DTD SVG 1.1//EN" "http://www.w3.org/Graphics/SVG/1.1/DTD/svg11.dtd">
<svg version="1.1" id="Layer_1" xmlns="http://www.w3.org/2000/svg" xmlns:xlink="http://www.w3.org/1999/xlink" x="0px" y="0px"
	 width="264.101px" height="457.503px" viewBox="0 0 264.101 457.503" enable-background="new 0 0 264.101 457.503"
	 xml:space="preserve">
<g>
	<g>
		<g>
			<path fill="#29ABE2" d="M66.402,417.633c0.551-0.068,0.945-0.156,1.184-0.26c0.426-0.18,0.637-0.461,0.637-0.842
				c0-0.463-0.162-0.783-0.488-0.961c-0.326-0.176-0.807-0.264-1.438-0.264c-0.709,0-1.211,0.172-1.506,0.52
				c-0.211,0.256-0.352,0.602-0.42,1.037h-2.857c0.062-0.988,0.342-1.803,0.834-2.439c0.787-0.998,2.135-1.496,4.049-1.496
				c1.244,0,2.35,0.246,3.316,0.738c0.967,0.49,1.449,1.418,1.449,2.783v5.193c0,0.359,0.008,0.795,0.021,1.309
				c0.021,0.387,0.08,0.65,0.176,0.789c0.098,0.139,0.244,0.252,0.438,0.342v0.438h-3.221c-0.09-0.229-0.152-0.443-0.186-0.645
				c-0.035-0.201-0.062-0.43-0.084-0.686c-0.41,0.443-0.885,0.82-1.42,1.133c-0.643,0.367-1.365,0.551-2.174,0.551
				c-1.031,0-1.883-0.293-2.555-0.879c-0.672-0.584-1.008-1.414-1.008-2.486c0-1.393,0.541-2.4,1.621-3.023
				c0.594-0.34,1.465-0.582,2.617-0.727L66.402,417.633z M68.213,419.014c-0.189,0.119-0.381,0.213-0.574,0.287
				c-0.193,0.072-0.457,0.139-0.795,0.201l-0.674,0.125c-0.631,0.111-1.084,0.246-1.359,0.404c-0.467,0.271-0.699,0.689-0.699,1.258
				c0,0.506,0.141,0.871,0.426,1.096s0.631,0.338,1.039,0.338c0.646,0,1.242-0.188,1.787-0.561c0.545-0.375,0.828-1.057,0.85-2.047
				V419.014z"/>
			<path fill="#29ABE2" d="M82.879,413.848c0.74,0.611,1.111,1.629,1.111,3.047v7.625h-3.033v-6.887
				c0-0.596-0.078-1.053-0.236-1.371c-0.289-0.582-0.84-0.873-1.65-0.873c-0.996,0-1.68,0.426-2.051,1.277
				c-0.193,0.451-0.289,1.025-0.289,1.725v6.129H73.77v-11.301h2.867v1.65c0.379-0.58,0.738-1,1.076-1.256
				c0.605-0.457,1.375-0.686,2.307-0.686C81.184,412.928,82.137,413.235,82.879,413.848z"/>
			<path fill="#29ABE2" d="M92.746,413.379c0.533,0.303,0.965,0.719,1.297,1.252v-5.4h3.002v15.289h-2.877v-1.568
				c-0.422,0.672-0.902,1.16-1.443,1.465c-0.539,0.305-1.211,0.457-2.016,0.457c-1.322,0-2.436-0.535-3.338-1.605
				c-0.904-1.07-1.355-2.443-1.355-4.119c0-1.932,0.445-3.451,1.334-4.559c0.891-1.107,2.08-1.662,3.568-1.662
				C91.604,412.928,92.213,413.079,92.746,413.379z M93.473,421.446c0.436-0.623,0.654-1.43,0.654-2.42
				c0-1.385-0.35-2.375-1.049-2.971c-0.43-0.361-0.928-0.541-1.496-0.541c-0.865,0-1.5,0.328-1.906,0.982
				c-0.404,0.654-0.607,1.465-0.607,2.436c0,1.045,0.207,1.881,0.619,2.508s1.037,0.939,1.875,0.939
				C92.398,422.379,93.037,422.069,93.473,421.446z"/>
			<path fill="#29ABE2" d="M107.941,420.905c0.062,0.527,0.197,0.9,0.406,1.121c0.369,0.396,1.051,0.594,2.045,0.594
				c0.586,0,1.049-0.088,1.395-0.26c0.344-0.174,0.516-0.434,0.516-0.779c0-0.332-0.139-0.586-0.416-0.758
				c-0.277-0.174-1.309-0.471-3.096-0.895c-1.287-0.318-2.193-0.717-2.719-1.193c-0.527-0.471-0.791-1.15-0.791-2.037
				c0-1.045,0.412-1.943,1.234-2.695c0.822-0.75,1.979-1.127,3.471-1.127c1.416,0,2.57,0.283,3.461,0.848
				c0.893,0.564,1.404,1.539,1.535,2.924h-2.959c-0.043-0.381-0.15-0.682-0.324-0.904c-0.326-0.4-0.881-0.602-1.666-0.602
				c-0.645,0-1.105,0.1-1.379,0.301c-0.275,0.201-0.412,0.436-0.412,0.707c0,0.338,0.146,0.584,0.438,0.736
				c0.291,0.16,1.322,0.434,3.09,0.82c1.18,0.277,2.064,0.697,2.652,1.258c0.582,0.566,0.873,1.277,0.873,2.129
				c0,1.121-0.418,2.037-1.254,2.746c-0.836,0.711-2.129,1.066-3.877,1.066c-1.783,0-3.1-0.377-3.949-1.127
				c-0.852-0.752-1.275-1.709-1.275-2.873H107.941z"/>
			<path fill="#29ABE2" d="M116.312,415.411v-2.109h1.578v-3.156h2.93v3.156h1.838v2.109h-1.838v5.982
				c0,0.465,0.059,0.754,0.176,0.867c0.119,0.115,0.479,0.172,1.08,0.172c0.09,0,0.186-0.002,0.287-0.006
				c0.1-0.004,0.197-0.008,0.295-0.016v2.213l-1.402,0.053c-1.398,0.047-2.354-0.195-2.867-0.729
				c-0.332-0.338-0.498-0.861-0.498-1.568v-6.969H116.312z"/>
			<path fill="#29ABE2" d="M129.043,417.633c0.551-0.068,0.945-0.156,1.184-0.26c0.426-0.18,0.637-0.461,0.637-0.842
				c0-0.463-0.162-0.783-0.488-0.961c-0.326-0.176-0.807-0.264-1.438-0.264c-0.709,0-1.211,0.172-1.506,0.52
				c-0.211,0.256-0.352,0.602-0.42,1.037h-2.857c0.062-0.988,0.342-1.803,0.834-2.439c0.787-0.998,2.135-1.496,4.049-1.496
				c1.244,0,2.35,0.246,3.316,0.738c0.967,0.49,1.449,1.418,1.449,2.783v5.193c0,0.359,0.008,0.795,0.021,1.309
				c0.021,0.387,0.08,0.65,0.176,0.789c0.098,0.139,0.244,0.252,0.438,0.342v0.438h-3.221c-0.09-0.229-0.152-0.443-0.186-0.645
				c-0.035-0.201-0.062-0.43-0.084-0.686c-0.41,0.443-0.885,0.82-1.42,1.133c-0.643,0.367-1.365,0.551-2.174,0.551
				c-1.031,0-1.883-0.293-2.555-0.879c-0.672-0.584-1.008-1.414-1.008-2.486c0-1.393,0.541-2.4,1.621-3.023
				c0.594-0.34,1.465-0.582,2.617-0.727L129.043,417.633z M130.854,419.014c-0.189,0.119-0.381,0.213-0.574,0.287
				c-0.193,0.072-0.457,0.139-0.795,0.201l-0.674,0.125c-0.631,0.111-1.084,0.246-1.359,0.404c-0.467,0.271-0.699,0.689-0.699,1.258
				c0,0.506,0.141,0.871,0.426,1.096s0.631,0.338,1.039,0.338c0.646,0,1.242-0.188,1.787-0.561c0.545-0.375,0.828-1.057,0.85-2.047
				V419.014z"/>
			<path fill="#29ABE2" d="M142.678,412.934c0.039,0.004,0.123,0.008,0.256,0.016v3.031c-0.188-0.02-0.354-0.033-0.498-0.041
				c-0.146-0.006-0.264-0.01-0.354-0.01c-1.191,0-1.992,0.387-2.4,1.162c-0.229,0.438-0.342,1.109-0.342,2.016v5.412h-2.98v-11.322
				h2.824v1.975c0.457-0.756,0.855-1.271,1.195-1.549c0.553-0.463,1.273-0.695,2.16-0.695
				C142.594,412.928,142.641,412.93,142.678,412.934z"/>
			<path fill="#29ABE2" d="M143.504,415.411v-2.109h1.58v-3.156h2.928v3.156h1.84v2.109h-1.84v5.982
				c0,0.465,0.059,0.754,0.178,0.867c0.117,0.115,0.477,0.172,1.08,0.172c0.09,0,0.186-0.002,0.285-0.006s0.199-0.008,0.297-0.016
				v2.213l-1.402,0.053c-1.398,0.047-2.355-0.195-2.867-0.729c-0.332-0.338-0.498-0.861-0.498-1.568v-6.969H143.504z"/>
			<path fill="#29ABE2" d="M159.957,420.905c0.062,0.527,0.197,0.9,0.406,1.121c0.369,0.396,1.051,0.594,2.045,0.594
				c0.586,0,1.049-0.088,1.395-0.26c0.344-0.174,0.516-0.434,0.516-0.779c0-0.332-0.139-0.586-0.416-0.758
				c-0.277-0.174-1.309-0.471-3.096-0.895c-1.287-0.318-2.193-0.717-2.719-1.193c-0.527-0.471-0.791-1.15-0.791-2.037
				c0-1.045,0.412-1.943,1.234-2.695c0.822-0.75,1.979-1.127,3.471-1.127c1.416,0,2.57,0.283,3.461,0.848
				c0.893,0.564,1.404,1.539,1.535,2.924h-2.959c-0.043-0.381-0.15-0.682-0.324-0.904c-0.326-0.4-0.881-0.602-1.666-0.602
				c-0.645,0-1.105,0.1-1.379,0.301c-0.275,0.201-0.412,0.436-0.412,0.707c0,0.338,0.146,0.584,0.438,0.736
				c0.291,0.16,1.322,0.434,3.09,0.82c1.18,0.277,2.064,0.697,2.652,1.258c0.582,0.566,0.873,1.277,0.873,2.129
				c0,1.121-0.418,2.037-1.254,2.746c-0.836,0.711-2.129,1.066-3.877,1.066c-1.783,0-3.1-0.377-3.949-1.127
				c-0.852-0.752-1.275-1.709-1.275-2.873H159.957z"/>
			<path fill="#29ABE2" d="M176.869,413.428c0.789,0.354,1.441,0.912,1.955,1.674c0.465,0.674,0.766,1.453,0.902,2.342
				c0.08,0.52,0.113,1.268,0.098,2.246h-8.246c0.047,1.135,0.441,1.932,1.186,2.389c0.451,0.283,0.996,0.426,1.631,0.426
				c0.674,0,1.223-0.172,1.645-0.52c0.229-0.188,0.432-0.445,0.609-0.779h3.021c-0.08,0.672-0.445,1.355-1.098,2.047
				c-1.014,1.102-2.434,1.652-4.26,1.652c-1.506,0-2.836-0.465-3.986-1.395c-1.152-0.928-1.729-2.439-1.729-4.531
				c0-1.961,0.52-3.465,1.561-4.512c1.039-1.047,2.389-1.57,4.047-1.57C175.191,412.897,176.078,413.075,176.869,413.428z
				 M172.439,415.985c-0.418,0.432-0.68,1.016-0.787,1.752h5.1c-0.055-0.785-0.316-1.381-0.789-1.789
				c-0.473-0.406-1.057-0.609-1.756-0.609C173.447,415.338,172.859,415.553,172.439,415.985z"/>
			<path fill="#29ABE2" d="M184.344,424.52h-2.961v-15.311h2.961V424.52z"/>
			<path fill="#29ABE2" d="M190.254,424.52h-2.961v-15.311h2.961V424.52z"/>
			<path fill="#29ABE2" d="M196.184,411.848h-3.002v-2.732h3.002V411.848z M193.182,413.198h3.002v11.322h-3.002V413.198z"/>
			<path fill="#29ABE2" d="M208.18,413.848c0.742,0.611,1.111,1.629,1.111,3.047v7.625h-3.031v-6.887
				c0-0.596-0.08-1.053-0.238-1.371c-0.289-0.582-0.838-0.873-1.648-0.873c-0.998,0-1.682,0.426-2.053,1.277
				c-0.191,0.451-0.289,1.025-0.289,1.725v6.129h-2.959v-11.301h2.865v1.65c0.379-0.58,0.738-1,1.076-1.256
				c0.607-0.457,1.375-0.686,2.307-0.686C206.486,412.928,207.439,413.235,208.18,413.848z"/>
			<path fill="#29ABE2" d="M217.645,413.188c0.719,0.297,1.301,0.846,1.742,1.641v-1.631h2.889v10.74
				c0,1.461-0.246,2.562-0.738,3.303c-0.846,1.273-2.465,1.912-4.861,1.912c-1.447,0-2.627-0.285-3.541-0.854
				c-0.914-0.566-1.42-1.416-1.518-2.543h3.221c0.084,0.346,0.219,0.594,0.404,0.746c0.318,0.271,0.855,0.406,1.611,0.406
				c1.066,0,1.779-0.357,2.139-1.07c0.236-0.457,0.354-1.225,0.354-2.305v-0.729c-0.283,0.484-0.588,0.85-0.914,1.092
				c-0.588,0.449-1.354,0.674-2.295,0.674c-1.455,0-2.617-0.51-3.484-1.531c-0.869-1.021-1.305-2.404-1.305-4.15
				c0-1.682,0.418-3.096,1.256-4.242c0.836-1.146,2.023-1.719,3.559-1.719C216.729,412.928,217.223,413.014,217.645,413.188z
				 M218.652,421.305c0.477-0.523,0.715-1.355,0.715-2.498c0-1.074-0.227-1.891-0.678-2.451c-0.453-0.561-1.057-0.842-1.816-0.842
				c-1.033,0-1.748,0.488-2.141,1.465c-0.207,0.52-0.311,1.16-0.311,1.922c0,0.658,0.111,1.242,0.332,1.756
				c0.398,0.955,1.117,1.432,2.15,1.432C217.594,422.088,218.178,421.829,218.652,421.305z"/>
			<path fill="#29ABE2" d="M225.992,409.262h3.252v3.881l-0.842,7.139h-1.547l-0.863-7.139V409.262z M226.064,421.518h3.107v3.002
				h-3.107V421.518z"/>
		</g>
	</g>
	<g>
		<g>
			<path fill="#29ABE2" d="M71.439,48.964c0.924,0.977,1.385,2.41,1.385,4.301c0,1.994-0.451,3.514-1.354,4.56
				c-0.902,1.045-2.064,1.568-3.486,1.568c-0.906,0-1.658-0.226-2.258-0.676c-0.328-0.249-0.648-0.612-0.961-1.09v5.899h-2.93
				V47.749h2.836v1.672c0.32-0.491,0.662-0.879,1.023-1.163c0.662-0.505,1.449-0.758,2.363-0.758
				C69.389,47.5,70.516,47.988,71.439,48.964z M69.168,51.094c-0.402-0.672-1.055-1.008-1.957-1.008
				c-1.084,0-1.83,0.509-2.234,1.527c-0.211,0.54-0.316,1.226-0.316,2.056c0,1.316,0.354,2.24,1.061,2.773
				c0.418,0.312,0.916,0.468,1.49,0.468c0.832,0,1.467-0.318,1.904-0.956c0.438-0.637,0.656-1.485,0.656-2.544
				C69.771,52.537,69.57,51.766,69.168,51.094z"/>
			<path fill="#29ABE2" d="M77.955,46.398h-3.002v-2.731h3.002V46.398z M74.953,47.749h3.002V59.07h-3.002V47.749z"/>
			<path fill="#29ABE2" d="M87.594,51.811c-0.055-0.423-0.197-0.804-0.426-1.143c-0.334-0.457-0.852-0.686-1.553-0.686
				c-0.998,0-1.682,0.495-2.051,1.485c-0.193,0.524-0.291,1.223-0.291,2.093c0,0.828,0.098,1.495,0.291,1.999
				c0.354,0.941,1.021,1.413,2,1.413c0.693,0,1.188-0.188,1.479-0.562s0.469-0.858,0.531-1.454h3.021
				c-0.068,0.9-0.395,1.752-0.977,2.556c-0.93,1.295-2.305,1.942-4.129,1.942c-1.822,0-3.164-0.541-4.023-1.621
				s-1.289-2.48-1.289-4.201c0-1.942,0.475-3.453,1.426-4.533c0.949-1.08,2.258-1.62,3.93-1.62c1.42,0,2.582,0.318,3.488,0.955
				c0.904,0.637,1.439,1.763,1.605,3.376H87.594z"/>
			<path fill="#29ABE2" d="M92.621,43.812h2.908v8.259l3.734-4.271h3.68l-4.057,4.218l4.215,7.052h-3.604l-2.742-4.837l-1.227,1.274
				v3.562h-2.908V43.812z"/>
			<path fill="#29ABE2" d="M114.877,52.185c0.551-0.069,0.945-0.156,1.182-0.26c0.426-0.181,0.639-0.461,0.639-0.842
				c0-0.464-0.164-0.784-0.49-0.961c-0.326-0.176-0.805-0.265-1.438-0.265c-0.707,0-1.209,0.173-1.504,0.52
				c-0.211,0.256-0.352,0.603-0.422,1.038h-2.855c0.062-0.989,0.34-1.803,0.834-2.44c0.785-0.997,2.135-1.495,4.047-1.495
				c1.244,0,2.352,0.245,3.318,0.737c0.965,0.491,1.449,1.419,1.449,2.783v5.193c0,0.36,0.006,0.796,0.021,1.309
				c0.02,0.388,0.078,0.651,0.176,0.789c0.098,0.139,0.242,0.253,0.436,0.343v0.437h-3.219c-0.09-0.229-0.152-0.443-0.188-0.644
				c-0.035-0.201-0.062-0.43-0.082-0.686c-0.412,0.442-0.885,0.82-1.422,1.132c-0.641,0.367-1.365,0.551-2.174,0.551
				c-1.029,0-1.881-0.293-2.553-0.878s-1.008-1.414-1.008-2.487c0-1.393,0.539-2.399,1.621-3.022
				c0.592-0.34,1.465-0.582,2.615-0.728L114.877,52.185z M116.688,53.565c-0.189,0.118-0.381,0.213-0.574,0.286
				c-0.193,0.072-0.459,0.14-0.795,0.202l-0.674,0.125c-0.633,0.11-1.086,0.245-1.361,0.404c-0.467,0.271-0.699,0.689-0.699,1.257
				c0,0.506,0.143,0.871,0.428,1.096c0.285,0.226,0.631,0.338,1.039,0.338c0.646,0,1.242-0.187,1.787-0.561s0.828-1.056,0.85-2.047
				V53.565z"/>
			<path fill="#29ABE2" d="M133.734,47.738c0.719,0.298,1.299,0.846,1.742,1.642v-1.631h2.887v10.739
				c0,1.461-0.246,2.562-0.736,3.304c-0.846,1.273-2.467,1.911-4.861,1.911c-1.447,0-2.629-0.284-3.543-0.853
				c-0.914-0.567-1.418-1.416-1.516-2.544h3.221c0.082,0.346,0.217,0.595,0.404,0.747c0.318,0.271,0.855,0.405,1.609,0.405
				c1.066,0,1.779-0.356,2.141-1.069c0.234-0.457,0.352-1.226,0.352-2.306v-0.728c-0.283,0.484-0.588,0.849-0.912,1.091
				c-0.59,0.45-1.355,0.675-2.297,0.675c-1.453,0-2.615-0.511-3.484-1.532c-0.869-1.021-1.303-2.404-1.303-4.149
				c0-1.683,0.418-3.097,1.254-4.242c0.838-1.146,2.023-1.719,3.559-1.719C132.816,47.479,133.311,47.565,133.734,47.738z
				 M134.742,55.855c0.475-0.522,0.713-1.355,0.713-2.498c0-1.073-0.227-1.89-0.678-2.451c-0.451-0.561-1.057-0.841-1.814-0.841
				c-1.035,0-1.748,0.488-2.141,1.464c-0.207,0.52-0.311,1.16-0.311,1.922c0,0.658,0.109,1.243,0.33,1.756
				c0.4,0.955,1.117,1.433,2.152,1.433C133.684,56.64,134.266,56.379,134.742,55.855z"/>
			<path fill="#29ABE2" d="M147.414,47.484c0.039,0.004,0.123,0.009,0.256,0.016v3.032c-0.188-0.021-0.354-0.034-0.498-0.041
				c-0.146-0.007-0.264-0.011-0.354-0.011c-1.191,0-1.992,0.388-2.4,1.163c-0.229,0.437-0.342,1.108-0.342,2.016v5.411h-2.98V47.749
				h2.824v1.974c0.457-0.755,0.855-1.271,1.195-1.548c0.553-0.464,1.273-0.695,2.16-0.695
				C147.33,47.479,147.377,47.48,147.414,47.484z"/>
			<path fill="#29ABE2" d="M156.781,47.979c0.789,0.354,1.441,0.912,1.955,1.675c0.465,0.673,0.766,1.453,0.902,2.341
				c0.08,0.52,0.113,1.269,0.098,2.246h-8.246c0.047,1.136,0.441,1.933,1.186,2.39c0.451,0.283,0.996,0.426,1.631,0.426
				c0.674,0,1.223-0.173,1.645-0.52c0.229-0.188,0.432-0.446,0.609-0.779h3.021c-0.08,0.672-0.445,1.354-1.098,2.046
				c-1.014,1.102-2.434,1.652-4.26,1.652c-1.506,0-2.836-0.465-3.986-1.394c-1.152-0.929-1.729-2.439-1.729-4.532
				c0-1.961,0.52-3.465,1.561-4.512c1.039-1.046,2.389-1.569,4.047-1.569C155.104,47.448,155.99,47.625,156.781,47.979z
				 M152.352,50.535c-0.418,0.432-0.68,1.016-0.787,1.753h5.1c-0.055-0.786-0.316-1.382-0.789-1.789s-1.057-0.61-1.756-0.61
				C153.359,49.889,152.771,50.104,152.352,50.535z"/>
			<path fill="#29ABE2" d="M165.717,52.185c0.551-0.069,0.945-0.156,1.184-0.26c0.426-0.181,0.637-0.461,0.637-0.842
				c0-0.464-0.162-0.784-0.488-0.961c-0.326-0.176-0.807-0.265-1.438-0.265c-0.709,0-1.211,0.173-1.506,0.52
				c-0.211,0.256-0.352,0.603-0.42,1.038h-2.857c0.062-0.989,0.342-1.803,0.834-2.44c0.787-0.997,2.135-1.495,4.049-1.495
				c1.244,0,2.35,0.245,3.316,0.737c0.967,0.491,1.449,1.419,1.449,2.783v5.193c0,0.36,0.008,0.796,0.021,1.309
				c0.021,0.388,0.08,0.651,0.176,0.789c0.098,0.139,0.244,0.253,0.438,0.343v0.437h-3.221c-0.09-0.229-0.152-0.443-0.186-0.644
				c-0.035-0.201-0.062-0.43-0.084-0.686c-0.41,0.442-0.885,0.82-1.42,1.132c-0.643,0.367-1.365,0.551-2.174,0.551
				c-1.031,0-1.883-0.293-2.555-0.878s-1.008-1.414-1.008-2.487c0-1.393,0.541-2.399,1.621-3.022
				c0.594-0.34,1.465-0.582,2.617-0.728L165.717,52.185z M167.527,53.565c-0.189,0.118-0.381,0.213-0.574,0.286
				c-0.193,0.072-0.457,0.14-0.795,0.202l-0.674,0.125c-0.631,0.11-1.084,0.245-1.359,0.404c-0.467,0.271-0.699,0.689-0.699,1.257
				c0,0.506,0.141,0.871,0.426,1.096c0.285,0.226,0.631,0.338,1.039,0.338c0.646,0,1.242-0.187,1.787-0.561s0.828-1.056,0.85-2.047
				V53.565z"/>
			<path fill="#29ABE2" d="M171.9,49.961v-2.108h1.578v-3.157h2.93v3.157h1.838v2.108h-1.838v5.983c0,0.464,0.059,0.753,0.176,0.867
				c0.119,0.114,0.479,0.171,1.08,0.171c0.09,0,0.186-0.001,0.287-0.005c0.1-0.004,0.197-0.009,0.295-0.016v2.212l-1.402,0.053
				c-1.398,0.048-2.354-0.194-2.867-0.728c-0.332-0.339-0.498-0.862-0.498-1.568v-6.97H171.9z"/>
			<path fill="#29ABE2" d="M188.354,55.456c0.062,0.526,0.197,0.9,0.406,1.121c0.369,0.396,1.051,0.593,2.045,0.593
				c0.586,0,1.049-0.087,1.395-0.26c0.344-0.173,0.516-0.433,0.516-0.779c0-0.332-0.139-0.585-0.416-0.758s-1.309-0.471-3.096-0.894
				c-1.287-0.318-2.193-0.717-2.719-1.194c-0.527-0.471-0.791-1.149-0.791-2.036c0-1.045,0.412-1.943,1.234-2.695
				c0.822-0.751,1.979-1.127,3.471-1.127c1.416,0,2.57,0.282,3.461,0.847c0.893,0.564,1.404,1.539,1.535,2.924h-2.959
				c-0.043-0.381-0.15-0.682-0.324-0.903c-0.326-0.401-0.881-0.603-1.666-0.603c-0.645,0-1.105,0.101-1.379,0.301
				c-0.275,0.201-0.412,0.437-0.412,0.707c0,0.339,0.146,0.585,0.438,0.737c0.291,0.159,1.322,0.433,3.09,0.82
				c1.18,0.277,2.064,0.696,2.652,1.257c0.582,0.567,0.873,1.277,0.873,2.129c0,1.122-0.418,2.038-1.254,2.747
				c-0.836,0.71-2.129,1.065-3.877,1.065c-1.783,0-3.1-0.376-3.949-1.127c-0.852-0.752-1.275-1.709-1.275-2.872H188.354z"/>
			<path fill="#29ABE2" d="M206.023,47.812c0.568,0.243,1.037,0.613,1.402,1.112c0.311,0.423,0.5,0.858,0.568,1.305
				c0.068,0.447,0.104,1.177,0.104,2.188v6.653h-3.023v-6.894c0-0.61-0.102-1.103-0.309-1.477c-0.268-0.527-0.777-0.791-1.525-0.791
				c-0.777,0-1.367,0.262-1.768,0.785c-0.402,0.523-0.604,1.271-0.604,2.241v6.135h-2.961V43.812h2.961v5.401
				c0.428-0.658,0.922-1.117,1.484-1.377c0.561-0.259,1.152-0.389,1.773-0.389C204.822,47.448,205.455,47.569,206.023,47.812z"/>
			<path fill="#29ABE2" d="M220.322,57.686c-0.955,1.18-2.406,1.77-4.352,1.77s-3.396-0.59-4.352-1.77
				c-0.957-1.18-1.434-2.6-1.434-4.261c0-1.632,0.477-3.047,1.434-4.244c0.955-1.196,2.406-1.795,4.352-1.795
				s3.396,0.599,4.352,1.795c0.955,1.197,1.434,2.612,1.434,4.244C221.756,55.086,221.277,56.506,220.322,57.686z M217.953,56.05
				c0.465-0.616,0.697-1.49,0.697-2.625c0-1.134-0.232-2.007-0.697-2.618c-0.463-0.612-1.127-0.918-1.994-0.918
				c-0.865,0-1.531,0.306-1.998,0.918c-0.469,0.611-0.701,1.484-0.701,2.618c0,1.135,0.232,2.009,0.701,2.625
				c0.467,0.615,1.133,0.923,1.998,0.923C216.826,56.973,217.49,56.665,217.953,56.05z"/>
			<path fill="#29ABE2" d="M222.711,49.961v-2.108h1.578v-3.157h2.93v3.157h1.838v2.108h-1.838v5.983
				c0,0.464,0.059,0.753,0.176,0.867c0.119,0.114,0.479,0.171,1.08,0.171c0.09,0,0.186-0.001,0.287-0.005
				c0.1-0.004,0.197-0.009,0.295-0.016v2.212l-1.402,0.053c-1.398,0.048-2.354-0.194-2.867-0.728
				c-0.332-0.339-0.498-0.862-0.498-1.568v-6.97H222.711z"/>
		</g>
	</g>
	<g>
		<g>
			<path fill="#FFFFFF" d="M36.318,35.823v-3.222c1.49-0.066,2.533-0.166,3.129-0.299c0.951-0.21,1.723-0.631,2.32-1.262
				c0.408-0.432,0.717-1.008,0.928-1.728c0.121-0.432,0.182-0.752,0.182-0.963h3.951v24.078H41.98V35.823H36.318z"/>
		</g>
	</g>
	<g>
		<g>
			<path fill="#FFFFFF" d="M36.135,142.527c0.676-1.605,2.27-3.305,4.783-5.098c2.18-1.562,3.592-2.68,4.234-3.354
				c0.984-1.052,1.477-2.203,1.477-3.454c0-1.019-0.281-1.865-0.846-2.541c-0.564-0.675-1.373-1.013-2.426-1.013
				c-1.439,0-2.418,0.537-2.938,1.611c-0.301,0.62-0.477,1.604-0.533,2.955h-4.6c0.078-2.048,0.449-3.703,1.115-4.965
				c1.262-2.402,3.506-3.604,6.73-3.604c2.549,0,4.578,0.706,6.084,2.117c1.508,1.412,2.262,3.279,2.262,5.604
				c0,1.782-0.533,3.365-1.598,4.749c-0.699,0.919-1.846,1.943-3.443,3.072l-1.896,1.345c-1.188,0.842-2,1.45-2.438,1.827
				c-0.436,0.376-0.805,0.813-1.104,1.312h10.512v4.168h-16.49C35.066,145.533,35.438,143.955,36.135,142.527z"/>
		</g>
	</g>
	<g>
		<g>
			<path fill="#FFFFFF" d="M39.506,284.202c0,0.963,0.154,1.76,0.463,2.391c0.574,1.162,1.619,1.744,3.131,1.744
				c0.93,0,1.738-0.318,2.428-0.955s1.035-1.553,1.035-2.748c0-1.584-0.639-2.641-1.92-3.172c-0.729-0.299-1.877-0.449-3.443-0.449
				v-3.387c1.533-0.021,2.604-0.172,3.211-0.447c1.047-0.467,1.572-1.406,1.572-2.824c0-0.918-0.268-1.666-0.805-2.242
				c-0.535-0.574-1.289-0.863-2.26-0.863c-1.115,0-1.936,0.355-2.459,1.062c-0.525,0.709-0.775,1.656-0.754,2.84h-4.418
				c0.045-1.195,0.25-2.33,0.615-3.404c0.387-0.939,0.994-1.809,1.824-2.605c0.619-0.566,1.354-0.998,2.205-1.297
				s1.896-0.447,3.137-0.447c2.299,0,4.154,0.596,5.564,1.785s2.115,2.787,2.115,4.791c0,1.416-0.422,2.611-1.262,3.586
				c-0.531,0.609-1.086,1.023-1.662,1.246c0.432,0,1.053,0.371,1.861,1.111c1.205,1.119,1.809,2.646,1.809,4.584
				c0,2.037-0.705,3.828-2.115,5.371c-1.41,1.545-3.496,2.316-6.262,2.316c-3.406,0-5.773-1.111-7.1-3.338
				c-0.697-1.184-1.084-2.732-1.162-4.648H39.506z"/>
		</g>
	</g>
	<g>
		<g>
			<path fill="#FFFFFF" d="M51.744,408.69h-2.723v5.182h-4.633v-5.182h-9.533v-4.135l8.852-14.613h5.314v15.045h2.723V408.69z
				 M44.389,404.987v-10.371l-6.012,10.371H44.389z"/>
		</g>
	</g>
	<g>
		<g>
			<path fill="#29ABE2" d="M71.439,290.372c0.924,0.977,1.385,2.41,1.385,4.301c0,1.994-0.451,3.514-1.354,4.561
				c-0.902,1.045-2.064,1.568-3.486,1.568c-0.906,0-1.658-0.227-2.258-0.676c-0.328-0.25-0.648-0.613-0.961-1.09v5.898h-2.93
				v-15.777h2.836v1.672c0.32-0.49,0.662-0.879,1.023-1.162c0.662-0.506,1.449-0.758,2.363-0.758
				C69.389,288.909,70.516,289.397,71.439,290.372z M69.168,292.502c-0.402-0.672-1.055-1.008-1.957-1.008
				c-1.084,0-1.83,0.508-2.234,1.527c-0.211,0.539-0.316,1.225-0.316,2.055c0,1.316,0.354,2.24,1.061,2.773
				c0.418,0.312,0.916,0.469,1.49,0.469c0.832,0,1.467-0.318,1.904-0.957c0.438-0.637,0.656-1.484,0.656-2.543
				C69.771,293.946,69.57,293.174,69.168,292.502z"/>
			<path fill="#29ABE2" d="M77.955,287.807h-3.002v-2.732h3.002V287.807z M74.953,289.157h3.002v11.322h-3.002V289.157z"/>
			<path fill="#29ABE2" d="M87.594,293.219c-0.055-0.424-0.197-0.805-0.426-1.143c-0.334-0.457-0.852-0.686-1.553-0.686
				c-0.998,0-1.682,0.494-2.051,1.484c-0.193,0.525-0.291,1.223-0.291,2.094c0,0.828,0.098,1.494,0.291,1.998
				c0.354,0.941,1.021,1.414,2,1.414c0.693,0,1.188-0.188,1.479-0.562c0.291-0.373,0.469-0.857,0.531-1.453h3.021
				c-0.068,0.9-0.395,1.752-0.977,2.555c-0.93,1.295-2.305,1.943-4.129,1.943c-1.822,0-3.164-0.541-4.023-1.621
				s-1.289-2.48-1.289-4.201c0-1.943,0.475-3.453,1.426-4.533c0.949-1.08,2.258-1.621,3.93-1.621c1.42,0,2.582,0.318,3.488,0.955
				c0.904,0.637,1.439,1.764,1.605,3.377H87.594z"/>
			<path fill="#29ABE2" d="M92.621,285.221h2.908v8.258l3.734-4.27h3.68l-4.057,4.217l4.215,7.053h-3.604l-2.742-4.838l-1.227,1.275
				v3.562h-2.908V285.221z"/>
			<path fill="#29ABE2" d="M114.877,293.592c0.551-0.068,0.945-0.156,1.182-0.26c0.426-0.18,0.639-0.461,0.639-0.842
				c0-0.463-0.164-0.783-0.49-0.961c-0.326-0.176-0.805-0.264-1.438-0.264c-0.707,0-1.209,0.172-1.504,0.52
				c-0.211,0.256-0.352,0.602-0.422,1.037h-2.855c0.062-0.988,0.34-1.803,0.834-2.439c0.785-0.998,2.135-1.496,4.047-1.496
				c1.244,0,2.352,0.246,3.318,0.738c0.965,0.49,1.449,1.418,1.449,2.783v5.193c0,0.359,0.006,0.795,0.021,1.309
				c0.02,0.387,0.078,0.65,0.176,0.789s0.242,0.252,0.436,0.342v0.438h-3.219c-0.09-0.229-0.152-0.443-0.188-0.645
				s-0.062-0.43-0.082-0.686c-0.412,0.443-0.885,0.82-1.422,1.133c-0.641,0.367-1.365,0.551-2.174,0.551
				c-1.029,0-1.881-0.293-2.553-0.879c-0.672-0.584-1.008-1.414-1.008-2.486c0-1.393,0.539-2.4,1.621-3.023
				c0.592-0.34,1.465-0.582,2.615-0.727L114.877,293.592z M116.688,294.973c-0.189,0.119-0.381,0.213-0.574,0.287
				c-0.193,0.072-0.459,0.139-0.795,0.201l-0.674,0.125c-0.633,0.111-1.086,0.246-1.361,0.404c-0.467,0.271-0.699,0.689-0.699,1.258
				c0,0.506,0.143,0.871,0.428,1.096s0.631,0.338,1.039,0.338c0.646,0,1.242-0.188,1.787-0.561c0.545-0.375,0.828-1.057,0.85-2.047
				V294.973z"/>
			<path fill="#29ABE2" d="M137.654,290.372c0.922,0.977,1.385,2.41,1.385,4.301c0,1.994-0.451,3.514-1.354,4.561
				c-0.902,1.045-2.064,1.568-3.486,1.568c-0.906,0-1.66-0.227-2.258-0.676c-0.328-0.25-0.648-0.613-0.963-1.09v5.898h-2.93v-15.777
				h2.836v1.672c0.32-0.49,0.662-0.879,1.025-1.162c0.662-0.506,1.449-0.758,2.361-0.758
				C135.604,288.909,136.73,289.397,137.654,290.372z M135.381,292.502c-0.402-0.672-1.055-1.008-1.957-1.008
				c-1.084,0-1.828,0.508-2.234,1.527c-0.209,0.539-0.314,1.225-0.314,2.055c0,1.316,0.354,2.24,1.059,2.773
				c0.42,0.312,0.916,0.469,1.49,0.469c0.832,0,1.469-0.318,1.904-0.957c0.438-0.637,0.656-1.484,0.656-2.543
				C135.984,293.946,135.783,293.174,135.381,292.502z"/>
			<path fill="#29ABE2" d="M147.414,288.893c0.039,0.004,0.123,0.008,0.256,0.016v3.031c-0.188-0.02-0.354-0.033-0.498-0.041
				c-0.146-0.006-0.264-0.01-0.354-0.01c-1.191,0-1.992,0.387-2.4,1.162c-0.229,0.438-0.342,1.109-0.342,2.016v5.412h-2.98v-11.322
				h2.824v1.975c0.457-0.756,0.855-1.271,1.195-1.549c0.553-0.463,1.273-0.695,2.16-0.695
				C147.33,288.887,147.377,288.889,147.414,288.893z"/>
			<path fill="#29ABE2" d="M152.447,287.807h-3.002v-2.732h3.002V287.807z M149.445,289.157h3.002v11.322h-3.002V289.157z"/>
			<path fill="#29ABE2" d="M162.086,293.219c-0.057-0.424-0.199-0.805-0.428-1.143c-0.332-0.457-0.85-0.686-1.551-0.686
				c-1,0-1.684,0.494-2.051,1.484c-0.195,0.525-0.291,1.223-0.291,2.094c0,0.828,0.096,1.494,0.291,1.998
				c0.354,0.941,1.02,1.414,1.998,1.414c0.695,0,1.188-0.188,1.479-0.562c0.291-0.373,0.469-0.857,0.531-1.453h3.023
				c-0.07,0.9-0.396,1.752-0.979,2.555c-0.928,1.295-2.305,1.943-4.127,1.943s-3.164-0.541-4.023-1.621s-1.289-2.48-1.289-4.201
				c0-1.943,0.475-3.453,1.424-4.533s2.26-1.621,3.93-1.621c1.422,0,2.584,0.318,3.488,0.955s1.439,1.764,1.607,3.377H162.086z"/>
			<path fill="#29ABE2" d="M174.521,289.387c0.789,0.354,1.441,0.912,1.955,1.674c0.465,0.674,0.766,1.453,0.902,2.342
				c0.08,0.52,0.113,1.268,0.098,2.246h-8.246c0.047,1.135,0.441,1.932,1.186,2.389c0.451,0.283,0.996,0.426,1.631,0.426
				c0.674,0,1.223-0.172,1.645-0.52c0.229-0.188,0.432-0.445,0.609-0.779h3.021c-0.08,0.672-0.445,1.355-1.098,2.047
				c-1.014,1.102-2.434,1.652-4.26,1.652c-1.506,0-2.836-0.465-3.986-1.395c-1.152-0.928-1.729-2.439-1.729-4.531
				c0-1.961,0.52-3.465,1.561-4.512c1.039-1.047,2.389-1.57,4.047-1.57C172.844,288.856,173.73,289.034,174.521,289.387z
				 M170.092,291.944c-0.418,0.432-0.68,1.016-0.787,1.752h5.1c-0.055-0.785-0.316-1.381-0.789-1.789
				c-0.473-0.406-1.057-0.609-1.756-0.609C171.1,291.297,170.512,291.512,170.092,291.944z"/>
		</g>
	</g>
	<g>
		<g>
			<path fill="#29ABE2" d="M68.691,144.723c-0.057-0.423-0.199-0.804-0.428-1.143c-0.332-0.457-0.85-0.686-1.551-0.686
				c-1,0-1.684,0.495-2.051,1.485c-0.195,0.524-0.291,1.223-0.291,2.093c0,0.828,0.096,1.495,0.291,1.999
				c0.354,0.941,1.02,1.413,1.998,1.413c0.695,0,1.188-0.188,1.479-0.562s0.469-0.858,0.531-1.454h3.023
				c-0.07,0.9-0.396,1.752-0.979,2.556c-0.928,1.295-2.305,1.942-4.127,1.942s-3.164-0.541-4.023-1.621s-1.289-2.48-1.289-4.201
				c0-1.942,0.475-3.453,1.424-4.533s2.26-1.62,3.93-1.62c1.422,0,2.584,0.318,3.488,0.955s1.439,1.763,1.607,3.376H68.691z"/>
			<path fill="#29ABE2" d="M81.885,140.724c0.568,0.243,1.037,0.613,1.402,1.112c0.311,0.423,0.5,0.858,0.568,1.305
				c0.068,0.447,0.104,1.177,0.104,2.188v6.653h-3.023v-6.894c0-0.61-0.102-1.103-0.309-1.477c-0.268-0.527-0.777-0.791-1.525-0.791
				c-0.777,0-1.367,0.262-1.768,0.785c-0.402,0.523-0.604,1.271-0.604,2.241v6.135H73.77v-15.258h2.961v5.401
				c0.428-0.658,0.922-1.117,1.484-1.377c0.561-0.259,1.152-0.389,1.773-0.389C80.684,140.36,81.316,140.481,81.885,140.724z"/>
			<path fill="#29ABE2" d="M96.184,150.598c-0.955,1.18-2.406,1.77-4.352,1.77s-3.396-0.59-4.352-1.77
				c-0.957-1.18-1.434-2.6-1.434-4.261c0-1.632,0.477-3.047,1.434-4.244c0.955-1.196,2.406-1.795,4.352-1.795
				s3.396,0.599,4.352,1.795c0.955,1.197,1.434,2.612,1.434,4.244C97.617,147.998,97.139,149.418,96.184,150.598z M93.814,148.962
				c0.465-0.616,0.697-1.49,0.697-2.625c0-1.134-0.232-2.007-0.697-2.618c-0.463-0.612-1.127-0.918-1.994-0.918
				c-0.865,0-1.531,0.306-1.998,0.918c-0.469,0.611-0.701,1.484-0.701,2.618c0,1.135,0.232,2.009,0.701,2.625
				c0.467,0.615,1.133,0.923,1.998,0.923C92.688,149.885,93.352,149.577,93.814,148.962z"/>
			<path fill="#29ABE2" d="M109.178,150.598c-0.955,1.18-2.406,1.77-4.352,1.77s-3.396-0.59-4.352-1.77
				c-0.957-1.18-1.434-2.6-1.434-4.261c0-1.632,0.477-3.047,1.434-4.244c0.955-1.196,2.406-1.795,4.352-1.795
				s3.396,0.599,4.352,1.795c0.955,1.197,1.434,2.612,1.434,4.244C110.611,147.998,110.133,149.418,109.178,150.598z
				 M106.809,148.962c0.465-0.616,0.697-1.49,0.697-2.625c0-1.134-0.232-2.007-0.697-2.618c-0.463-0.612-1.127-0.918-1.994-0.918
				c-0.865,0-1.531,0.306-1.998,0.918c-0.469,0.611-0.701,1.484-0.701,2.618c0,1.135,0.232,2.009,0.701,2.625
				c0.467,0.615,1.133,0.923,1.998,0.923C105.682,149.885,106.346,149.577,106.809,148.962z"/>
			<path fill="#29ABE2" d="M115.025,148.368c0.062,0.526,0.197,0.9,0.406,1.121c0.369,0.396,1.051,0.593,2.045,0.593
				c0.586,0,1.049-0.087,1.395-0.26c0.344-0.173,0.516-0.433,0.516-0.779c0-0.332-0.139-0.585-0.416-0.758s-1.309-0.471-3.096-0.894
				c-1.287-0.318-2.193-0.717-2.719-1.194c-0.527-0.471-0.791-1.149-0.791-2.036c0-1.045,0.412-1.943,1.234-2.695
				c0.822-0.751,1.979-1.127,3.471-1.127c1.416,0,2.57,0.282,3.461,0.847c0.893,0.564,1.404,1.539,1.535,2.924h-2.959
				c-0.043-0.381-0.15-0.682-0.324-0.903c-0.326-0.401-0.881-0.603-1.666-0.603c-0.645,0-1.105,0.101-1.379,0.301
				c-0.275,0.201-0.412,0.437-0.412,0.707c0,0.339,0.146,0.585,0.438,0.737c0.291,0.159,1.322,0.433,3.09,0.82
				c1.18,0.277,2.064,0.696,2.652,1.257c0.582,0.567,0.873,1.277,0.873,2.129c0,1.122-0.418,2.038-1.254,2.747
				c-0.836,0.71-2.129,1.065-3.877,1.065c-1.783,0-3.1-0.376-3.949-1.127c-0.852-0.752-1.275-1.709-1.275-2.872H115.025z"/>
			<path fill="#29ABE2" d="M131.938,140.891c0.789,0.354,1.441,0.912,1.955,1.675c0.465,0.673,0.766,1.453,0.902,2.341
				c0.08,0.52,0.113,1.269,0.098,2.246h-8.246c0.047,1.136,0.441,1.933,1.186,2.39c0.451,0.283,0.996,0.426,1.631,0.426
				c0.674,0,1.223-0.173,1.645-0.52c0.229-0.188,0.432-0.446,0.609-0.779h3.021c-0.08,0.672-0.445,1.354-1.098,2.046
				c-1.014,1.102-2.434,1.652-4.26,1.652c-1.506,0-2.836-0.465-3.986-1.394c-1.152-0.929-1.729-2.439-1.729-4.532
				c0-1.961,0.52-3.465,1.561-4.512c1.039-1.046,2.389-1.569,4.047-1.569C130.26,140.36,131.146,140.537,131.938,140.891z
				 M127.508,143.447c-0.418,0.432-0.68,1.016-0.787,1.753h5.1c-0.055-0.786-0.316-1.382-0.789-1.789s-1.057-0.61-1.756-0.61
				C128.516,142.801,127.928,143.017,127.508,143.447z"/>
			<path fill="#29ABE2" d="M141.137,142.873v-2.108h1.578v-3.157h2.93v3.157h1.838v2.108h-1.838v5.983
				c0,0.464,0.059,0.753,0.176,0.867c0.119,0.114,0.479,0.171,1.08,0.171c0.09,0,0.186-0.001,0.287-0.005
				c0.1-0.004,0.197-0.009,0.295-0.016v2.212l-1.402,0.053c-1.398,0.048-2.354-0.194-2.867-0.728
				c-0.332-0.339-0.498-0.862-0.498-1.568v-6.97H141.137z"/>
			<path fill="#29ABE2" d="M157.52,140.724c0.568,0.243,1.035,0.613,1.4,1.112c0.311,0.423,0.5,0.858,0.568,1.305
				c0.07,0.447,0.104,1.177,0.104,2.188v6.653h-3.021v-6.894c0-0.61-0.104-1.103-0.309-1.477c-0.27-0.527-0.777-0.791-1.527-0.791
				c-0.775,0-1.365,0.262-1.768,0.785s-0.604,1.271-0.604,2.241v6.135h-2.959v-15.258h2.959v5.401
				c0.428-0.658,0.922-1.117,1.484-1.377c0.562-0.259,1.152-0.389,1.773-0.389C156.318,140.36,156.951,140.481,157.52,140.724z"/>
			<path fill="#29ABE2" d="M169.754,140.891c0.789,0.354,1.441,0.912,1.955,1.675c0.465,0.673,0.766,1.453,0.902,2.341
				c0.08,0.52,0.113,1.269,0.098,2.246h-8.246c0.047,1.136,0.441,1.933,1.186,2.39c0.451,0.283,0.996,0.426,1.631,0.426
				c0.674,0,1.223-0.173,1.645-0.52c0.229-0.188,0.432-0.446,0.609-0.779h3.021c-0.08,0.672-0.445,1.354-1.098,2.046
				c-1.014,1.102-2.434,1.652-4.26,1.652c-1.506,0-2.836-0.465-3.986-1.394c-1.152-0.929-1.729-2.439-1.729-4.532
				c0-1.961,0.52-3.465,1.561-4.512c1.039-1.046,2.389-1.569,4.047-1.569C168.076,140.36,168.963,140.537,169.754,140.891z
				 M165.324,143.447c-0.418,0.432-0.68,1.016-0.787,1.753h5.1c-0.055-0.786-0.316-1.382-0.789-1.789s-1.057-0.61-1.756-0.61
				C166.332,142.801,165.744,143.017,165.324,143.447z"/>
			<path fill="#29ABE2" d="M189.783,142.021c0.846,1.074,1.27,2.459,1.27,4.155c0,1.759-0.418,3.216-1.252,4.372
				c-0.836,1.156-2.002,1.734-3.498,1.734c-0.939,0-1.695-0.187-2.266-0.561c-0.34-0.222-0.709-0.609-1.105-1.163v1.423h-2.92
				v-15.289h2.961v5.442c0.377-0.525,0.791-0.928,1.244-1.204c0.537-0.347,1.219-0.52,2.049-0.52
				C187.764,140.412,188.936,140.948,189.783,142.021z M187.309,148.918c0.426-0.616,0.639-1.426,0.639-2.43
				c0-0.804-0.104-1.468-0.314-1.994c-0.396-0.997-1.131-1.496-2.199-1.496c-1.082,0-1.824,0.488-2.23,1.465
				c-0.209,0.52-0.314,1.19-0.314,2.015c0,0.97,0.217,1.772,0.65,2.41c0.432,0.637,1.092,0.955,1.979,0.955
				C186.285,149.843,186.883,149.535,187.309,148.918z"/>
			<path fill="#29ABE2" d="M200.486,140.891c0.791,0.354,1.441,0.912,1.957,1.675c0.463,0.673,0.764,1.453,0.902,2.341
				c0.078,0.52,0.111,1.269,0.098,2.246h-8.246c0.045,1.136,0.441,1.933,1.184,2.39c0.453,0.283,0.996,0.426,1.633,0.426
				c0.674,0,1.221-0.173,1.643-0.52c0.23-0.188,0.434-0.446,0.609-0.779h3.023c-0.08,0.672-0.447,1.354-1.098,2.046
				c-1.016,1.102-2.434,1.652-4.26,1.652c-1.508,0-2.836-0.465-3.988-1.394s-1.727-2.439-1.727-4.532
				c0-1.961,0.52-3.465,1.559-4.512c1.039-1.046,2.389-1.569,4.049-1.569C198.809,140.36,199.697,140.537,200.486,140.891z
				 M196.059,143.447c-0.418,0.432-0.682,1.016-0.789,1.753h5.1c-0.053-0.786-0.316-1.382-0.789-1.789
				c-0.471-0.407-1.057-0.61-1.754-0.61C197.066,142.801,196.477,143.017,196.059,143.447z"/>
			<path fill="#29ABE2" d="M207.234,148.368c0.062,0.526,0.199,0.9,0.408,1.121c0.367,0.396,1.051,0.593,2.045,0.593
				c0.584,0,1.049-0.087,1.393-0.26c0.346-0.173,0.518-0.433,0.518-0.779c0-0.332-0.139-0.585-0.416-0.758s-1.311-0.471-3.098-0.894
				c-1.285-0.318-2.193-0.717-2.719-1.194c-0.525-0.471-0.789-1.149-0.789-2.036c0-1.045,0.41-1.943,1.232-2.695
				c0.822-0.751,1.98-1.127,3.473-1.127c1.414,0,2.568,0.282,3.461,0.847c0.891,0.564,1.402,1.539,1.535,2.924h-2.961
				c-0.041-0.381-0.148-0.682-0.322-0.903c-0.326-0.401-0.883-0.603-1.666-0.603c-0.646,0-1.105,0.101-1.381,0.301
				c-0.273,0.201-0.412,0.437-0.412,0.707c0,0.339,0.146,0.585,0.439,0.737c0.291,0.159,1.32,0.433,3.09,0.82
				c1.18,0.277,2.062,0.696,2.652,1.257c0.58,0.567,0.871,1.277,0.871,2.129c0,1.122-0.418,2.038-1.254,2.747
				c-0.836,0.71-2.127,1.065-3.877,1.065c-1.783,0-3.1-0.376-3.949-1.127c-0.85-0.752-1.275-1.709-1.275-2.872H207.234z"/>
			<path fill="#29ABE2" d="M215.605,142.873v-2.108h1.58v-3.157h2.928v3.157h1.84v2.108h-1.84v5.983
				c0,0.464,0.059,0.753,0.178,0.867c0.117,0.114,0.477,0.171,1.08,0.171c0.09,0,0.186-0.001,0.285-0.005s0.199-0.009,0.297-0.016
				v2.212l-1.402,0.053c-1.398,0.048-2.355-0.194-2.867-0.728c-0.332-0.339-0.498-0.862-0.498-1.568v-6.97H215.605z"/>
			<path fill="#29ABE2" d="M64.941,173.257H61.98v-15.31h2.961V173.257z"/>
			<path fill="#29ABE2" d="M70.873,160.585h-3.002v-2.731h3.002V160.585z M67.871,161.936h3.002v11.321h-3.002V161.936z"/>
			<path fill="#29ABE2" d="M80.51,165.997c-0.055-0.423-0.197-0.804-0.426-1.143c-0.334-0.457-0.852-0.686-1.553-0.686
				c-0.998,0-1.682,0.495-2.051,1.485c-0.193,0.524-0.291,1.223-0.291,2.093c0,0.828,0.098,1.495,0.291,1.999
				c0.354,0.941,1.021,1.413,2,1.413c0.693,0,1.188-0.188,1.479-0.562s0.469-0.858,0.531-1.454h3.021
				c-0.068,0.9-0.395,1.752-0.977,2.556c-0.93,1.295-2.305,1.942-4.129,1.942c-1.822,0-3.164-0.541-4.023-1.621
				s-1.289-2.48-1.289-4.201c0-1.942,0.475-3.453,1.426-4.533c0.949-1.08,2.258-1.62,3.93-1.62c1.42,0,2.582,0.318,3.488,0.955
				c0.904,0.637,1.439,1.763,1.605,3.376H80.51z"/>
			<path fill="#29ABE2" d="M92.945,162.165c0.791,0.354,1.441,0.912,1.957,1.675c0.463,0.673,0.764,1.453,0.902,2.341
				c0.078,0.52,0.111,1.269,0.098,2.246h-8.246c0.045,1.136,0.441,1.933,1.184,2.39c0.453,0.283,0.996,0.426,1.633,0.426
				c0.674,0,1.221-0.173,1.643-0.52c0.23-0.188,0.434-0.446,0.609-0.779h3.023c-0.08,0.672-0.447,1.354-1.098,2.046
				c-1.016,1.102-2.434,1.652-4.26,1.652c-1.508,0-2.836-0.465-3.988-1.394s-1.727-2.439-1.727-4.532
				c0-1.961,0.52-3.465,1.559-4.512c1.039-1.046,2.389-1.569,4.049-1.569C91.268,161.635,92.156,161.812,92.945,162.165z
				 M88.518,164.722c-0.418,0.432-0.682,1.016-0.789,1.753h5.1c-0.053-0.786-0.316-1.382-0.789-1.789
				c-0.471-0.407-1.057-0.61-1.754-0.61C89.525,164.075,88.936,164.291,88.518,164.722z"/>
			<path fill="#29ABE2" d="M106.527,162.585c0.742,0.612,1.111,1.629,1.111,3.048v7.624h-3.031v-6.886
				c0-0.596-0.08-1.053-0.238-1.371c-0.289-0.582-0.838-0.873-1.648-0.873c-0.998,0-1.682,0.426-2.053,1.277
				c-0.191,0.45-0.289,1.025-0.289,1.725v6.128H97.42v-11.301h2.865v1.651c0.379-0.581,0.738-1,1.076-1.256
				c0.607-0.457,1.375-0.686,2.307-0.686C104.834,161.666,105.787,161.972,106.527,162.585z"/>
			<path fill="#29ABE2" d="M112.688,169.643c0.062,0.526,0.199,0.9,0.408,1.121c0.367,0.396,1.051,0.593,2.045,0.593
				c0.584,0,1.049-0.087,1.393-0.26c0.346-0.173,0.518-0.433,0.518-0.779c0-0.332-0.139-0.585-0.416-0.758s-1.311-0.471-3.098-0.894
				c-1.285-0.318-2.193-0.717-2.719-1.194c-0.525-0.471-0.789-1.149-0.789-2.036c0-1.045,0.41-1.943,1.232-2.695
				c0.822-0.751,1.98-1.127,3.473-1.127c1.414,0,2.568,0.282,3.461,0.847c0.891,0.564,1.402,1.539,1.535,2.924h-2.961
				c-0.041-0.381-0.148-0.682-0.322-0.903c-0.326-0.401-0.883-0.603-1.666-0.603c-0.646,0-1.105,0.101-1.381,0.301
				c-0.273,0.201-0.412,0.437-0.412,0.707c0,0.339,0.146,0.585,0.439,0.737c0.291,0.159,1.32,0.433,3.09,0.82
				c1.18,0.277,2.062,0.696,2.652,1.257c0.58,0.567,0.871,1.277,0.871,2.129c0,1.122-0.418,2.038-1.254,2.747
				c-0.836,0.71-2.127,1.065-3.877,1.065c-1.783,0-3.1-0.376-3.949-1.127c-0.85-0.752-1.275-1.709-1.275-2.872H112.688z"/>
			<path fill="#29ABE2" d="M129.6,162.165c0.791,0.354,1.441,0.912,1.957,1.675c0.463,0.673,0.764,1.453,0.902,2.341
				c0.078,0.52,0.111,1.269,0.098,2.246h-8.246c0.045,1.136,0.441,1.933,1.184,2.39c0.453,0.283,0.996,0.426,1.633,0.426
				c0.674,0,1.221-0.173,1.643-0.52c0.23-0.188,0.434-0.446,0.609-0.779h3.023c-0.08,0.672-0.447,1.354-1.098,2.046
				c-1.016,1.102-2.434,1.652-4.26,1.652c-1.508,0-2.836-0.465-3.988-1.394s-1.727-2.439-1.727-4.532
				c0-1.961,0.52-3.465,1.559-4.512c1.039-1.046,2.389-1.569,4.049-1.569C127.922,161.635,128.811,161.812,129.6,162.165z
				 M125.172,164.722c-0.418,0.432-0.682,1.016-0.789,1.753h5.1c-0.053-0.786-0.316-1.382-0.789-1.789
				c-0.471-0.407-1.057-0.61-1.754-0.61C126.18,164.075,125.59,164.291,125.172,164.722z"/>
			<path fill="#29ABE2" d="M144.646,157.807c0.152,0.011,0.361,0.026,0.623,0.047v2.41c-0.166-0.021-0.443-0.036-0.836-0.047
				c-0.391-0.011-0.66,0.076-0.809,0.26c-0.15,0.184-0.225,0.386-0.225,0.607s0,0.54,0,0.955h1.943v2.088H143.4v9.13h-2.939v-9.13
				h-1.662v-2.088h1.621v-0.727c0-1.212,0.205-2.046,0.613-2.503c0.43-0.679,1.465-1.019,3.105-1.019
				C144.326,157.791,144.494,157.797,144.646,157.807z"/>
			<path fill="#29ABE2" d="M156.486,171.872c-0.955,1.18-2.406,1.77-4.352,1.77s-3.396-0.59-4.352-1.77s-1.434-2.6-1.434-4.261
				c0-1.632,0.479-3.047,1.434-4.244c0.955-1.196,2.406-1.795,4.352-1.795s3.396,0.599,4.352,1.795
				c0.957,1.197,1.434,2.612,1.434,4.244C157.92,169.272,157.443,170.692,156.486,171.872z M154.119,170.236
				c0.463-0.616,0.695-1.49,0.695-2.625c0-1.134-0.232-2.007-0.695-2.618c-0.465-0.612-1.129-0.918-1.994-0.918
				s-1.531,0.306-2,0.918c-0.467,0.611-0.701,1.484-0.701,2.618c0,1.135,0.234,2.009,0.701,2.625c0.469,0.615,1.135,0.923,2,0.923
				S153.654,170.852,154.119,170.236z"/>
			<path fill="#29ABE2" d="M166.328,161.671c0.037,0.004,0.123,0.009,0.254,0.016v3.032c-0.186-0.021-0.354-0.034-0.498-0.041
				s-0.264-0.011-0.354-0.011c-1.191,0-1.99,0.388-2.398,1.163c-0.229,0.437-0.344,1.108-0.344,2.016v5.411h-2.98v-11.321h2.826
				v1.974c0.457-0.755,0.854-1.271,1.193-1.548c0.555-0.464,1.273-0.695,2.16-0.695
				C166.244,161.666,166.289,161.667,166.328,161.671z"/>
			<path fill="#29ABE2" d="M174.674,175.427l0.375,0.021c0.291,0.014,0.566,0.004,0.83-0.031s0.484-0.115,0.664-0.238
				c0.174-0.119,0.334-0.365,0.484-0.739c0.148-0.373,0.213-0.602,0.191-0.685l-4.16-11.82h3.293l2.473,8.351l2.336-8.351h3.146
				l-3.881,11.135c-0.75,2.146-1.344,3.478-1.779,3.994c-0.438,0.516-1.311,0.773-2.621,0.773c-0.264,0-0.475-0.002-0.633-0.006
				c-0.16-0.004-0.4-0.016-0.719-0.035V175.427z"/>
			<path fill="#29ABE2" d="M195.498,171.872c-0.955,1.18-2.406,1.77-4.352,1.77s-3.396-0.59-4.352-1.77s-1.434-2.6-1.434-4.261
				c0-1.632,0.479-3.047,1.434-4.244c0.955-1.196,2.406-1.795,4.352-1.795s3.396,0.599,4.352,1.795
				c0.957,1.197,1.434,2.612,1.434,4.244C196.932,169.272,196.455,170.692,195.498,171.872z M193.131,170.236
				c0.463-0.616,0.695-1.49,0.695-2.625c0-1.134-0.232-2.007-0.695-2.618c-0.465-0.612-1.129-0.918-1.994-0.918
				s-1.531,0.306-2,0.918c-0.467,0.611-0.701,1.484-0.701,2.618c0,1.135,0.234,2.009,0.701,2.625c0.469,0.615,1.135,0.923,2,0.923
				S192.666,170.852,193.131,170.236z"/>
			<path fill="#29ABE2" d="M202,161.936v6.824c0,0.644,0.076,1.129,0.229,1.454c0.268,0.574,0.795,0.862,1.58,0.862
				c1.006,0,1.695-0.409,2.068-1.227c0.191-0.442,0.289-1.027,0.289-1.755v-6.159h3.002v11.321h-2.877v-1.6
				c-0.029,0.035-0.098,0.139-0.207,0.312c-0.111,0.173-0.242,0.326-0.395,0.457c-0.463,0.416-0.91,0.699-1.342,0.852
				s-0.938,0.229-1.518,0.229c-1.67,0-2.795-0.603-3.375-1.807c-0.326-0.665-0.488-1.645-0.488-2.939v-6.824H202z"/>
		</g>
	</g>
	<g>
		<g>
			<g>
				<path fill="#FFFFFF" d="M92.426,199.77h-4.229v1.697h3.883v1.387h-3.883v2.057h4.424v1.436h-6.057v-7.992h5.861V199.77z"/>
				<path fill="#FFFFFF" d="M96.934,200.532c0.277,0.156,0.504,0.375,0.678,0.652v-2.818h1.566v7.98h-1.502v-0.818
					c-0.221,0.352-0.473,0.605-0.754,0.764c-0.281,0.16-0.633,0.24-1.051,0.24c-0.691,0-1.273-0.279-1.744-0.838
					c-0.473-0.559-0.707-1.275-0.707-2.15c0-1.008,0.232-1.803,0.695-2.381c0.465-0.578,1.086-0.867,1.863-0.867
					C96.336,200.295,96.654,200.374,96.934,200.532z M97.312,204.741c0.229-0.324,0.342-0.746,0.342-1.262
					c0-0.725-0.184-1.24-0.549-1.551c-0.223-0.189-0.484-0.283-0.779-0.283c-0.453,0-0.783,0.172-0.996,0.514
					c-0.211,0.342-0.316,0.766-0.316,1.271c0,0.545,0.107,0.982,0.322,1.309c0.215,0.328,0.541,0.49,0.979,0.49
					S97.084,205.067,97.312,204.741z"/>
				<path fill="#FFFFFF" d="M102.17,199.731h-1.566v-1.426h1.566V199.731z M100.604,200.436h1.566v5.91h-1.566V200.436z"/>
				<path fill="#FFFFFF" d="M103.061,201.59v-1.1h0.824v-1.648h1.527v1.648h0.961v1.1h-0.961v3.125c0,0.242,0.031,0.393,0.094,0.451
					c0.061,0.061,0.248,0.09,0.562,0.09c0.047,0,0.098,0,0.15-0.002s0.104-0.004,0.154-0.008v1.154l-0.732,0.027
					c-0.73,0.025-1.229-0.102-1.496-0.379c-0.174-0.178-0.26-0.451-0.26-0.82v-3.639H103.061z"/>
				<path fill="#FFFFFF" d="M112.295,205.624c-0.5,0.615-1.258,0.924-2.273,0.924s-1.771-0.309-2.271-0.924
					c-0.498-0.615-0.748-1.357-0.748-2.225c0-0.852,0.25-1.59,0.748-2.215c0.5-0.625,1.256-0.938,2.271-0.938
					s1.773,0.312,2.273,0.938c0.498,0.625,0.748,1.363,0.748,2.215C113.043,204.266,112.793,205.008,112.295,205.624z
					 M111.059,204.77c0.242-0.322,0.363-0.779,0.363-1.371s-0.121-1.047-0.363-1.367c-0.242-0.318-0.59-0.479-1.041-0.479
					c-0.453,0-0.801,0.16-1.045,0.479c-0.244,0.32-0.365,0.775-0.365,1.367s0.121,1.049,0.365,1.371
					c0.244,0.32,0.592,0.48,1.045,0.48C110.469,205.25,110.816,205.09,111.059,204.77z"/>
				<path fill="#FFFFFF" d="M117.432,200.297c0.02,0.002,0.064,0.006,0.133,0.01v1.582c-0.098-0.01-0.184-0.018-0.26-0.021
					s-0.139-0.006-0.186-0.006c-0.621,0-1.039,0.203-1.252,0.607c-0.119,0.229-0.18,0.578-0.18,1.053v2.824h-1.555v-5.91h1.475
					v1.031c0.238-0.395,0.445-0.664,0.623-0.809c0.289-0.242,0.666-0.363,1.129-0.363
					C117.387,200.295,117.412,200.295,117.432,200.297z"/>
				<path fill="#FFFFFF" d="M120.059,199.731h-1.566v-1.426h1.566V199.731z M118.492,200.436h1.566v5.91h-1.566V200.436z"/>
				<path fill="#FFFFFF" d="M123.896,202.752c0.287-0.037,0.494-0.082,0.617-0.137c0.223-0.094,0.334-0.24,0.334-0.439
					c0-0.242-0.086-0.408-0.256-0.5c-0.17-0.094-0.42-0.139-0.75-0.139c-0.371,0-0.633,0.09-0.787,0.271
					c-0.109,0.133-0.184,0.314-0.219,0.541h-1.492c0.033-0.516,0.178-0.941,0.436-1.273c0.41-0.521,1.115-0.781,2.113-0.781
					c0.65,0,1.227,0.129,1.732,0.385c0.504,0.258,0.756,0.742,0.756,1.453v2.711c0,0.188,0.004,0.416,0.012,0.684
					c0.01,0.203,0.041,0.34,0.092,0.412s0.127,0.133,0.229,0.18v0.227h-1.682c-0.047-0.119-0.08-0.23-0.098-0.336
					s-0.033-0.225-0.043-0.357c-0.215,0.23-0.463,0.428-0.742,0.592c-0.334,0.191-0.713,0.287-1.135,0.287
					c-0.537,0-0.982-0.154-1.332-0.459c-0.352-0.305-0.527-0.738-0.527-1.299c0-0.727,0.283-1.252,0.848-1.578
					c0.309-0.176,0.764-0.303,1.365-0.379L123.896,202.752z M124.842,203.473c-0.1,0.061-0.199,0.111-0.301,0.148
					c-0.1,0.039-0.238,0.074-0.414,0.105l-0.352,0.066c-0.33,0.057-0.566,0.127-0.711,0.211c-0.242,0.141-0.365,0.359-0.365,0.656
					c0,0.264,0.074,0.455,0.223,0.572c0.15,0.117,0.33,0.176,0.543,0.176c0.338,0,0.648-0.098,0.934-0.293s0.432-0.551,0.443-1.068
					V203.473z"/>
				<path fill="#FFFFFF" d="M129.309,206.346h-1.545v-7.992h1.545V206.346z"/>
				<path fill="#FFFFFF" d="M134.027,198.354h1.697v4.908c0,0.549,0.064,0.951,0.193,1.203c0.203,0.449,0.643,0.672,1.318,0.672
					c0.674,0,1.111-0.223,1.314-0.672c0.129-0.252,0.193-0.654,0.193-1.203v-4.908h1.697v4.912c0,0.85-0.131,1.512-0.395,1.984
					c-0.49,0.869-1.428,1.303-2.811,1.303c-1.381,0-2.32-0.434-2.814-1.303c-0.264-0.473-0.395-1.135-0.395-1.984V198.354z"/>
				<path fill="#FFFFFF" d="M143.121,204.459c0.031,0.275,0.104,0.471,0.211,0.586c0.193,0.205,0.549,0.309,1.068,0.309
					c0.305,0,0.547-0.045,0.727-0.135c0.182-0.09,0.271-0.227,0.271-0.406c0-0.174-0.074-0.307-0.219-0.396
					s-0.684-0.246-1.615-0.467c-0.672-0.166-1.146-0.373-1.42-0.623c-0.275-0.246-0.412-0.6-0.412-1.062
					c0-0.547,0.215-1.016,0.643-1.408c0.43-0.391,1.035-0.588,1.812-0.588c0.74,0,1.342,0.148,1.807,0.441
					c0.467,0.295,0.734,0.805,0.803,1.527h-1.545c-0.023-0.199-0.078-0.355-0.17-0.473c-0.17-0.209-0.459-0.314-0.869-0.314
					c-0.338,0-0.578,0.053-0.721,0.158s-0.215,0.227-0.215,0.369c0,0.176,0.076,0.305,0.229,0.385
					c0.152,0.082,0.689,0.225,1.613,0.428c0.615,0.145,1.078,0.363,1.385,0.656c0.303,0.297,0.455,0.666,0.455,1.111
					c0,0.586-0.219,1.064-0.654,1.434c-0.438,0.371-1.111,0.557-2.023,0.557c-0.932,0-1.619-0.195-2.062-0.588
					s-0.666-0.893-0.666-1.5H143.121z"/>
				<path fill="#FFFFFF" d="M151.949,200.555c0.412,0.186,0.752,0.477,1.021,0.875c0.242,0.352,0.398,0.758,0.471,1.223
					c0.041,0.271,0.059,0.662,0.051,1.172h-4.305c0.023,0.594,0.23,1.01,0.617,1.248c0.236,0.148,0.521,0.223,0.854,0.223
					c0.352,0,0.637-0.092,0.857-0.271c0.119-0.098,0.227-0.234,0.318-0.406h1.578c-0.043,0.35-0.232,0.705-0.574,1.068
					c-0.529,0.574-1.27,0.861-2.223,0.861c-0.787,0-1.48-0.242-2.082-0.727c-0.602-0.486-0.902-1.273-0.902-2.367
					c0-1.023,0.271-1.809,0.814-2.355c0.543-0.545,1.248-0.818,2.113-0.818C151.074,200.28,151.537,200.372,151.949,200.555z
					 M149.637,201.891c-0.219,0.225-0.355,0.529-0.412,0.914h2.664c-0.029-0.41-0.166-0.721-0.412-0.934s-0.553-0.318-0.916-0.318
					C150.162,201.553,149.855,201.667,149.637,201.891z"/>
				<path fill="#FFFFFF" d="M163.639,205.637c-0.604,0.621-1.477,0.932-2.619,0.932s-2.016-0.311-2.619-0.932
					c-0.811-0.764-1.215-1.863-1.215-3.297c0-1.465,0.404-2.564,1.215-3.297c0.604-0.623,1.477-0.934,2.619-0.934
					s2.016,0.311,2.619,0.934c0.807,0.732,1.209,1.832,1.209,3.297C164.848,203.774,164.445,204.874,163.639,205.637z
					 M162.594,204.422c0.389-0.488,0.584-1.184,0.584-2.082c0-0.896-0.195-1.59-0.584-2.08s-0.912-0.734-1.574-0.734
					s-1.189,0.244-1.584,0.732c-0.393,0.486-0.59,1.182-0.59,2.082c0,0.898,0.197,1.594,0.59,2.082
					c0.395,0.488,0.922,0.73,1.584,0.73S162.205,204.911,162.594,204.422z"/>
				<path fill="#FFFFFF" d="M170.764,200.776c0.387,0.318,0.58,0.85,0.58,1.59v3.98h-1.584v-3.594c0-0.312-0.041-0.551-0.123-0.717
					c-0.15-0.303-0.438-0.455-0.861-0.455c-0.521,0-0.877,0.223-1.072,0.666c-0.1,0.236-0.15,0.535-0.15,0.9v3.199h-1.545v-5.898
					h1.496v0.861c0.199-0.303,0.385-0.521,0.562-0.656c0.316-0.238,0.717-0.357,1.203-0.357
					C169.879,200.295,170.377,200.456,170.764,200.776z"/>
				<path fill="#FFFFFF" d="M174.357,206.346h-1.545v-7.992h1.545V206.346z"/>
				<path fill="#FFFFFF" d="M176.098,207.479l0.195,0.012c0.152,0.008,0.297,0.002,0.434-0.016c0.139-0.02,0.254-0.061,0.348-0.125
					c0.09-0.062,0.174-0.189,0.252-0.385s0.111-0.314,0.102-0.357l-2.172-6.172h1.719l1.289,4.359l1.221-4.359h1.643l-2.025,5.812
					c-0.393,1.121-0.701,1.816-0.93,2.086s-0.684,0.404-1.367,0.404c-0.139,0-0.248-0.002-0.332-0.004
					c-0.082-0.002-0.207-0.008-0.375-0.02V207.479z"/>
			</g>
		</g>
		<g>
			<path fill="#FFFFFF" stroke="#9C9B9B" stroke-width="1.2753" stroke-miterlimit="10" d="M76.828,205.479
				c0,1.271-1.033,2.305-2.307,2.305h-8.953c-1.271,0-2.303-1.033-2.303-2.305v-8.953c0-1.273,1.031-2.307,2.303-2.307h8.953
				c1.273,0,2.307,1.033,2.307,2.307V205.479z"/>
		</g>
		<g>
			<path fill="#FFFFFF" stroke="#9C9B9B" stroke-width="1.2753" stroke-miterlimit="10" d="M76.83,231.485
				c0,1.271-1.035,2.303-2.309,2.303H65.57c-1.271,0-2.305-1.031-2.305-2.303v-8.955c0-1.273,1.033-2.305,2.305-2.305h8.951
				c1.273,0,2.309,1.031,2.309,2.305V231.485z"/>
			<path fill="#35A8E0" d="M65.57,231.766c-0.158,0-0.285-0.127-0.285-0.281v-8.955c0-0.156,0.127-0.285,0.285-0.285h8.951
				c0.158,0,0.287,0.129,0.287,0.285v8.955c0,0.154-0.129,0.281-0.287,0.281H65.57z"/>
		</g>
		<g>
			<g>
				<path fill="#FFFFFF" d="M87.279,225.194c0.645-0.658,1.463-0.988,2.457-0.988c1.33,0,2.303,0.441,2.918,1.324
					c0.34,0.494,0.523,0.992,0.547,1.49h-1.67c-0.105-0.383-0.242-0.672-0.408-0.867c-0.297-0.348-0.738-0.521-1.322-0.521
					c-0.596,0-1.064,0.246-1.408,0.736c-0.344,0.488-0.516,1.182-0.516,2.078s0.182,1.568,0.545,2.016
					c0.361,0.445,0.822,0.67,1.381,0.67c0.572,0,1.01-0.191,1.311-0.576c0.166-0.205,0.303-0.514,0.414-0.926h1.658
					c-0.143,0.871-0.508,1.578-1.098,2.125c-0.588,0.545-1.342,0.818-2.26,0.818c-1.137,0-2.031-0.369-2.682-1.105
					c-0.652-0.742-0.977-1.758-0.977-3.049C86.17,227.024,86.539,225.948,87.279,225.194z"/>
				<path fill="#FFFFFF" d="M99.34,231.627c-0.498,0.615-1.256,0.924-2.271,0.924s-1.773-0.309-2.271-0.924
					c-0.5-0.615-0.75-1.357-0.75-2.225c0-0.852,0.25-1.59,0.75-2.215c0.498-0.625,1.256-0.938,2.271-0.938s1.773,0.312,2.271,0.938
					s0.748,1.363,0.748,2.215C100.088,230.27,99.838,231.012,99.34,231.627z M98.104,230.774c0.242-0.322,0.363-0.779,0.363-1.371
					s-0.121-1.047-0.363-1.367c-0.242-0.318-0.59-0.479-1.041-0.479s-0.799,0.16-1.043,0.479c-0.244,0.32-0.367,0.775-0.367,1.367
					s0.123,1.049,0.367,1.371c0.244,0.32,0.592,0.48,1.043,0.48S97.861,231.094,98.104,230.774z"/>
				<path fill="#FFFFFF" d="M108.568,226.461c0.254,0.102,0.482,0.279,0.689,0.531c0.166,0.207,0.277,0.459,0.336,0.76
					c0.035,0.199,0.055,0.49,0.055,0.873l-0.012,3.725h-1.584v-3.762c0-0.225-0.035-0.41-0.107-0.555
					c-0.137-0.273-0.391-0.412-0.76-0.412c-0.426,0-0.721,0.178-0.883,0.531c-0.084,0.189-0.125,0.414-0.125,0.678v3.52h-1.557
					v-3.52c0-0.35-0.035-0.605-0.107-0.764c-0.131-0.285-0.387-0.428-0.766-0.428c-0.441,0-0.736,0.143-0.889,0.428
					c-0.084,0.162-0.125,0.404-0.125,0.727v3.557h-1.566v-5.898h1.502v0.861c0.191-0.307,0.371-0.525,0.541-0.656
					c0.301-0.23,0.689-0.346,1.166-0.346c0.451,0,0.816,0.098,1.096,0.297c0.225,0.186,0.395,0.422,0.51,0.711
					c0.203-0.348,0.453-0.602,0.754-0.766c0.318-0.162,0.672-0.242,1.062-0.242C108.059,226.311,108.316,226.36,108.568,226.461z"/>
				<path fill="#FFFFFF" d="M118.443,226.461c0.252,0.102,0.482,0.279,0.688,0.531c0.166,0.207,0.279,0.459,0.336,0.76
					c0.037,0.199,0.055,0.49,0.055,0.873l-0.01,3.725h-1.584v-3.762c0-0.225-0.037-0.41-0.109-0.555
					c-0.137-0.273-0.389-0.412-0.758-0.412c-0.428,0-0.723,0.178-0.885,0.531c-0.082,0.189-0.125,0.414-0.125,0.678v3.52h-1.555
					v-3.52c0-0.35-0.037-0.605-0.109-0.764c-0.131-0.285-0.385-0.428-0.764-0.428c-0.441,0-0.738,0.143-0.891,0.428
					c-0.082,0.162-0.125,0.404-0.125,0.727v3.557h-1.566v-5.898h1.502v0.861c0.191-0.307,0.373-0.525,0.543-0.656
					c0.299-0.23,0.688-0.346,1.166-0.346c0.451,0,0.816,0.098,1.094,0.297c0.225,0.186,0.395,0.422,0.51,0.711
					c0.203-0.348,0.455-0.602,0.754-0.766c0.318-0.162,0.674-0.242,1.062-0.242C117.934,226.311,118.189,226.36,118.443,226.461z"/>
				<path fill="#FFFFFF" d="M124.793,226.559c0.412,0.186,0.754,0.477,1.021,0.875c0.242,0.352,0.4,0.758,0.471,1.223
					c0.043,0.271,0.059,0.662,0.051,1.172h-4.303c0.023,0.594,0.229,1.01,0.617,1.248c0.236,0.148,0.52,0.223,0.852,0.223
					c0.352,0,0.639-0.092,0.859-0.271c0.119-0.098,0.225-0.234,0.316-0.406h1.578c-0.041,0.35-0.232,0.705-0.572,1.068
					c-0.529,0.574-1.271,0.861-2.225,0.861c-0.785,0-1.48-0.242-2.082-0.727c-0.6-0.486-0.9-1.273-0.9-2.367
					c0-1.023,0.271-1.809,0.814-2.355c0.541-0.545,1.246-0.818,2.113-0.818C123.918,226.284,124.381,226.375,124.793,226.559z
					 M122.482,227.895c-0.219,0.225-0.355,0.529-0.412,0.914h2.662c-0.027-0.41-0.166-0.721-0.412-0.934s-0.551-0.318-0.916-0.318
					C123.008,227.557,122.701,227.67,122.482,227.895z"/>
				<path fill="#FFFFFF" d="M130.402,226.301c0.02,0.002,0.064,0.006,0.133,0.01v1.582c-0.098-0.01-0.184-0.018-0.26-0.021
					s-0.139-0.006-0.186-0.006c-0.621,0-1.039,0.203-1.252,0.607c-0.119,0.229-0.18,0.578-0.18,1.053v2.824h-1.555v-5.91h1.475
					v1.031c0.238-0.395,0.445-0.664,0.623-0.809c0.289-0.242,0.666-0.363,1.129-0.363
					C130.357,226.299,130.383,226.299,130.402,226.301z"/>
				<path fill="#FFFFFF" d="M134.977,228.561c-0.029-0.221-0.104-0.42-0.223-0.598c-0.176-0.238-0.445-0.357-0.811-0.357
					c-0.521,0-0.879,0.258-1.07,0.775c-0.102,0.273-0.152,0.639-0.152,1.092c0,0.434,0.051,0.781,0.152,1.045
					c0.184,0.492,0.531,0.736,1.043,0.736c0.361,0,0.619-0.098,0.771-0.291c0.152-0.195,0.244-0.449,0.277-0.76h1.578
					c-0.037,0.469-0.207,0.914-0.51,1.334c-0.486,0.676-1.203,1.014-2.156,1.014c-0.951,0-1.65-0.281-2.1-0.846
					s-0.674-1.295-0.674-2.193c0-1.014,0.248-1.803,0.744-2.367s1.18-0.846,2.053-0.846c0.74,0,1.348,0.166,1.82,0.498
					c0.473,0.334,0.752,0.92,0.838,1.764H134.977z"/>
				<path fill="#FFFFFF" d="M139.205,225.735h-1.566v-1.426h1.566V225.735z M137.639,226.44h1.566v5.91h-1.566V226.44z"/>
				<path fill="#FFFFFF" d="M143.043,228.756c0.287-0.037,0.492-0.082,0.617-0.137c0.221-0.094,0.332-0.24,0.332-0.439
					c0-0.242-0.084-0.408-0.256-0.5c-0.17-0.094-0.42-0.139-0.75-0.139c-0.369,0-0.631,0.09-0.785,0.271
					c-0.111,0.133-0.184,0.314-0.221,0.541h-1.49c0.031-0.516,0.178-0.941,0.436-1.273c0.41-0.521,1.113-0.781,2.113-0.781
					c0.648,0,1.227,0.129,1.73,0.385c0.506,0.258,0.758,0.742,0.758,1.453v2.711c0,0.188,0.004,0.416,0.01,0.684
					c0.012,0.203,0.043,0.34,0.094,0.412c0.049,0.072,0.125,0.133,0.227,0.18v0.227h-1.68c-0.049-0.119-0.08-0.23-0.098-0.336
					c-0.02-0.105-0.033-0.225-0.045-0.357c-0.213,0.23-0.461,0.428-0.74,0.592c-0.336,0.191-0.713,0.287-1.135,0.287
					c-0.539,0-0.982-0.154-1.334-0.459s-0.525-0.738-0.525-1.299c0-0.727,0.281-1.252,0.846-1.578
					c0.311-0.176,0.766-0.303,1.365-0.379L143.043,228.756z M143.986,229.477c-0.098,0.061-0.197,0.111-0.299,0.148
					c-0.102,0.039-0.238,0.074-0.416,0.105l-0.352,0.066c-0.328,0.057-0.566,0.127-0.709,0.211
					c-0.244,0.141-0.365,0.359-0.365,0.656c0,0.264,0.074,0.455,0.223,0.572s0.33,0.176,0.543,0.176
					c0.338,0,0.648-0.098,0.932-0.293c0.285-0.195,0.434-0.551,0.443-1.068V229.477z"/>
				<path fill="#FFFFFF" d="M148.455,232.35h-1.545v-7.992h1.545V232.35z"/>
				<path fill="#FFFFFF" d="M153.172,224.358h1.697v4.908c0,0.549,0.064,0.951,0.195,1.203c0.201,0.449,0.641,0.672,1.318,0.672
					c0.674,0,1.111-0.223,1.312-0.672c0.129-0.252,0.195-0.654,0.195-1.203v-4.908h1.697v4.912c0,0.85-0.133,1.512-0.396,1.984
					c-0.49,0.869-1.426,1.303-2.809,1.303s-2.32-0.434-2.814-1.303c-0.264-0.473-0.396-1.135-0.396-1.984V224.358z"/>
				<path fill="#FFFFFF" d="M162.266,230.463c0.033,0.275,0.104,0.471,0.213,0.586c0.191,0.205,0.549,0.309,1.068,0.309
					c0.305,0,0.547-0.045,0.727-0.135s0.27-0.227,0.27-0.406c0-0.174-0.072-0.307-0.217-0.396s-0.684-0.246-1.617-0.467
					c-0.672-0.166-1.145-0.373-1.42-0.623c-0.273-0.246-0.412-0.6-0.412-1.062c0-0.547,0.215-1.016,0.645-1.408
					c0.43-0.391,1.033-0.588,1.812-0.588c0.738,0,1.342,0.148,1.807,0.441c0.465,0.295,0.732,0.805,0.801,1.527h-1.545
					c-0.021-0.199-0.078-0.355-0.168-0.473c-0.17-0.209-0.461-0.314-0.871-0.314c-0.336,0-0.576,0.053-0.719,0.158
					c-0.145,0.105-0.215,0.227-0.215,0.369c0,0.176,0.076,0.305,0.227,0.385c0.152,0.082,0.691,0.225,1.615,0.428
					c0.615,0.145,1.076,0.363,1.383,0.656c0.305,0.297,0.457,0.666,0.457,1.111c0,0.586-0.219,1.064-0.656,1.434
					c-0.436,0.371-1.109,0.557-2.023,0.557c-0.93,0-1.617-0.195-2.062-0.588c-0.443-0.393-0.664-0.893-0.664-1.5H162.266z"/>
				<path fill="#FFFFFF" d="M171.096,226.559c0.412,0.186,0.752,0.477,1.021,0.875c0.242,0.352,0.398,0.758,0.471,1.223
					c0.041,0.271,0.059,0.662,0.051,1.172h-4.305c0.023,0.594,0.23,1.01,0.617,1.248c0.236,0.148,0.521,0.223,0.854,0.223
					c0.352,0,0.637-0.092,0.857-0.271c0.119-0.098,0.227-0.234,0.318-0.406h1.578c-0.043,0.35-0.232,0.705-0.574,1.068
					c-0.529,0.574-1.27,0.861-2.223,0.861c-0.787,0-1.48-0.242-2.082-0.727c-0.602-0.486-0.902-1.273-0.902-2.367
					c0-1.023,0.271-1.809,0.814-2.355c0.543-0.545,1.248-0.818,2.113-0.818C170.221,226.284,170.684,226.375,171.096,226.559z
					 M168.783,227.895c-0.219,0.225-0.355,0.529-0.412,0.914h2.664c-0.029-0.41-0.166-0.721-0.412-0.934s-0.553-0.318-0.916-0.318
					C169.309,227.557,169.002,227.67,168.783,227.895z"/>
			</g>
		</g>
		<g>
			<polygon fill="#FFFFFF" points="78.918,239.542 78.918,242.368 77.504,242.368 77.504,238.125 76.088,238.125 76.088,240.954 
				74.676,240.954 74.676,236.713 73.262,236.713 73.262,240.954 71.848,240.954 71.848,231.057 69.02,231.057 69.02,245.194 
				67.605,245.194 67.605,242.368 66.191,242.368 66.191,240.954 64.777,240.954 64.777,239.542 61.951,239.542 61.951,242.368 
				63.363,242.368 63.363,243.782 64.777,243.782 64.777,246.612 66.191,246.612 66.191,248.026 67.605,248.026 67.605,249.438 
				69.02,249.438 69.02,252.266 77.504,252.266 77.504,249.438 78.918,249.438 78.918,246.612 80.33,246.612 80.33,239.542 			"/>
			<path fill="#000100" d="M60.537,242.368h1.414v-2.826h-1.414V242.368z M61.951,238.125v1.416h2.826v-1.416H61.951z
				 M64.777,239.542v1.412h1.414v-1.412H64.777z M67.605,240.954h-1.414v1.414h1.414v2.826h1.414v-14.137h-1.414V240.954z
				 M69.02,229.643v1.414h2.828v-1.414H69.02z M63.363,243.782v-1.414h-1.412v1.414H63.363z M64.777,246.612v-2.83h-1.414v2.83
				H64.777z M66.191,248.026v-1.414h-1.414v1.414H66.191z M67.605,249.438v-1.412h-1.414v1.412H67.605z M69.02,252.266v-2.828
				h-1.414v2.828H69.02z M78.918,238.125v-1.412h-2.83v-1.416h-2.826v-4.24h-1.414v9.896h1.414v-4.24h1.414v4.24h1.412v-2.828h1.416
				v4.242h1.414v-2.826h1.412v7.07h1.414v-8.486H78.918z M78.918,249.438h1.412v-2.826h-1.412V249.438z M77.504,252.266h1.414
				v-2.828h-1.414V252.266z"/>
		</g>
	</g>
	<g>
		<g>
			<path fill="#FFFFFF" d="M66.748,321.819c-0.467,0.391-1.137,0.586-2.004,0.586H63.08v2.873h-1.66v-7.992h3.432
				c0.791,0,1.422,0.207,1.893,0.619s0.705,1.049,0.705,1.914C67.449,320.762,67.217,321.428,66.748,321.819z M65.473,318.94
				c-0.211-0.178-0.508-0.266-0.889-0.266H63.08v2.354h1.504c0.381,0,0.678-0.096,0.889-0.287c0.213-0.193,0.318-0.496,0.318-0.912
				S65.686,319.118,65.473,318.94z"/>
			<path fill="#FFFFFF" d="M72.912,319.401c0.297,0.127,0.541,0.32,0.732,0.58c0.162,0.221,0.26,0.449,0.297,0.682
				c0.035,0.232,0.055,0.613,0.055,1.143v3.473h-1.578v-3.598c0-0.32-0.055-0.576-0.162-0.771c-0.141-0.275-0.406-0.412-0.797-0.412
				c-0.404,0-0.713,0.137-0.924,0.408c-0.209,0.273-0.314,0.664-0.314,1.17v3.203h-1.545v-7.965h1.545v2.82
				c0.225-0.344,0.482-0.584,0.775-0.719c0.293-0.137,0.602-0.203,0.926-0.203C72.285,319.211,72.615,319.274,72.912,319.401z"/>
			<path fill="#FFFFFF" d="M80.377,324.555c-0.498,0.615-1.256,0.924-2.271,0.924s-1.773-0.309-2.271-0.924
				c-0.5-0.615-0.75-1.357-0.75-2.225c0-0.852,0.25-1.59,0.75-2.215c0.498-0.625,1.256-0.938,2.271-0.938s1.773,0.312,2.271,0.938
				s0.748,1.363,0.748,2.215C81.125,323.198,80.875,323.94,80.377,324.555z M79.141,323.702c0.242-0.322,0.363-0.779,0.363-1.371
				s-0.121-1.047-0.363-1.367c-0.242-0.318-0.59-0.479-1.041-0.479s-0.799,0.16-1.043,0.479c-0.244,0.32-0.367,0.775-0.367,1.367
				s0.123,1.049,0.367,1.371c0.244,0.32,0.592,0.48,1.043,0.48S78.898,324.022,79.141,323.702z"/>
			<path fill="#FFFFFF" d="M81.625,320.522v-1.1h0.824v-1.648h1.527v1.648h0.961v1.1h-0.961v3.125c0,0.242,0.031,0.393,0.094,0.451
				c0.061,0.061,0.248,0.09,0.562,0.09c0.047,0,0.098,0,0.15-0.002s0.104-0.004,0.154-0.008v1.154l-0.732,0.027
				c-0.73,0.025-1.229-0.102-1.496-0.379c-0.174-0.178-0.26-0.451-0.26-0.82v-3.639H81.625z"/>
			<path fill="#FFFFFF" d="M90.859,324.555c-0.5,0.615-1.258,0.924-2.273,0.924s-1.771-0.309-2.271-0.924
				c-0.498-0.615-0.748-1.357-0.748-2.225c0-0.852,0.25-1.59,0.748-2.215c0.5-0.625,1.256-0.938,2.271-0.938
				s1.773,0.312,2.273,0.938c0.498,0.625,0.748,1.363,0.748,2.215C91.607,323.198,91.357,323.94,90.859,324.555z M89.623,323.702
				c0.242-0.322,0.363-0.779,0.363-1.371s-0.121-1.047-0.363-1.367c-0.242-0.318-0.59-0.479-1.041-0.479
				c-0.453,0-0.801,0.16-1.045,0.479c-0.244,0.32-0.365,0.775-0.365,1.367s0.121,1.049,0.365,1.371
				c0.244,0.32,0.592,0.48,1.045,0.48C89.033,324.182,89.381,324.022,89.623,323.702z"/>
			<path fill="#FFFFFF" d="M100.768,320.002c0.482,0.51,0.725,1.258,0.725,2.244c0,1.041-0.236,1.836-0.707,2.381
				c-0.473,0.547-1.078,0.818-1.82,0.818c-0.473,0-0.867-0.117-1.18-0.352c-0.17-0.131-0.338-0.32-0.502-0.57v3.08h-1.529v-8.236
				h1.48v0.873c0.168-0.256,0.346-0.459,0.535-0.607c0.346-0.264,0.756-0.395,1.232-0.395
				C99.697,319.239,100.285,319.493,100.768,320.002z M99.582,321.114c-0.209-0.35-0.551-0.525-1.021-0.525
				c-0.566,0-0.955,0.266-1.166,0.797c-0.111,0.281-0.166,0.641-0.166,1.074c0,0.686,0.186,1.168,0.553,1.447
				c0.221,0.162,0.479,0.244,0.779,0.244c0.434,0,0.766-0.166,0.994-0.5c0.229-0.332,0.342-0.775,0.342-1.328
				C99.896,321.868,99.793,321.465,99.582,321.114z"/>
			<path fill="#FFFFFF" d="M105.863,319.229c0.021,0.002,0.064,0.006,0.135,0.01v1.582c-0.098-0.01-0.186-0.018-0.262-0.021
				s-0.137-0.006-0.184-0.006c-0.621,0-1.039,0.203-1.252,0.607c-0.121,0.229-0.18,0.578-0.18,1.053v2.824h-1.557v-5.91h1.475v1.031
				c0.238-0.395,0.447-0.664,0.625-0.809c0.289-0.242,0.664-0.363,1.127-0.363C105.82,319.227,105.844,319.227,105.863,319.229z"/>
			<path fill="#FFFFFF" d="M108.492,318.663h-1.566v-1.426h1.566V318.663z M106.926,319.368h1.566v5.91h-1.566V319.368z"/>
			<path fill="#FFFFFF" d="M113.523,321.489c-0.029-0.221-0.104-0.42-0.223-0.598c-0.174-0.238-0.443-0.357-0.811-0.357
				c-0.521,0-0.879,0.258-1.07,0.775c-0.102,0.273-0.152,0.639-0.152,1.092c0,0.434,0.051,0.781,0.152,1.045
				c0.186,0.492,0.533,0.736,1.043,0.736c0.363,0,0.621-0.098,0.773-0.291c0.152-0.195,0.244-0.449,0.277-0.76h1.576
				c-0.035,0.469-0.205,0.914-0.51,1.334c-0.484,0.676-1.203,1.014-2.154,1.014s-1.652-0.281-2.102-0.846
				c-0.447-0.564-0.672-1.295-0.672-2.193c0-1.014,0.248-1.803,0.744-2.367c0.494-0.564,1.18-0.846,2.051-0.846
				c0.742,0,1.35,0.166,1.82,0.498c0.473,0.334,0.752,0.92,0.84,1.764H113.523z"/>
			<path fill="#FFFFFF" d="M120.016,319.487c0.412,0.186,0.752,0.477,1.021,0.875c0.242,0.352,0.398,0.758,0.471,1.223
				c0.041,0.271,0.059,0.662,0.051,1.172h-4.305c0.023,0.594,0.23,1.01,0.617,1.248c0.236,0.148,0.521,0.223,0.854,0.223
				c0.352,0,0.637-0.092,0.857-0.271c0.119-0.098,0.227-0.234,0.318-0.406h1.578c-0.043,0.35-0.232,0.705-0.574,1.068
				c-0.529,0.574-1.27,0.861-2.223,0.861c-0.787,0-1.48-0.242-2.082-0.727c-0.602-0.486-0.902-1.273-0.902-2.367
				c0-1.023,0.271-1.809,0.814-2.355c0.543-0.545,1.248-0.818,2.113-0.818C119.141,319.211,119.604,319.303,120.016,319.487z
				 M117.703,320.823c-0.219,0.225-0.355,0.529-0.412,0.914h2.664c-0.029-0.41-0.166-0.721-0.412-0.934s-0.553-0.318-0.916-0.318
				C118.229,320.485,117.922,320.598,117.703,320.823z"/>
			<path fill="#FFFFFF" d="M125.822,319.303c0.285-0.666,0.703-1.381,1.252-2.148h1.166l-0.33,0.607
				c-0.457,0.836-0.773,1.711-0.949,2.625c-0.117,0.6-0.174,1.254-0.174,1.963c0,1.105,0.16,2.123,0.482,3.053
				c0.188,0.549,0.52,1.254,0.998,2.115h-1.145l-0.385-0.525c-0.25-0.318-0.516-0.793-0.797-1.422
				c-0.504-1.123-0.754-2.23-0.754-3.318C125.188,321.262,125.398,320.28,125.822,319.303z"/>
			<path fill="#FFFFFF" d="M129.248,317.286h1.697v4.908c0,0.549,0.064,0.951,0.195,1.203c0.201,0.449,0.641,0.672,1.318,0.672
				c0.674,0,1.111-0.223,1.312-0.672c0.129-0.252,0.195-0.654,0.195-1.203v-4.908h1.697v4.912c0,0.85-0.133,1.512-0.396,1.984
				c-0.49,0.869-1.426,1.303-2.809,1.303s-2.32-0.434-2.814-1.303c-0.264-0.473-0.396-1.135-0.396-1.984V317.286z"/>
			<path fill="#FFFFFF" d="M138.473,322.811c0.051,0.365,0.152,0.639,0.305,0.818c0.275,0.33,0.75,0.494,1.422,0.494
				c0.402,0,0.729-0.043,0.98-0.131c0.477-0.166,0.713-0.475,0.713-0.926c0-0.266-0.115-0.469-0.35-0.613
				c-0.232-0.141-0.602-0.266-1.109-0.375l-0.865-0.189c-0.85-0.188-1.434-0.393-1.752-0.613c-0.539-0.367-0.809-0.945-0.809-1.729
				c0-0.717,0.264-1.311,0.791-1.785c0.527-0.473,1.301-0.709,2.322-0.709c0.852,0,1.578,0.223,2.182,0.67
				c0.602,0.445,0.918,1.094,0.947,1.943h-1.605c-0.029-0.48-0.244-0.822-0.645-1.025c-0.268-0.133-0.6-0.201-0.996-0.201
				c-0.441,0-0.793,0.088-1.057,0.262c-0.262,0.174-0.395,0.416-0.395,0.727c0,0.285,0.131,0.498,0.391,0.639
				c0.166,0.094,0.52,0.205,1.061,0.332l1.402,0.33c0.615,0.145,1.076,0.338,1.383,0.58c0.477,0.377,0.715,0.92,0.715,1.633
				c0,0.73-0.283,1.336-0.848,1.818s-1.361,0.725-2.391,0.725c-1.053,0-1.881-0.238-2.484-0.713
				c-0.602-0.477-0.904-1.129-0.904-1.961H138.473z"/>
			<path fill="#FFFFFF" d="M147.18,326.563h-0.525v-1.078c-0.713-0.08-1.244-0.236-1.596-0.467c-0.617-0.416-0.922-1.125-0.91-2.125
				h1.465c0.051,0.455,0.121,0.76,0.211,0.916c0.141,0.242,0.418,0.398,0.83,0.471v-2.314l-0.439-0.131
				c-0.691-0.201-1.178-0.484-1.461-0.846c-0.285-0.361-0.426-0.797-0.426-1.307c0-0.336,0.055-0.641,0.164-0.916
				c0.111-0.275,0.266-0.512,0.465-0.711c0.256-0.256,0.541-0.434,0.855-0.531c0.191-0.061,0.473-0.105,0.842-0.135v-0.721h0.525
				v0.73c0.586,0.047,1.047,0.193,1.381,0.434c0.609,0.389,0.924,1.016,0.945,1.883h-1.426c-0.029-0.322-0.082-0.557-0.16-0.705
				c-0.137-0.256-0.383-0.398-0.74-0.424v2.066c0.857,0.297,1.432,0.559,1.727,0.787c0.486,0.379,0.73,0.914,0.73,1.604
				c0,0.912-0.336,1.574-1.004,1.986c-0.408,0.252-0.893,0.4-1.453,0.443V326.563z M146.654,318.598
				c-0.314,0.008-0.549,0.092-0.699,0.252c-0.152,0.16-0.229,0.381-0.229,0.658c0,0.305,0.113,0.545,0.342,0.723
				c0.127,0.098,0.322,0.188,0.586,0.27V318.598z M147.18,324.264c0.281-0.035,0.488-0.102,0.617-0.195
				c0.225-0.166,0.338-0.453,0.338-0.861c0-0.311-0.105-0.557-0.316-0.738c-0.125-0.104-0.338-0.213-0.639-0.324V324.264z"/>
			<path fill="#FFFFFF" d="M152.561,319.303c0.422,0.977,0.633,1.959,0.633,2.949c0,1.088-0.25,2.195-0.752,3.318
				c-0.281,0.629-0.547,1.104-0.795,1.422l-0.385,0.525h-1.143c0.475-0.861,0.807-1.566,0.994-2.115
				c0.32-0.93,0.48-1.947,0.48-3.053c0-0.709-0.057-1.363-0.172-1.963c-0.178-0.914-0.492-1.789-0.945-2.625l-0.33-0.607h1.164
				C151.859,317.922,152.275,318.637,152.561,319.303z"/>
		</g>
	</g>
	<g>
		<path fill="#26A9E0" d="M130.152,353.202c0,8.438-6.84,15.275-15.277,15.275c-8.436,0-15.271-6.838-15.271-15.275
			c0-8.436,6.836-15.273,15.271-15.273C123.312,337.928,130.152,344.766,130.152,353.202z"/>
		<g>
			<g>
				<path fill="#FFFFFF" d="M107.545,351.026v-1.463c0.678-0.029,1.15-0.074,1.422-0.135c0.432-0.096,0.781-0.287,1.053-0.574
					c0.186-0.195,0.326-0.457,0.422-0.783c0.055-0.197,0.082-0.342,0.082-0.438h1.795v10.934h-2.201v-7.541H107.545z"/>
				<path fill="#FFFFFF" d="M121.234,349.028c0.561,0.98,0.842,2.373,0.842,4.178s-0.281,3.195-0.842,4.17
					c-0.561,0.977-1.537,1.463-2.93,1.463s-2.369-0.486-2.93-1.463c-0.561-0.975-0.84-2.365-0.84-4.17s0.279-3.197,0.84-4.178
					s1.537-1.471,2.93-1.471S120.674,348.047,121.234,349.028z M117.039,356.09c0.205,0.666,0.627,0.998,1.266,0.998
					s1.059-0.332,1.256-0.998c0.199-0.666,0.299-1.627,0.299-2.885c0-1.316-0.1-2.293-0.299-2.926
					c-0.197-0.633-0.617-0.951-1.256-0.951s-1.061,0.318-1.266,0.951c-0.207,0.633-0.311,1.609-0.311,2.926
					C116.729,354.463,116.832,355.424,117.039,356.09z"/>
			</g>
		</g>
		<circle fill="#A6A8AB" cx="75.812" cy="353.202" r="15.274"/>
		<g>
			<g>
				<path fill="#FFFFFF" d="M74.33,355.641c0.084,0.469,0.248,0.828,0.488,1.082s0.592,0.381,1.053,0.381
					c0.533,0,0.938-0.188,1.217-0.561c0.277-0.375,0.416-0.846,0.416-1.414c0-0.559-0.129-1.029-0.391-1.414
					s-0.668-0.578-1.219-0.578c-0.262,0-0.486,0.033-0.678,0.098c-0.336,0.121-0.588,0.346-0.76,0.672l-1.926-0.09l0.768-6.041
					h6.016v1.824H74.85l-0.393,2.391c0.332-0.215,0.59-0.359,0.775-0.43c0.312-0.115,0.691-0.172,1.139-0.172
					c0.902,0,1.691,0.303,2.363,0.912c0.674,0.607,1.01,1.492,1.01,2.654c0,1.01-0.324,1.912-0.973,2.707
					c-0.646,0.795-1.617,1.191-2.906,1.191c-1.041,0-1.895-0.279-2.562-0.838c-0.668-0.557-1.039-1.35-1.115-2.375H74.33z"/>
			</g>
		</g>
		<circle fill="#A6A8AB" cx="153.951" cy="353.202" r="15.275"/>
		<g>
			<g>
				<path fill="#FFFFFF" d="M146.535,356.418c0.307-0.729,1.031-1.502,2.172-2.316c0.99-0.707,1.631-1.215,1.924-1.521
					c0.447-0.479,0.67-1.002,0.67-1.57c0-0.461-0.127-0.846-0.385-1.152c-0.256-0.307-0.623-0.461-1.1-0.461
					c-0.654,0-1.1,0.244-1.336,0.732c-0.135,0.281-0.215,0.729-0.24,1.342h-2.09c0.035-0.93,0.203-1.682,0.506-2.254
					c0.574-1.092,1.594-1.637,3.057-1.637c1.158,0,2.08,0.32,2.764,0.961s1.027,1.49,1.027,2.545c0,0.811-0.242,1.529-0.727,2.156
					c-0.316,0.418-0.838,0.883-1.562,1.396l-0.861,0.609c-0.539,0.383-0.908,0.66-1.107,0.83c-0.199,0.172-0.365,0.369-0.502,0.596
					h4.773v1.893h-7.488C146.051,357.784,146.219,357.067,146.535,356.418z"/>
				<path fill="#FFFFFF" d="M161.121,349.028c0.561,0.98,0.84,2.373,0.84,4.178s-0.279,3.195-0.84,4.17
					c-0.561,0.977-1.537,1.463-2.93,1.463s-2.369-0.486-2.93-1.463c-0.561-0.975-0.842-2.365-0.842-4.17s0.281-3.197,0.842-4.178
					s1.537-1.471,2.93-1.471S160.561,348.047,161.121,349.028z M156.924,356.09c0.207,0.666,0.629,0.998,1.268,0.998
					s1.057-0.332,1.256-0.998c0.197-0.666,0.297-1.627,0.297-2.885c0-1.316-0.1-2.293-0.297-2.926
					c-0.199-0.633-0.617-0.951-1.256-0.951s-1.061,0.318-1.268,0.951c-0.205,0.633-0.309,1.609-0.309,2.926
					C156.615,354.463,156.719,355.424,156.924,356.09z"/>
			</g>
		</g>
		<circle fill="#A6A8AB" cx="193.025" cy="353.202" r="15.275"/>
		<g>
			<g>
				<path fill="#FFFFFF" d="M187.141,355.211c0,0.438,0.07,0.799,0.211,1.086c0.26,0.527,0.734,0.791,1.422,0.791
					c0.42,0,0.789-0.143,1.102-0.434c0.314-0.289,0.471-0.705,0.471-1.248c0-0.719-0.291-1.197-0.873-1.439
					c-0.33-0.137-0.852-0.203-1.562-0.203v-1.539c0.695-0.01,1.182-0.078,1.457-0.203c0.477-0.211,0.715-0.639,0.715-1.283
					c0-0.416-0.123-0.756-0.365-1.018c-0.244-0.262-0.586-0.393-1.027-0.393c-0.506,0-0.879,0.162-1.117,0.484
					c-0.238,0.32-0.352,0.75-0.342,1.289h-2.006c0.02-0.543,0.113-1.059,0.279-1.547c0.176-0.426,0.451-0.822,0.828-1.184
					c0.281-0.256,0.615-0.453,1.002-0.588c0.387-0.137,0.861-0.203,1.424-0.203c1.045,0,1.887,0.27,2.527,0.811
					c0.641,0.539,0.961,1.266,0.961,2.176c0,0.643-0.191,1.186-0.574,1.629c-0.24,0.275-0.492,0.465-0.754,0.564
					c0.197,0,0.479,0.168,0.846,0.506c0.547,0.508,0.822,1.201,0.822,2.082c0,0.924-0.32,1.738-0.961,2.439
					s-1.588,1.051-2.844,1.051c-1.547,0-2.623-0.504-3.225-1.516c-0.316-0.537-0.492-1.242-0.527-2.111H187.141z"/>
				<path fill="#FFFFFF" d="M200.186,349.028c0.561,0.98,0.84,2.373,0.84,4.178s-0.279,3.195-0.84,4.17
					c-0.561,0.977-1.537,1.463-2.93,1.463s-2.369-0.486-2.93-1.463c-0.561-0.975-0.842-2.365-0.842-4.17s0.281-3.197,0.842-4.178
					s1.537-1.471,2.93-1.471S199.625,348.047,200.186,349.028z M195.988,356.09c0.207,0.666,0.629,0.998,1.268,0.998
					s1.057-0.332,1.256-0.998c0.197-0.666,0.297-1.627,0.297-2.885c0-1.316-0.1-2.293-0.297-2.926
					c-0.199-0.633-0.617-0.951-1.256-0.951s-1.061,0.318-1.268,0.951c-0.205,0.633-0.309,1.609-0.309,2.926
					C195.68,354.463,195.783,355.424,195.988,356.09z"/>
			</g>
		</g>
		<g>
			<polygon fill="#FFFFFF" points="122.656,372.94 122.656,375.766 121.24,375.766 121.24,371.524 119.826,371.524 119.826,374.352 
				118.412,374.352 118.412,370.112 116.998,370.112 116.998,374.352 115.586,374.352 115.586,364.456 112.758,364.456 
				112.758,378.592 111.342,378.592 111.342,375.766 109.928,375.766 109.928,374.352 108.514,374.352 108.514,372.94 
				105.688,372.94 105.688,375.766 107.102,375.766 107.102,377.18 108.514,377.18 108.514,380.01 109.928,380.01 109.928,381.424 
				111.342,381.424 111.342,382.836 112.758,382.836 112.758,385.665 121.24,385.665 121.24,382.836 122.656,382.836 
				122.656,380.01 124.066,380.01 124.066,372.94 			"/>
			<path fill="#000100" d="M104.273,375.766h1.414v-2.826h-1.414V375.766z M105.688,371.524v1.416h2.826v-1.416H105.688z
				 M108.514,372.94v1.412h1.414v-1.412H108.514z M111.342,374.352h-1.414v1.414h1.414v2.826h1.416v-14.137h-1.416V374.352z
				 M112.758,363.042v1.414h2.828v-1.414H112.758z M107.102,377.18v-1.414h-1.414v1.414H107.102z M108.514,380.01v-2.83h-1.412v2.83
				H108.514z M109.928,381.424v-1.414h-1.414v1.414H109.928z M111.342,382.836v-1.412h-1.414v1.412H111.342z M112.758,385.665
				v-2.828h-1.416v2.828H112.758z M122.656,371.524v-1.412h-2.83v-1.416h-2.828v-4.24h-1.412v9.896h1.412v-4.24h1.414v4.24h1.414
				v-2.828h1.414v4.242h1.416v-2.826h1.41v7.07h1.416v-8.486H122.656z M122.656,382.836h1.41v-2.826h-1.41V382.836z M121.24,385.665
				h1.416v-2.828h-1.416V385.665z"/>
		</g>
	</g>
	<g>
		<g>
			<path fill="#FFFFFF" d="M109.002,83.601h-5.416l-3.123-3.413H90.207l-3.123,3.413H81.66c-0.777,0-1.488,0.275-2.066,0.722
				l9.275,7.375c1.568-1.816,3.881-2.971,6.463-2.971c4.717,0,8.547,3.834,8.547,8.544c0,4.716-3.83,8.544-8.547,8.544
				c-2.701,0-5.104-1.257-6.67-3.216l-9.338,7.399c0.613,0.58,1.434,0.941,2.336,0.941h27.342c1.877,0,3.414-1.537,3.414-3.415
				V87.021C112.416,85.142,110.879,83.601,109.002,83.601z M95.332,102.738c3.021,0,5.469-2.446,5.469-5.468
				c0-3.019-2.447-5.467-5.469-5.467c-1.607,0-3.041,0.709-4.041,1.816l4.344,3.454l-4.547,3.604
				C92.09,101.926,93.609,102.738,95.332,102.738z"/>
			<linearGradient id="SVGID_2_" gradientUnits="userSpaceOnUse" x1="95.6348" y1="97.1436" x2="112.416" y2="97.1436">
				<stop  offset="0" style="stop-color:#585757"/>
				<stop  offset="0.2092" style="stop-color:#757474"/>
				<stop  offset="0.4527" style="stop-color:#919090"/>
				<stop  offset="0.5935" style="stop-color:#9B9A9B"/>
				<stop  offset="0.8889" style="stop-color:#BAB8B8"/>
				<stop  offset="1" style="stop-color:#C7C5C4"/>
			</linearGradient>
			<path fill="url(#SVGID_2_)" d="M95.635,97.074l4.184,3.313c0.615-0.884,0.982-1.956,0.982-3.117c0-1.272-0.453-2.43-1.184-3.358
				L95.635,97.074z M111.369,84.569l-9.334,7.419c1.152,1.454,1.844,3.287,1.844,5.282c0,1.881-0.617,3.616-1.646,5.027l9.363,7.42
				c0.502-0.597,0.82-1.355,0.82-2.193V87.021C112.416,86.061,112.012,85.191,111.369,84.569z"/>
			<polygon fill="#37A6DE" points="74.029,82.482 92.371,97.01 74.029,111.604 69.488,97.01 			"/>
			<path fill="#2071B7" d="M79.088,97.041c0,8.728-3.711,15.803-8.283,15.803s-8.279-7.075-8.279-15.803
				c0-8.725,3.707-15.801,8.279-15.801S79.088,88.316,79.088,97.041z"/>
			<path fill="#FFFFFF" d="M67.139,89.66l1.766-0.293v7.461l2.52-4.064l2.783-0.227l-3.053,4.26l3.178,7.194l-2.74-0.424
				l-1.891-4.741l-0.797,1.104v3.221l-1.766-0.276V89.66z"/>
		</g>
	</g>
</g>
</svg>
