<?xml version="1.0" encoding="utf-8"?>
<!-- Generator: Adobe Illustrator 16.0.5, SVG Export Plug-In . SVG Version: 6.00 Build 0)  -->
<!DOCTYPE svg PUBLIC "-//W3C//DTD SVG 1.1//EN" "http://www.w3.org/Graphics/SVG/1.1/DTD/svg11.dtd">
<svg version="1.1" id="Layer_1" xmlns="http://www.w3.org/2000/svg" xmlns:xlink="http://www.w3.org/1999/xlink" x="0px" y="0px"
	 width="264.101px" height="392.705px" viewBox="0 0 264.101 392.705" enable-background="new 0 0 264.101 392.705"
	 xml:space="preserve">
<g>
	<g>
		<g>
			<path fill="#29ABE2" d="M50.72,44.53c0.065,0.55,0.207,0.94,0.426,1.172c0.385,0.412,1.098,0.618,2.137,0.618
				c0.61,0,1.096-0.09,1.455-0.271c0.36-0.181,0.54-0.451,0.54-0.813c0-0.347-0.146-0.611-0.435-0.792
				c-0.29-0.181-1.369-0.492-3.235-0.934c-1.345-0.332-2.291-0.748-2.841-1.248c-0.55-0.491-0.824-1.2-0.824-2.126
				c0-1.093,0.429-2.031,1.288-2.816c0.858-0.785,2.067-1.178,3.627-1.178c1.479,0,2.685,0.295,3.616,0.885
				c0.931,0.59,1.466,1.607,1.604,3.055h-3.093c-0.044-0.397-0.155-0.713-0.337-0.944c-0.342-0.419-0.922-0.629-1.741-0.629
				c-0.675,0-1.155,0.104-1.442,0.314c-0.286,0.21-0.43,0.456-0.43,0.738c0,0.354,0.152,0.611,0.457,0.771
				c0.305,0.166,1.381,0.452,3.229,0.856c1.231,0.29,2.155,0.728,2.771,1.313c0.607,0.593,0.912,1.335,0.912,2.225
				c0,1.172-0.438,2.129-1.311,2.87c-0.874,0.741-2.225,1.112-4.051,1.112c-1.863,0-3.238-0.393-4.127-1.178
				c-0.887-0.784-1.331-1.785-1.331-3H50.72z"/>
			<path fill="#29ABE2" d="M63.86,35.067h-3.135v-2.854h3.135V35.067z M60.726,36.479h3.135v11.828h-3.135V36.479z"/>
			<path fill="#29ABE2" d="M81.614,36.521c0.506,0.203,0.965,0.558,1.377,1.063c0.334,0.412,0.558,0.919,0.674,1.52
				c0.072,0.397,0.107,0.98,0.107,1.747l-0.021,7.455h-3.168v-7.531c0-0.448-0.072-0.817-0.217-1.106
				c-0.275-0.55-0.781-0.825-1.52-0.825c-0.854,0-1.443,0.354-1.77,1.063c-0.166,0.376-0.249,0.829-0.249,1.356v7.043h-3.114v-7.043
				c0-0.701-0.072-1.212-0.217-1.53c-0.261-0.571-0.771-0.856-1.53-0.856c-0.883,0-1.476,0.285-1.78,0.856
				c-0.166,0.326-0.249,0.811-0.249,1.454v7.119h-3.136V36.5h3.006v1.726c0.383-0.615,0.744-1.053,1.085-1.313
				c0.601-0.463,1.378-0.694,2.333-0.694c0.904,0,1.635,0.199,2.191,0.597c0.449,0.369,0.789,0.843,1.021,1.422
				c0.405-0.694,0.907-1.204,1.509-1.53c0.637-0.325,1.346-0.488,2.127-0.488C80.594,36.218,81.107,36.319,81.614,36.521z"/>
			<path fill="#29ABE2" d="M96.563,37.748c0.965,1.02,1.447,2.518,1.447,4.492c0,2.084-0.473,3.672-1.415,4.764
				c-0.942,1.093-2.157,1.639-3.643,1.639c-0.946,0-1.733-0.235-2.358-0.705c-0.343-0.261-0.678-0.641-1.006-1.14v6.164h-3.06
				V36.479h2.962v1.747c0.336-0.514,0.691-0.919,1.07-1.216c0.691-0.527,1.515-0.792,2.469-0.792
				C94.421,36.218,95.599,36.728,96.563,37.748z M94.189,39.973c-0.421-0.702-1.103-1.053-2.044-1.053
				c-1.134,0-1.912,0.531-2.336,1.595c-0.219,0.564-0.328,1.281-0.328,2.149c0,1.374,0.368,2.34,1.105,2.896
				c0.439,0.326,0.957,0.488,1.557,0.488c0.871,0,1.533-0.332,1.99-0.998c0.457-0.665,0.686-1.552,0.686-2.658
				C94.819,41.48,94.609,40.674,94.189,39.973z"/>
			<path fill="#29ABE2" d="M103.349,48.307h-3.092V32.312h3.092V48.307z"/>
			<path fill="#29ABE2" d="M114.073,36.718c0.825,0.37,1.506,0.953,2.044,1.75c0.484,0.703,0.798,1.518,0.942,2.445
				c0.083,0.543,0.117,1.326,0.102,2.348h-8.614c0.048,1.187,0.46,2.019,1.237,2.495c0.472,0.297,1.04,0.445,1.705,0.445
				c0.704,0,1.276-0.181,1.717-0.543c0.24-0.195,0.452-0.466,0.637-0.813H117c-0.083,0.702-0.466,1.414-1.146,2.138
				c-1.06,1.15-2.543,1.726-4.45,1.726c-1.574,0-2.963-0.485-4.166-1.455c-1.203-0.971-1.805-2.549-1.805-4.735
				c0-2.049,0.543-3.62,1.629-4.714c1.086-1.093,2.496-1.64,4.23-1.64C112.321,36.164,113.248,36.349,114.073,36.718z
				 M109.446,39.39c-0.438,0.45-0.711,1.061-0.824,1.831h5.328c-0.056-0.821-0.33-1.444-0.823-1.869s-1.104-0.638-1.835-0.638
				C110.499,38.714,109.884,38.939,109.446,39.39z"/>
			<path fill="#29ABE2" d="M128.058,48.307h-3.092V32.312h3.092V48.307z"/>
			<path fill="#29ABE2" d="M134.254,35.067h-3.136v-2.854h3.136V35.067z M131.118,36.479h3.136v11.828h-3.136V36.479z"/>
			<path fill="#29ABE2" d="M144.324,40.722c-0.058-0.441-0.207-0.84-0.446-1.194c-0.348-0.478-0.889-0.716-1.621-0.716
				c-1.044,0-1.758,0.518-2.143,1.552c-0.203,0.549-0.305,1.277-0.305,2.187c0,0.866,0.102,1.562,0.305,2.089
				c0.37,0.983,1.066,1.476,2.089,1.476c0.726,0,1.239-0.195,1.544-0.586s0.49-0.896,0.555-1.52h3.158
				c-0.072,0.941-0.412,1.831-1.021,2.67c-0.97,1.353-2.407,2.029-4.312,2.029c-1.905,0-3.306-0.564-4.204-1.693
				c-0.898-1.128-1.347-2.592-1.347-4.39c0-2.028,0.496-3.607,1.487-4.736c0.992-1.128,2.361-1.692,4.107-1.692
				c1.484,0,2.698,0.333,3.644,0.998c0.944,0.666,1.505,1.842,1.679,3.527H144.324z"/>
			<path fill="#29ABE2" d="M157.316,36.718c0.825,0.37,1.507,0.953,2.044,1.75c0.484,0.703,0.799,1.518,0.942,2.445
				c0.083,0.543,0.117,1.326,0.103,2.348h-8.615c0.048,1.187,0.46,2.019,1.236,2.495c0.473,0.297,1.041,0.445,1.705,0.445
				c0.705,0,1.277-0.181,1.718-0.543c0.24-0.195,0.452-0.466,0.637-0.813h3.157c-0.084,0.702-0.465,1.414-1.146,2.138
				c-1.06,1.15-2.543,1.726-4.45,1.726c-1.573,0-2.963-0.485-4.166-1.455c-1.203-0.971-1.805-2.549-1.805-4.735
				c0-2.049,0.543-3.62,1.63-4.714c1.086-1.093,2.496-1.64,4.229-1.64C155.563,36.164,156.491,36.349,157.316,36.718z M152.69,39.39
				c-0.438,0.45-0.713,1.061-0.824,1.831h5.328c-0.057-0.821-0.331-1.444-0.824-1.869s-1.104-0.638-1.834-0.638
				C153.742,38.714,153.126,38.939,152.69,39.39z"/>
			<path fill="#29ABE2" d="M171.507,37.156c0.773,0.641,1.161,1.702,1.161,3.186v7.965h-3.169v-7.194c0-0.622-0.082-1.1-0.247-1.433
				c-0.302-0.607-0.876-0.912-1.724-0.912c-1.041,0-1.756,0.445-2.144,1.335c-0.201,0.471-0.302,1.071-0.302,1.802v6.402h-3.093
				V36.5h2.995v1.726c0.396-0.607,0.771-1.046,1.123-1.313c0.635-0.478,1.438-0.716,2.41-0.716
				C169.736,36.196,170.731,36.517,171.507,37.156z"/>
			<path fill="#29ABE2" d="M177.941,44.53c0.065,0.55,0.208,0.94,0.425,1.172c0.386,0.412,1.098,0.618,2.138,0.618
				c0.61,0,1.096-0.09,1.456-0.271c0.359-0.181,0.539-0.451,0.539-0.813c0-0.347-0.145-0.611-0.435-0.792s-1.368-0.492-3.235-0.934
				c-1.344-0.332-2.291-0.748-2.841-1.248c-0.55-0.491-0.825-1.2-0.825-2.126c0-1.093,0.43-2.031,1.289-2.816
				s2.068-1.178,3.627-1.178c1.479,0,2.684,0.295,3.615,0.885s1.467,1.607,1.604,3.055h-3.093c-0.043-0.397-0.156-0.713-0.338-0.944
				c-0.34-0.419-0.921-0.629-1.74-0.629c-0.675,0-1.155,0.104-1.441,0.314c-0.287,0.21-0.43,0.456-0.43,0.738
				c0,0.354,0.151,0.611,0.457,0.771c0.304,0.166,1.381,0.452,3.229,0.856c1.232,0.29,2.155,0.728,2.771,1.313
				c0.607,0.593,0.911,1.335,0.911,2.225c0,1.172-0.437,2.129-1.311,2.87c-0.873,0.741-2.223,1.112-4.05,1.112
				c-1.862,0-3.238-0.393-4.126-1.178c-0.889-0.784-1.332-1.785-1.332-3H177.941z"/>
			<path fill="#29ABE2" d="M191.083,35.067h-3.137v-2.854h3.137V35.067z M187.946,36.479h3.137v11.828h-3.137V36.479z"/>
			<path fill="#29ABE2" d="M203.616,37.156c0.773,0.641,1.161,1.702,1.161,3.186v7.965h-3.169v-7.194c0-0.622-0.082-1.1-0.247-1.433
				c-0.302-0.607-0.876-0.912-1.724-0.912c-1.041,0-1.756,0.445-2.144,1.335c-0.201,0.471-0.302,1.071-0.302,1.802v6.402H194.1V36.5
				h2.995v1.726c0.396-0.607,0.771-1.046,1.123-1.313c0.635-0.478,1.438-0.716,2.41-0.716
				C201.846,36.196,202.841,36.517,203.616,37.156z"/>
			<path fill="#29ABE2" d="M213.504,36.468c0.751,0.311,1.358,0.883,1.821,1.714v-1.703h3.016v11.22c0,1.526-0.256,2.677-0.77,3.451
				c-0.883,1.331-2.576,1.997-5.078,1.997c-1.513,0-2.746-0.297-3.701-0.891c-0.955-0.593-1.482-1.479-1.584-2.658h3.363
				c0.088,0.361,0.229,0.622,0.424,0.781c0.332,0.282,0.893,0.423,1.682,0.423c1.114,0,1.859-0.372,2.235-1.117
				c0.246-0.478,0.369-1.28,0.369-2.409v-0.76c-0.297,0.507-0.614,0.887-0.955,1.14c-0.614,0.471-1.414,0.705-2.397,0.705
				c-1.52,0-2.733-0.533-3.641-1.601c-0.908-1.066-1.362-2.512-1.362-4.335c0-1.758,0.437-3.235,1.312-4.433
				c0.874-1.197,2.113-1.796,3.717-1.796C212.547,36.196,213.063,36.287,213.504,36.468z M214.558,44.948
				c0.496-0.547,0.745-1.416,0.745-2.61c0-1.121-0.235-1.975-0.708-2.561c-0.472-0.586-1.104-0.879-1.896-0.879
				c-1.08,0-1.826,0.51-2.236,1.53c-0.217,0.542-0.324,1.211-0.324,2.007c0,0.688,0.115,1.299,0.346,1.834
				c0.418,0.998,1.167,1.498,2.248,1.498C213.452,45.768,214.06,45.494,214.558,44.948z"/>
		</g>
	</g>
	<g>
		<g>
			<path fill="#29ABE2" d="M61.843,202.827c0.065,0.55,0.207,0.94,0.426,1.172c0.385,0.412,1.098,0.619,2.137,0.619
				c0.61,0,1.096-0.091,1.455-0.271c0.36-0.182,0.54-0.452,0.54-0.814c0-0.347-0.146-0.611-0.435-0.792
				c-0.29-0.181-1.369-0.491-3.235-0.933c-1.345-0.333-2.291-0.749-2.841-1.248c-0.55-0.492-0.824-1.201-0.824-2.127
				c0-1.092,0.429-2.031,1.288-2.816c0.858-0.785,2.067-1.178,3.627-1.178c1.479,0,2.685,0.295,3.616,0.885
				c0.931,0.59,1.466,1.607,1.604,3.055h-3.093c-0.044-0.397-0.155-0.713-0.337-0.943c-0.342-0.42-0.922-0.63-1.741-0.63
				c-0.675,0-1.155,0.104-1.442,0.314c-0.286,0.21-0.43,0.456-0.43,0.738c0,0.354,0.152,0.611,0.457,0.771
				c0.305,0.166,1.381,0.452,3.229,0.857c1.231,0.289,2.155,0.727,2.771,1.312c0.607,0.594,0.912,1.335,0.912,2.225
				c0,1.172-0.438,2.129-1.311,2.87c-0.874,0.741-2.225,1.112-4.051,1.112c-1.863,0-3.238-0.393-4.127-1.178
				c-0.887-0.784-1.331-1.785-1.331-3H61.843z"/>
			<path fill="#29ABE2" d="M74.983,193.364h-3.135v-2.854h3.135V193.364z M71.849,194.775h3.135v11.828h-3.135V194.775z"/>
			<path fill="#29ABE2" d="M92.737,194.819c0.506,0.202,0.965,0.557,1.377,1.062c0.334,0.412,0.558,0.92,0.674,1.52
				c0.072,0.398,0.107,0.98,0.107,1.747l-0.021,7.455h-3.168v-7.53c0-0.449-0.072-0.818-0.217-1.107
				c-0.275-0.55-0.781-0.824-1.52-0.824c-0.854,0-1.443,0.354-1.77,1.062c-0.166,0.377-0.249,0.829-0.249,1.357v7.042h-3.114v-7.042
				c0-0.702-0.072-1.213-0.217-1.531c-0.261-0.57-0.771-0.856-1.53-0.856c-0.883,0-1.476,0.286-1.78,0.856
				c-0.166,0.326-0.249,0.811-0.249,1.455v7.118h-3.136v-11.806h3.006v1.725c0.383-0.615,0.744-1.053,1.085-1.312
				c0.601-0.463,1.378-0.695,2.333-0.695c0.904,0,1.635,0.199,2.191,0.598c0.449,0.369,0.789,0.842,1.021,1.421
				c0.405-0.694,0.907-1.204,1.509-1.53c0.637-0.325,1.346-0.488,2.127-0.488C91.717,194.515,92.23,194.616,92.737,194.819z"/>
			<path fill="#29ABE2" d="M107.687,196.045c0.965,1.021,1.447,2.518,1.447,4.493c0,2.083-0.473,3.671-1.415,4.764
				c-0.942,1.092-2.157,1.639-3.643,1.639c-0.946,0-1.733-0.236-2.358-0.706c-0.343-0.261-0.678-0.64-1.006-1.14v6.164h-3.06
				v-16.483h2.962v1.747c0.336-0.514,0.691-0.918,1.07-1.215c0.691-0.528,1.515-0.793,2.469-0.793
				C105.544,194.515,106.722,195.024,107.687,196.045z M105.312,198.27c-0.421-0.702-1.103-1.052-2.044-1.052
				c-1.134,0-1.912,0.531-2.336,1.594c-0.219,0.564-0.328,1.281-0.328,2.149c0,1.374,0.368,2.341,1.105,2.897
				c0.439,0.325,0.957,0.488,1.557,0.488c0.871,0,1.533-0.333,1.99-0.998c0.457-0.666,0.686-1.553,0.686-2.659
				C105.942,199.778,105.732,198.972,105.312,198.27z"/>
			<path fill="#29ABE2" d="M114.472,206.604h-3.092v-15.995h3.092V206.604z"/>
			<path fill="#29ABE2" d="M125.196,195.015c0.825,0.37,1.506,0.953,2.044,1.75c0.484,0.703,0.798,1.518,0.942,2.445
				c0.083,0.543,0.117,1.326,0.102,2.348h-8.614c0.048,1.187,0.46,2.019,1.237,2.496c0.472,0.297,1.04,0.445,1.705,0.445
				c0.704,0,1.276-0.182,1.717-0.543c0.24-0.195,0.452-0.467,0.637-0.814h3.157c-0.083,0.702-0.466,1.414-1.146,2.139
				c-1.06,1.149-2.543,1.725-4.45,1.725c-1.574,0-2.963-0.484-4.166-1.455s-1.805-2.549-1.805-4.735c0-2.049,0.543-3.62,1.629-4.714
				c1.086-1.093,2.496-1.64,4.23-1.64C123.444,194.461,124.371,194.646,125.196,195.015z M120.569,197.687
				c-0.438,0.451-0.711,1.061-0.824,1.831h5.328c-0.056-0.821-0.33-1.444-0.823-1.869s-1.104-0.638-1.835-0.638
				C121.622,197.011,121.007,197.236,120.569,197.687z"/>
			<path fill="#29ABE2" d="M145.97,196.045c0.965,1.021,1.447,2.518,1.447,4.493c0,2.083-0.471,3.671-1.414,4.764
				c-0.943,1.092-2.157,1.639-3.643,1.639c-0.946,0-1.732-0.236-2.359-0.706c-0.342-0.261-0.677-0.64-1.004-1.14v6.164h-3.061
				v-16.483h2.963v1.747c0.334-0.514,0.691-0.918,1.07-1.215c0.691-0.528,1.514-0.793,2.468-0.793
				C143.827,194.515,145.005,195.024,145.97,196.045z M143.597,198.27c-0.42-0.702-1.102-1.052-2.045-1.052
				c-1.133,0-1.91,0.531-2.335,1.594c-0.22,0.564-0.329,1.281-0.329,2.149c0,1.374,0.369,2.341,1.107,2.897
				c0.438,0.325,0.957,0.488,1.557,0.488c0.869,0,1.533-0.333,1.99-0.998c0.457-0.666,0.686-1.553,0.686-2.659
				C144.228,199.778,144.017,198.972,143.597,198.27z"/>
			<path fill="#29ABE2" d="M156.169,194.499c0.039,0.004,0.128,0.009,0.266,0.016v3.169c-0.195-0.021-0.369-0.036-0.521-0.044
				c-0.151-0.006-0.274-0.01-0.369-0.01c-1.244,0-2.079,0.404-2.506,1.215c-0.238,0.455-0.358,1.158-0.358,2.105v5.653h-3.114
				v-11.828h2.951v2.062c0.479-0.788,0.895-1.327,1.248-1.617c0.579-0.484,1.332-0.727,2.258-0.727
				C156.08,194.493,156.129,194.495,156.169,194.499z"/>
			<path fill="#29ABE2" d="M161.427,193.364h-3.137v-2.854h3.137V193.364z M158.29,194.775h3.137v11.828h-3.137V194.775z"/>
			<path fill="#29ABE2" d="M171.497,199.019c-0.059-0.441-0.207-0.84-0.447-1.193c-0.348-0.479-0.888-0.717-1.62-0.717
				c-1.044,0-1.759,0.518-2.144,1.552c-0.203,0.549-0.304,1.277-0.304,2.187c0,0.866,0.101,1.562,0.304,2.089
				c0.371,0.983,1.066,1.476,2.09,1.476c0.725,0,1.239-0.195,1.544-0.586s0.489-0.896,0.555-1.52h3.157
				c-0.072,0.941-0.412,1.831-1.021,2.67c-0.97,1.354-2.407,2.029-4.312,2.029c-1.905,0-3.307-0.564-4.205-1.693
				c-0.897-1.128-1.346-2.592-1.346-4.389c0-2.029,0.496-3.607,1.487-4.736c0.992-1.129,2.36-1.693,4.106-1.693
				c1.484,0,2.699,0.333,3.645,0.998c0.944,0.666,1.504,1.842,1.678,3.527H171.497z"/>
			<path fill="#29ABE2" d="M179.96,193.364h-3.135v-2.854h3.135V193.364z M176.825,194.775h3.135v11.828h-3.135V194.775z"/>
			<path fill="#29ABE2" d="M192.493,195.454c0.774,0.64,1.162,1.701,1.162,3.185v7.965h-3.169v-7.194c0-0.622-0.083-1.1-0.247-1.433
				c-0.303-0.607-0.877-0.911-1.725-0.911c-1.041,0-1.756,0.445-2.143,1.334c-0.201,0.471-0.303,1.071-0.303,1.802v6.402h-3.092
				v-11.806h2.994v1.725c0.396-0.607,0.771-1.045,1.124-1.312c0.634-0.479,1.438-0.717,2.41-0.717
				C190.724,194.493,191.719,194.813,192.493,195.454z"/>
			<path fill="#29ABE2" d="M202.382,194.765c0.752,0.311,1.358,0.883,1.82,1.715v-1.704h3.018v11.22
				c0,1.527-0.258,2.678-0.771,3.451c-0.883,1.331-2.574,1.997-5.078,1.997c-1.512,0-2.745-0.297-3.7-0.89
				c-0.954-0.594-1.483-1.48-1.584-2.658h3.364c0.086,0.361,0.228,0.621,0.423,0.781c0.333,0.281,0.894,0.422,1.682,0.422
				c1.114,0,1.859-0.372,2.235-1.117c0.246-0.477,0.369-1.28,0.369-2.408v-0.76c-0.297,0.506-0.615,0.886-0.955,1.139
				c-0.615,0.471-1.414,0.705-2.398,0.705c-1.519,0-2.732-0.533-3.641-1.6c-0.908-1.067-1.361-2.513-1.361-4.336
				c0-1.758,0.438-3.234,1.311-4.433c0.875-1.197,2.113-1.796,3.718-1.796C201.425,194.493,201.94,194.584,202.382,194.765z
				 M203.435,203.245c0.498-0.547,0.746-1.416,0.746-2.609c0-1.121-0.236-1.976-0.707-2.562c-0.473-0.586-1.104-0.879-1.896-0.879
				c-1.081,0-1.826,0.511-2.237,1.53c-0.216,0.543-0.324,1.211-0.324,2.008c0,0.688,0.115,1.299,0.346,1.834
				c0.418,0.998,1.167,1.497,2.247,1.497C202.329,204.064,202.938,203.792,203.435,203.245z"/>
		</g>
	</g>
	<g>
		<g>
			<path fill="#999999" d="M101.915,17.366c0.338,0.145,0.625,0.358,0.859,0.641c0.193,0.232,0.348,0.49,0.461,0.772
				s0.17,0.604,0.17,0.965c0,0.436-0.109,0.864-0.33,1.286c-0.22,0.421-0.583,0.719-1.09,0.894c0.424,0.17,0.725,0.411,0.9,0.725
				s0.265,0.792,0.265,1.436V24.7c0,0.419,0.017,0.704,0.051,0.854c0.05,0.236,0.169,0.41,0.354,0.522v0.23h-2.117
				c-0.059-0.203-0.1-0.367-0.125-0.492c-0.05-0.257-0.076-0.521-0.08-0.79l-0.014-0.854c-0.008-0.585-0.108-0.976-0.303-1.17
				c-0.194-0.195-0.559-0.293-1.093-0.293h-1.872v3.599h-1.875v-9.178h4.391C101.095,17.142,101.577,17.221,101.915,17.366z
				 M97.952,18.723v2.466h2.062c0.41,0,0.718-0.05,0.923-0.149c0.362-0.174,0.544-0.519,0.544-1.033c0-0.557-0.176-0.93-0.525-1.121
				c-0.197-0.107-0.493-0.162-0.888-0.162H97.952z"/>
			<path fill="#999999" d="M110.759,25.477c-0.572,0.707-1.442,1.061-2.609,1.061c-1.166,0-2.035-0.354-2.608-1.061
				s-0.858-1.559-0.858-2.554c0-0.979,0.285-1.827,0.858-2.545c0.573-0.717,1.442-1.076,2.608-1.076
				c1.167,0,2.037,0.359,2.609,1.076c0.572,0.718,0.859,1.566,0.859,2.545C111.618,23.918,111.331,24.77,110.759,25.477z
				 M109.339,24.496c0.278-0.369,0.418-0.894,0.418-1.573s-0.14-1.203-0.418-1.57c-0.277-0.366-0.676-0.55-1.195-0.55
				c-0.519,0-0.918,0.184-1.198,0.55c-0.28,0.367-0.421,0.891-0.421,1.57s0.141,1.204,0.421,1.573
				c0.28,0.368,0.68,0.553,1.198,0.553C108.663,25.049,109.062,24.864,109.339,24.496z"/>
			<path fill="#999999" d="M113.155,27.608l0.225,0.012c0.174,0.009,0.34,0.002,0.498-0.019s0.291-0.068,0.398-0.144
				c0.104-0.07,0.201-0.218,0.289-0.441c0.09-0.225,0.129-0.361,0.116-0.411l-2.494-7.085h1.974l1.482,5.006l1.4-5.006h1.887
				l-2.326,6.674c-0.45,1.287-0.806,2.085-1.067,2.395c-0.263,0.309-0.786,0.464-1.571,0.464c-0.158,0-0.284-0.001-0.38-0.004
				c-0.096-0.002-0.239-0.009-0.431-0.021V27.608z"/>
			<path fill="#999999" d="M122.668,22.179c0.33-0.041,0.566-0.094,0.708-0.155c0.256-0.108,0.383-0.276,0.383-0.505
				c0-0.278-0.098-0.47-0.293-0.576c-0.195-0.105-0.482-0.158-0.861-0.158c-0.426,0-0.727,0.104-0.902,0.312
				c-0.127,0.153-0.211,0.36-0.253,0.622h-1.712c0.037-0.594,0.204-1.081,0.5-1.463c0.471-0.598,1.279-0.896,2.426-0.896
				c0.746,0,1.41,0.147,1.989,0.441c0.579,0.295,0.869,0.852,0.869,1.669v3.113c0,0.216,0.004,0.478,0.013,0.784
				c0.012,0.232,0.047,0.391,0.105,0.474s0.145,0.151,0.262,0.205v0.262h-1.93c-0.055-0.137-0.092-0.266-0.113-0.386
				c-0.021-0.121-0.037-0.258-0.049-0.411c-0.246,0.266-0.531,0.492-0.852,0.679c-0.385,0.22-0.818,0.33-1.303,0.33
				c-0.619,0-1.129-0.176-1.531-0.526c-0.403-0.351-0.605-0.848-0.605-1.491c0-0.834,0.324-1.438,0.973-1.812
				c0.355-0.203,0.879-0.349,1.568-0.437L122.668,22.179z M123.753,23.007c-0.113,0.07-0.229,0.128-0.344,0.171
				c-0.116,0.044-0.275,0.084-0.477,0.122l-0.404,0.074c-0.379,0.066-0.65,0.147-0.815,0.243c-0.279,0.161-0.419,0.413-0.419,0.753
				c0,0.303,0.085,0.522,0.256,0.657c0.17,0.135,0.378,0.202,0.623,0.202c0.387,0,0.744-0.112,1.071-0.336
				c0.327-0.225,0.496-0.633,0.509-1.227V23.007z"/>
			<path fill="#999999" d="M128.884,26.307h-1.775v-9.178h1.775V26.307z"/>
			<path fill="#999999" d="M129.917,20.847v-1.265h0.946v-1.893h1.756v1.893h1.103v1.265h-1.103v3.586
				c0,0.278,0.035,0.451,0.106,0.52c0.07,0.068,0.285,0.103,0.646,0.103c0.055,0,0.111-0.001,0.172-0.003s0.119-0.005,0.178-0.009
				v1.326L132.88,26.4c-0.838,0.028-1.41-0.116-1.718-0.437c-0.199-0.203-0.299-0.517-0.299-0.939v-4.178H129.917z"/>
			<path fill="#999999" d="M135.128,27.608l0.225,0.012c0.174,0.009,0.34,0.002,0.498-0.019c0.157-0.021,0.29-0.068,0.398-0.144
				c0.104-0.07,0.2-0.218,0.289-0.441c0.09-0.225,0.128-0.361,0.115-0.411l-2.494-7.085h1.975l1.481,5.006l1.401-5.006h1.887
				l-2.327,6.674c-0.45,1.287-0.806,2.085-1.067,2.395c-0.262,0.309-0.785,0.464-1.57,0.464c-0.158,0-0.285-0.001-0.381-0.004
				c-0.096-0.002-0.238-0.009-0.43-0.021V27.608z"/>
			<path fill="#999999" d="M145.638,17.142h6.545v1.612h-4.639v2.111h4.065v1.594h-4.065v3.848h-1.906V17.142z"/>
			<path fill="#999999" d="M157.054,19.361c0.022,0.002,0.074,0.005,0.152,0.01v1.817c-0.111-0.013-0.211-0.021-0.299-0.024
				c-0.087-0.004-0.158-0.007-0.211-0.007c-0.715,0-1.193,0.232-1.439,0.697c-0.137,0.262-0.205,0.665-0.205,1.208v3.244h-1.787
				v-6.786h1.693v1.183c0.274-0.452,0.514-0.762,0.717-0.928c0.332-0.278,0.764-0.417,1.295-0.417
				C157.003,19.358,157.03,19.359,157.054,19.361z"/>
			<path fill="#999999" d="M162.669,19.657c0.473,0.212,0.863,0.547,1.172,1.004c0.278,0.403,0.459,0.871,0.541,1.403
				c0.048,0.312,0.067,0.761,0.059,1.347h-4.943c0.027,0.681,0.265,1.158,0.71,1.433c0.271,0.17,0.597,0.255,0.979,0.255
				c0.404,0,0.733-0.104,0.985-0.312c0.138-0.111,0.26-0.268,0.365-0.467h1.812c-0.048,0.402-0.267,0.812-0.657,1.227
				c-0.608,0.66-1.459,0.99-2.554,0.99c-0.903,0-1.7-0.278-2.391-0.835s-1.036-1.463-1.036-2.717c0-1.176,0.312-2.077,0.936-2.705
				c0.623-0.627,1.432-0.94,2.427-0.94C161.663,19.34,162.194,19.445,162.669,19.657z M160.014,21.19
				c-0.251,0.259-0.408,0.608-0.473,1.051h3.058c-0.033-0.472-0.19-0.829-0.473-1.072c-0.283-0.244-0.635-0.366-1.053-0.366
				C160.618,20.803,160.265,20.932,160.014,21.19z"/>
			<path fill="#999999" d="M169.761,19.657c0.473,0.212,0.863,0.547,1.172,1.004c0.278,0.403,0.459,0.871,0.541,1.403
				c0.048,0.312,0.067,0.761,0.059,1.347h-4.943c0.027,0.681,0.265,1.158,0.71,1.433c0.271,0.17,0.597,0.255,0.979,0.255
				c0.404,0,0.733-0.104,0.985-0.312c0.138-0.111,0.26-0.268,0.365-0.467h1.812c-0.048,0.402-0.267,0.812-0.657,1.227
				c-0.608,0.66-1.459,0.99-2.554,0.99c-0.903,0-1.7-0.278-2.391-0.835s-1.036-1.463-1.036-2.717c0-1.176,0.312-2.077,0.936-2.705
				c0.623-0.627,1.432-0.94,2.427-0.94C168.755,19.34,169.286,19.445,169.761,19.657z M167.105,21.19
				c-0.251,0.259-0.408,0.608-0.473,1.051h3.058c-0.033-0.472-0.19-0.829-0.473-1.072c-0.283-0.244-0.635-0.366-1.053-0.366
				C167.71,20.803,167.356,20.932,167.105,21.19z"/>
		</g>
	</g>
	<g>
		<g>
			<g>
				<g>
					<path d="M103.554,79.772h-4.418v1.773h4.056v1.45h-4.056v2.146h4.622v1.502H97.43v-8.351h6.124V79.772z"/>
					<path d="M108.261,80.568c0.291,0.164,0.527,0.392,0.709,0.683v-2.945h1.637v8.339h-1.568v-0.855
						c-0.23,0.366-0.494,0.633-0.788,0.799s-0.661,0.249-1.099,0.249c-0.722,0-1.329-0.292-1.822-0.875
						c-0.492-0.584-0.738-1.332-0.738-2.246c0-1.054,0.242-1.883,0.728-2.487s1.134-0.906,1.946-0.906
						C107.638,80.322,107.97,80.404,108.261,80.568z M108.657,84.968c0.238-0.34,0.357-0.78,0.357-1.32
						c0-0.755-0.19-1.295-0.572-1.62c-0.234-0.196-0.506-0.295-0.815-0.295c-0.472,0-0.819,0.179-1.04,0.535
						c-0.221,0.357-0.331,0.8-0.331,1.329c0,0.57,0.112,1.026,0.337,1.368s0.565,0.513,1.022,0.513S108.42,85.308,108.657,84.968z"
						/>
					<path d="M113.733,79.732h-1.637v-1.489h1.637V79.732z M112.097,80.47h1.637v6.175h-1.637V80.47z"/>
					<path d="M114.663,81.676v-1.149h0.861v-1.723h1.598v1.723h1.002v1.149h-1.002v3.264c0,0.253,0.031,0.41,0.096,0.473
						s0.261,0.094,0.59,0.094c0.049,0,0.101-0.001,0.155-0.003s0.108-0.005,0.161-0.009v1.207l-0.765,0.028
						c-0.763,0.026-1.284-0.105-1.563-0.396c-0.182-0.186-0.271-0.471-0.271-0.855v-3.802H114.663z"/>
					<path d="M124.311,85.889c-0.521,0.644-1.312,0.965-2.374,0.965c-1.061,0-1.852-0.321-2.373-0.965s-0.781-1.418-0.781-2.323
						c0-0.891,0.26-1.662,0.781-2.315c0.521-0.652,1.312-0.979,2.373-0.979c1.062,0,1.854,0.326,2.374,0.979
						c0.521,0.653,0.782,1.425,0.782,2.315C125.093,84.471,124.832,85.245,124.311,85.889z M123.019,84.996
						c0.254-0.335,0.38-0.812,0.38-1.431s-0.126-1.095-0.38-1.429c-0.252-0.333-0.615-0.5-1.088-0.5c-0.471,0-0.835,0.167-1.09,0.5
						c-0.255,0.334-0.383,0.811-0.383,1.429s0.128,1.096,0.383,1.431c0.255,0.336,0.619,0.504,1.09,0.504
						C122.403,85.5,122.767,85.332,123.019,84.996z"/>
					<path d="M129.679,80.325c0.021,0.002,0.066,0.005,0.139,0.008v1.654c-0.102-0.011-0.193-0.019-0.272-0.022
						s-0.144-0.006-0.192-0.006c-0.649,0-1.086,0.212-1.309,0.635c-0.125,0.238-0.188,0.604-0.188,1.099v2.952h-1.625V80.47h1.541
						v1.076c0.249-0.412,0.466-0.693,0.65-0.845c0.303-0.253,0.695-0.379,1.18-0.379C129.632,80.322,129.657,80.323,129.679,80.325z
						"/>
					<path d="M132.423,79.732h-1.637v-1.489h1.637V79.732z M130.786,80.47h1.637v6.175h-1.637V80.47z"/>
					<path d="M136.433,82.889c0.3-0.038,0.516-0.085,0.645-0.142c0.232-0.099,0.348-0.252,0.348-0.459
						c0-0.253-0.089-0.428-0.267-0.524c-0.179-0.096-0.439-0.145-0.784-0.145c-0.387,0-0.66,0.095-0.82,0.283
						c-0.115,0.14-0.192,0.329-0.23,0.566h-1.558c0.034-0.54,0.186-0.983,0.455-1.331c0.429-0.544,1.165-0.815,2.208-0.815
						c0.678,0,1.281,0.134,1.809,0.402c0.527,0.268,0.791,0.773,0.791,1.518v2.833c0,0.196,0.004,0.435,0.012,0.714
						c0.011,0.211,0.043,0.354,0.096,0.431c0.053,0.075,0.133,0.138,0.238,0.187v0.238h-1.756c-0.05-0.125-0.084-0.242-0.103-0.352
						s-0.034-0.234-0.046-0.374c-0.224,0.242-0.482,0.447-0.774,0.618c-0.349,0.199-0.745,0.3-1.185,0.3
						c-0.562,0-1.027-0.159-1.394-0.479s-0.55-0.771-0.55-1.357c0-0.759,0.295-1.309,0.885-1.648
						c0.322-0.185,0.799-0.317,1.426-0.396L136.433,82.889z M137.419,83.642c-0.104,0.064-0.207,0.116-0.312,0.156
						c-0.105,0.039-0.25,0.076-0.434,0.11l-0.367,0.067c-0.345,0.061-0.592,0.135-0.742,0.222c-0.255,0.147-0.382,0.376-0.382,0.686
						c0,0.275,0.077,0.475,0.233,0.598c0.154,0.122,0.344,0.184,0.566,0.184c0.353,0,0.678-0.102,0.975-0.306
						s0.451-0.576,0.463-1.116V83.642z"/>
					<path d="M142.087,86.645h-1.613v-8.351h1.613V86.645z"/>
					<path d="M147.017,78.294h1.772v5.129c0,0.573,0.067,0.992,0.204,1.256c0.21,0.469,0.669,0.702,1.377,0.702
						c0.703,0,1.16-0.233,1.371-0.702c0.136-0.264,0.203-0.683,0.203-1.256v-5.129h1.773v5.133c0,0.888-0.138,1.578-0.412,2.073
						c-0.514,0.906-1.492,1.359-2.936,1.359c-1.444,0-2.425-0.453-2.941-1.359c-0.275-0.495-0.412-1.186-0.412-2.073V78.294z"/>
					<path d="M156.517,84.673c0.034,0.287,0.108,0.491,0.223,0.611c0.201,0.216,0.572,0.323,1.115,0.323
						c0.318,0,0.572-0.047,0.76-0.142c0.188-0.094,0.281-0.236,0.281-0.425c0-0.182-0.075-0.319-0.227-0.413
						c-0.151-0.095-0.715-0.257-1.689-0.487c-0.701-0.174-1.195-0.392-1.482-0.651c-0.287-0.257-0.431-0.627-0.431-1.11
						c0-0.57,0.224-1.061,0.673-1.471c0.448-0.409,1.08-0.614,1.893-0.614c0.773,0,1.402,0.153,1.889,0.462
						c0.486,0.308,0.766,0.839,0.837,1.595h-1.614c-0.023-0.208-0.082-0.372-0.176-0.493c-0.179-0.219-0.481-0.329-0.909-0.329
						c-0.353,0-0.603,0.056-0.753,0.165c-0.149,0.109-0.225,0.237-0.225,0.385c0,0.186,0.08,0.319,0.238,0.402
						c0.16,0.087,0.722,0.236,1.687,0.447c0.644,0.151,1.125,0.38,1.446,0.686c0.317,0.31,0.476,0.697,0.476,1.161
						c0,0.612-0.228,1.111-0.685,1.499c-0.455,0.387-1.16,0.58-2.113,0.58c-0.973,0-1.691-0.204-2.154-0.614
						c-0.464-0.41-0.695-0.932-0.695-1.566H156.517z"/>
					<path d="M165.741,80.595c0.431,0.192,0.787,0.497,1.066,0.913c0.254,0.367,0.418,0.793,0.492,1.276
						c0.044,0.284,0.062,0.692,0.054,1.226h-4.497c0.024,0.62,0.24,1.054,0.646,1.304c0.247,0.154,0.543,0.231,0.89,0.231
						c0.368,0,0.667-0.094,0.896-0.283c0.125-0.102,0.236-0.243,0.332-0.425h1.648c-0.043,0.366-0.242,0.738-0.598,1.116
						c-0.554,0.601-1.328,0.9-2.323,0.9c-0.821,0-1.547-0.253-2.175-0.76c-0.629-0.506-0.943-1.33-0.943-2.472
						c0-1.069,0.284-1.89,0.852-2.461c0.566-0.57,1.303-0.856,2.208-0.856C164.826,80.305,165.311,80.401,165.741,80.595z
						 M163.325,81.989c-0.228,0.235-0.371,0.554-0.43,0.956h2.781c-0.029-0.429-0.172-0.754-0.43-0.976
						c-0.258-0.223-0.576-0.333-0.957-0.333C163.875,81.637,163.554,81.754,163.325,81.989z"/>
					<path d="M177.953,85.902c-0.631,0.649-1.542,0.975-2.736,0.975c-1.193,0-2.105-0.325-2.735-0.975
						c-0.847-0.797-1.27-1.945-1.27-3.444c0-1.53,0.423-2.678,1.27-3.444c0.63-0.649,1.542-0.975,2.735-0.975
						c1.194,0,2.105,0.325,2.736,0.975c0.843,0.767,1.264,1.914,1.264,3.444C179.217,83.957,178.796,85.105,177.953,85.902z
						 M176.862,84.633c0.406-0.51,0.609-1.234,0.609-2.175c0-0.937-0.203-1.661-0.609-2.173s-0.954-0.768-1.646-0.768
						c-0.69,0-1.242,0.255-1.653,0.765c-0.412,0.51-0.618,1.235-0.618,2.176s0.206,1.665,0.618,2.175
						c0.411,0.51,0.963,0.766,1.653,0.766C175.908,85.398,176.456,85.143,176.862,84.633z"/>
					<path d="M185.397,80.823c0.404,0.334,0.605,0.889,0.605,1.663v4.158h-1.654v-3.756c0-0.325-0.043-0.574-0.129-0.748
						c-0.158-0.317-0.457-0.476-0.9-0.476c-0.543,0-0.916,0.231-1.119,0.696c-0.104,0.246-0.156,0.56-0.156,0.94v3.343h-1.615V80.48
						h1.563v0.901c0.207-0.317,0.403-0.546,0.587-0.686c0.331-0.25,0.75-0.374,1.258-0.374
						C184.473,80.322,184.993,80.489,185.397,80.823z"/>
					<path d="M189.153,86.645h-1.615v-8.351h1.615V86.645z"/>
					<path d="M190.972,87.828l0.204,0.012c0.159,0.007,0.31,0.002,0.453-0.018c0.144-0.019,0.265-0.062,0.362-0.13
						c0.095-0.064,0.182-0.198,0.264-0.402c0.081-0.204,0.116-0.328,0.105-0.374l-2.27-6.446h1.796l1.349,4.555l1.273-4.555h1.717
						l-2.117,6.072c-0.408,1.171-0.732,1.897-0.971,2.179s-0.715,0.422-1.429,0.422c-0.144,0-0.259-0.001-0.347-0.003
						c-0.086-0.002-0.217-0.009-0.391-0.02V87.828z"/>
				</g>
			</g>
			<g>
				<g>
					<path fill="#FFFFFF" d="M87.257,85.738c0,1.328-1.078,2.406-2.408,2.406h-9.354c-1.328,0-2.406-1.078-2.406-2.406v-9.355
						c0-1.33,1.078-2.408,2.406-2.408h9.354c1.33,0,2.408,1.078,2.408,2.408V85.738z"/>
					<path fill="#9C9B9B" d="M84.849,88.782h-9.354c-1.679,0-3.044-1.365-3.044-3.044v-9.355c0-1.68,1.365-3.046,3.044-3.046h9.354
						c1.68,0,3.046,1.366,3.046,3.046v9.355C87.895,87.417,86.528,88.782,84.849,88.782z M75.494,74.612
						c-0.976,0-1.769,0.795-1.769,1.771v9.355c0,0.976,0.793,1.769,1.769,1.769h9.354c0.977,0,1.771-0.793,1.771-1.769v-9.355
						c0-0.976-0.794-1.771-1.771-1.771H75.494z"/>
				</g>
			</g>
		</g>
		<g>
			<g>
				<g>
					<path fill="#FFFFFF" d="M87.259,112.907c0,1.328-1.08,2.406-2.41,2.406h-9.354c-1.328,0-2.407-1.078-2.407-2.406v-9.355
						c0-1.33,1.079-2.408,2.407-2.408h9.354c1.33,0,2.41,1.078,2.41,2.408V112.907z"/>
					<path fill="#9C9B9B" d="M84.849,115.951h-9.354c-1.679,0-3.045-1.365-3.045-3.044v-9.355c0-1.68,1.366-3.046,3.045-3.046h9.354
						c1.681,0,3.048,1.366,3.048,3.046v9.355C87.896,114.586,86.529,115.951,84.849,115.951z M75.495,101.781
						c-0.976,0-1.77,0.795-1.77,1.771v9.355c0,0.976,0.794,1.769,1.77,1.769h9.354c0.978,0,1.772-0.793,1.772-1.769v-9.355
						c0-0.976-0.795-1.771-1.772-1.771H75.495z"/>
				</g>
				<path fill="#35A8E0" d="M75.495,113.202c-0.164,0-0.298-0.133-0.298-0.295v-9.355c0-0.164,0.134-0.299,0.298-0.299h9.354
					c0.165,0,0.299,0.135,0.299,0.299v9.355c0,0.162-0.134,0.295-0.299,0.295H75.495z"/>
			</g>
			<g>
				<g>
					<path d="M98.177,106.335c0.672-0.688,1.527-1.031,2.566-1.031c1.391,0,2.406,0.461,3.049,1.383
						c0.355,0.517,0.546,1.036,0.572,1.558h-1.745c-0.11-0.4-0.253-0.703-0.427-0.906c-0.312-0.363-0.771-0.544-1.383-0.544
						c-0.621,0-1.111,0.256-1.471,0.768c-0.358,0.512-0.538,1.235-0.538,2.172c0,0.938,0.189,1.639,0.567,2.105
						c0.379,0.466,0.86,0.699,1.444,0.699c0.599,0,1.055-0.2,1.368-0.601c0.174-0.215,0.318-0.538,0.433-0.969h1.733
						c-0.149,0.91-0.531,1.65-1.146,2.221c-0.614,0.57-1.401,0.855-2.361,0.855c-1.188,0-2.123-0.385-2.803-1.155
						c-0.68-0.774-1.02-1.836-1.02-3.185C97.017,108.248,97.403,107.124,98.177,106.335z"/>
					<path d="M110.776,113.058c-0.521,0.643-1.312,0.965-2.373,0.965c-1.061,0-1.853-0.322-2.373-0.965
						c-0.521-0.644-0.782-1.418-0.782-2.324c0-0.89,0.261-1.662,0.782-2.314c0.521-0.653,1.312-0.979,2.373-0.979
						c1.062,0,1.853,0.326,2.373,0.979c0.521,0.652,0.782,1.425,0.782,2.314C111.559,111.64,111.298,112.414,110.776,113.058z
						 M109.485,112.165c0.253-0.336,0.379-0.812,0.379-1.432c0-0.618-0.126-1.094-0.379-1.428s-0.615-0.501-1.088-0.501
						c-0.472,0-0.836,0.167-1.09,0.501c-0.256,0.334-0.383,0.81-0.383,1.428c0,0.619,0.127,1.096,0.383,1.432
						c0.254,0.336,0.618,0.503,1.09,0.503C108.87,112.668,109.232,112.501,109.485,112.165z"/>
					<path d="M120.419,107.66c0.264,0.106,0.504,0.291,0.719,0.556c0.174,0.215,0.291,0.479,0.352,0.793
						c0.038,0.208,0.057,0.512,0.057,0.912l-0.011,3.892h-1.654v-3.932c0-0.233-0.038-0.427-0.113-0.577
						c-0.144-0.287-0.408-0.431-0.794-0.431c-0.445,0-0.753,0.185-0.923,0.555c-0.087,0.196-0.13,0.433-0.13,0.708v3.677h-1.626
						v-3.677c0-0.366-0.038-0.632-0.113-0.799c-0.136-0.298-0.402-0.447-0.799-0.447c-0.461,0-0.771,0.149-0.929,0.447
						c-0.088,0.17-0.131,0.424-0.131,0.76v3.716h-1.637v-6.163h1.568v0.9c0.201-0.321,0.389-0.55,0.566-0.686
						c0.314-0.241,0.721-0.362,1.219-0.362c0.472,0,0.854,0.104,1.145,0.312c0.234,0.192,0.411,0.44,0.532,0.742
						c0.212-0.362,0.474-0.629,0.787-0.799c0.333-0.17,0.702-0.255,1.11-0.255C119.886,107.502,120.154,107.555,120.419,107.66z"/>
					<path d="M130.735,107.66c0.264,0.106,0.504,0.291,0.719,0.556c0.174,0.215,0.291,0.479,0.352,0.793
						c0.037,0.208,0.057,0.512,0.057,0.912l-0.012,3.892h-1.654v-3.932c0-0.233-0.037-0.427-0.113-0.577
						c-0.143-0.287-0.408-0.431-0.793-0.431c-0.445,0-0.754,0.185-0.924,0.555c-0.086,0.196-0.13,0.433-0.13,0.708v3.677h-1.626
						v-3.677c0-0.366-0.037-0.632-0.113-0.799c-0.136-0.298-0.402-0.447-0.799-0.447c-0.461,0-0.77,0.149-0.929,0.447
						c-0.087,0.17-0.13,0.424-0.13,0.76v3.716h-1.638v-6.163h1.569v0.9c0.2-0.321,0.389-0.55,0.566-0.686
						c0.313-0.241,0.72-0.362,1.219-0.362c0.471,0,0.853,0.104,1.144,0.312c0.234,0.192,0.411,0.44,0.532,0.742
						c0.212-0.362,0.475-0.629,0.787-0.799c0.333-0.17,0.703-0.255,1.111-0.255C130.202,107.502,130.47,107.555,130.735,107.66z"/>
					<path d="M137.37,107.763c0.432,0.193,0.787,0.498,1.067,0.914c0.253,0.366,0.417,0.792,0.492,1.276
						c0.044,0.283,0.062,0.692,0.054,1.226h-4.498c0.025,0.619,0.24,1.054,0.646,1.303c0.246,0.155,0.543,0.232,0.89,0.232
						c0.368,0,0.667-0.095,0.896-0.283c0.125-0.103,0.235-0.244,0.332-0.425h1.648c-0.044,0.366-0.243,0.738-0.599,1.116
						c-0.553,0.6-1.327,0.9-2.322,0.9c-0.822,0-1.547-0.253-2.176-0.76s-0.942-1.331-0.942-2.473c0-1.069,0.284-1.89,0.851-2.46
						c0.567-0.571,1.303-0.856,2.209-0.856C136.456,107.474,136.94,107.57,137.37,107.763z M134.955,109.157
						c-0.228,0.235-0.372,0.554-0.431,0.956h2.782c-0.029-0.429-0.173-0.754-0.431-0.976c-0.257-0.222-0.576-0.333-0.957-0.333
						C135.505,108.805,135.183,108.923,134.955,109.157z"/>
					<path d="M143.229,107.493c0.021,0.002,0.066,0.005,0.139,0.009v1.654c-0.102-0.012-0.193-0.02-0.272-0.022
						c-0.079-0.004-0.144-0.006-0.192-0.006c-0.649,0-1.086,0.211-1.309,0.635c-0.125,0.237-0.188,0.604-0.188,1.099v2.951h-1.625
						v-6.175h1.541v1.076c0.249-0.411,0.466-0.692,0.65-0.844c0.303-0.253,0.695-0.38,1.18-0.38
						C143.183,107.49,143.208,107.491,143.229,107.493z"/>
					<path d="M148.008,109.853c-0.03-0.23-0.108-0.438-0.233-0.623c-0.182-0.249-0.463-0.374-0.846-0.374
						c-0.545,0-0.918,0.271-1.119,0.811c-0.105,0.286-0.158,0.667-0.158,1.142c0,0.452,0.053,0.815,0.158,1.09
						c0.193,0.514,0.557,0.771,1.091,0.771c0.378,0,0.647-0.102,0.806-0.306c0.16-0.204,0.256-0.468,0.29-0.793h1.649
						c-0.039,0.491-0.217,0.956-0.533,1.394c-0.508,0.706-1.258,1.06-2.252,1.06s-1.726-0.295-2.194-0.884s-0.703-1.354-0.703-2.292
						c0-1.059,0.259-1.883,0.776-2.473c0.518-0.589,1.232-0.884,2.145-0.884c0.774,0,1.408,0.174,1.902,0.521
						c0.492,0.348,0.785,0.961,0.875,1.841H148.008z"/>
					<path d="M152.427,106.901h-1.638v-1.49h1.638V106.901z M150.789,107.638h1.638v6.175h-1.638V107.638z"/>
					<path d="M156.436,110.057c0.3-0.037,0.516-0.085,0.646-0.142c0.231-0.098,0.348-0.251,0.348-0.459
						c0-0.253-0.09-0.428-0.268-0.523c-0.178-0.097-0.439-0.145-0.783-0.145c-0.387,0-0.66,0.094-0.821,0.283
						c-0.115,0.14-0.192,0.328-0.229,0.566h-1.559c0.034-0.54,0.186-0.984,0.455-1.331c0.43-0.544,1.165-0.816,2.208-0.816
						c0.679,0,1.282,0.135,1.81,0.402c0.527,0.269,0.791,0.774,0.791,1.519v2.832c0,0.196,0.004,0.435,0.011,0.714
						c0.011,0.212,0.044,0.355,0.097,0.431c0.053,0.076,0.132,0.138,0.238,0.188v0.237h-1.757c-0.05-0.124-0.083-0.241-0.103-0.351
						c-0.019-0.11-0.033-0.234-0.045-0.374c-0.225,0.241-0.482,0.447-0.775,0.617c-0.349,0.2-0.744,0.3-1.185,0.3
						c-0.562,0-1.026-0.159-1.394-0.479c-0.366-0.318-0.549-0.771-0.549-1.356c0-0.759,0.294-1.309,0.884-1.648
						c0.323-0.186,0.8-0.317,1.427-0.396L156.436,110.057z M157.423,110.811c-0.104,0.064-0.208,0.116-0.312,0.155
						c-0.105,0.04-0.25,0.077-0.434,0.11l-0.368,0.068c-0.345,0.061-0.592,0.134-0.742,0.221c-0.255,0.147-0.382,0.376-0.382,0.686
						c0,0.275,0.078,0.476,0.233,0.598c0.155,0.123,0.345,0.185,0.567,0.185c0.352,0,0.678-0.103,0.975-0.307
						c0.297-0.203,0.451-0.575,0.463-1.115V110.811z"/>
					<path d="M162.091,113.812h-1.614v-8.35h1.614V113.812z"/>
					<path d="M167.02,105.463h1.772v5.128c0,0.573,0.068,0.992,0.204,1.257c0.21,0.468,0.669,0.702,1.377,0.702
						c0.704,0,1.161-0.234,1.372-0.702c0.135-0.265,0.203-0.684,0.203-1.257v-5.128h1.773v5.132c0,0.888-0.139,1.579-0.413,2.073
						c-0.513,0.907-1.491,1.36-2.936,1.36s-2.425-0.453-2.94-1.36c-0.275-0.494-0.413-1.186-0.413-2.073V105.463z"/>
					<path d="M176.521,111.841c0.033,0.287,0.107,0.491,0.222,0.612c0.201,0.215,0.573,0.323,1.116,0.323
						c0.318,0,0.571-0.048,0.76-0.142c0.188-0.095,0.281-0.236,0.281-0.425c0-0.182-0.076-0.319-0.227-0.414
						c-0.152-0.095-0.715-0.257-1.689-0.487c-0.701-0.174-1.196-0.391-1.482-0.651c-0.287-0.257-0.432-0.627-0.432-1.11
						c0-0.57,0.225-1.061,0.674-1.47c0.447-0.41,1.079-0.615,1.893-0.615c0.772,0,1.401,0.154,1.888,0.462s0.766,0.84,0.837,1.595
						h-1.613c-0.023-0.208-0.082-0.372-0.177-0.493c-0.179-0.219-0.481-0.328-0.909-0.328c-0.352,0-0.603,0.055-0.752,0.164
						c-0.15,0.109-0.225,0.238-0.225,0.386c0,0.185,0.079,0.318,0.238,0.401c0.159,0.087,0.721,0.236,1.686,0.448
						c0.644,0.15,1.125,0.379,1.447,0.686c0.316,0.31,0.475,0.696,0.475,1.161c0,0.611-0.228,1.111-0.684,1.498
						c-0.456,0.388-1.16,0.581-2.114,0.581c-0.973,0-1.69-0.205-2.154-0.615c-0.464-0.409-0.695-0.932-0.695-1.566H176.521z"/>
					<path d="M185.745,107.763c0.43,0.193,0.786,0.498,1.066,0.914c0.253,0.366,0.417,0.792,0.492,1.276
						c0.043,0.283,0.061,0.692,0.053,1.226h-4.497c0.024,0.619,0.24,1.054,0.646,1.303c0.247,0.155,0.543,0.232,0.891,0.232
						c0.367,0,0.666-0.095,0.896-0.283c0.125-0.103,0.236-0.244,0.332-0.425h1.648c-0.043,0.366-0.242,0.738-0.599,1.116
						c-0.554,0.6-1.327,0.9-2.323,0.9c-0.821,0-1.547-0.253-2.175-0.76s-0.942-1.331-0.942-2.473c0-1.069,0.283-1.89,0.851-2.46
						c0.567-0.571,1.304-0.856,2.208-0.856C184.829,107.474,185.313,107.57,185.745,107.763z M183.329,109.157
						c-0.229,0.235-0.371,0.554-0.43,0.956h2.781c-0.029-0.429-0.173-0.754-0.43-0.976c-0.258-0.222-0.577-0.333-0.958-0.333
						C183.878,108.805,183.558,108.923,183.329,109.157z"/>
				</g>
			</g>
		</g>
		<g>
			<polygon fill="#FFFFFF" points="89.44,121.326 89.44,124.279 87.963,124.279 87.963,119.848 86.484,119.848 86.484,122.801 
				85.008,122.801 85.008,118.37 83.531,118.37 83.531,122.801 82.055,122.801 82.055,112.46 79.099,112.46 79.099,127.232 
				77.621,127.232 77.621,124.279 76.145,124.279 76.145,122.801 74.667,122.801 74.667,121.326 71.714,121.326 71.714,124.279 
				73.19,124.279 73.19,125.756 74.667,125.756 74.667,128.713 76.145,128.713 76.145,130.189 77.621,130.189 77.621,131.666 
				79.099,131.666 79.099,134.621 87.963,134.621 87.963,131.666 89.44,131.666 89.44,128.713 90.916,128.713 90.916,121.326 			"/>
			<path fill="#000100" d="M70.236,124.279h1.478v-2.953h-1.478V124.279z M71.714,119.848v1.479h2.953v-1.479H71.714z
				 M74.667,121.326v1.475h1.478v-1.475H74.667z M77.621,122.801h-1.477v1.479h1.477v2.953h1.478V112.46h-1.478V122.801z
				 M79.099,110.983v1.477h2.956v-1.477H79.099z M73.19,125.756v-1.477h-1.477v1.477H73.19z M74.667,128.713v-2.957H73.19v2.957
				H74.667z M76.145,130.189v-1.477h-1.478v1.477H76.145z M77.621,131.666v-1.477h-1.477v1.477H77.621z M79.099,134.621v-2.955
				h-1.478v2.955H79.099z M89.44,119.848v-1.478h-2.956v-1.479h-2.953v-4.432h-1.477v10.341h1.477v-4.431h1.477v4.431h1.477v-2.953
				h1.479v4.432h1.478v-2.953h1.476v7.387h1.478v-8.865H89.44z M89.44,131.666h1.476v-2.953H89.44V131.666z M87.963,134.621h1.478
				v-2.955h-1.478V134.621z"/>
		</g>
	</g>
	<g>
		<g>
			<path d="M91.153,238.007c-0.489,0.408-1.188,0.611-2.095,0.611h-1.739v3.004h-1.732v-8.352h3.585
				c0.827,0,1.485,0.217,1.978,0.646c0.49,0.43,0.736,1.098,0.736,2C91.886,236.903,91.642,237.599,91.153,238.007z M89.821,234.999
				c-0.221-0.186-0.531-0.277-0.929-0.277h-1.573v2.459h1.573c0.397,0,0.708-0.1,0.929-0.301c0.221-0.199,0.331-0.518,0.331-0.951
				C90.152,235.493,90.042,235.185,89.821,234.999z"/>
			<path d="M97.593,235.481c0.311,0.131,0.564,0.334,0.764,0.605c0.17,0.23,0.273,0.469,0.311,0.713
				c0.037,0.242,0.057,0.641,0.057,1.193v3.629h-1.648v-3.76c0-0.334-0.057-0.602-0.169-0.807c-0.146-0.287-0.423-0.432-0.832-0.432
				c-0.424,0-0.745,0.145-0.964,0.43c-0.221,0.285-0.33,0.691-0.33,1.221v3.348h-1.614V233.3h1.614v2.945
				c0.233-0.359,0.504-0.609,0.811-0.75c0.306-0.143,0.629-0.213,0.967-0.213C96.938,235.282,97.282,235.349,97.593,235.481z"/>
			<path d="M105.392,240.866c-0.521,0.643-1.312,0.965-2.373,0.965c-1.062,0-1.854-0.322-2.374-0.965
				c-0.521-0.643-0.782-1.418-0.782-2.324c0-0.891,0.261-1.662,0.782-2.314c0.521-0.652,1.312-0.979,2.374-0.979
				c1.061,0,1.852,0.326,2.373,0.979s0.781,1.424,0.781,2.314C106.173,239.448,105.913,240.224,105.392,240.866z M104.101,239.974
				c0.252-0.336,0.379-0.812,0.379-1.432c0-0.617-0.127-1.094-0.379-1.428c-0.254-0.334-0.616-0.5-1.088-0.5
				c-0.473,0-0.836,0.166-1.091,0.5s-0.382,0.811-0.382,1.428c0,0.619,0.127,1.096,0.382,1.432s0.618,0.504,1.091,0.504
				C103.484,240.478,103.847,240.31,104.101,239.974z"/>
			<path d="M106.694,236.653v-1.15h0.861v-1.723h1.598v1.723h1.003v1.15h-1.003v3.264c0,0.252,0.032,0.41,0.096,0.473
				c0.064,0.062,0.262,0.094,0.59,0.094c0.049,0,0.102-0.002,0.156-0.004s0.107-0.004,0.161-0.008v1.207l-0.765,0.027
				c-0.764,0.027-1.285-0.105-1.564-0.396c-0.181-0.184-0.271-0.471-0.271-0.855v-3.801H106.694z"/>
			<path d="M116.343,240.866c-0.521,0.643-1.312,0.965-2.374,0.965s-1.853-0.322-2.374-0.965s-0.781-1.418-0.781-2.324
				c0-0.891,0.26-1.662,0.781-2.314s1.312-0.979,2.374-0.979s1.853,0.326,2.374,0.979s0.781,1.424,0.781,2.314
				C117.124,239.448,116.864,240.224,116.343,240.866z M115.051,239.974c0.253-0.336,0.38-0.812,0.38-1.432
				c0-0.617-0.127-1.094-0.38-1.428s-0.616-0.5-1.088-0.5s-0.835,0.166-1.091,0.5c-0.254,0.334-0.382,0.811-0.382,1.428
				c0,0.619,0.128,1.096,0.382,1.432c0.256,0.336,0.619,0.504,1.091,0.504S114.798,240.31,115.051,239.974z"/>
			<path d="M126.696,236.11c0.504,0.531,0.755,1.312,0.755,2.344c0,1.088-0.246,1.918-0.738,2.488s-1.126,0.855-1.901,0.855
				c-0.494,0-0.904-0.123-1.232-0.369c-0.178-0.135-0.354-0.334-0.523-0.594v3.217h-1.598v-8.605h1.547v0.912
				c0.174-0.268,0.36-0.479,0.559-0.635c0.36-0.275,0.79-0.412,1.288-0.412C125.577,235.312,126.192,235.577,126.696,236.11z
				 M125.456,237.271c-0.219-0.365-0.574-0.549-1.066-0.549c-0.592,0-0.998,0.277-1.219,0.832c-0.115,0.295-0.172,0.668-0.172,1.121
				c0,0.719,0.191,1.223,0.577,1.514c0.229,0.17,0.5,0.254,0.813,0.254c0.453,0,0.8-0.172,1.039-0.52
				c0.238-0.348,0.357-0.811,0.357-1.389C125.786,238.058,125.676,237.638,125.456,237.271z"/>
			<path d="M132.021,235.302c0.021,0.002,0.066,0.006,0.139,0.01v1.654c-0.102-0.012-0.192-0.02-0.271-0.023
				c-0.08-0.004-0.145-0.006-0.193-0.006c-0.648,0-1.086,0.211-1.309,0.635c-0.124,0.238-0.187,0.604-0.187,1.1v2.951h-1.626v-6.176
				h1.541v1.076c0.25-0.41,0.467-0.693,0.651-0.844c0.302-0.252,0.694-0.379,1.179-0.379C131.974,235.3,132,235.3,132.021,235.302z"
				/>
			<path d="M134.765,234.71h-1.637v-1.49h1.637V234.71z M133.128,235.446h1.637v6.176h-1.637V235.446z"/>
			<path d="M140.022,237.661c-0.03-0.23-0.107-0.438-0.232-0.623c-0.182-0.248-0.465-0.373-0.847-0.373
				c-0.546,0-0.918,0.27-1.118,0.811c-0.106,0.285-0.16,0.666-0.16,1.141c0,0.451,0.054,0.816,0.16,1.09
				c0.192,0.514,0.556,0.771,1.09,0.771c0.379,0,0.647-0.102,0.807-0.307c0.158-0.203,0.256-0.469,0.289-0.793h1.648
				c-0.037,0.492-0.215,0.955-0.533,1.395c-0.506,0.705-1.256,1.059-2.251,1.059c-0.994,0-1.726-0.295-2.194-0.883
				c-0.469-0.59-0.703-1.354-0.703-2.293c0-1.059,0.259-1.883,0.777-2.473c0.518-0.588,1.232-0.883,2.143-0.883
				c0.775,0,1.41,0.174,1.902,0.521c0.494,0.348,0.785,0.961,0.877,1.84H140.022z"/>
			<path d="M146.806,235.571c0.43,0.193,0.786,0.498,1.066,0.914c0.253,0.367,0.417,0.793,0.492,1.277
				c0.043,0.283,0.061,0.691,0.053,1.225h-4.497c0.024,0.619,0.24,1.055,0.646,1.303c0.247,0.154,0.543,0.232,0.891,0.232
				c0.367,0,0.666-0.094,0.896-0.283c0.125-0.102,0.236-0.244,0.332-0.426h1.648c-0.043,0.367-0.242,0.74-0.599,1.117
				c-0.554,0.6-1.327,0.9-2.323,0.9c-0.821,0-1.547-0.254-2.175-0.76s-0.942-1.33-0.942-2.473c0-1.068,0.283-1.889,0.851-2.461
				c0.567-0.57,1.304-0.855,2.208-0.855C145.89,235.282,146.374,235.378,146.806,235.571z M144.39,236.966
				c-0.229,0.236-0.371,0.555-0.43,0.957h2.781c-0.029-0.43-0.173-0.754-0.43-0.977c-0.258-0.221-0.577-0.332-0.958-0.332
				C144.938,236.614,144.618,236.731,144.39,236.966z"/>
			<path d="M152.87,235.378c0.299-0.693,0.734-1.441,1.309-2.242h1.219l-0.346,0.635c-0.477,0.871-0.807,1.785-0.992,2.74
				c-0.12,0.627-0.181,1.311-0.181,2.051c0,1.156,0.168,2.221,0.505,3.189c0.195,0.574,0.543,1.311,1.042,2.211h-1.195l-0.402-0.551
				c-0.261-0.332-0.538-0.826-0.833-1.484c-0.525-1.174-0.787-2.33-0.787-3.467C152.208,237.425,152.429,236.397,152.87,235.378z"/>
			<path d="M156.451,233.271h1.772v5.129c0,0.574,0.068,0.992,0.204,1.258c0.21,0.467,0.669,0.701,1.377,0.701
				c0.704,0,1.161-0.234,1.372-0.701c0.135-0.266,0.203-0.684,0.203-1.258v-5.129h1.773v5.133c0,0.889-0.139,1.58-0.413,2.074
				c-0.513,0.906-1.491,1.359-2.936,1.359s-2.425-0.453-2.94-1.359c-0.275-0.494-0.413-1.186-0.413-2.074V233.271z"/>
			<path d="M166.087,239.044c0.055,0.381,0.16,0.666,0.318,0.855c0.289,0.344,0.785,0.516,1.486,0.516
				c0.42,0,0.762-0.045,1.023-0.137c0.498-0.174,0.747-0.496,0.747-0.969c0-0.275-0.122-0.488-0.366-0.639
				c-0.243-0.148-0.63-0.279-1.158-0.393l-0.904-0.197c-0.889-0.197-1.5-0.41-1.832-0.641c-0.562-0.385-0.844-0.986-0.844-1.807
				c0-0.748,0.275-1.369,0.826-1.863c0.551-0.496,1.359-0.742,2.426-0.742c0.891,0,1.65,0.232,2.279,0.699s0.959,1.143,0.989,2.031
				h-1.677c-0.031-0.502-0.256-0.859-0.674-1.07c-0.279-0.141-0.625-0.211-1.039-0.211c-0.461,0-0.829,0.092-1.104,0.271
				c-0.275,0.182-0.412,0.436-0.412,0.76c0,0.299,0.135,0.521,0.406,0.668c0.174,0.1,0.543,0.215,1.109,0.346l1.465,0.346
				c0.643,0.152,1.124,0.354,1.444,0.607c0.498,0.393,0.747,0.961,0.747,1.705c0,0.762-0.295,1.396-0.885,1.9
				s-1.424,0.756-2.5,0.756c-1.1,0-1.964-0.248-2.594-0.744c-0.63-0.498-0.944-1.18-0.944-2.049H166.087z"/>
			<path d="M175.186,242.964h-0.55v-1.127c-0.744-0.084-1.299-0.246-1.665-0.486c-0.646-0.436-0.964-1.176-0.952-2.221h1.529
				c0.053,0.475,0.127,0.795,0.222,0.957c0.147,0.252,0.437,0.416,0.866,0.492v-2.418l-0.459-0.137
				c-0.721-0.211-1.23-0.506-1.526-0.885c-0.296-0.377-0.444-0.832-0.444-1.365c0-0.35,0.057-0.67,0.172-0.957
				s0.277-0.533,0.484-0.742c0.269-0.268,0.566-0.453,0.896-0.555c0.2-0.064,0.493-0.111,0.878-0.143v-0.752h0.55v0.764
				c0.612,0.049,1.094,0.201,1.443,0.453c0.636,0.404,0.964,1.061,0.987,1.967h-1.49c-0.029-0.336-0.086-0.582-0.168-0.736
				c-0.142-0.27-0.399-0.416-0.772-0.441v2.158c0.896,0.309,1.497,0.582,1.805,0.82c0.508,0.396,0.762,0.955,0.762,1.678
				c0,0.951-0.35,1.643-1.048,2.072c-0.428,0.266-0.934,0.42-1.519,0.465V242.964z M174.636,234.642
				c-0.328,0.008-0.572,0.096-0.73,0.264s-0.238,0.398-0.238,0.689c0,0.316,0.119,0.568,0.357,0.752
				c0.132,0.104,0.336,0.197,0.611,0.283V234.642z M175.186,240.562c0.295-0.037,0.51-0.105,0.644-0.203
				c0.236-0.174,0.354-0.475,0.354-0.9c0-0.326-0.11-0.582-0.33-0.771c-0.131-0.109-0.354-0.223-0.667-0.34V240.562z"/>
			<path d="M180.806,235.378c0.441,1.02,0.662,2.047,0.662,3.082c0,1.137-0.262,2.293-0.786,3.467
				c-0.294,0.658-0.571,1.152-0.831,1.484l-0.402,0.551h-1.192c0.497-0.9,0.843-1.637,1.038-2.211
				c0.335-0.969,0.502-2.033,0.502-3.189c0-0.74-0.06-1.424-0.18-2.051c-0.185-0.955-0.514-1.869-0.988-2.74l-0.344-0.635h1.216
				C180.073,233.937,180.509,234.685,180.806,235.378z"/>
		</g>
	</g>
	<circle fill="#26A9E0" cx="110.422" cy="270.796" r="15.958"/>
	<g>
		<g>
			<path fill="#FFFFFF" d="M102.762,268.522v-1.529c0.708-0.031,1.202-0.078,1.485-0.141c0.451-0.1,0.817-0.301,1.101-0.6
				c0.193-0.205,0.341-0.479,0.44-0.818c0.057-0.205,0.086-0.357,0.086-0.457h1.875v11.424h-2.301v-7.879H102.762z"/>
			<path fill="#FFFFFF" d="M117.058,266.435c0.586,1.023,0.879,2.479,0.879,4.365c0,1.885-0.293,3.338-0.879,4.355
				c-0.585,1.02-1.605,1.529-3.061,1.529s-2.475-0.51-3.061-1.529c-0.586-1.018-0.879-2.471-0.879-4.355
				c0-1.887,0.293-3.342,0.879-4.365c0.586-1.025,1.605-1.537,3.061-1.537S116.473,265.409,117.058,266.435z M112.674,273.813
				c0.216,0.695,0.656,1.043,1.323,1.043c0.668,0,1.104-0.348,1.312-1.043c0.207-0.697,0.311-1.701,0.311-3.014
				c0-1.377-0.104-2.396-0.311-3.059c-0.208-0.66-0.645-0.992-1.312-0.992c-0.667,0-1.107,0.332-1.323,0.992
				c-0.216,0.662-0.323,1.682-0.323,3.059C112.351,272.112,112.458,273.116,112.674,273.813z"/>
		</g>
	</g>
	<circle fill="#A6A8AB" cx="69.608" cy="270.796" r="15.958"/>
	<g>
		<g>
			<path fill="#FFFFFF" d="M68.06,273.345c0.089,0.488,0.26,0.865,0.511,1.129c0.251,0.266,0.618,0.398,1.101,0.398
				c0.555,0,0.979-0.195,1.27-0.586c0.291-0.393,0.436-0.885,0.436-1.479c0-0.582-0.136-1.074-0.408-1.477s-0.697-0.604-1.273-0.604
				c-0.272,0-0.508,0.035-0.707,0.104c-0.352,0.125-0.616,0.359-0.795,0.701l-2.012-0.096l0.801-6.311h6.286v1.906h-4.665
				l-0.41,2.498c0.347-0.225,0.617-0.375,0.811-0.449c0.326-0.121,0.722-0.182,1.188-0.182c0.944,0,1.768,0.318,2.471,0.955
				c0.703,0.635,1.054,1.559,1.054,2.771c0,1.057-0.338,2-1.015,2.83s-1.69,1.244-3.038,1.244c-1.086,0-1.979-0.291-2.676-0.875
				c-0.698-0.582-1.087-1.41-1.166-2.48H68.06z"/>
		</g>
	</g>
	<circle fill="#A6A8AB" cx="151.246" cy="270.796" r="15.958"/>
	<g>
		<g>
			<path fill="#FFFFFF" d="M143.497,274.155c0.32-0.762,1.077-1.568,2.27-2.418c1.035-0.742,1.704-1.271,2.009-1.592
				c0.468-0.5,0.702-1.045,0.702-1.639c0-0.484-0.135-0.885-0.402-1.205s-0.651-0.482-1.15-0.482c-0.684,0-1.148,0.256-1.395,0.766
				c-0.143,0.293-0.227,0.762-0.252,1.402h-2.183c0.036-0.973,0.213-1.758,0.528-2.355c0.6-1.141,1.664-1.711,3.194-1.711
				c1.209,0,2.171,0.336,2.886,1.006c0.716,0.67,1.073,1.555,1.073,2.658c0,0.846-0.253,1.598-0.758,2.254
				c-0.331,0.436-0.876,0.922-1.634,1.457l-0.9,0.639c-0.562,0.398-0.948,0.688-1.155,0.867c-0.208,0.178-0.382,0.385-0.524,0.621
				h4.987v1.979h-7.823C142.991,275.581,143.167,274.833,143.497,274.155z"/>
			<path fill="#FFFFFF" d="M158.73,266.435c0.586,1.023,0.878,2.479,0.878,4.365c0,1.885-0.292,3.338-0.878,4.355
				c-0.585,1.02-1.606,1.529-3.061,1.529c-1.455,0-2.476-0.51-3.062-1.529c-0.586-1.018-0.878-2.471-0.878-4.355
				c0-1.887,0.292-3.342,0.878-4.365c0.586-1.025,1.606-1.537,3.062-1.537C157.124,264.897,158.146,265.409,158.73,266.435z
				 M154.347,273.813c0.215,0.695,0.656,1.043,1.323,1.043s1.104-0.348,1.312-1.043c0.207-0.697,0.312-1.701,0.312-3.014
				c0-1.377-0.104-2.396-0.312-3.059c-0.207-0.66-0.645-0.992-1.312-0.992s-1.108,0.332-1.323,0.992
				c-0.216,0.662-0.324,1.682-0.324,3.059C154.022,272.112,154.131,273.116,154.347,273.813z"/>
		</g>
	</g>
	<circle fill="#A6A8AB" cx="192.069" cy="270.796" r="15.958"/>
	<g>
		<g>
			<path fill="#FFFFFF" d="M185.921,272.896c0,0.457,0.074,0.834,0.221,1.135c0.271,0.551,0.768,0.826,1.484,0.826
				c0.441,0,0.824-0.15,1.152-0.453c0.327-0.301,0.491-0.736,0.491-1.303c0-0.752-0.304-1.254-0.911-1.506
				c-0.346-0.143-0.891-0.213-1.634-0.213v-1.607c0.728-0.01,1.235-0.08,1.523-0.213c0.497-0.221,0.745-0.666,0.745-1.338
				c0-0.438-0.127-0.791-0.381-1.064s-0.611-0.41-1.072-0.41c-0.529,0-0.918,0.168-1.167,0.504s-0.368,0.785-0.357,1.348h-2.096
				c0.021-0.566,0.118-1.105,0.291-1.615c0.184-0.445,0.472-0.857,0.866-1.236c0.293-0.268,0.643-0.473,1.047-0.615
				c0.403-0.141,0.899-0.213,1.486-0.213c1.092,0,1.973,0.283,2.641,0.848c0.67,0.564,1.004,1.322,1.004,2.273
				c0,0.672-0.199,1.238-0.599,1.701c-0.252,0.289-0.515,0.486-0.788,0.592c0.205,0,0.499,0.176,0.883,0.527
				c0.572,0.531,0.858,1.256,0.858,2.174c0,0.967-0.335,1.816-1.003,2.549c-0.67,0.732-1.66,1.1-2.972,1.1
				c-1.616,0-2.739-0.527-3.368-1.584c-0.331-0.562-0.516-1.297-0.552-2.205H185.921z"/>
			<path fill="#FFFFFF" d="M199.547,266.435c0.586,1.023,0.878,2.479,0.878,4.365c0,1.885-0.292,3.338-0.878,4.355
				c-0.585,1.02-1.606,1.529-3.061,1.529c-1.455,0-2.476-0.51-3.062-1.529c-0.586-1.018-0.878-2.471-0.878-4.355
				c0-1.887,0.292-3.342,0.878-4.365c0.586-1.025,1.606-1.537,3.062-1.537C197.94,264.897,198.962,265.409,199.547,266.435z
				 M195.163,273.813c0.215,0.695,0.656,1.043,1.323,1.043s1.104-0.348,1.312-1.043c0.207-0.697,0.312-1.701,0.312-3.014
				c0-1.377-0.104-2.396-0.312-3.059c-0.207-0.66-0.645-0.992-1.312-0.992s-1.108,0.332-1.323,0.992
				c-0.216,0.662-0.324,1.682-0.324,3.059C194.839,272.112,194.947,273.116,195.163,273.813z"/>
		</g>
	</g>
	<g>
		<g>
			<path d="M95.968,327.104c-0.488,0.408-1.187,0.611-2.094,0.611h-1.738v3.002h-1.734v-8.35h3.586c0.826,0,1.485,0.215,1.977,0.646
				c0.492,0.43,0.738,1.096,0.738,1.998C96.702,325.999,96.457,326.696,95.968,327.104z M94.637,324.097
				c-0.222-0.186-0.53-0.279-0.929-0.279h-1.572v2.459h1.572c0.398,0,0.707-0.1,0.929-0.299c0.221-0.201,0.331-0.518,0.331-0.953
				C94.968,324.591,94.857,324.28,94.637,324.097z"/>
			<path d="M101.4,324.399c0.021,0.002,0.067,0.004,0.139,0.008v1.654c-0.102-0.012-0.192-0.02-0.272-0.023
				c-0.078-0.002-0.143-0.004-0.191-0.004c-0.65,0-1.086,0.211-1.309,0.633c-0.125,0.238-0.188,0.605-0.188,1.1v2.951h-1.626v-6.174
				h1.541v1.076c0.249-0.412,0.466-0.693,0.651-0.844c0.303-0.254,0.695-0.381,1.179-0.381
				C101.354,324.396,101.38,324.397,101.4,324.399z"/>
			<path d="M106.509,324.669c0.432,0.193,0.787,0.496,1.067,0.912c0.253,0.367,0.417,0.793,0.492,1.277
				c0.044,0.283,0.062,0.691,0.054,1.227h-4.498c0.025,0.619,0.24,1.053,0.646,1.303c0.246,0.154,0.543,0.232,0.89,0.232
				c0.368,0,0.667-0.096,0.896-0.283c0.125-0.104,0.235-0.244,0.332-0.426h1.648c-0.044,0.367-0.243,0.738-0.599,1.115
				c-0.553,0.602-1.327,0.902-2.322,0.902c-0.822,0-1.547-0.254-2.176-0.76c-0.629-0.508-0.942-1.332-0.942-2.473
				c0-1.07,0.284-1.891,0.851-2.461c0.567-0.57,1.303-0.855,2.209-0.855C105.595,324.38,106.079,324.476,106.509,324.669z
				 M104.094,326.063c-0.228,0.234-0.372,0.553-0.431,0.955h2.782c-0.029-0.428-0.173-0.754-0.431-0.975
				c-0.257-0.223-0.576-0.334-0.957-0.334C104.644,325.71,104.321,325.827,104.094,326.063z"/>
			<path d="M116.643,324.565c0.265,0.105,0.505,0.291,0.72,0.557c0.174,0.215,0.291,0.479,0.352,0.793
				c0.037,0.207,0.057,0.512,0.057,0.912l-0.012,3.891h-1.654v-3.932c0-0.234-0.038-0.426-0.113-0.578
				c-0.144-0.285-0.408-0.43-0.793-0.43c-0.445,0-0.754,0.186-0.924,0.555c-0.087,0.197-0.131,0.434-0.131,0.709v3.676h-1.625
				v-3.676c0-0.367-0.038-0.633-0.113-0.799c-0.137-0.299-0.402-0.447-0.799-0.447c-0.461,0-0.771,0.148-0.93,0.447
				c-0.086,0.17-0.13,0.422-0.13,0.76v3.715h-1.638v-6.164h1.57v0.902c0.199-0.322,0.389-0.551,0.566-0.686
				c0.312-0.242,0.719-0.363,1.218-0.363c0.472,0,0.853,0.104,1.144,0.312c0.234,0.191,0.412,0.439,0.533,0.742
				c0.211-0.363,0.474-0.629,0.787-0.799c0.332-0.17,0.703-0.256,1.11-0.256C116.11,324.407,116.378,324.46,116.643,324.565z"/>
			<path d="M120.913,323.808h-1.637v-1.49h1.637V323.808z M119.276,324.544h1.637v6.174h-1.637V324.544z"/>
			<path d="M124.087,324.544v3.721c0,0.352,0.041,0.617,0.123,0.793c0.146,0.314,0.435,0.471,0.863,0.471
				c0.549,0,0.924-0.223,1.127-0.668c0.105-0.242,0.158-0.561,0.158-0.957v-3.359h1.637v6.174h-1.568v-0.871
				c-0.016,0.018-0.053,0.074-0.113,0.17c-0.061,0.094-0.133,0.176-0.215,0.248c-0.252,0.227-0.496,0.383-0.731,0.465
				c-0.235,0.084-0.512,0.125-0.827,0.125c-0.912,0-1.525-0.328-1.842-0.986c-0.178-0.361-0.266-0.896-0.266-1.604v-3.721H124.087z"
				/>
			<path d="M137.269,324.565c0.265,0.105,0.505,0.291,0.72,0.557c0.174,0.215,0.291,0.479,0.352,0.793
				c0.038,0.207,0.057,0.512,0.057,0.912l-0.011,3.891h-1.654v-3.932c0-0.234-0.039-0.426-0.113-0.578
				c-0.145-0.285-0.408-0.43-0.794-0.43c-0.445,0-0.753,0.186-0.923,0.555c-0.088,0.197-0.131,0.434-0.131,0.709v3.676h-1.625
				v-3.676c0-0.367-0.039-0.633-0.113-0.799c-0.137-0.299-0.402-0.447-0.799-0.447c-0.461,0-0.771,0.148-0.93,0.447
				c-0.087,0.17-0.131,0.422-0.131,0.76v3.715h-1.637v-6.164h1.569v0.902c0.2-0.322,0.389-0.551,0.566-0.686
				c0.313-0.242,0.72-0.363,1.218-0.363c0.473,0,0.854,0.104,1.145,0.312c0.234,0.191,0.412,0.439,0.533,0.742
				c0.211-0.363,0.473-0.629,0.787-0.799c0.332-0.17,0.702-0.256,1.109-0.256C136.736,324.407,137.005,324.46,137.269,324.565z"/>
			<path d="M148.841,327.104c-0.489,0.408-1.188,0.611-2.095,0.611h-1.739v3.002h-1.732v-8.35h3.585
				c0.827,0,1.485,0.215,1.978,0.646c0.49,0.43,0.736,1.096,0.736,1.998C149.573,325.999,149.329,326.696,148.841,327.104z
				 M147.509,324.097c-0.221-0.186-0.531-0.279-0.929-0.279h-1.573v2.459h1.573c0.397,0,0.708-0.1,0.929-0.299
				c0.221-0.201,0.331-0.518,0.331-0.953C147.84,324.591,147.729,324.28,147.509,324.097z"/>
			<path d="M154.272,324.399c0.021,0.002,0.067,0.004,0.139,0.008v1.654c-0.102-0.012-0.191-0.02-0.271-0.023
				c-0.079-0.002-0.144-0.004-0.192-0.004c-0.649,0-1.086,0.211-1.309,0.633c-0.124,0.238-0.187,0.605-0.187,1.1v2.951h-1.627
				v-6.174h1.541v1.076c0.25-0.412,0.467-0.693,0.652-0.844c0.302-0.254,0.694-0.381,1.178-0.381
				C154.227,324.396,154.253,324.397,154.272,324.399z"/>
			<path d="M157.018,323.808h-1.638v-1.49h1.638V323.808z M155.38,324.544h1.638v6.174h-1.638V324.544z"/>
			<path d="M162.274,326.759c-0.029-0.23-0.107-0.439-0.232-0.623c-0.182-0.25-0.464-0.375-0.846-0.375
				c-0.546,0-0.918,0.271-1.119,0.811c-0.105,0.287-0.159,0.666-0.159,1.141c0,0.453,0.054,0.816,0.159,1.092
				c0.193,0.514,0.557,0.77,1.09,0.77c0.379,0,0.648-0.102,0.807-0.305c0.159-0.205,0.256-0.469,0.289-0.793h1.649
				c-0.038,0.49-0.216,0.955-0.533,1.393c-0.507,0.707-1.257,1.061-2.251,1.061s-1.727-0.295-2.195-0.885s-0.703-1.354-0.703-2.291
				c0-1.061,0.26-1.885,0.777-2.473c0.518-0.59,1.232-0.885,2.144-0.885c0.774,0,1.409,0.174,1.902,0.521s0.785,0.961,0.876,1.842
				H162.274z"/>
			<path d="M169.058,324.669c0.431,0.193,0.787,0.496,1.066,0.912c0.254,0.367,0.418,0.793,0.492,1.277
				c0.044,0.283,0.062,0.691,0.054,1.227h-4.497c0.024,0.619,0.24,1.053,0.646,1.303c0.247,0.154,0.543,0.232,0.89,0.232
				c0.368,0,0.667-0.096,0.896-0.283c0.125-0.104,0.236-0.244,0.332-0.426h1.648c-0.043,0.367-0.242,0.738-0.598,1.115
				c-0.554,0.602-1.328,0.902-2.323,0.902c-0.821,0-1.547-0.254-2.175-0.76c-0.629-0.508-0.943-1.332-0.943-2.473
				c0-1.07,0.284-1.891,0.852-2.461c0.566-0.57,1.303-0.855,2.208-0.855C168.143,324.38,168.627,324.476,169.058,324.669z
				 M166.642,326.063c-0.228,0.234-0.371,0.553-0.43,0.955h2.781c-0.029-0.428-0.172-0.754-0.43-0.975
				c-0.258-0.223-0.576-0.334-0.957-0.334C167.191,325.71,166.87,325.827,166.642,326.063z"/>
			<path d="M172.738,328.747c0.034,0.287,0.108,0.49,0.222,0.611c0.201,0.215,0.573,0.322,1.116,0.322
				c0.318,0,0.571-0.047,0.76-0.141s0.282-0.236,0.282-0.426c0-0.18-0.076-0.318-0.228-0.412c-0.151-0.096-0.714-0.258-1.688-0.488
				c-0.702-0.174-1.197-0.391-1.483-0.65c-0.287-0.258-0.431-0.627-0.431-1.111c0-0.57,0.225-1.061,0.673-1.471
				c0.448-0.408,1.079-0.613,1.894-0.613c0.771,0,1.4,0.154,1.887,0.461c0.486,0.309,0.766,0.84,0.838,1.596h-1.614
				c-0.022-0.209-0.081-0.373-0.177-0.494c-0.178-0.219-0.48-0.328-0.908-0.328c-0.353,0-0.604,0.055-0.753,0.164
				s-0.224,0.238-0.224,0.385c0,0.186,0.078,0.32,0.238,0.402c0.158,0.088,0.721,0.236,1.686,0.449
				c0.643,0.15,1.125,0.379,1.446,0.684c0.317,0.311,0.476,0.697,0.476,1.162c0,0.611-0.229,1.111-0.684,1.498
				c-0.457,0.387-1.161,0.582-2.115,0.582c-0.973,0-1.689-0.205-2.154-0.615c-0.463-0.41-0.695-0.932-0.695-1.566H172.738z"/>
		</g>
	</g>
	<path fill="#929497" d="M80.325,345.068c8.177,0,14.829,6.65,14.829,14.825s-6.652,14.825-14.829,14.825h-9.916
		c-8.175,0-14.825-6.65-14.825-14.825s6.65-14.825,14.825-14.825H80.325 M80.325,343.937h-9.916
		c-8.812,0-15.957,7.145-15.957,15.957s7.145,15.957,15.957,15.957h9.916c8.814,0,15.961-7.145,15.961-15.957
		S89.14,343.937,80.325,343.937L80.325,343.937z"/>
	<g>
		<g>
			<path fill="#929497" d="M63.792,357.62v-1.529c0.707-0.031,1.203-0.078,1.485-0.141c0.45-0.1,0.817-0.301,1.101-0.6
				c0.193-0.205,0.34-0.479,0.439-0.818c0.059-0.205,0.087-0.357,0.087-0.457h1.875v11.424h-2.3v-7.879H63.792z"/>
			<path fill="#929497" d="M78.089,355.532c0.586,1.023,0.878,2.479,0.878,4.365c0,1.885-0.292,3.338-0.878,4.355
				c-0.586,1.02-1.606,1.529-3.061,1.529c-1.455,0-2.477-0.51-3.062-1.529c-0.586-1.018-0.878-2.471-0.878-4.355
				c0-1.887,0.292-3.342,0.878-4.365c0.585-1.025,1.606-1.537,3.062-1.537C76.482,353.995,77.503,354.507,78.089,355.532z
				 M73.704,362.911c0.215,0.695,0.656,1.043,1.324,1.043c0.666,0,1.104-0.348,1.311-1.043c0.208-0.697,0.312-1.701,0.312-3.014
				c0-1.377-0.104-2.396-0.312-3.059c-0.207-0.66-0.645-0.992-1.311-0.992c-0.668,0-1.109,0.332-1.324,0.992
				c-0.215,0.662-0.323,1.682-0.323,3.059C73.381,361.21,73.489,362.214,73.704,362.911z"/>
			<path fill="#929497" d="M86.979,355.532c0.586,1.023,0.878,2.479,0.878,4.365c0,1.885-0.292,3.338-0.878,4.355
				c-0.585,1.02-1.606,1.529-3.061,1.529c-1.455,0-2.476-0.51-3.062-1.529c-0.586-1.018-0.878-2.471-0.878-4.355
				c0-1.887,0.292-3.342,0.878-4.365c0.586-1.025,1.606-1.537,3.062-1.537C85.372,353.995,86.394,354.507,86.979,355.532z
				 M82.595,362.911c0.215,0.695,0.656,1.043,1.323,1.043s1.104-0.348,1.312-1.043c0.207-0.697,0.312-1.701,0.312-3.014
				c0-1.377-0.104-2.396-0.312-3.059c-0.207-0.66-0.645-0.992-1.312-0.992s-1.108,0.332-1.323,0.992
				c-0.216,0.662-0.324,1.682-0.324,3.059C82.271,361.21,82.379,362.214,82.595,362.911z"/>
		</g>
	</g>
	<path fill="#929497" d="M131.065,345.068c8.177,0,14.829,6.65,14.829,14.825s-6.652,14.825-14.829,14.825h-9.916
		c-8.175,0-14.825-6.65-14.825-14.825s6.65-14.825,14.825-14.825H131.065 M131.065,343.937h-9.916
		c-8.812,0-15.957,7.145-15.957,15.957s7.145,15.957,15.957,15.957h9.916c8.814,0,15.961-7.145,15.961-15.957
		S139.88,343.937,131.065,343.937L131.065,343.937z"/>
	<g>
		<path fill="#929497" d="M115.696,362.442c0.088,0.488,0.259,0.865,0.51,1.129c0.252,0.266,0.619,0.398,1.102,0.398
			c0.555,0,0.979-0.195,1.27-0.586c0.29-0.393,0.436-0.885,0.436-1.479c0-0.582-0.137-1.074-0.408-1.477
			c-0.273-0.402-0.697-0.604-1.273-0.604c-0.273,0-0.509,0.035-0.708,0.104c-0.351,0.125-0.616,0.359-0.794,0.701l-2.013-0.096
			l0.802-6.311h6.285v1.906h-4.665l-0.409,2.498c0.346-0.225,0.617-0.375,0.811-0.449c0.325-0.121,0.721-0.182,1.188-0.182
			c0.945,0,1.768,0.318,2.471,0.955c0.703,0.635,1.055,1.559,1.055,2.771c0,1.057-0.338,2-1.016,2.83
			c-0.677,0.83-1.689,1.244-3.037,1.244c-1.087,0-1.979-0.291-2.677-0.875c-0.698-0.582-1.087-1.41-1.165-2.48H115.696z"/>
		<path fill="#929497" d="M129.212,355.532c0.586,1.023,0.879,2.479,0.879,4.365c0,1.885-0.293,3.338-0.879,4.355
			c-0.585,1.02-1.605,1.529-3.061,1.529s-2.475-0.51-3.061-1.529c-0.586-1.018-0.879-2.471-0.879-4.355
			c0-1.887,0.293-3.342,0.879-4.365c0.586-1.025,1.605-1.537,3.061-1.537S128.627,354.507,129.212,355.532z M124.828,362.911
			c0.216,0.695,0.656,1.043,1.323,1.043c0.668,0,1.104-0.348,1.312-1.043c0.207-0.697,0.311-1.701,0.311-3.014
			c0-1.377-0.104-2.396-0.311-3.059c-0.208-0.66-0.645-0.992-1.312-0.992c-0.667,0-1.107,0.332-1.323,0.992
			c-0.216,0.662-0.323,1.682-0.323,3.059C124.505,361.21,124.612,362.214,124.828,362.911z"/>
		<path fill="#929497" d="M138.103,355.532c0.586,1.023,0.879,2.479,0.879,4.365c0,1.885-0.293,3.338-0.879,4.355
			c-0.586,1.02-1.605,1.529-3.061,1.529s-2.476-0.51-3.061-1.529c-0.586-1.018-0.879-2.471-0.879-4.355
			c0-1.887,0.293-3.342,0.879-4.365c0.585-1.025,1.605-1.537,3.061-1.537S137.517,354.507,138.103,355.532z M133.718,362.911
			c0.216,0.695,0.656,1.043,1.324,1.043c0.667,0,1.104-0.348,1.312-1.043c0.208-0.697,0.312-1.701,0.312-3.014
			c0-1.377-0.104-2.396-0.312-3.059c-0.208-0.66-0.645-0.992-1.312-0.992c-0.668,0-1.108,0.332-1.324,0.992
			c-0.215,0.662-0.322,1.682-0.322,3.059C133.396,361.21,133.503,362.214,133.718,362.911z"/>
	</g>
	<path fill="#929497" d="M189.785,345.068c8.176,0,14.827,6.65,14.827,14.825s-6.651,14.825-14.827,14.825H171.89
		c-8.175,0-14.825-6.65-14.825-14.825s6.65-14.825,14.825-14.825H189.785 M189.785,343.937H171.89
		c-8.814,0-15.957,7.145-15.957,15.957s7.143,15.957,15.957,15.957h17.896c8.812,0,15.959-7.145,15.959-15.957
		S198.598,343.937,189.785,343.937L189.785,343.937z"/>
	<g>
		<path fill="#929497" d="M164.812,357.62v-1.529c0.708-0.031,1.202-0.078,1.485-0.141c0.451-0.1,0.817-0.301,1.101-0.6
			c0.193-0.205,0.341-0.479,0.44-0.818c0.057-0.205,0.086-0.357,0.086-0.457h1.875v11.424h-2.301v-7.879H164.812z"/>
		<path fill="#929497" d="M179.108,355.532c0.586,1.023,0.879,2.479,0.879,4.365c0,1.885-0.293,3.338-0.879,4.355
			c-0.585,1.02-1.605,1.529-3.061,1.529s-2.475-0.51-3.061-1.529c-0.586-1.018-0.879-2.471-0.879-4.355
			c0-1.887,0.293-3.342,0.879-4.365c0.586-1.025,1.605-1.537,3.061-1.537S178.523,354.507,179.108,355.532z M174.725,362.911
			c0.216,0.695,0.656,1.043,1.323,1.043c0.668,0,1.104-0.348,1.312-1.043c0.207-0.697,0.311-1.701,0.311-3.014
			c0-1.377-0.104-2.396-0.311-3.059c-0.208-0.66-0.645-0.992-1.312-0.992c-0.667,0-1.107,0.332-1.323,0.992
			c-0.216,0.662-0.323,1.682-0.323,3.059C174.401,361.21,174.509,362.214,174.725,362.911z"/>
		<path fill="#929497" d="M187.999,355.532c0.586,1.023,0.879,2.479,0.879,4.365c0,1.885-0.293,3.338-0.879,4.355
			c-0.586,1.02-1.605,1.529-3.061,1.529s-2.476-0.51-3.061-1.529c-0.586-1.018-0.879-2.471-0.879-4.355
			c0-1.887,0.293-3.342,0.879-4.365c0.585-1.025,1.605-1.537,3.061-1.537S187.413,354.507,187.999,355.532z M183.614,362.911
			c0.216,0.695,0.656,1.043,1.324,1.043c0.667,0,1.104-0.348,1.312-1.043c0.208-0.697,0.312-1.701,0.312-3.014
			c0-1.377-0.104-2.396-0.312-3.059c-0.208-0.66-0.645-0.992-1.312-0.992c-0.668,0-1.108,0.332-1.324,0.992
			c-0.215,0.662-0.322,1.682-0.322,3.059C183.292,361.21,183.399,362.214,183.614,362.911z"/>
		<path fill="#929497" d="M196.889,355.532c0.586,1.023,0.878,2.479,0.878,4.365c0,1.885-0.292,3.338-0.878,4.355
			c-0.585,1.02-1.606,1.529-3.061,1.529c-1.455,0-2.476-0.51-3.062-1.529c-0.586-1.018-0.878-2.471-0.878-4.355
			c0-1.887,0.292-3.342,0.878-4.365c0.586-1.025,1.606-1.537,3.062-1.537C195.282,353.995,196.304,354.507,196.889,355.532z
			 M192.505,362.911c0.215,0.695,0.656,1.043,1.323,1.043s1.104-0.348,1.312-1.043c0.207-0.697,0.312-1.701,0.312-3.014
			c0-1.377-0.104-2.396-0.312-3.059c-0.207-0.66-0.645-0.992-1.312-0.992s-1.108,0.332-1.323,0.992
			c-0.216,0.662-0.324,1.682-0.324,3.059C192.181,361.21,192.289,362.214,192.505,362.911z"/>
	</g>
	<g>
		<polygon fill="#FFFFFF" points="118.548,291.417 118.548,294.37 117.071,294.37 117.071,289.938 115.593,289.938 115.593,292.892 
			114.116,292.892 114.116,288.462 112.639,288.462 112.639,292.892 111.162,292.892 111.162,282.552 108.206,282.552 
			108.206,297.323 106.729,297.323 106.729,294.37 105.252,294.37 105.252,292.892 103.774,292.892 103.774,291.417 
			100.821,291.417 100.821,294.37 102.298,294.37 102.298,295.847 103.774,295.847 103.774,298.804 105.252,298.804 105.252,300.28 
			106.729,300.28 106.729,301.757 108.206,301.757 108.206,304.712 117.071,304.712 117.071,301.757 118.548,301.757 
			118.548,298.804 120.023,298.804 120.023,291.417 		"/>
		<path fill="#000100" d="M99.344,294.37h1.478v-2.953h-1.478V294.37z M100.821,289.938v1.479h2.953v-1.479H100.821z
			 M103.774,291.417v1.475h1.478v-1.475H103.774z M106.729,292.892h-1.477v1.479h1.477v2.953h1.478v-14.771h-1.478V292.892z
			 M108.206,281.075v1.477h2.956v-1.477H108.206z M102.298,295.847v-1.477h-1.477v1.477H102.298z M103.774,298.804v-2.957h-1.477
			v2.957H103.774z M105.252,300.28v-1.477h-1.478v1.477H105.252z M106.729,301.757v-1.477h-1.477v1.477H106.729z M108.206,304.712
			v-2.955h-1.478v2.955H108.206z M118.548,289.938v-1.477h-2.955v-1.479h-2.954v-4.432h-1.477v10.34h1.477v-4.43h1.478v4.43h1.477
			v-2.953h1.479v4.432h1.477v-2.953h1.476v7.387h1.478v-8.865H118.548z M118.548,301.757h1.476v-2.953h-1.476V301.757z
			 M117.071,304.712h1.477v-2.955h-1.477V304.712z"/>
	</g>
</g>
</svg>
