<?xml version="1.0" encoding="utf-8"?>
<!-- Generator: Adobe Illustrator 16.0.5, SVG Export Plug-In . SVG Version: 6.00 Build 0)  -->
<!DOCTYPE svg PUBLIC "-//W3C//DTD SVG 1.1//EN" "http://www.w3.org/Graphics/SVG/1.1/DTD/svg11.dtd">
<svg version="1.1" id="Layer_1" xmlns="http://www.w3.org/2000/svg" xmlns:xlink="http://www.w3.org/1999/xlink" x="0px" y="0px"
	 width="230px" height="230px" viewBox="0 0 230 230" enable-background="new 0 0 230 230" xml:space="preserve">
<g>
	<g>
		<g>
			<path fill="#FFFFFF" d="M32.296,101.371c-0.539,0.449-1.31,0.674-2.311,0.674h-1.919v3.314h-1.913v-9.215h3.957
				c0.911,0,1.639,0.238,2.181,0.713c0.543,0.475,0.813,1.211,0.813,2.207C33.104,100.152,32.835,100.92,32.296,101.371z
				 M30.826,98.051c-0.244-0.203-0.585-0.305-1.024-0.305h-1.735v2.713h1.735c0.439,0,0.78-0.111,1.024-0.332
				s0.366-0.57,0.366-1.051C31.192,98.598,31.07,98.256,30.826,98.051z"/>
			<path fill="#FFFFFF" d="M39.402,98.582c0.342,0.146,0.623,0.371,0.843,0.67c0.187,0.256,0.301,0.518,0.343,0.785
				c0.041,0.27,0.062,0.709,0.062,1.318v4.004h-1.819v-4.15c0-0.367-0.062-0.662-0.187-0.889c-0.161-0.316-0.467-0.475-0.918-0.475
				c-0.468,0-0.822,0.158-1.064,0.473s-0.363,0.764-0.363,1.348v3.693h-1.781v-9.184h1.781v3.25
				c0.258-0.395,0.556-0.672,0.894-0.828s0.694-0.234,1.067-0.234C38.679,98.363,39.06,98.438,39.402,98.582z"/>
			<path fill="#FFFFFF" d="M48.008,104.525c-0.575,0.709-1.448,1.064-2.619,1.064s-2.044-0.355-2.619-1.064
				s-0.863-1.564-0.863-2.564c0-0.982,0.288-1.834,0.863-2.555c0.575-0.719,1.448-1.08,2.619-1.08s2.044,0.361,2.619,1.08
				c0.575,0.721,0.862,1.572,0.862,2.555C48.87,102.961,48.583,103.816,48.008,104.525z M46.582,103.541
				c0.279-0.371,0.419-0.896,0.419-1.58c0-0.682-0.14-1.207-0.419-1.576c-0.278-0.367-0.679-0.553-1.2-0.553
				c-0.521,0-0.922,0.186-1.203,0.553c-0.281,0.369-0.422,0.895-0.422,1.576c0,0.684,0.141,1.209,0.422,1.58
				c0.281,0.369,0.683,0.555,1.203,0.555C45.903,104.096,46.304,103.91,46.582,103.541z"/>
			<path fill="#FFFFFF" d="M49.444,99.877v-1.27h0.95v-1.9h1.763v1.9h1.106v1.27h-1.106v3.6c0,0.279,0.036,0.453,0.106,0.523
				c0.071,0.068,0.288,0.102,0.65,0.102c0.054,0,0.111,0,0.172-0.002s0.12-0.006,0.178-0.01v1.332l-0.844,0.031
				c-0.842,0.029-1.417-0.117-1.725-0.438c-0.2-0.205-0.301-0.52-0.301-0.945v-4.193H49.444z"/>
			<path fill="#FFFFFF" d="M60.091,104.525c-0.575,0.709-1.448,1.064-2.619,1.064s-2.044-0.355-2.619-1.064
				s-0.863-1.564-0.863-2.564c0-0.982,0.288-1.834,0.863-2.555c0.575-0.719,1.448-1.08,2.619-1.08s2.044,0.361,2.619,1.08
				c0.575,0.721,0.862,1.572,0.862,2.555C60.953,102.961,60.666,103.816,60.091,104.525z M58.665,103.541
				c0.279-0.371,0.419-0.896,0.419-1.58c0-0.682-0.14-1.207-0.419-1.576c-0.278-0.367-0.679-0.553-1.2-0.553
				c-0.521,0-0.922,0.186-1.203,0.553c-0.281,0.369-0.422,0.895-0.422,1.576c0,0.684,0.141,1.209,0.422,1.58
				c0.281,0.369,0.683,0.555,1.203,0.555C57.986,104.096,58.387,103.91,58.665,103.541z"/>
			<path fill="#FFFFFF" d="M65.599,98.539c0.433,0.18,0.782,0.508,1.049,0.988v-0.982h1.737v6.465c0,0.879-0.147,1.541-0.443,1.986
				c-0.509,0.768-1.483,1.15-2.926,1.15c-0.871,0-1.581-0.17-2.132-0.512c-0.55-0.342-0.854-0.854-0.912-1.531h1.938
				c0.05,0.207,0.132,0.357,0.244,0.449c0.191,0.162,0.515,0.244,0.969,0.244c0.642,0,1.071-0.215,1.288-0.645
				c0.142-0.275,0.212-0.736,0.212-1.387v-0.438c-0.171,0.291-0.354,0.51-0.55,0.656c-0.354,0.27-0.814,0.406-1.382,0.406
				c-0.875,0-1.574-0.309-2.097-0.922c-0.523-0.615-0.785-1.447-0.785-2.498c0-1.012,0.252-1.863,0.756-2.553
				s1.218-1.035,2.142-1.035C65.047,98.383,65.345,98.436,65.599,98.539z M66.205,103.424c0.286-0.314,0.43-0.814,0.43-1.504
				c0-0.645-0.136-1.137-0.407-1.475c-0.272-0.338-0.637-0.506-1.093-0.506c-0.623,0-1.052,0.293-1.289,0.881
				c-0.124,0.312-0.187,0.699-0.187,1.156c0,0.396,0.066,0.748,0.199,1.057c0.241,0.576,0.673,0.863,1.295,0.863
				C65.568,103.896,65.919,103.738,66.205,103.424z"/>
			<path fill="#FFFFFF" d="M73.833,98.387c0.023,0.002,0.074,0.004,0.153,0.008v1.826c-0.112-0.012-0.213-0.021-0.3-0.025
				c-0.088-0.004-0.158-0.006-0.213-0.006c-0.717,0-1.198,0.232-1.444,0.699c-0.137,0.264-0.206,0.668-0.206,1.213v3.258h-1.794
				v-6.814h1.7v1.188c0.275-0.453,0.515-0.764,0.719-0.932c0.334-0.279,0.767-0.418,1.301-0.418
				C73.782,98.383,73.811,98.385,73.833,98.387z"/>
			<path fill="#FFFFFF" d="M77.729,101.215c0.331-0.041,0.568-0.094,0.711-0.156c0.257-0.109,0.385-0.277,0.385-0.506
				c0-0.279-0.099-0.473-0.295-0.578c-0.196-0.107-0.484-0.16-0.865-0.16c-0.426,0-0.729,0.104-0.905,0.312
				c-0.127,0.154-0.212,0.363-0.254,0.625h-1.719c0.037-0.596,0.205-1.086,0.502-1.469c0.473-0.6,1.285-0.9,2.436-0.9
				c0.75,0,1.415,0.148,1.997,0.443c0.581,0.297,0.872,0.855,0.872,1.676v3.125c0,0.217,0.004,0.48,0.013,0.787
				c0.013,0.234,0.048,0.393,0.106,0.477c0.059,0.082,0.146,0.152,0.263,0.205v0.264h-1.938c-0.054-0.139-0.092-0.268-0.112-0.389
				s-0.037-0.258-0.05-0.412c-0.247,0.268-0.532,0.494-0.855,0.682c-0.386,0.221-0.821,0.332-1.308,0.332
				c-0.62,0-1.133-0.178-1.537-0.529s-0.606-0.852-0.606-1.496c0-0.838,0.325-1.445,0.976-1.82c0.357-0.203,0.882-0.35,1.574-0.438
				L77.729,101.215z M78.818,102.045c-0.114,0.072-0.229,0.129-0.345,0.172c-0.116,0.045-0.276,0.086-0.479,0.123l-0.406,0.074
				c-0.38,0.066-0.652,0.148-0.818,0.244c-0.28,0.162-0.421,0.414-0.421,0.756c0,0.305,0.086,0.525,0.257,0.66
				c0.172,0.135,0.38,0.203,0.625,0.203c0.39,0,0.748-0.113,1.076-0.338s0.498-0.635,0.511-1.23V102.045z"/>
			<path fill="#FFFFFF" d="M87.881,99.277c0.556,0.586,0.833,1.449,0.833,2.588c0,1.199-0.271,2.115-0.814,2.744
				s-1.242,0.943-2.098,0.943c-0.546,0-0.999-0.135-1.359-0.406c-0.197-0.15-0.391-0.369-0.579-0.656v3.551h-1.763v-9.496h1.707
				v1.006c0.192-0.295,0.398-0.527,0.616-0.699c0.398-0.305,0.872-0.457,1.422-0.457C86.646,98.395,87.325,98.689,87.881,99.277z
				 M86.514,100.559c-0.242-0.404-0.635-0.607-1.178-0.607c-0.653,0-1.102,0.307-1.346,0.92c-0.126,0.324-0.189,0.736-0.189,1.236
				c0,0.793,0.213,1.35,0.638,1.67c0.252,0.188,0.552,0.281,0.896,0.281c0.501,0,0.884-0.191,1.146-0.574
				c0.264-0.385,0.396-0.895,0.396-1.533C86.877,101.428,86.756,100.963,86.514,100.559z"/>
			<path fill="#FFFFFF" d="M94.867,98.582c0.342,0.146,0.623,0.371,0.843,0.67c0.187,0.256,0.301,0.518,0.343,0.785
				c0.041,0.27,0.062,0.709,0.062,1.318v4.004h-1.819v-4.15c0-0.367-0.062-0.662-0.187-0.889c-0.161-0.316-0.467-0.475-0.918-0.475
				c-0.468,0-0.822,0.158-1.064,0.473s-0.363,0.764-0.363,1.348v3.693h-1.781v-9.184h1.781v3.25
				c0.258-0.395,0.556-0.672,0.894-0.828s0.694-0.234,1.067-0.234C94.144,98.363,94.524,98.438,94.867,98.582z"/>
			<path fill="#FFFFFF" d="M102.23,98.684c0.476,0.213,0.868,0.549,1.178,1.008c0.278,0.404,0.46,0.875,0.542,1.408
				c0.049,0.312,0.068,0.764,0.06,1.354h-4.963c0.027,0.682,0.265,1.162,0.713,1.438c0.271,0.17,0.599,0.256,0.981,0.256
				c0.406,0,0.736-0.104,0.989-0.312c0.139-0.113,0.261-0.27,0.367-0.469h1.818c-0.048,0.404-0.268,0.814-0.66,1.23
				c-0.61,0.664-1.465,0.994-2.563,0.994c-0.906,0-1.707-0.279-2.399-0.838c-0.693-0.559-1.04-1.469-1.04-2.729
				c0-1.18,0.312-2.084,0.938-2.715c0.626-0.629,1.438-0.945,2.437-0.945C101.221,98.363,101.755,98.471,102.23,98.684z
				 M99.565,100.223c-0.252,0.26-0.41,0.611-0.475,1.055h3.069c-0.033-0.473-0.19-0.832-0.475-1.076
				c-0.284-0.246-0.637-0.369-1.057-0.369C100.171,99.832,99.816,99.963,99.565,100.223z"/>
			<path fill="#FFFFFF" d="M108.695,98.387c0.023,0.002,0.074,0.004,0.153,0.008v1.826c-0.112-0.012-0.213-0.021-0.3-0.025
				c-0.088-0.004-0.158-0.006-0.213-0.006c-0.717,0-1.198,0.232-1.444,0.699c-0.137,0.264-0.206,0.668-0.206,1.213v3.258h-1.794
				v-6.814h1.7v1.188c0.275-0.453,0.515-0.764,0.719-0.932c0.334-0.279,0.767-0.418,1.301-0.418
				C108.645,98.383,108.673,98.385,108.695,98.387z"/>
		</g>
	</g>
	<g>
		<path fill="#FFFFFF" d="M67.408,61.676h-2.823v5.375H59.78v-5.375h-9.887v-4.293l9.18-15.156h5.512V57.83h2.823V61.676z
			 M59.78,57.83V47.072L53.547,57.83H59.78z"/>
		<path fill="#FFFFFF" d="M81.802,45.26c1.276,2.236,1.919,5.416,1.919,9.539c0,4.125-0.643,7.299-1.919,9.527
			c-1.282,2.225-3.512,3.342-6.693,3.342c-3.18,0-5.411-1.117-6.694-3.342c-1.277-2.229-1.919-5.402-1.919-9.527
			c0-4.123,0.642-7.303,1.919-9.539c1.283-2.242,3.515-3.355,6.694-3.355C78.29,41.904,80.52,43.018,81.802,45.26z M72.213,61.391
			c0.472,1.52,1.434,2.281,2.896,2.281c1.46,0,2.413-0.762,2.868-2.281c0.451-1.523,0.678-3.723,0.678-6.592
			c0-3.006-0.227-5.236-0.678-6.682c-0.455-1.445-1.408-2.17-2.868-2.17c-1.462,0-2.424,0.725-2.896,2.17
			c-0.469,1.445-0.704,3.676-0.704,6.682C71.509,57.668,71.744,59.867,72.213,61.391z"/>
		<path fill="#36A7DE" d="M93.434,68c-4.752,9-14.769,16.317-26.333,16.317c-16.141,0-29.272-13.218-29.272-29.358
			S50.96,25.593,67.101,25.593C78.663,25.593,88.679,32,93.432,42h1.389c-4.846-10-15.443-17.713-27.72-17.713
			c-16.833,0-30.531,13.725-30.531,30.559c0,16.836,13.698,30.721,30.531,30.721C79.378,85.566,89.978,78,94.822,68H93.434z"/>
		<g>
			<path fill="#FFFFFF" d="M93.586,53.887c-0.805,0.672-1.729,0.953-2.779,0.854c-1.039-0.1-1.896-0.551-2.562-1.363
				c-0.665-0.803-0.948-1.727-0.852-2.77c0.101-1.041,0.555-1.893,1.362-2.564c0.805-0.666,1.729-0.949,2.769-0.85
				c1.042,0.1,1.9,0.553,2.563,1.357c0.668,0.811,0.95,1.734,0.853,2.773C94.839,52.369,94.389,53.223,93.586,53.887z
				 M92.199,52.215c0.343-0.281,0.538-0.646,0.578-1.096c0.045-0.445-0.075-0.84-0.362-1.186c-0.283-0.344-0.646-0.539-1.097-0.578
				c-0.445-0.045-0.84,0.076-1.185,0.361c-0.344,0.285-0.535,0.648-0.577,1.096c-0.044,0.445,0.076,0.844,0.359,1.184
				c0.284,0.346,0.648,0.543,1.097,0.586C91.461,52.623,91.856,52.498,92.199,52.215z M99.776,47.908l1.536,0.146l-9.628,14.311
				l-1.569-0.15L99.776,47.908z M102.733,62.213c-0.806,0.664-1.731,0.947-2.771,0.852c-1.041-0.1-1.896-0.555-2.564-1.361
				c-0.663-0.809-0.947-1.73-0.85-2.773c0.1-1.047,0.553-1.904,1.359-2.564c0.808-0.668,1.732-0.949,2.772-0.852
				c1.042,0.1,1.895,0.551,2.562,1.363c0.669,0.805,0.951,1.734,0.852,2.773C103.993,60.691,103.543,61.543,102.733,62.213z
				 M101.572,58.258c-0.287-0.348-0.651-0.541-1.097-0.584c-0.447-0.039-0.842,0.078-1.188,0.367
				c-0.341,0.281-0.538,0.646-0.58,1.096c-0.044,0.445,0.08,0.842,0.363,1.184c0.283,0.346,0.648,0.537,1.096,0.58
				c0.445,0.041,0.841-0.078,1.188-0.361c0.346-0.283,0.535-0.65,0.58-1.096C101.978,58.994,101.856,58.598,101.572,58.258z"/>
		</g>
	</g>
	<g>
		<g>
			<path fill="#29A9E1" d="M142.522,96.346c0.646,0.211,1.17,0.602,1.57,1.168c0.321,0.459,0.54,0.955,0.657,1.488
				c0.116,0.533,0.175,1.041,0.175,1.525c0,1.225-0.246,2.262-0.738,3.113c-0.667,1.145-1.697,1.719-3.09,1.719h-3.973v-9.215h3.973
				C141.668,96.152,142.143,96.221,142.522,96.346z M138.992,97.746v6.012h1.778c0.91,0,1.545-0.447,1.903-1.344
				c0.196-0.49,0.295-1.076,0.295-1.756c0-0.938-0.147-1.658-0.441-2.16c-0.295-0.502-0.88-0.752-1.757-0.752H138.992z"/>
			<path fill="#29A9E1" d="M151.907,104.525c-0.575,0.709-1.448,1.064-2.619,1.064s-2.044-0.355-2.619-1.064
				s-0.863-1.564-0.863-2.564c0-0.982,0.288-1.834,0.863-2.555c0.575-0.719,1.448-1.08,2.619-1.08s2.044,0.361,2.619,1.08
				c0.575,0.721,0.862,1.572,0.862,2.555C152.77,102.961,152.482,103.816,151.907,104.525z M150.481,103.541
				c0.279-0.371,0.419-0.896,0.419-1.58c0-0.682-0.14-1.207-0.419-1.576c-0.278-0.367-0.679-0.553-1.2-0.553
				c-0.521,0-0.922,0.186-1.203,0.553c-0.281,0.369-0.422,0.895-0.422,1.576c0,0.684,0.141,1.209,0.422,1.58
				c0.281,0.369,0.683,0.555,1.203,0.555C149.803,104.096,150.203,103.91,150.481,103.541z"/>
			<path fill="#29A9E1" d="M159.54,98.936c0.445,0.369,0.669,0.98,0.669,1.836v4.588h-1.825v-4.145c0-0.359-0.048-0.633-0.143-0.826
				c-0.174-0.35-0.505-0.525-0.993-0.525c-0.6,0-1.012,0.258-1.235,0.77c-0.115,0.271-0.174,0.617-0.174,1.037v3.689h-1.781v-6.801
				h1.726v0.992c0.228-0.35,0.444-0.602,0.647-0.756c0.365-0.275,0.827-0.412,1.388-0.412
				C158.52,98.383,159.094,98.566,159.54,98.936z"/>
			<path fill="#29A9E1" d="M164.564,101.215c0.331-0.041,0.568-0.094,0.711-0.156c0.257-0.109,0.385-0.277,0.385-0.506
				c0-0.279-0.099-0.473-0.295-0.578c-0.196-0.107-0.484-0.16-0.865-0.16c-0.426,0-0.729,0.104-0.905,0.312
				c-0.127,0.154-0.212,0.363-0.254,0.625h-1.719c0.037-0.596,0.205-1.086,0.502-1.469c0.473-0.6,1.285-0.9,2.436-0.9
				c0.75,0,1.415,0.148,1.997,0.443c0.581,0.297,0.872,0.855,0.872,1.676v3.125c0,0.217,0.004,0.48,0.013,0.787
				c0.013,0.234,0.048,0.393,0.106,0.477c0.059,0.082,0.146,0.152,0.263,0.205v0.264h-1.938c-0.054-0.139-0.092-0.268-0.112-0.389
				s-0.037-0.258-0.05-0.412c-0.247,0.268-0.532,0.494-0.855,0.682c-0.386,0.221-0.821,0.332-1.308,0.332
				c-0.62,0-1.133-0.178-1.537-0.529s-0.606-0.852-0.606-1.496c0-0.838,0.325-1.445,0.976-1.82c0.357-0.203,0.882-0.35,1.574-0.438
				L164.564,101.215z M165.653,102.045c-0.114,0.072-0.229,0.129-0.345,0.172c-0.116,0.045-0.276,0.086-0.479,0.123l-0.406,0.074
				c-0.38,0.066-0.652,0.148-0.818,0.244c-0.28,0.162-0.421,0.414-0.421,0.756c0,0.305,0.086,0.525,0.257,0.66
				c0.172,0.135,0.38,0.203,0.625,0.203c0.39,0,0.748-0.113,1.076-0.338s0.498-0.635,0.511-1.23V102.045z"/>
			<path fill="#29A9E1" d="M168.284,99.877v-1.27h0.95v-1.9h1.763v1.9h1.106v1.27h-1.106v3.6c0,0.279,0.036,0.453,0.106,0.523
				c0.071,0.068,0.288,0.102,0.65,0.102c0.054,0,0.111,0,0.172-0.002s0.12-0.006,0.178-0.01v1.332l-0.844,0.031
				c-0.842,0.029-1.417-0.117-1.725-0.438c-0.2-0.205-0.301-0.52-0.301-0.945v-4.193H168.284z"/>
			<path fill="#29A9E1" d="M175.08,97.732h-1.807v-1.645h1.807V97.732z M173.273,98.545h1.807v6.814h-1.807V98.545z"/>
			<path fill="#29A9E1" d="M182.487,104.525c-0.575,0.709-1.448,1.064-2.619,1.064s-2.044-0.355-2.619-1.064
				s-0.863-1.564-0.863-2.564c0-0.982,0.288-1.834,0.863-2.555c0.575-0.719,1.448-1.08,2.619-1.08s2.044,0.361,2.619,1.08
				c0.575,0.721,0.862,1.572,0.862,2.555C183.35,102.961,183.062,103.816,182.487,104.525z M181.062,103.541
				c0.279-0.371,0.419-0.896,0.419-1.58c0-0.682-0.14-1.207-0.419-1.576c-0.278-0.367-0.679-0.553-1.2-0.553
				c-0.521,0-0.922,0.186-1.203,0.553c-0.281,0.369-0.422,0.895-0.422,1.576c0,0.684,0.141,1.209,0.422,1.58
				c0.281,0.369,0.683,0.555,1.203,0.555C180.383,104.096,180.783,103.91,181.062,103.541z"/>
			<path fill="#29A9E1" d="M190.12,98.936c0.445,0.369,0.669,0.98,0.669,1.836v4.588h-1.825v-4.145c0-0.359-0.048-0.633-0.143-0.826
				c-0.174-0.35-0.505-0.525-0.993-0.525c-0.6,0-1.012,0.258-1.235,0.77c-0.115,0.271-0.174,0.617-0.174,1.037v3.689h-1.781v-6.801
				h1.726v0.992c0.228-0.35,0.444-0.602,0.647-0.756c0.365-0.275,0.827-0.412,1.388-0.412
				C189.1,98.383,189.674,98.566,190.12,98.936z"/>
		</g>
	</g>
	<g>
		<path fill="#FFFFFF" d="M148.006,62.248c0.698-1.664,2.353-3.428,4.959-5.289c2.26-1.617,3.724-2.777,4.392-3.479
			c1.019-1.088,1.533-2.285,1.533-3.58c0-1.059-0.294-1.938-0.882-2.637c-0.583-0.699-1.421-1.051-2.514-1.051
			c-1.492,0-2.509,0.559-3.049,1.67c-0.31,0.645-0.495,1.664-0.549,3.066h-4.772c0.083-2.123,0.466-3.84,1.154-5.148
			c1.311-2.494,3.641-3.738,6.983-3.738c2.645,0,4.748,0.732,6.311,2.193c1.562,1.467,2.345,3.404,2.345,5.816
			c0,1.848-0.552,3.492-1.654,4.924c-0.727,0.951-1.919,2.014-3.572,3.188l-1.97,1.395c-1.229,0.873-2.072,1.506-2.524,1.895
			c-0.453,0.391-0.837,0.846-1.146,1.359h10.902v4.324H146.85C146.895,65.365,147.28,63.73,148.006,62.248z"/>
		<path fill="#FFFFFF" d="M178.687,45.367c1.279,2.24,1.917,5.42,1.917,9.545c0,4.121-0.638,7.297-1.917,9.523
			c-1.283,2.227-3.512,3.34-6.693,3.34s-5.411-1.113-6.692-3.34c-1.279-2.227-1.92-5.402-1.92-9.523c0-4.125,0.641-7.305,1.92-9.545
			c1.281-2.238,3.511-3.357,6.692-3.357S177.403,43.129,178.687,45.367z M169.101,61.5c0.469,1.521,1.434,2.281,2.893,2.281
			c1.457,0,2.412-0.76,2.867-2.281c0.454-1.523,0.681-3.719,0.681-6.588c0-3.008-0.227-5.236-0.681-6.686
			c-0.455-1.445-1.41-2.168-2.867-2.168c-1.459,0-2.424,0.723-2.893,2.168c-0.474,1.449-0.707,3.678-0.707,6.686
			C168.394,57.781,168.627,59.977,169.101,61.5z"/>
		<path fill="#36A7DE" d="M190.217,68c-4.751,9-14.767,16.317-26.333,16.317c-16.139,0-29.271-13.22-29.271-29.358
			c0-16.141,13.133-29.366,29.271-29.366c11.566,0,21.581,6.407,26.333,16.407h1.391c-4.846-10-15.448-17.713-27.724-17.713
			c-16.833,0-30.529,13.719-30.529,30.559c0,16.834,13.696,30.721,30.529,30.721c12.275,0,22.878-7.566,27.724-17.566H190.217z"/>
		<g>
			<path fill="#FFFFFF" d="M190.543,53.887c-0.803,0.672-1.731,0.953-2.779,0.854c-1.039-0.1-1.896-0.551-2.56-1.363
				c-0.666-0.803-0.95-1.727-0.851-2.77c0.097-1.041,0.551-1.893,1.357-2.564c0.807-0.666,1.732-0.949,2.771-0.85
				c1.04,0.1,1.898,0.553,2.562,1.357c0.67,0.811,0.952,1.734,0.853,2.773C191.797,52.369,191.347,53.223,190.543,53.887z
				 M189.155,52.215c0.345-0.281,0.539-0.646,0.581-1.096c0.042-0.445-0.078-0.84-0.363-1.186c-0.284-0.344-0.646-0.539-1.097-0.578
				c-0.447-0.045-0.843,0.076-1.185,0.361c-0.344,0.285-0.538,0.648-0.58,1.096c-0.04,0.445,0.078,0.844,0.363,1.184
				c0.283,0.346,0.646,0.543,1.094,0.586C188.419,52.623,188.812,52.498,189.155,52.215z M196.734,47.908l1.536,0.146l-9.628,14.311
				l-1.572-0.15L196.734,47.908z M199.688,62.213c-0.806,0.664-1.729,0.947-2.77,0.852c-1.04-0.1-1.897-0.555-2.563-1.361
				c-0.665-0.809-0.947-1.73-0.851-2.773c0.103-1.047,0.555-1.904,1.359-2.564c0.808-0.668,1.734-0.949,2.774-0.852
				c1.041,0.1,1.896,0.551,2.56,1.363c0.668,0.805,0.952,1.734,0.853,2.773C200.95,60.691,200.502,61.543,199.688,62.213z
				 M198.529,58.258c-0.287-0.348-0.653-0.541-1.099-0.584c-0.445-0.039-0.841,0.078-1.186,0.367
				c-0.342,0.281-0.539,0.646-0.579,1.096c-0.045,0.445,0.078,0.842,0.362,1.184c0.284,0.346,0.649,0.537,1.097,0.58
				c0.445,0.041,0.84-0.078,1.188-0.361c0.346-0.283,0.535-0.65,0.578-1.096C198.933,58.994,198.812,58.598,198.529,58.258z"/>
		</g>
	</g>
	<g>
		<g>
			<path fill="#FFFFFF" d="M46.412,195.611h1.894v3.797l3.56-3.797h2.488l-3.781,3.789l3.976,5.426h-2.476l-2.839-4.023
				l-0.928,0.941v3.082h-1.894V195.611z"/>
			<path fill="#FFFFFF" d="M57.301,204.826H55.52v-9.215h1.781V204.826z"/>
			<path fill="#FFFFFF" d="M60.857,204.826h-1.781v-9.215h1.781V204.826z"/>
			<path fill="#FFFFFF" d="M68.278,203.992c-0.575,0.709-1.448,1.064-2.619,1.064s-2.044-0.355-2.619-1.064
				s-0.863-1.564-0.863-2.564c0-0.982,0.288-1.834,0.863-2.555c0.575-0.719,1.448-1.08,2.619-1.08s2.044,0.361,2.619,1.08
				c0.575,0.721,0.862,1.572,0.862,2.555C69.141,202.428,68.854,203.283,68.278,203.992z M66.853,203.008
				c0.279-0.371,0.419-0.896,0.419-1.58c0-0.682-0.14-1.207-0.419-1.576c-0.278-0.367-0.679-0.553-1.2-0.553
				c-0.521,0-0.922,0.186-1.203,0.553c-0.281,0.369-0.422,0.895-0.422,1.576c0,0.684,0.141,1.209,0.422,1.58
				c0.281,0.369,0.683,0.555,1.203,0.555C66.174,203.562,66.574,203.377,66.853,203.008z"/>
			<path fill="#FFFFFF" d="M76.098,203.992c-0.575,0.709-1.448,1.064-2.619,1.064s-2.044-0.355-2.619-1.064
				s-0.863-1.564-0.863-2.564c0-0.982,0.288-1.834,0.863-2.555c0.575-0.719,1.448-1.08,2.619-1.08s2.044,0.361,2.619,1.08
				c0.575,0.721,0.862,1.572,0.862,2.555C76.96,202.428,76.673,203.283,76.098,203.992z M74.672,203.008
				c0.279-0.371,0.419-0.896,0.419-1.58c0-0.682-0.14-1.207-0.419-1.576c-0.278-0.367-0.679-0.553-1.2-0.553
				c-0.521,0-0.922,0.186-1.203,0.553c-0.281,0.369-0.422,0.895-0.422,1.576c0,0.684,0.141,1.209,0.422,1.58
				c0.281,0.369,0.683,0.555,1.203,0.555C73.993,203.562,74.394,203.377,74.672,203.008z"/>
			<path fill="#FFFFFF" d="M86.737,198.037c0.291,0.117,0.556,0.32,0.794,0.613c0.191,0.236,0.32,0.529,0.388,0.875
				c0.041,0.229,0.062,0.564,0.062,1.006l-0.013,4.295h-1.825v-4.338c0-0.26-0.042-0.473-0.125-0.639
				c-0.159-0.316-0.45-0.475-0.876-0.475c-0.491,0-0.831,0.203-1.019,0.613c-0.096,0.217-0.144,0.477-0.144,0.781v4.057h-1.794
				v-4.057c0-0.404-0.042-0.699-0.125-0.883c-0.15-0.328-0.444-0.494-0.882-0.494c-0.508,0-0.85,0.166-1.025,0.494
				c-0.096,0.188-0.144,0.467-0.144,0.838v4.102h-1.807v-6.801h1.731v0.992c0.222-0.354,0.43-0.605,0.626-0.756
				c0.346-0.266,0.793-0.4,1.344-0.4c0.521,0,0.941,0.115,1.263,0.344c0.258,0.213,0.454,0.486,0.587,0.82
				c0.233-0.4,0.523-0.695,0.869-0.883c0.367-0.188,0.775-0.281,1.226-0.281C86.149,197.861,86.445,197.92,86.737,198.037z"/>
		</g>
	</g>
	<g>
		<path fill="#FFFFFF" d="M51.217,161.826c0.701-1.662,2.357-3.424,4.963-5.287c2.26-1.617,3.725-2.777,4.392-3.479
			c1.02-1.092,1.533-2.287,1.533-3.582c0-1.059-0.293-1.938-0.879-2.637s-1.426-1.049-2.516-1.049c-1.492,0-2.509,0.555-3.048,1.67
			c-0.312,0.645-0.496,1.662-0.551,3.064H50.34c0.081-2.119,0.466-3.84,1.154-5.148c1.31-2.496,3.639-3.738,6.984-3.738
			c2.644,0,4.747,0.73,6.312,2.195c1.561,1.465,2.342,3.404,2.342,5.814c0,1.846-0.553,3.49-1.654,4.926
			c-0.726,0.951-1.919,2.014-3.575,3.186l-1.967,1.396c-1.23,0.871-2.071,1.506-2.523,1.896c-0.455,0.387-0.836,0.84-1.148,1.357
			H67.17v4.326H50.065C50.11,164.945,50.494,163.307,51.217,161.826z"/>
		<path fill="#FFFFFF" d="M81.902,144.945c1.276,2.24,1.916,5.422,1.916,9.543c0,4.125-0.64,7.297-1.916,9.525
			c-1.284,2.227-3.514,3.342-6.695,3.342c-3.18,0-5.41-1.115-6.69-3.342c-1.279-2.229-1.919-5.4-1.919-9.525
			c0-4.121,0.64-7.303,1.919-9.543c1.28-2.236,3.511-3.355,6.69-3.355C78.389,141.59,80.618,142.709,81.902,144.945z
			 M72.316,161.076c0.468,1.521,1.434,2.283,2.891,2.283c1.459,0,2.416-0.762,2.871-2.283c0.453-1.518,0.678-3.719,0.678-6.588
			c0-3.008-0.225-5.234-0.678-6.684c-0.455-1.447-1.412-2.17-2.871-2.17c-1.457,0-2.423,0.723-2.891,2.17
			c-0.471,1.449-0.706,3.676-0.706,6.684C71.61,157.357,71.846,159.559,72.316,161.076z"/>
		<path fill="#36A7DE" d="M93.433,168c-4.752,8-14.77,16.052-26.332,16.052c-16.14,0-29.272-13.353-29.272-29.493
			s13.133-29.664,29.272-29.664c11.562,0,21.58,6.105,26.332,16.105h1.389c-4.848-10-15.447-17.479-27.721-17.479
			c-16.834,0-30.532,13.841-30.532,30.675c0,16.838,13.698,31.047,30.532,31.047c12.276,0,22.876-7.242,27.721-17.242H93.433z"/>
		<g>
			<path fill="#FFFFFF" d="M93.584,153.354c-0.803,0.672-1.731,0.953-2.776,0.855c-1.04-0.1-1.897-0.551-2.563-1.363
				c-0.666-0.805-0.947-1.729-0.851-2.771c0.103-1.041,0.553-1.893,1.362-2.564c0.804-0.664,1.729-0.947,2.77-0.85
				c1.04,0.1,1.896,0.553,2.563,1.357c0.666,0.811,0.945,1.734,0.849,2.773C94.838,151.836,94.388,152.691,93.584,153.354z
				 M92.198,151.684c0.344-0.283,0.538-0.648,0.581-1.098c0.045-0.445-0.081-0.84-0.363-1.186c-0.281-0.342-0.648-0.539-1.097-0.578
				c-0.445-0.045-0.841,0.076-1.189,0.361c-0.341,0.287-0.532,0.648-0.575,1.096c-0.043,0.445,0.075,0.844,0.36,1.184
				c0.284,0.346,0.648,0.543,1.094,0.586C91.459,152.09,91.853,151.965,92.198,151.684z M99.775,147.375l1.535,0.146l-9.626,14.311
				l-1.573-0.148L99.775,147.375z M102.731,161.68c-0.805,0.664-1.729,0.949-2.771,0.852c-1.04-0.1-1.896-0.555-2.562-1.361
				c-0.668-0.809-0.949-1.73-0.851-2.773c0.103-1.047,0.555-1.904,1.358-2.564c0.808-0.666,1.733-0.949,2.773-0.852
				c1.043,0.102,1.894,0.553,2.562,1.363c0.668,0.807,0.95,1.734,0.853,2.773C103.994,160.158,103.542,161.01,102.731,161.68z
				 M101.568,157.725c-0.284-0.348-0.651-0.541-1.095-0.584c-0.447-0.039-0.841,0.078-1.187,0.367
				c-0.341,0.281-0.538,0.646-0.58,1.096c-0.043,0.445,0.08,0.844,0.364,1.184c0.282,0.346,0.647,0.537,1.093,0.58
				c0.449,0.041,0.846-0.078,1.188-0.361c0.344-0.283,0.538-0.65,0.581-1.096C101.977,158.463,101.855,158.064,101.568,157.725z"/>
		</g>
	</g>
	<g>
		<g>
			<path fill="#FFFFFF" d="M131.104,195.611v1.633h-2.757v7.582h-1.938v-7.582h-2.77v-1.633H131.104z"/>
			<path fill="#FFFFFF" d="M133.84,200.682c0.331-0.041,0.568-0.094,0.711-0.156c0.257-0.109,0.385-0.277,0.385-0.506
				c0-0.279-0.099-0.473-0.295-0.578c-0.196-0.107-0.484-0.16-0.865-0.16c-0.426,0-0.729,0.104-0.905,0.312
				c-0.127,0.154-0.212,0.363-0.254,0.625h-1.719c0.037-0.596,0.205-1.086,0.502-1.469c0.473-0.6,1.285-0.9,2.436-0.9
				c0.75,0,1.415,0.148,1.997,0.443c0.581,0.297,0.872,0.855,0.872,1.676v3.125c0,0.217,0.004,0.48,0.013,0.787
				c0.013,0.234,0.048,0.393,0.106,0.477c0.059,0.082,0.146,0.152,0.263,0.205v0.264h-1.938c-0.054-0.139-0.092-0.268-0.112-0.389
				s-0.037-0.258-0.05-0.412c-0.247,0.268-0.532,0.494-0.855,0.682c-0.386,0.221-0.821,0.332-1.308,0.332
				c-0.62,0-1.133-0.178-1.537-0.529s-0.606-0.852-0.606-1.496c0-0.838,0.325-1.445,0.976-1.82c0.357-0.203,0.882-0.35,1.574-0.438
				L133.84,200.682z M134.929,201.512c-0.114,0.072-0.229,0.129-0.345,0.172c-0.116,0.045-0.276,0.086-0.479,0.123l-0.406,0.074
				c-0.38,0.066-0.652,0.148-0.818,0.244c-0.28,0.162-0.421,0.414-0.421,0.756c0,0.305,0.086,0.525,0.257,0.66
				c0.172,0.135,0.38,0.203,0.625,0.203c0.39,0,0.748-0.113,1.076-0.338s0.498-0.635,0.511-1.23V201.512z"/>
			<path fill="#FFFFFF" d="M137.583,204.826l2.325-3.451l-2.226-3.35h2.182l1.139,1.973l1.112-1.973h2.119l-2.238,3.318l2.325,3.482
				h-2.219l-1.173-2.049l-1.184,2.049H137.583z"/>
			<path fill="#FFFFFF" d="M149.821,198.15c0.476,0.213,0.868,0.549,1.178,1.008c0.278,0.404,0.46,0.875,0.542,1.408
				c0.049,0.312,0.068,0.764,0.06,1.354h-4.963c0.027,0.682,0.265,1.162,0.713,1.438c0.271,0.17,0.599,0.256,0.981,0.256
				c0.406,0,0.736-0.104,0.989-0.312c0.139-0.113,0.261-0.27,0.367-0.469h1.818c-0.048,0.404-0.268,0.814-0.66,1.23
				c-0.61,0.664-1.465,0.994-2.563,0.994c-0.906,0-1.707-0.279-2.399-0.838c-0.693-0.559-1.04-1.469-1.04-2.729
				c0-1.18,0.312-2.084,0.938-2.715c0.626-0.629,1.438-0.945,2.437-0.945C148.812,197.83,149.346,197.938,149.821,198.15z
				 M147.156,199.689c-0.252,0.26-0.41,0.611-0.475,1.055h3.069c-0.033-0.473-0.19-0.832-0.475-1.076
				c-0.284-0.246-0.637-0.369-1.057-0.369C147.762,199.299,147.407,199.43,147.156,199.689z"/>
			<path fill="#FFFFFF" d="M153.883,202.65c0.038,0.316,0.119,0.541,0.245,0.676c0.222,0.236,0.632,0.355,1.23,0.355
				c0.353,0,0.632-0.053,0.839-0.156s0.311-0.26,0.311-0.469c0-0.199-0.083-0.352-0.25-0.457c-0.167-0.104-0.788-0.283-1.864-0.537
				c-0.773-0.191-1.319-0.432-1.636-0.719c-0.317-0.283-0.476-0.691-0.476-1.225c0-0.629,0.248-1.17,0.742-1.623
				c0.495-0.451,1.191-0.678,2.09-0.678c0.852,0,1.546,0.17,2.083,0.51c0.536,0.34,0.845,0.926,0.924,1.76h-1.781
				c-0.025-0.23-0.09-0.41-0.194-0.545c-0.197-0.24-0.531-0.361-1.003-0.361c-0.389,0-0.666,0.061-0.831,0.18
				c-0.165,0.121-0.247,0.264-0.247,0.426c0,0.205,0.087,0.352,0.263,0.443c0.176,0.096,0.796,0.262,1.86,0.494
				c0.71,0.168,1.241,0.42,1.596,0.756c0.351,0.342,0.525,0.77,0.525,1.283c0,0.674-0.252,1.225-0.755,1.652
				s-1.281,0.641-2.333,0.641c-1.073,0-1.865-0.227-2.377-0.678c-0.512-0.453-0.768-1.029-0.768-1.729H153.883z"/>
			<path fill="#FFFFFF" d="M163.452,200.975c0.275-0.396,0.726-0.787,1.351-1.176l0.193-0.119c-0.267-0.301-0.473-0.607-0.619-0.92
				c-0.146-0.312-0.219-0.639-0.219-0.977c0-0.672,0.228-1.195,0.684-1.574c0.455-0.377,1.046-0.566,1.771-0.566
				c0.662,0,1.209,0.193,1.642,0.58c0.432,0.387,0.648,0.881,0.648,1.482c0,0.545-0.13,0.984-0.389,1.324
				c-0.26,0.338-0.64,0.652-1.142,0.939l1.324,1.605c0.151-0.217,0.269-0.451,0.351-0.705c0.083-0.254,0.126-0.523,0.13-0.807h1.582
				c-0.029,0.561-0.164,1.127-0.405,1.699c-0.133,0.322-0.35,0.678-0.648,1.066l1.673,1.998h-2.157l-0.641-0.781
				c-0.312,0.289-0.603,0.504-0.872,0.641c-0.48,0.248-1.034,0.371-1.662,0.371c-0.943,0-1.681-0.275-2.211-0.824
				c-0.531-0.551-0.796-1.162-0.796-1.832C163.04,201.846,163.177,201.371,163.452,200.975z M165.193,203.182
				c0.252,0.254,0.575,0.381,0.97,0.381c0.297,0,0.578-0.066,0.843-0.201c0.266-0.133,0.48-0.283,0.646-0.447l-1.724-2.1
				c-0.451,0.297-0.749,0.559-0.895,0.783s-0.219,0.473-0.219,0.744C164.814,202.646,164.941,202.926,165.193,203.182z
				 M165.978,198.246c0.078,0.121,0.246,0.336,0.506,0.645c0.26-0.176,0.445-0.322,0.558-0.443c0.216-0.227,0.324-0.471,0.324-0.734
				c0-0.191-0.064-0.363-0.194-0.514s-0.326-0.225-0.59-0.225c-0.165,0-0.318,0.043-0.461,0.131
				c-0.216,0.131-0.324,0.334-0.324,0.615C165.796,197.887,165.856,198.062,165.978,198.246z"/>
			<path fill="#FFFFFF" d="M176.124,195.625h6.569v1.619h-4.657v2.117h4.082v1.602h-4.082v3.863h-1.912V195.625z"/>
			<path fill="#FFFFFF" d="M188.24,198.15c0.476,0.213,0.868,0.549,1.178,1.008c0.278,0.404,0.46,0.875,0.542,1.408
				c0.049,0.312,0.068,0.764,0.06,1.354h-4.963c0.027,0.682,0.265,1.162,0.713,1.438c0.271,0.17,0.599,0.256,0.981,0.256
				c0.406,0,0.736-0.104,0.989-0.312c0.139-0.113,0.261-0.27,0.367-0.469h1.818c-0.048,0.404-0.268,0.814-0.66,1.23
				c-0.61,0.664-1.465,0.994-2.563,0.994c-0.906,0-1.707-0.279-2.399-0.838c-0.693-0.559-1.04-1.469-1.04-2.729
				c0-1.18,0.312-2.084,0.938-2.715c0.626-0.629,1.438-0.945,2.437-0.945C187.23,197.83,187.765,197.938,188.24,198.15z
				 M185.575,199.689c-0.252,0.26-0.41,0.611-0.475,1.055h3.069c-0.033-0.473-0.19-0.832-0.475-1.076
				c-0.284-0.246-0.637-0.369-1.057-0.369C186.181,199.299,185.826,199.43,185.575,199.689z"/>
			<path fill="#FFFFFF" d="M195.359,198.15c0.476,0.213,0.868,0.549,1.178,1.008c0.278,0.404,0.46,0.875,0.542,1.408
				c0.049,0.312,0.068,0.764,0.06,1.354h-4.963c0.027,0.682,0.265,1.162,0.713,1.438c0.271,0.17,0.599,0.256,0.981,0.256
				c0.406,0,0.736-0.104,0.989-0.312c0.139-0.113,0.261-0.27,0.367-0.469h1.818c-0.048,0.404-0.268,0.814-0.66,1.23
				c-0.61,0.664-1.465,0.994-2.563,0.994c-0.906,0-1.707-0.279-2.399-0.838c-0.693-0.559-1.04-1.469-1.04-2.729
				c0-1.18,0.312-2.084,0.938-2.715c0.626-0.629,1.438-0.945,2.437-0.945C194.35,197.83,194.884,197.938,195.359,198.15z
				 M192.694,199.689c-0.252,0.26-0.41,0.611-0.475,1.055h3.069c-0.033-0.473-0.19-0.832-0.475-1.076
				c-0.284-0.246-0.637-0.369-1.057-0.369C193.3,199.299,192.945,199.43,192.694,199.689z"/>
			<path fill="#FFFFFF" d="M199.421,202.65c0.038,0.316,0.119,0.541,0.245,0.676c0.222,0.236,0.632,0.355,1.23,0.355
				c0.353,0,0.632-0.053,0.839-0.156s0.311-0.26,0.311-0.469c0-0.199-0.083-0.352-0.25-0.457c-0.167-0.104-0.788-0.283-1.864-0.537
				c-0.773-0.191-1.319-0.432-1.636-0.719c-0.317-0.283-0.476-0.691-0.476-1.225c0-0.629,0.248-1.17,0.742-1.623
				c0.495-0.451,1.191-0.678,2.09-0.678c0.852,0,1.546,0.17,2.083,0.51c0.536,0.34,0.845,0.926,0.924,1.76h-1.781
				c-0.025-0.23-0.09-0.41-0.194-0.545c-0.197-0.24-0.531-0.361-1.003-0.361c-0.389,0-0.666,0.061-0.831,0.18
				c-0.165,0.121-0.247,0.264-0.247,0.426c0,0.205,0.087,0.352,0.263,0.443c0.176,0.096,0.796,0.262,1.86,0.494
				c0.71,0.168,1.241,0.42,1.596,0.756c0.351,0.342,0.525,0.77,0.525,1.283c0,0.674-0.252,1.225-0.755,1.652
				s-1.281,0.641-2.333,0.641c-1.073,0-1.865-0.227-2.377-0.678c-0.512-0.453-0.768-1.029-0.768-1.729H199.421z"/>
		</g>
	</g>
	<g>
		<path fill="#FFFFFF" d="M148.078,161.934c0.703-1.66,2.356-3.426,4.961-5.283c2.262-1.621,3.724-2.781,4.393-3.48
			c1.021-1.09,1.532-2.285,1.532-3.582c0-1.055-0.294-1.938-0.879-2.635c-0.588-0.699-1.424-1.053-2.514-1.053
			c-1.495,0-2.509,0.559-3.049,1.672c-0.309,0.643-0.495,1.662-0.552,3.066h-4.77c0.08-2.123,0.464-3.842,1.153-5.15
			c1.311-2.492,3.637-3.738,6.982-3.738c2.644,0,4.748,0.734,6.309,2.195c1.564,1.467,2.349,3.402,2.349,5.814
			c0,1.848-0.553,3.49-1.656,4.928c-0.729,0.949-1.917,2.014-3.573,3.184l-1.966,1.396c-1.232,0.875-2.075,1.506-2.528,1.895
			c-0.455,0.393-0.836,0.844-1.145,1.359h10.901v4.324h-17.102C146.972,165.055,147.353,163.418,148.078,161.934z"/>
		<path fill="#FFFFFF" d="M178.761,145.057c1.282,2.24,1.919,5.42,1.919,9.543c0,4.125-0.637,7.297-1.919,9.523
			c-1.279,2.227-3.511,3.344-6.692,3.344c-3.183,0-5.409-1.117-6.691-3.344c-1.279-2.227-1.921-5.398-1.921-9.523
			c0-4.123,0.642-7.303,1.921-9.543c1.282-2.24,3.509-3.359,6.691-3.359C175.25,141.697,177.481,142.816,178.761,145.057z
			 M169.178,161.189c0.467,1.52,1.429,2.279,2.891,2.279c1.459,0,2.414-0.76,2.868-2.279c0.453-1.523,0.681-3.725,0.681-6.59
			c0-3.008-0.228-5.236-0.681-6.684c-0.454-1.445-1.409-2.17-2.868-2.17c-1.462,0-2.424,0.725-2.891,2.17
			c-0.472,1.447-0.709,3.676-0.709,6.684C168.469,157.465,168.706,159.666,169.178,161.189z"/>
		<path fill="#36A7DE" d="M190.294,168c-4.753,8-14.77,16.048-26.333,16.048c-16.142,0-29.271-13.351-29.271-29.491
			c0-16.139,13.13-29.662,29.271-29.662c11.563,0,21.583,6.105,26.333,16.105h1.389c-4.843-10-15.445-17.479-27.722-17.479
			c-16.833,0-30.532,13.837-30.532,30.673s13.699,31.045,30.532,31.045c12.274,0,22.874-7.238,27.722-17.238H190.294z"/>
		<g>
			<path fill="#FFFFFF" d="M190.469,153.354c-0.801,0.672-1.729,0.953-2.778,0.855c-1.04-0.1-1.894-0.551-2.559-1.363
				c-0.666-0.805-0.95-1.729-0.854-2.771c0.1-1.041,0.552-1.893,1.362-2.564c0.806-0.664,1.729-0.947,2.77-0.85
				c1.043,0.1,1.898,0.553,2.562,1.357c0.668,0.811,0.95,1.734,0.853,2.773C191.723,151.836,191.274,152.691,190.469,153.354z
				 M189.086,151.684c0.343-0.283,0.535-0.648,0.578-1.098c0.042-0.445-0.078-0.84-0.363-1.186
				c-0.284-0.342-0.646-0.539-1.097-0.578c-0.447-0.045-0.841,0.076-1.187,0.361c-0.342,0.287-0.533,0.648-0.578,1.096
				c-0.043,0.445,0.078,0.844,0.362,1.184c0.284,0.346,0.649,0.543,1.095,0.586C188.347,152.09,188.74,151.965,189.086,151.684z
				 M196.662,147.375l1.535,0.146l-9.628,14.311l-1.571-0.148L196.662,147.375z M199.619,161.68
				c-0.809,0.664-1.732,0.949-2.772,0.852c-1.042-0.1-1.897-0.555-2.565-1.361c-0.663-0.809-0.945-1.73-0.846-2.773
				c0.1-1.047,0.552-1.904,1.355-2.564c0.81-0.666,1.733-0.949,2.773-0.852c1.04,0.102,1.896,0.553,2.562,1.363
				c0.668,0.807,0.95,1.734,0.851,2.773C200.877,160.158,200.427,161.01,199.619,161.68z M198.456,157.725
				c-0.284-0.348-0.649-0.541-1.098-0.584c-0.447-0.039-0.841,0.078-1.187,0.367c-0.341,0.281-0.538,0.646-0.578,1.096
				c-0.045,0.445,0.08,0.844,0.36,1.184c0.286,0.346,0.651,0.537,1.097,0.58c0.445,0.041,0.844-0.078,1.189-0.361
				c0.344-0.283,0.535-0.65,0.58-1.096C198.86,158.463,198.74,158.064,198.456,157.725z"/>
		</g>
	</g>
</g>
</svg>
