<?xml version="1.0" encoding="utf-8"?>
<!-- Generator: Adobe Illustrator 16.0.5, SVG Export Plug-In . SVG Version: 6.00 Build 0)  -->
<!DOCTYPE svg PUBLIC "-//W3C//DTD SVG 1.1//EN" "http://www.w3.org/Graphics/SVG/1.1/DTD/svg11.dtd">
<svg version="1.1" id="Layer_1" xmlns="http://www.w3.org/2000/svg" xmlns:xlink="http://www.w3.org/1999/xlink" x="0px" y="0px"
	 width="377px" height="250.541px" viewBox="0 0 377 250.541" enable-background="new 0 0 377 250.541" xml:space="preserve">
<g>
	<g>
		<g>
			<g>
				<path d="M56.195,92.079h-4.419v1.773h4.057v1.45h-4.057v2.147h4.623v1.501h-6.328v-8.35h6.124V92.079z"/>
				<path d="M60.903,92.875c0.291,0.164,0.526,0.392,0.707,0.683v-2.946h1.638v8.339h-1.569v-0.855
					c-0.23,0.366-0.492,0.633-0.787,0.799s-0.661,0.249-1.1,0.249c-0.721,0-1.328-0.292-1.82-0.875
					c-0.493-0.583-0.74-1.332-0.74-2.246c0-1.054,0.243-1.883,0.729-2.487c0.485-0.604,1.134-0.906,1.945-0.906
					C60.28,92.628,60.612,92.71,60.903,92.875z M61.3,97.274c0.238-0.34,0.356-0.78,0.356-1.32c0-0.755-0.19-1.295-0.572-1.62
					c-0.233-0.196-0.506-0.294-0.815-0.294c-0.473,0-0.818,0.178-1.039,0.535c-0.222,0.357-0.332,0.8-0.332,1.329
					c0,0.57,0.112,1.026,0.337,1.368s0.565,0.513,1.022,0.513S61.062,97.614,61.3,97.274z"/>
				<path d="M66.376,92.039h-1.638v-1.49h1.638V92.039z M64.738,92.776h1.638v6.175h-1.638V92.776z"/>
				<path d="M67.305,93.982v-1.15h0.86V91.11h1.598v1.722h1.004v1.15h-1.004v3.263c0,0.253,0.033,0.411,0.097,0.473
					c0.064,0.062,0.261,0.093,0.589,0.093c0.049,0,0.102-0.001,0.156-0.003s0.108-0.004,0.162-0.008v1.207l-0.766,0.028
					c-0.763,0.026-1.284-0.105-1.563-0.396c-0.181-0.185-0.272-0.47-0.272-0.855v-3.801H67.305z"/>
				<path d="M76.952,98.195c-0.521,0.643-1.312,0.965-2.373,0.965c-1.062,0-1.854-0.322-2.374-0.965
					c-0.521-0.644-0.782-1.418-0.782-2.324c0-0.89,0.261-1.662,0.782-2.315c0.521-0.653,1.312-0.979,2.374-0.979
					c1.061,0,1.852,0.326,2.373,0.979s0.781,1.425,0.781,2.315C77.733,96.777,77.474,97.552,76.952,98.195z M75.661,97.303
					c0.252-0.335,0.379-0.812,0.379-1.431c0-0.618-0.127-1.094-0.379-1.428c-0.254-0.333-0.616-0.5-1.088-0.5
					c-0.473,0-0.836,0.167-1.091,0.5c-0.255,0.334-0.382,0.81-0.382,1.428c0,0.619,0.127,1.096,0.382,1.431
					c0.255,0.336,0.618,0.503,1.091,0.503C75.045,97.806,75.407,97.639,75.661,97.303z"/>
				<path d="M82.319,92.631c0.021,0.002,0.067,0.005,0.139,0.008v1.654c-0.102-0.011-0.191-0.019-0.271-0.022
					c-0.079-0.004-0.144-0.006-0.192-0.006c-0.649,0-1.086,0.211-1.309,0.635c-0.124,0.238-0.187,0.604-0.187,1.099v2.952h-1.627
					v-6.175h1.541v1.076c0.25-0.412,0.467-0.693,0.652-0.844c0.302-0.253,0.694-0.379,1.178-0.379
					C82.273,92.628,82.3,92.629,82.319,92.631z"/>
				<path d="M85.064,92.039h-1.638v-1.49h1.638V92.039z M83.427,92.776h1.638v6.175h-1.638V92.776z"/>
				<path d="M89.073,95.195c0.301-0.038,0.516-0.085,0.646-0.142c0.231-0.098,0.349-0.251,0.349-0.459
					c0-0.253-0.09-0.428-0.268-0.524s-0.439-0.145-0.784-0.145c-0.386,0-0.66,0.094-0.821,0.283
					c-0.115,0.14-0.191,0.329-0.229,0.566h-1.558c0.033-0.54,0.186-0.984,0.455-1.331c0.429-0.544,1.164-0.816,2.207-0.816
					c0.68,0,1.282,0.134,1.81,0.402s0.791,0.774,0.791,1.518v2.833c0,0.196,0.004,0.435,0.011,0.714
					c0.012,0.211,0.044,0.355,0.097,0.431c0.054,0.076,0.132,0.138,0.238,0.187v0.238h-1.757c-0.049-0.125-0.082-0.242-0.102-0.351
					c-0.02-0.11-0.033-0.234-0.045-0.374c-0.225,0.242-0.482,0.447-0.775,0.618c-0.35,0.2-0.744,0.3-1.186,0.3
					c-0.562,0-1.026-0.159-1.393-0.479c-0.367-0.319-0.55-0.771-0.55-1.357c0-0.759,0.294-1.309,0.884-1.648
					c0.324-0.185,0.8-0.317,1.428-0.396L89.073,95.195z M90.062,95.948c-0.104,0.064-0.209,0.116-0.313,0.156
					c-0.105,0.04-0.25,0.077-0.434,0.11l-0.368,0.068c-0.344,0.061-0.592,0.134-0.742,0.221c-0.254,0.147-0.381,0.376-0.381,0.686
					c0,0.275,0.078,0.475,0.232,0.598c0.156,0.123,0.345,0.184,0.567,0.184c0.353,0,0.678-0.102,0.975-0.306
					c0.298-0.204,0.452-0.576,0.464-1.116V95.948z"/>
				<path d="M94.729,98.951h-1.615v-8.35h1.615V98.951z"/>
				<path d="M99.657,90.601h1.773v5.128c0,0.573,0.068,0.992,0.203,1.256c0.211,0.468,0.67,0.702,1.377,0.702
					c0.705,0,1.162-0.234,1.373-0.702c0.135-0.264,0.203-0.683,0.203-1.256v-5.128h1.772v5.132c0,0.888-0.138,1.579-0.413,2.073
					c-0.512,0.907-1.49,1.36-2.936,1.36c-1.443,0-2.424-0.453-2.94-1.36c-0.274-0.495-0.413-1.186-0.413-2.073V90.601z"/>
				<path d="M109.158,96.979c0.034,0.287,0.108,0.491,0.222,0.612c0.201,0.215,0.573,0.323,1.116,0.323
					c0.318,0,0.571-0.047,0.76-0.142s0.282-0.236,0.282-0.425c0-0.182-0.076-0.319-0.228-0.414
					c-0.151-0.095-0.714-0.257-1.688-0.487c-0.702-0.174-1.197-0.391-1.483-0.651c-0.287-0.257-0.431-0.627-0.431-1.11
					c0-0.57,0.225-1.061,0.673-1.47s1.079-0.615,1.894-0.615c0.771,0,1.4,0.154,1.887,0.462c0.486,0.308,0.766,0.839,0.838,1.595
					h-1.614c-0.022-0.208-0.081-0.372-0.177-0.493c-0.178-0.219-0.48-0.329-0.908-0.329c-0.353,0-0.604,0.055-0.753,0.165
					s-0.224,0.238-0.224,0.385c0,0.185,0.078,0.319,0.238,0.402c0.158,0.087,0.721,0.236,1.686,0.448
					c0.643,0.151,1.125,0.379,1.446,0.686c0.317,0.31,0.476,0.697,0.476,1.161c0,0.612-0.229,1.111-0.684,1.499
					c-0.457,0.387-1.161,0.581-2.115,0.581c-0.973,0-1.689-0.205-2.154-0.615c-0.463-0.41-0.695-0.932-0.695-1.566H109.158z"/>
				<path d="M118.383,92.901c0.431,0.193,0.786,0.498,1.067,0.914c0.252,0.367,0.416,0.792,0.492,1.276
					c0.043,0.284,0.061,0.692,0.053,1.226h-4.498c0.025,0.62,0.24,1.054,0.646,1.303c0.246,0.155,0.543,0.232,0.891,0.232
					c0.367,0,0.666-0.094,0.896-0.283c0.125-0.102,0.235-0.244,0.332-0.425h1.648c-0.044,0.366-0.243,0.738-0.6,1.116
					c-0.553,0.6-1.326,0.9-2.322,0.9c-0.822,0-1.547-0.253-2.176-0.76c-0.628-0.506-0.941-1.331-0.941-2.472
					c0-1.069,0.283-1.89,0.85-2.46c0.568-0.571,1.304-0.856,2.209-0.856C117.468,92.611,117.952,92.708,118.383,92.901z
					 M115.968,94.295c-0.229,0.235-0.372,0.554-0.431,0.956h2.782c-0.029-0.429-0.174-0.754-0.431-0.976
					c-0.257-0.222-0.577-0.333-0.958-0.333C116.517,93.943,116.195,94.061,115.968,94.295z"/>
				<path d="M130.595,98.208c-0.631,0.65-1.543,0.975-2.736,0.975s-2.105-0.325-2.736-0.975c-0.846-0.797-1.269-1.945-1.269-3.444
					c0-1.53,0.423-2.678,1.269-3.444c0.631-0.649,1.543-0.975,2.736-0.975s2.105,0.325,2.736,0.975
					c0.842,0.767,1.264,1.915,1.264,3.444C131.858,96.264,131.437,97.412,130.595,98.208z M129.505,96.939
					c0.405-0.51,0.608-1.235,0.608-2.175c0-0.937-0.203-1.661-0.608-2.172c-0.406-0.512-0.955-0.768-1.646-0.768
					s-1.242,0.255-1.654,0.765c-0.411,0.51-0.617,1.235-0.617,2.175s0.206,1.666,0.617,2.175c0.412,0.51,0.963,0.765,1.654,0.765
					S129.099,97.449,129.505,96.939z"/>
				<path d="M138.038,93.13c0.404,0.334,0.607,0.889,0.607,1.663v4.158h-1.654v-3.756c0-0.325-0.043-0.574-0.13-0.748
					c-0.157-0.317-0.458-0.476-0.899-0.476c-0.544,0-0.917,0.232-1.119,0.697c-0.105,0.246-0.158,0.559-0.158,0.94v3.342h-1.614
					v-6.164h1.563v0.901c0.207-0.317,0.402-0.546,0.587-0.686c0.331-0.25,0.751-0.374,1.258-0.374
					C137.114,92.628,137.634,92.795,138.038,93.13z"/>
				<path d="M141.794,98.951h-1.613v-8.35h1.613V98.951z"/>
				<path d="M143.613,100.135l0.204,0.011c0.158,0.007,0.31,0.002,0.453-0.017s0.264-0.062,0.362-0.13
					c0.095-0.064,0.183-0.198,0.264-0.402c0.081-0.204,0.116-0.329,0.104-0.374l-2.269-6.447h1.796l1.348,4.555l1.275-4.555h1.717
					l-2.117,6.073c-0.41,1.171-0.732,1.897-0.971,2.178s-0.715,0.422-1.43,0.422c-0.144,0-0.26-0.001-0.346-0.003
					c-0.088-0.002-0.218-0.009-0.392-0.02V100.135z"/>
			</g>
		</g>
		<g>
			<g>
				<path fill="#FFFFFF" d="M39.897,98.044c0,1.328-1.077,2.406-2.407,2.406h-9.354c-1.328,0-2.406-1.078-2.406-2.406v-9.355
					c0-1.33,1.078-2.408,2.406-2.408h9.354c1.33,0,2.407,1.078,2.407,2.408V98.044z"/>
				<path fill="#9C9B9B" d="M37.49,101.088h-9.354c-1.679,0-3.044-1.366-3.044-3.044v-9.355c0-1.68,1.365-3.046,3.044-3.046h9.354
					c1.679,0,3.045,1.366,3.045,3.046v9.355C40.535,99.722,39.169,101.088,37.49,101.088z M28.136,86.918
					c-0.976,0-1.769,0.794-1.769,1.771v9.355c0,0.975,0.793,1.769,1.769,1.769h9.354c0.976,0,1.77-0.793,1.77-1.769v-9.355
					c0-0.976-0.794-1.771-1.77-1.771H28.136z"/>
			</g>
		</g>
	</g>
	<g>
		<g>
			<path fill="#29ABE2" d="M28.769,62.505c0.065,0.55,0.207,0.94,0.426,1.172c0.385,0.413,1.098,0.619,2.137,0.619
				c0.61,0,1.096-0.09,1.455-0.271c0.36-0.181,0.54-0.452,0.54-0.813c0-0.347-0.146-0.611-0.435-0.792
				c-0.29-0.181-1.369-0.492-3.235-0.933c-1.345-0.333-2.291-0.749-2.841-1.248c-0.55-0.492-0.824-1.201-0.824-2.126
				c0-1.092,0.429-2.031,1.288-2.816c0.858-0.785,2.067-1.178,3.627-1.178c1.479,0,2.685,0.295,3.616,0.884
				c0.931,0.59,1.466,1.608,1.604,3.055h-3.093c-0.044-0.397-0.155-0.712-0.337-0.944c-0.342-0.419-0.922-0.629-1.741-0.629
				c-0.675,0-1.155,0.105-1.442,0.314c-0.286,0.21-0.43,0.456-0.43,0.738c0,0.354,0.152,0.611,0.457,0.771
				c0.305,0.167,1.381,0.452,3.229,0.857c1.231,0.29,2.155,0.727,2.771,1.313c0.607,0.593,0.912,1.335,0.912,2.225
				c0,1.172-0.438,2.129-1.311,2.87c-0.874,0.742-2.225,1.112-4.051,1.112c-1.863,0-3.238-0.393-4.127-1.177
				c-0.887-0.785-1.331-1.785-1.331-3H28.769z"/>
			<path fill="#29ABE2" d="M41.909,53.043h-3.135v-2.854h3.135V53.043z M38.774,54.454h3.135v11.828h-3.135V54.454z"/>
			<path fill="#29ABE2" d="M59.663,54.497c0.506,0.203,0.965,0.557,1.377,1.063c0.334,0.412,0.558,0.919,0.674,1.519
				c0.072,0.398,0.107,0.98,0.107,1.747L61.8,66.282h-3.168v-7.531c0-0.449-0.072-0.817-0.217-1.107
				c-0.275-0.55-0.781-0.825-1.52-0.825c-0.854,0-1.443,0.354-1.77,1.063c-0.166,0.376-0.249,0.829-0.249,1.356v7.042h-3.114v-7.042
				c0-0.702-0.072-1.212-0.217-1.53c-0.261-0.571-0.771-0.857-1.53-0.857c-0.883,0-1.476,0.286-1.78,0.857
				c-0.166,0.326-0.249,0.811-0.249,1.454v7.119h-3.136V54.476h3.006v1.725c0.383-0.615,0.744-1.053,1.085-1.313
				c0.601-0.463,1.378-0.694,2.333-0.694c0.904,0,1.635,0.199,2.191,0.597c0.449,0.369,0.789,0.843,1.021,1.421
				c0.405-0.694,0.907-1.204,1.509-1.53c0.637-0.326,1.346-0.488,2.127-0.488C58.643,54.193,59.156,54.294,59.663,54.497z"/>
			<path fill="#29ABE2" d="M74.612,55.723c0.965,1.02,1.447,2.518,1.447,4.493c0,2.083-0.473,3.671-1.415,4.764
				s-2.157,1.639-3.643,1.639c-0.946,0-1.733-0.235-2.358-0.706c-0.343-0.26-0.678-0.64-1.006-1.139v6.164h-3.06V54.454h2.962v1.747
				c0.336-0.514,0.691-0.918,1.07-1.215c0.691-0.528,1.515-0.792,2.469-0.792C72.47,54.193,73.647,54.703,74.612,55.723z
				 M72.238,57.948c-0.421-0.702-1.103-1.052-2.044-1.052c-1.134,0-1.912,0.531-2.336,1.595c-0.219,0.564-0.328,1.281-0.328,2.149
				c0,1.375,0.368,2.34,1.105,2.897c0.439,0.326,0.957,0.488,1.557,0.488c0.871,0,1.533-0.333,1.99-0.998s0.686-1.552,0.686-2.659
				C72.868,59.456,72.658,58.649,72.238,57.948z"/>
			<path fill="#29ABE2" d="M81.397,66.282h-3.092V50.287h3.092V66.282z"/>
			<path fill="#29ABE2" d="M92.122,54.693c0.825,0.37,1.506,0.953,2.044,1.75c0.484,0.703,0.798,1.518,0.942,2.445
				c0.083,0.543,0.117,1.326,0.102,2.348h-8.614c0.048,1.187,0.46,2.019,1.237,2.496c0.472,0.297,1.04,0.445,1.705,0.445
				c0.704,0,1.276-0.181,1.717-0.543c0.24-0.195,0.452-0.466,0.637-0.813h3.157c-0.083,0.702-0.466,1.414-1.146,2.138
				c-1.06,1.15-2.543,1.725-4.45,1.725c-1.574,0-2.963-0.485-4.166-1.455s-1.805-2.549-1.805-4.735c0-2.049,0.543-3.62,1.629-4.713
				s2.496-1.64,4.23-1.64C90.37,54.139,91.297,54.324,92.122,54.693z M87.495,57.365c-0.438,0.451-0.711,1.061-0.824,1.831h5.328
				c-0.056-0.821-0.33-1.444-0.823-1.869c-0.493-0.425-1.104-0.638-1.835-0.638C88.548,56.689,87.933,56.915,87.495,57.365z"/>
			<path fill="#29ABE2" d="M106.106,66.282h-3.092V50.287h3.092V66.282z"/>
			<path fill="#29ABE2" d="M112.303,53.043h-3.136v-2.854h3.136V53.043z M109.167,54.454h3.136v11.828h-3.136V54.454z"/>
			<path fill="#29ABE2" d="M122.373,58.697c-0.058-0.441-0.207-0.839-0.446-1.194c-0.348-0.478-0.889-0.716-1.621-0.716
				c-1.044,0-1.758,0.518-2.143,1.552c-0.203,0.549-0.305,1.277-0.305,2.187c0,0.866,0.102,1.562,0.305,2.089
				c0.37,0.984,1.066,1.476,2.089,1.476c0.726,0,1.239-0.195,1.544-0.586s0.49-0.897,0.555-1.52h3.158
				c-0.072,0.941-0.412,1.831-1.021,2.669c-0.97,1.353-2.407,2.029-4.312,2.029c-1.905,0-3.306-0.564-4.204-1.693
				c-0.898-1.128-1.347-2.592-1.347-4.39c0-2.029,0.496-3.607,1.487-4.736c0.992-1.128,2.361-1.693,4.107-1.693
				c1.484,0,2.698,0.333,3.644,0.999c0.944,0.666,1.505,1.841,1.679,3.527H122.373z"/>
			<path fill="#29ABE2" d="M135.365,54.693c0.825,0.37,1.507,0.953,2.044,1.75c0.484,0.703,0.799,1.518,0.942,2.445
				c0.083,0.543,0.117,1.326,0.103,2.348h-8.615c0.048,1.187,0.46,2.019,1.236,2.496c0.473,0.297,1.041,0.445,1.705,0.445
				c0.705,0,1.277-0.181,1.718-0.543c0.24-0.195,0.452-0.466,0.637-0.813h3.157c-0.084,0.702-0.465,1.414-1.146,2.138
				c-1.06,1.15-2.543,1.725-4.45,1.725c-1.573,0-2.963-0.485-4.166-1.455s-1.805-2.549-1.805-4.735c0-2.049,0.543-3.62,1.63-4.713
				c1.086-1.093,2.496-1.64,4.229-1.64C133.612,54.139,134.54,54.324,135.365,54.693z M130.739,57.365
				c-0.438,0.451-0.713,1.061-0.824,1.831h5.328c-0.057-0.821-0.331-1.444-0.824-1.869c-0.493-0.425-1.104-0.638-1.834-0.638
				C131.791,56.689,131.175,56.915,130.739,57.365z"/>
			<path fill="#29ABE2" d="M149.556,55.132c0.773,0.64,1.161,1.702,1.161,3.185v7.965h-3.169v-7.194c0-0.622-0.082-1.1-0.247-1.433
				c-0.302-0.607-0.876-0.912-1.724-0.912c-1.041,0-1.756,0.445-2.144,1.335c-0.201,0.47-0.302,1.071-0.302,1.801v6.402h-3.093
				V54.476h2.995v1.725c0.396-0.607,0.771-1.045,1.123-1.313c0.635-0.478,1.438-0.716,2.41-0.716
				C147.785,54.171,148.78,54.492,149.556,55.132z"/>
			<path fill="#29ABE2" d="M155.99,62.505c0.065,0.55,0.208,0.94,0.425,1.172c0.386,0.413,1.098,0.619,2.138,0.619
				c0.61,0,1.096-0.09,1.456-0.271c0.359-0.181,0.539-0.452,0.539-0.813c0-0.347-0.145-0.611-0.435-0.792
				c-0.29-0.181-1.368-0.492-3.235-0.933c-1.344-0.333-2.291-0.749-2.841-1.248c-0.55-0.492-0.825-1.201-0.825-2.126
				c0-1.092,0.43-2.031,1.289-2.816c0.859-0.785,2.068-1.178,3.627-1.178c1.479,0,2.684,0.295,3.615,0.884
				c0.932,0.59,1.467,1.608,1.604,3.055h-3.093c-0.043-0.397-0.156-0.712-0.338-0.944c-0.34-0.419-0.921-0.629-1.74-0.629
				c-0.675,0-1.155,0.105-1.441,0.314c-0.287,0.21-0.43,0.456-0.43,0.738c0,0.354,0.151,0.611,0.457,0.771
				c0.304,0.167,1.381,0.452,3.229,0.857c1.232,0.29,2.155,0.727,2.771,1.313c0.607,0.593,0.911,1.335,0.911,2.225
				c0,1.172-0.437,2.129-1.311,2.87c-0.873,0.742-2.223,1.112-4.05,1.112c-1.862,0-3.238-0.393-4.126-1.177
				c-0.889-0.785-1.332-1.785-1.332-3H155.99z"/>
			<path fill="#29ABE2" d="M169.132,53.043h-3.137v-2.854h3.137V53.043z M165.995,54.454h3.137v11.828h-3.137V54.454z"/>
			<path fill="#29ABE2" d="M181.665,55.132c0.773,0.64,1.161,1.702,1.161,3.185v7.965h-3.169v-7.194c0-0.622-0.082-1.1-0.247-1.433
				c-0.302-0.607-0.876-0.912-1.724-0.912c-1.041,0-1.756,0.445-2.144,1.335c-0.201,0.47-0.302,1.071-0.302,1.801v6.402h-3.093
				V54.476h2.995v1.725c0.396-0.607,0.771-1.045,1.123-1.313c0.635-0.478,1.438-0.716,2.41-0.716
				C179.895,54.171,180.89,54.492,181.665,55.132z"/>
			<path fill="#29ABE2" d="M191.553,54.443c0.751,0.311,1.358,0.883,1.821,1.714v-1.704h3.016v11.22c0,1.526-0.256,2.677-0.77,3.451
				c-0.883,1.331-2.576,1.997-5.078,1.997c-1.513,0-2.746-0.297-3.701-0.89s-1.482-1.479-1.584-2.658h3.363
				c0.088,0.361,0.229,0.622,0.424,0.781c0.332,0.282,0.893,0.423,1.682,0.423c1.114,0,1.859-0.373,2.235-1.118
				c0.246-0.477,0.369-1.28,0.369-2.409v-0.76c-0.297,0.506-0.614,0.886-0.955,1.14c-0.614,0.47-1.414,0.705-2.397,0.705
				c-1.52,0-2.733-0.533-3.641-1.601c-0.908-1.067-1.362-2.512-1.362-4.335c0-1.758,0.437-3.235,1.312-4.433
				c0.874-1.197,2.113-1.796,3.717-1.796C190.596,54.171,191.112,54.262,191.553,54.443z M192.606,62.923
				c0.496-0.546,0.745-1.416,0.745-2.61c0-1.121-0.235-1.975-0.708-2.561c-0.472-0.586-1.104-0.879-1.896-0.879
				c-1.08,0-1.826,0.51-2.236,1.53c-0.217,0.542-0.324,1.211-0.324,2.007c0,0.688,0.115,1.299,0.346,1.834
				c0.418,0.998,1.167,1.498,2.248,1.498C191.501,63.743,192.108,63.47,192.606,62.923z"/>
		</g>
	</g>
	<g>
		<g>
			<path fill="#29ABE2" d="M28.769,141.345c0.065,0.55,0.207,0.94,0.426,1.172c0.385,0.413,1.098,0.619,2.137,0.619
				c0.61,0,1.096-0.09,1.455-0.271c0.36-0.181,0.54-0.452,0.54-0.813c0-0.347-0.146-0.611-0.435-0.792
				c-0.29-0.181-1.369-0.492-3.235-0.933c-1.345-0.333-2.291-0.749-2.841-1.248c-0.55-0.492-0.824-1.201-0.824-2.126
				c0-1.092,0.429-2.031,1.288-2.816c0.858-0.785,2.067-1.178,3.627-1.178c1.479,0,2.685,0.295,3.616,0.884
				c0.931,0.59,1.466,1.608,1.604,3.055h-3.093c-0.044-0.397-0.155-0.712-0.337-0.944c-0.342-0.419-0.922-0.629-1.741-0.629
				c-0.675,0-1.155,0.105-1.442,0.314c-0.286,0.21-0.43,0.456-0.43,0.738c0,0.354,0.152,0.611,0.457,0.771
				c0.305,0.167,1.381,0.452,3.229,0.857c1.231,0.29,2.155,0.727,2.771,1.313c0.607,0.593,0.912,1.335,0.912,2.225
				c0,1.172-0.438,2.129-1.311,2.87c-0.874,0.742-2.225,1.112-4.051,1.112c-1.863,0-3.238-0.393-4.127-1.177
				c-0.887-0.785-1.331-1.785-1.331-3H28.769z"/>
			<path fill="#29ABE2" d="M41.909,131.883h-3.135v-2.854h3.135V131.883z M38.774,133.293h3.135v11.828h-3.135V133.293z"/>
			<path fill="#29ABE2" d="M59.663,133.337c0.506,0.203,0.965,0.557,1.377,1.063c0.334,0.412,0.558,0.919,0.674,1.519
				c0.072,0.398,0.107,0.98,0.107,1.747l-0.021,7.455h-3.168v-7.531c0-0.449-0.072-0.817-0.217-1.107
				c-0.275-0.55-0.781-0.825-1.52-0.825c-0.854,0-1.443,0.354-1.77,1.063c-0.166,0.376-0.249,0.829-0.249,1.356v7.042h-3.114v-7.042
				c0-0.702-0.072-1.212-0.217-1.53c-0.261-0.571-0.771-0.857-1.53-0.857c-0.883,0-1.476,0.286-1.78,0.857
				c-0.166,0.326-0.249,0.811-0.249,1.454v7.119h-3.136v-11.806h3.006v1.725c0.383-0.615,0.744-1.053,1.085-1.313
				c0.601-0.463,1.378-0.694,2.333-0.694c0.904,0,1.635,0.199,2.191,0.597c0.449,0.369,0.789,0.843,1.021,1.421
				c0.405-0.694,0.907-1.204,1.509-1.53c0.637-0.326,1.346-0.488,2.127-0.488C58.643,133.033,59.156,133.134,59.663,133.337z"/>
			<path fill="#29ABE2" d="M74.612,134.563c0.965,1.02,1.447,2.518,1.447,4.493c0,2.083-0.473,3.671-1.415,4.764
				s-2.157,1.639-3.643,1.639c-0.946,0-1.733-0.235-2.358-0.706c-0.343-0.26-0.678-0.64-1.006-1.139v6.164h-3.06v-16.483h2.962
				v1.747c0.336-0.514,0.691-0.918,1.07-1.215c0.691-0.528,1.515-0.792,2.469-0.792C72.47,133.033,73.647,133.543,74.612,134.563z
				 M72.238,136.788c-0.421-0.702-1.103-1.052-2.044-1.052c-1.134,0-1.912,0.531-2.336,1.595c-0.219,0.564-0.328,1.281-0.328,2.149
				c0,1.375,0.368,2.34,1.105,2.897c0.439,0.326,0.957,0.488,1.557,0.488c0.871,0,1.533-0.333,1.99-0.998s0.686-1.552,0.686-2.659
				C72.868,138.296,72.658,137.489,72.238,136.788z"/>
			<path fill="#29ABE2" d="M81.397,145.122h-3.092v-15.995h3.092V145.122z"/>
			<path fill="#29ABE2" d="M92.122,133.533c0.825,0.37,1.506,0.953,2.044,1.75c0.484,0.703,0.798,1.518,0.942,2.445
				c0.083,0.543,0.117,1.326,0.102,2.348h-8.614c0.048,1.187,0.46,2.019,1.237,2.496c0.472,0.297,1.04,0.445,1.705,0.445
				c0.704,0,1.276-0.181,1.717-0.543c0.24-0.195,0.452-0.466,0.637-0.813h3.157c-0.083,0.702-0.466,1.414-1.146,2.138
				c-1.06,1.15-2.543,1.725-4.45,1.725c-1.574,0-2.963-0.485-4.166-1.455s-1.805-2.549-1.805-4.735c0-2.049,0.543-3.62,1.629-4.713
				s2.496-1.64,4.23-1.64C90.37,132.979,91.297,133.164,92.122,133.533z M87.495,136.205c-0.438,0.451-0.711,1.061-0.824,1.831
				h5.328c-0.056-0.821-0.33-1.444-0.823-1.869c-0.493-0.425-1.104-0.638-1.835-0.638C88.548,135.529,87.933,135.754,87.495,136.205
				z"/>
			<path fill="#29ABE2" d="M112.896,134.563c0.965,1.02,1.447,2.518,1.447,4.493c0,2.083-0.471,3.671-1.414,4.764
				s-2.157,1.639-3.643,1.639c-0.946,0-1.732-0.235-2.359-0.706c-0.342-0.26-0.677-0.64-1.004-1.139v6.164h-3.061v-16.483h2.963
				v1.747c0.334-0.514,0.691-0.918,1.07-1.215c0.691-0.528,1.514-0.792,2.468-0.792
				C110.753,133.033,111.931,133.543,112.896,134.563z M110.522,136.788c-0.42-0.702-1.102-1.052-2.045-1.052
				c-1.133,0-1.91,0.531-2.335,1.595c-0.22,0.564-0.329,1.281-0.329,2.149c0,1.375,0.369,2.34,1.107,2.897
				c0.438,0.326,0.957,0.488,1.557,0.488c0.869,0,1.533-0.333,1.99-0.998s0.686-1.552,0.686-2.659
				C111.153,138.296,110.942,137.489,110.522,136.788z"/>
			<path fill="#29ABE2" d="M123.095,133.017c0.039,0.004,0.128,0.009,0.266,0.017v3.168c-0.195-0.021-0.369-0.036-0.521-0.043
				c-0.151-0.007-0.274-0.011-0.369-0.011c-1.244,0-2.079,0.405-2.506,1.215c-0.238,0.456-0.358,1.158-0.358,2.105v5.654h-3.114
				v-11.828h2.951v2.062c0.479-0.789,0.895-1.328,1.248-1.617c0.579-0.484,1.332-0.727,2.258-0.727
				C123.006,133.011,123.055,133.013,123.095,133.017z"/>
			<path fill="#29ABE2" d="M128.353,131.883h-3.137v-2.854h3.137V131.883z M125.216,133.293h3.137v11.828h-3.137V133.293z"/>
			<path fill="#29ABE2" d="M138.423,137.537c-0.059-0.441-0.207-0.839-0.447-1.194c-0.348-0.478-0.888-0.716-1.62-0.716
				c-1.044,0-1.759,0.518-2.144,1.552c-0.203,0.549-0.304,1.277-0.304,2.187c0,0.866,0.101,1.562,0.304,2.089
				c0.371,0.984,1.066,1.476,2.09,1.476c0.725,0,1.239-0.195,1.544-0.586s0.489-0.897,0.555-1.52h3.157
				c-0.072,0.941-0.412,1.831-1.021,2.669c-0.97,1.353-2.407,2.029-4.312,2.029c-1.905,0-3.307-0.564-4.205-1.693
				c-0.897-1.128-1.346-2.592-1.346-4.39c0-2.029,0.496-3.607,1.487-4.736c0.992-1.128,2.36-1.693,4.106-1.693
				c1.484,0,2.699,0.333,3.645,0.999c0.944,0.666,1.504,1.841,1.678,3.527H138.423z"/>
			<path fill="#29ABE2" d="M146.886,131.883h-3.135v-2.854h3.135V131.883z M143.751,133.293h3.135v11.828h-3.135V133.293z"/>
			<path fill="#29ABE2" d="M159.419,133.972c0.774,0.64,1.162,1.702,1.162,3.185v7.965h-3.169v-7.194c0-0.622-0.083-1.1-0.247-1.433
				c-0.303-0.607-0.877-0.912-1.725-0.912c-1.041,0-1.756,0.445-2.143,1.335c-0.201,0.47-0.303,1.071-0.303,1.801v6.402h-3.092
				v-11.806h2.994v1.725c0.396-0.607,0.771-1.045,1.124-1.313c0.634-0.478,1.438-0.716,2.41-0.716
				C157.649,133.011,158.645,133.332,159.419,133.972z"/>
			<path fill="#29ABE2" d="M169.308,133.283c0.752,0.311,1.358,0.883,1.82,1.714v-1.704h3.018v11.22
				c0,1.526-0.258,2.677-0.771,3.451c-0.883,1.331-2.574,1.997-5.078,1.997c-1.512,0-2.745-0.297-3.7-0.89
				c-0.954-0.593-1.483-1.479-1.584-2.658h3.364c0.086,0.361,0.228,0.622,0.423,0.781c0.333,0.282,0.894,0.423,1.682,0.423
				c1.114,0,1.859-0.373,2.235-1.118c0.246-0.477,0.369-1.28,0.369-2.409v-0.76c-0.297,0.506-0.615,0.886-0.955,1.14
				c-0.615,0.47-1.414,0.705-2.398,0.705c-1.519,0-2.732-0.533-3.641-1.601c-0.908-1.067-1.361-2.512-1.361-4.335
				c0-1.758,0.438-3.235,1.311-4.433c0.875-1.197,2.113-1.796,3.718-1.796C168.351,133.011,168.866,133.102,169.308,133.283z
				 M170.36,141.763c0.498-0.546,0.746-1.416,0.746-2.61c0-1.121-0.236-1.975-0.707-2.561c-0.473-0.586-1.104-0.879-1.896-0.879
				c-1.081,0-1.826,0.51-2.237,1.53c-0.216,0.542-0.324,1.211-0.324,2.007c0,0.688,0.115,1.299,0.346,1.834
				c0.418,0.998,1.167,1.498,2.247,1.498C169.255,142.583,169.864,142.31,170.36,141.763z"/>
		</g>
	</g>
	<g>
		<g>
			<path fill="#999999" d="M31.78,35.342c0.338,0.145,0.624,0.358,0.858,0.641c0.194,0.232,0.349,0.49,0.462,0.772
				s0.17,0.604,0.17,0.965c0,0.436-0.11,0.864-0.33,1.286c-0.221,0.421-0.584,0.719-1.09,0.894c0.424,0.17,0.724,0.411,0.9,0.725
				c0.176,0.313,0.264,0.792,0.264,1.436v0.616c0,0.419,0.018,0.704,0.051,0.854c0.051,0.236,0.169,0.41,0.354,0.522v0.23h-2.117
				c-0.058-0.203-0.1-0.367-0.124-0.492c-0.051-0.257-0.077-0.521-0.081-0.79l-0.013-0.854c-0.008-0.585-0.109-0.976-0.303-1.17
				c-0.195-0.195-0.559-0.293-1.094-0.293h-1.872v3.599h-1.874v-9.178h4.39C30.959,35.117,31.442,35.196,31.78,35.342z
				 M27.816,36.698v2.466h2.063c0.41,0,0.717-0.05,0.922-0.149c0.363-0.174,0.545-0.519,0.545-1.033c0-0.557-0.176-0.93-0.526-1.121
				c-0.197-0.107-0.493-0.162-0.888-0.162H27.816z"/>
			<path fill="#999999" d="M40.624,43.452c-0.573,0.707-1.443,1.061-2.609,1.061s-2.036-0.354-2.609-1.061
				c-0.572-0.707-0.858-1.559-0.858-2.554c0-0.979,0.286-1.827,0.858-2.545c0.573-0.717,1.443-1.076,2.609-1.076
				s2.036,0.359,2.609,1.076c0.572,0.718,0.859,1.566,0.859,2.545C41.483,41.894,41.196,42.745,40.624,43.452z M39.204,42.472
				c0.277-0.369,0.417-0.894,0.417-1.573s-0.14-1.203-0.417-1.57c-0.278-0.366-0.677-0.55-1.195-0.55
				c-0.52,0-0.919,0.184-1.199,0.55c-0.279,0.367-0.42,0.891-0.42,1.57s0.141,1.204,0.42,1.573c0.28,0.368,0.68,0.553,1.199,0.553
				C38.527,43.024,38.926,42.84,39.204,42.472z"/>
			<path fill="#999999" d="M43.021,45.584l0.225,0.012c0.174,0.009,0.34,0.002,0.498-0.019c0.157-0.021,0.29-0.068,0.398-0.144
				c0.104-0.07,0.2-0.218,0.289-0.441c0.09-0.225,0.128-0.361,0.115-0.411l-2.494-7.085h1.975l1.481,5.006l1.401-5.006h1.887
				l-2.327,6.674c-0.45,1.287-0.806,2.085-1.067,2.395c-0.262,0.309-0.785,0.464-1.57,0.464c-0.158,0-0.285-0.001-0.381-0.004
				c-0.096-0.002-0.238-0.009-0.43-0.021V45.584z"/>
			<path fill="#999999" d="M52.532,40.154c0.33-0.041,0.566-0.094,0.709-0.155c0.256-0.108,0.383-0.276,0.383-0.505
				c0-0.278-0.098-0.47-0.293-0.576c-0.196-0.105-0.483-0.158-0.861-0.158c-0.426,0-0.727,0.104-0.903,0.312
				c-0.126,0.153-0.21,0.36-0.253,0.622h-1.711c0.037-0.594,0.203-1.081,0.5-1.463c0.471-0.598,1.279-0.896,2.426-0.896
				c0.746,0,1.409,0.147,1.988,0.441c0.58,0.295,0.869,0.852,0.869,1.669v3.113c0,0.216,0.004,0.478,0.013,0.784
				c0.013,0.232,0.048,0.391,0.106,0.474c0.058,0.083,0.145,0.151,0.261,0.205v0.262h-1.93c-0.054-0.137-0.092-0.266-0.112-0.386
				c-0.021-0.121-0.037-0.258-0.05-0.411c-0.246,0.266-0.53,0.492-0.852,0.679c-0.384,0.22-0.818,0.33-1.303,0.33
				c-0.618,0-1.128-0.176-1.531-0.526s-0.604-0.848-0.604-1.491c0-0.834,0.324-1.438,0.973-1.812
				c0.355-0.203,0.878-0.349,1.568-0.437L52.532,40.154z M53.618,40.982c-0.114,0.07-0.229,0.128-0.344,0.171
				c-0.117,0.044-0.275,0.084-0.477,0.122l-0.404,0.074c-0.379,0.066-0.65,0.147-0.816,0.243c-0.279,0.161-0.419,0.413-0.419,0.753
				c0,0.303,0.085,0.522,0.257,0.657c0.17,0.135,0.377,0.202,0.622,0.202c0.388,0,0.745-0.112,1.071-0.336
				c0.327-0.225,0.496-0.633,0.51-1.227V40.982z"/>
			<path fill="#999999" d="M58.748,44.282h-1.774v-9.178h1.774V44.282z"/>
			<path fill="#999999" d="M59.782,38.822v-1.265h0.945v-1.893h1.756v1.893h1.103v1.265h-1.103v3.586
				c0,0.278,0.035,0.451,0.106,0.52c0.07,0.068,0.286,0.103,0.647,0.103c0.054,0,0.111-0.001,0.171-0.003
				c0.061-0.002,0.12-0.005,0.178-0.009v1.326l-0.841,0.031c-0.838,0.028-1.411-0.116-1.719-0.437
				c-0.199-0.203-0.299-0.517-0.299-0.939v-4.178H59.782z"/>
			<path fill="#999999" d="M64.993,45.584l0.224,0.012c0.175,0.009,0.341,0.002,0.498-0.019s0.29-0.068,0.398-0.144
				c0.104-0.07,0.2-0.218,0.29-0.441c0.089-0.225,0.127-0.361,0.115-0.411l-2.494-7.085h1.975l1.48,5.006l1.401-5.006h1.887
				L68.44,44.17c-0.449,1.287-0.805,2.085-1.066,2.395c-0.262,0.309-0.785,0.464-1.57,0.464c-0.158,0-0.285-0.001-0.381-0.004
				c-0.096-0.002-0.238-0.009-0.43-0.021V45.584z"/>
			<path fill="#999999" d="M75.503,35.117h6.544v1.612h-4.639v2.111h4.065v1.594h-4.065v3.848h-1.905V35.117z"/>
			<path fill="#999999" d="M86.919,37.337c0.021,0.002,0.073,0.005,0.152,0.01v1.817c-0.112-0.013-0.212-0.021-0.299-0.024
				c-0.088-0.004-0.158-0.007-0.212-0.007c-0.714,0-1.193,0.232-1.438,0.697c-0.137,0.262-0.205,0.665-0.205,1.208v3.244H83.13
				v-6.786h1.693v1.183c0.273-0.452,0.513-0.762,0.716-0.928c0.332-0.278,0.764-0.417,1.296-0.417
				C86.868,37.334,86.896,37.335,86.919,37.337z"/>
			<path fill="#999999" d="M92.533,37.633c0.474,0.212,0.864,0.547,1.173,1.004c0.277,0.403,0.458,0.871,0.541,1.403
				c0.047,0.312,0.066,0.761,0.059,1.347h-4.943c0.027,0.681,0.264,1.158,0.709,1.433c0.271,0.17,0.598,0.255,0.979,0.255
				c0.404,0,0.733-0.104,0.986-0.312c0.137-0.111,0.26-0.268,0.365-0.467h1.811c-0.047,0.402-0.267,0.812-0.657,1.227
				c-0.608,0.66-1.459,0.99-2.554,0.99c-0.902,0-1.699-0.278-2.391-0.835c-0.689-0.557-1.035-1.463-1.035-2.717
				c0-1.176,0.312-2.077,0.936-2.705c0.623-0.627,1.432-0.94,2.426-0.94C91.528,37.315,92.06,37.421,92.533,37.633z M89.878,39.166
				c-0.25,0.259-0.408,0.608-0.473,1.051h3.058c-0.032-0.472-0.19-0.829-0.473-1.072c-0.282-0.244-0.634-0.366-1.052-0.366
				C90.482,38.778,90.13,38.907,89.878,39.166z"/>
			<path fill="#999999" d="M99.625,37.633c0.474,0.212,0.864,0.547,1.173,1.004c0.277,0.403,0.458,0.871,0.541,1.403
				c0.047,0.312,0.066,0.761,0.059,1.347h-4.943c0.027,0.681,0.264,1.158,0.709,1.433c0.271,0.17,0.598,0.255,0.979,0.255
				c0.404,0,0.733-0.104,0.986-0.312c0.137-0.111,0.26-0.268,0.365-0.467h1.811c-0.047,0.402-0.267,0.812-0.657,1.227
				c-0.608,0.66-1.459,0.99-2.554,0.99c-0.902,0-1.699-0.278-2.391-0.835c-0.689-0.557-1.035-1.463-1.035-2.717
				c0-1.176,0.312-2.077,0.936-2.705c0.623-0.627,1.432-0.94,2.426-0.94C98.62,37.315,99.151,37.421,99.625,37.633z M96.97,39.166
				c-0.25,0.259-0.408,0.608-0.473,1.051h3.058c-0.032-0.472-0.19-0.829-0.473-1.072c-0.282-0.244-0.634-0.366-1.052-0.366
				C97.574,38.778,97.222,38.907,96.97,39.166z"/>
		</g>
	</g>
	<g>
		<g>
			<g>
				<path fill="#FFFFFF" d="M194.556,98.044c0,1.328-1.08,2.406-2.41,2.406h-9.352c-1.328,0-2.408-1.078-2.408-2.406v-9.355
					c0-1.33,1.08-2.408,2.408-2.408h9.352c1.33,0,2.41,1.078,2.41,2.408V98.044z"/>
				<path fill="#9C9B9B" d="M192.146,101.088h-9.352c-1.68,0-3.046-1.366-3.046-3.044v-9.355c0-1.68,1.366-3.046,3.046-3.046h9.352
					c1.681,0,3.048,1.366,3.048,3.046v9.355C195.193,99.722,193.826,101.088,192.146,101.088z M182.794,86.918
					c-0.977,0-1.771,0.794-1.771,1.771v9.355c0,0.975,0.794,1.769,1.771,1.769h9.352c0.978,0,1.772-0.793,1.772-1.769v-9.355
					c0-0.976-0.795-1.771-1.772-1.771H182.794z"/>
			</g>
			<path fill="#35A8E0" d="M182.794,98.339c-0.164,0-0.299-0.133-0.299-0.295v-9.355c0-0.164,0.135-0.299,0.299-0.299h9.352
				c0.166,0,0.301,0.135,0.301,0.299v9.355c0,0.162-0.135,0.295-0.301,0.295H182.794z"/>
		</g>
		<g>
			<g>
				<path d="M205.475,91.473c0.673-0.687,1.528-1.031,2.567-1.031c1.39,0,2.406,0.46,3.049,1.382
					c0.355,0.517,0.545,1.037,0.571,1.558h-1.745c-0.11-0.4-0.253-0.703-0.427-0.906c-0.312-0.363-0.771-0.544-1.382-0.544
					c-0.622,0-1.112,0.256-1.471,0.768c-0.359,0.512-0.539,1.236-0.539,2.172c0,0.937,0.189,1.638,0.568,2.105
					c0.379,0.466,0.859,0.7,1.443,0.7c0.599,0,1.055-0.2,1.369-0.601c0.174-0.215,0.318-0.538,0.432-0.969h1.734
					c-0.15,0.91-0.531,1.65-1.146,2.221s-1.402,0.855-2.362,0.855c-1.188,0-2.122-0.385-2.802-1.156
					c-0.68-0.774-1.021-1.835-1.021-3.184C204.314,93.386,204.701,92.262,205.475,91.473z"/>
				<path d="M218.075,98.195c-0.521,0.643-1.312,0.965-2.373,0.965c-1.062,0-1.854-0.322-2.374-0.965
					c-0.521-0.644-0.782-1.418-0.782-2.324c0-0.89,0.261-1.662,0.782-2.315c0.521-0.653,1.312-0.979,2.374-0.979
					c1.061,0,1.852,0.326,2.373,0.979s0.781,1.425,0.781,2.315C218.856,96.777,218.597,97.552,218.075,98.195z M216.784,97.303
					c0.252-0.335,0.379-0.812,0.379-1.431c0-0.618-0.127-1.094-0.379-1.428c-0.254-0.333-0.616-0.5-1.088-0.5
					c-0.473,0-0.836,0.167-1.091,0.5c-0.255,0.334-0.382,0.81-0.382,1.428c0,0.619,0.127,1.096,0.382,1.431
					c0.255,0.336,0.618,0.503,1.091,0.503C216.168,97.806,216.53,97.639,216.784,97.303z"/>
				<path d="M227.718,92.798c0.264,0.106,0.504,0.291,0.719,0.555c0.174,0.215,0.291,0.48,0.352,0.793
					c0.037,0.208,0.057,0.512,0.057,0.912l-0.012,3.892h-1.654v-3.932c0-0.234-0.037-0.427-0.113-0.578
					c-0.143-0.287-0.408-0.431-0.793-0.431c-0.445,0-0.754,0.185-0.924,0.555c-0.086,0.196-0.13,0.433-0.13,0.708v3.677h-1.626
					v-3.677c0-0.366-0.037-0.632-0.113-0.799c-0.136-0.298-0.402-0.447-0.799-0.447c-0.461,0-0.77,0.149-0.929,0.447
					c-0.087,0.17-0.13,0.423-0.13,0.759v3.716h-1.638v-6.164h1.569v0.901c0.2-0.321,0.389-0.55,0.566-0.686
					c0.313-0.242,0.72-0.363,1.219-0.363c0.471,0,0.853,0.104,1.144,0.312c0.234,0.193,0.411,0.44,0.532,0.742
					c0.212-0.362,0.475-0.629,0.787-0.799c0.333-0.17,0.703-0.255,1.111-0.255C227.185,92.64,227.452,92.693,227.718,92.798z"/>
				<path d="M238.033,92.798c0.265,0.106,0.505,0.291,0.72,0.555c0.174,0.215,0.291,0.48,0.352,0.793
					c0.037,0.208,0.057,0.512,0.057,0.912l-0.012,3.892h-1.654v-3.932c0-0.234-0.038-0.427-0.113-0.578
					c-0.144-0.287-0.408-0.431-0.793-0.431c-0.445,0-0.754,0.185-0.924,0.555c-0.087,0.196-0.131,0.433-0.131,0.708v3.677h-1.625
					v-3.677c0-0.366-0.038-0.632-0.113-0.799c-0.137-0.298-0.402-0.447-0.799-0.447c-0.461,0-0.771,0.149-0.93,0.447
					c-0.086,0.17-0.13,0.423-0.13,0.759v3.716H230.3v-6.164h1.57v0.901c0.199-0.321,0.389-0.55,0.566-0.686
					c0.312-0.242,0.719-0.363,1.218-0.363c0.472,0,0.853,0.104,1.144,0.312c0.234,0.193,0.412,0.44,0.533,0.742
					c0.211-0.362,0.474-0.629,0.787-0.799c0.332-0.17,0.703-0.255,1.11-0.255C237.501,92.64,237.769,92.693,238.033,92.798z"/>
				<path d="M244.669,92.901c0.431,0.193,0.787,0.498,1.066,0.914c0.254,0.367,0.418,0.792,0.492,1.276
					c0.044,0.284,0.062,0.692,0.054,1.226h-4.497c0.024,0.62,0.24,1.054,0.646,1.303c0.247,0.155,0.543,0.232,0.89,0.232
					c0.368,0,0.667-0.094,0.896-0.283c0.125-0.102,0.236-0.244,0.332-0.425h1.648c-0.043,0.366-0.242,0.738-0.598,1.116
					c-0.554,0.6-1.328,0.9-2.323,0.9c-0.821,0-1.547-0.253-2.175-0.76c-0.629-0.506-0.943-1.331-0.943-2.472
					c0-1.069,0.284-1.89,0.852-2.46c0.566-0.571,1.303-0.856,2.208-0.856C243.754,92.611,244.238,92.708,244.669,92.901z
					 M242.253,94.295c-0.228,0.235-0.371,0.554-0.43,0.956h2.781c-0.029-0.429-0.172-0.754-0.43-0.976
					c-0.258-0.222-0.576-0.333-0.957-0.333C242.803,93.943,242.481,94.061,242.253,94.295z"/>
				<path d="M250.527,92.631c0.021,0.002,0.067,0.005,0.139,0.008v1.654c-0.102-0.011-0.192-0.019-0.272-0.022
					c-0.078-0.004-0.143-0.006-0.191-0.006c-0.65,0-1.086,0.211-1.309,0.635c-0.125,0.238-0.188,0.604-0.188,1.099v2.952h-1.626
					v-6.175h1.541v1.076c0.249-0.412,0.466-0.693,0.651-0.844c0.303-0.253,0.695-0.379,1.179-0.379
					C250.481,92.628,250.507,92.629,250.527,92.631z"/>
				<path d="M255.306,94.991c-0.029-0.23-0.107-0.438-0.232-0.623c-0.182-0.25-0.464-0.374-0.846-0.374
					c-0.546,0-0.918,0.27-1.119,0.81c-0.105,0.287-0.159,0.667-0.159,1.142c0,0.452,0.054,0.815,0.159,1.09
					c0.193,0.514,0.557,0.771,1.09,0.771c0.379,0,0.648-0.102,0.807-0.306c0.159-0.204,0.256-0.468,0.289-0.793h1.649
					c-0.038,0.491-0.216,0.956-0.533,1.394c-0.507,0.706-1.257,1.059-2.251,1.059s-1.727-0.294-2.195-0.884
					c-0.469-0.589-0.703-1.353-0.703-2.292c0-1.059,0.26-1.883,0.777-2.473s1.232-0.884,2.144-0.884
					c0.774,0,1.409,0.174,1.902,0.521c0.493,0.348,0.785,0.961,0.876,1.841H255.306z"/>
				<path d="M259.725,92.039h-1.638v-1.49h1.638V92.039z M258.087,92.776h1.638v6.175h-1.638V92.776z"/>
				<path d="M263.733,95.195c0.301-0.038,0.516-0.085,0.646-0.142c0.231-0.098,0.349-0.251,0.349-0.459
					c0-0.253-0.09-0.428-0.268-0.524s-0.439-0.145-0.784-0.145c-0.386,0-0.66,0.094-0.821,0.283
					c-0.115,0.14-0.191,0.329-0.229,0.566h-1.558c0.033-0.54,0.186-0.984,0.455-1.331c0.429-0.544,1.164-0.816,2.207-0.816
					c0.68,0,1.282,0.134,1.81,0.402s0.791,0.774,0.791,1.518v2.833c0,0.196,0.004,0.435,0.011,0.714
					c0.012,0.211,0.044,0.355,0.097,0.431c0.054,0.076,0.132,0.138,0.238,0.187v0.238h-1.757c-0.049-0.125-0.082-0.242-0.102-0.351
					c-0.02-0.11-0.033-0.234-0.045-0.374c-0.225,0.242-0.482,0.447-0.775,0.618c-0.35,0.2-0.744,0.3-1.186,0.3
					c-0.562,0-1.026-0.159-1.393-0.479c-0.367-0.319-0.55-0.771-0.55-1.357c0-0.759,0.294-1.309,0.884-1.648
					c0.324-0.185,0.8-0.317,1.428-0.396L263.733,95.195z M264.722,95.948c-0.104,0.064-0.209,0.116-0.313,0.156
					c-0.105,0.04-0.25,0.077-0.434,0.11l-0.368,0.068c-0.344,0.061-0.592,0.134-0.742,0.221c-0.254,0.147-0.381,0.376-0.381,0.686
					c0,0.275,0.078,0.475,0.232,0.598c0.156,0.123,0.345,0.184,0.567,0.184c0.353,0,0.678-0.102,0.975-0.306
					c0.298-0.204,0.452-0.576,0.464-1.116V95.948z"/>
				<path d="M269.39,98.951h-1.615v-8.35h1.615V98.951z"/>
				<path d="M274.317,90.601h1.773v5.128c0,0.573,0.068,0.992,0.203,1.256c0.211,0.468,0.67,0.702,1.377,0.702
					c0.705,0,1.162-0.234,1.373-0.702c0.135-0.264,0.203-0.683,0.203-1.256v-5.128h1.772v5.132c0,0.888-0.138,1.579-0.413,2.073
					c-0.512,0.907-1.49,1.36-2.936,1.36c-1.443,0-2.424-0.453-2.94-1.36c-0.274-0.495-0.413-1.186-0.413-2.073V90.601z"/>
				<path d="M283.818,96.979c0.034,0.287,0.108,0.491,0.222,0.612c0.201,0.215,0.573,0.323,1.116,0.323
					c0.318,0,0.571-0.047,0.76-0.142s0.282-0.236,0.282-0.425c0-0.182-0.076-0.319-0.228-0.414
					c-0.151-0.095-0.714-0.257-1.688-0.487c-0.702-0.174-1.197-0.391-1.483-0.651c-0.287-0.257-0.431-0.627-0.431-1.11
					c0-0.57,0.225-1.061,0.673-1.47s1.079-0.615,1.894-0.615c0.771,0,1.4,0.154,1.887,0.462c0.486,0.308,0.766,0.839,0.838,1.595
					h-1.614c-0.022-0.208-0.081-0.372-0.177-0.493c-0.178-0.219-0.48-0.329-0.908-0.329c-0.353,0-0.604,0.055-0.753,0.165
					s-0.224,0.238-0.224,0.385c0,0.185,0.078,0.319,0.238,0.402c0.158,0.087,0.721,0.236,1.686,0.448
					c0.643,0.151,1.125,0.379,1.446,0.686c0.317,0.31,0.476,0.697,0.476,1.161c0,0.612-0.229,1.111-0.684,1.499
					c-0.457,0.387-1.161,0.581-2.115,0.581c-0.973,0-1.689-0.205-2.154-0.615c-0.463-0.41-0.695-0.932-0.695-1.566H283.818z"/>
				<path d="M293.043,92.901c0.431,0.193,0.786,0.498,1.067,0.914c0.252,0.367,0.416,0.792,0.492,1.276
					c0.043,0.284,0.061,0.692,0.053,1.226h-4.498c0.025,0.62,0.24,1.054,0.646,1.303c0.246,0.155,0.543,0.232,0.891,0.232
					c0.367,0,0.666-0.094,0.896-0.283c0.125-0.102,0.235-0.244,0.332-0.425h1.648c-0.044,0.366-0.243,0.738-0.6,1.116
					c-0.553,0.6-1.326,0.9-2.322,0.9c-0.822,0-1.547-0.253-2.176-0.76c-0.628-0.506-0.941-1.331-0.941-2.472
					c0-1.069,0.283-1.89,0.85-2.46c0.568-0.571,1.304-0.856,2.209-0.856C292.128,92.611,292.612,92.708,293.043,92.901z
					 M290.628,94.295c-0.229,0.235-0.372,0.554-0.431,0.956h2.782c-0.029-0.429-0.174-0.754-0.431-0.976
					c-0.257-0.222-0.577-0.333-0.958-0.333C291.177,93.943,290.855,94.061,290.628,94.295z"/>
			</g>
		</g>
		<g>
			<polygon fill="#FFFFFF" points="195.626,106.462 195.626,109.415 194.148,109.415 194.148,104.983 192.671,104.983 
				192.671,107.937 191.194,107.937 191.194,103.507 189.716,103.507 189.716,107.937 188.239,107.937 188.239,97.597 
				185.284,97.597 185.284,112.368 183.806,112.368 183.806,109.415 182.329,109.415 182.329,107.937 180.853,107.937 
				180.853,106.462 177.899,106.462 177.899,109.415 179.376,109.415 179.376,110.892 180.853,110.892 180.853,113.849 
				182.329,113.849 182.329,115.325 183.806,115.325 183.806,116.802 185.284,116.802 185.284,119.757 194.148,119.757 
				194.148,116.802 195.626,116.802 195.626,113.849 197.101,113.849 197.101,106.462 			"/>
			<path fill="#000100" d="M176.421,109.415h1.479v-2.953h-1.479V109.415z M177.899,104.983v1.479h2.953v-1.479H177.899z
				 M180.853,106.462v1.475h1.477v-1.475H180.853z M183.806,107.937h-1.477v1.479h1.477v2.953h1.479V97.597h-1.479V107.937z
				 M185.284,96.12v1.477h2.955V96.12H185.284z M179.376,110.892v-1.477h-1.477v1.477H179.376z M180.853,113.849v-2.957h-1.477
				v2.957H180.853z M182.329,115.325v-1.477h-1.477v1.477H182.329z M183.806,116.802v-1.477h-1.477v1.477H183.806z M185.284,119.757
				v-2.955h-1.479v2.955H185.284z M195.626,104.983v-1.477h-2.955v-1.479h-2.955v-4.432h-1.477v10.34h1.477v-4.43h1.479v4.43h1.477
				v-2.953h1.478v4.432h1.478v-2.953h1.475v7.387h1.479v-8.865H195.626z M195.626,116.802h1.475v-2.953h-1.475V116.802z
				 M194.148,119.757h1.478v-2.955h-1.478V119.757z"/>
		</g>
	</g>
	<g>
		<g>
			<path d="M32.219,163.884c-0.489,0.408-1.187,0.611-2.095,0.611h-1.738v3.003h-1.733v-8.351h3.585
				c0.827,0,1.486,0.216,1.978,0.646c0.491,0.43,0.737,1.097,0.737,1.999C32.952,162.779,32.708,163.476,32.219,163.884z
				 M30.888,160.876c-0.222-0.186-0.531-0.278-0.93-0.278h-1.572v2.459h1.572c0.398,0,0.708-0.1,0.93-0.3
				c0.221-0.2,0.33-0.518,0.33-0.952S31.108,161.061,30.888,160.876z"/>
			<path d="M38.659,161.357c0.31,0.132,0.564,0.334,0.764,0.606c0.169,0.23,0.272,0.468,0.311,0.712
				c0.037,0.243,0.057,0.642,0.057,1.193v3.629h-1.648v-3.76c0-0.333-0.057-0.602-0.17-0.806c-0.146-0.287-0.423-0.432-0.832-0.432
				c-0.424,0-0.744,0.144-0.964,0.429s-0.329,0.692-0.329,1.222v3.347h-1.615v-8.322h1.615v2.946
				c0.232-0.359,0.503-0.609,0.81-0.751c0.306-0.142,0.629-0.212,0.968-0.212C38.003,161.159,38.349,161.225,38.659,161.357z"/>
			<path d="M46.458,166.742c-0.521,0.644-1.312,0.966-2.374,0.966s-1.853-0.322-2.374-0.966c-0.521-0.643-0.781-1.417-0.781-2.323
				c0-0.891,0.26-1.662,0.781-2.314c0.521-0.653,1.312-0.979,2.374-0.979s1.853,0.326,2.374,0.979
				c0.521,0.652,0.781,1.424,0.781,2.314C47.239,165.325,46.979,166.1,46.458,166.742z M45.166,165.851
				c0.253-0.336,0.38-0.812,0.38-1.432c0-0.618-0.127-1.095-0.38-1.428c-0.253-0.334-0.616-0.501-1.088-0.501
				s-0.835,0.167-1.091,0.501c-0.254,0.333-0.382,0.81-0.382,1.428c0,0.619,0.128,1.096,0.382,1.432
				c0.256,0.335,0.619,0.503,1.091,0.503S44.913,166.186,45.166,165.851z"/>
			<path d="M47.761,162.529v-1.149h0.861v-1.723h1.598v1.723h1.002v1.149H50.22v3.264c0,0.253,0.031,0.41,0.096,0.473
				s0.261,0.094,0.59,0.094c0.049,0,0.101-0.001,0.155-0.003s0.108-0.005,0.161-0.009v1.207l-0.765,0.028
				c-0.763,0.026-1.284-0.105-1.563-0.396c-0.182-0.185-0.271-0.471-0.271-0.855v-3.802H47.761z"/>
			<path d="M57.408,166.742c-0.521,0.644-1.312,0.966-2.374,0.966c-1.061,0-1.852-0.322-2.373-0.966
				c-0.521-0.643-0.781-1.417-0.781-2.323c0-0.891,0.26-1.662,0.781-2.314c0.521-0.653,1.312-0.979,2.373-0.979
				c1.062,0,1.854,0.326,2.374,0.979c0.521,0.652,0.782,1.424,0.782,2.314C58.19,165.325,57.93,166.1,57.408,166.742z
				 M56.116,165.851c0.254-0.336,0.38-0.812,0.38-1.432c0-0.618-0.126-1.095-0.38-1.428c-0.252-0.334-0.615-0.501-1.088-0.501
				c-0.471,0-0.835,0.167-1.09,0.501c-0.255,0.333-0.383,0.81-0.383,1.428c0,0.619,0.128,1.096,0.383,1.432
				c0.255,0.335,0.619,0.503,1.09,0.503C55.501,166.354,55.864,166.186,56.116,165.851z"/>
			<path d="M67.762,161.986c0.504,0.532,0.755,1.313,0.755,2.345c0,1.088-0.246,1.917-0.738,2.487s-1.125,0.855-1.9,0.855
				c-0.494,0-0.905-0.123-1.232-0.368c-0.178-0.136-0.354-0.334-0.524-0.595v3.218h-1.598v-8.605h1.547v0.912
				c0.175-0.269,0.36-0.479,0.559-0.635c0.36-0.275,0.79-0.413,1.288-0.413C66.644,161.188,67.259,161.453,67.762,161.986z
				 M66.522,163.147c-0.219-0.366-0.575-0.55-1.067-0.55c-0.591,0-0.997,0.277-1.219,0.833c-0.114,0.295-0.172,0.668-0.172,1.121
				c0,0.718,0.192,1.223,0.577,1.513c0.229,0.17,0.5,0.255,0.813,0.255c0.454,0,0.8-0.173,1.039-0.521
				c0.238-0.348,0.357-0.811,0.357-1.389C66.852,163.935,66.741,163.514,66.522,163.147z"/>
			<path d="M73.087,161.179c0.021,0.002,0.066,0.005,0.139,0.009v1.654c-0.102-0.012-0.193-0.02-0.272-0.023
				c-0.079-0.003-0.144-0.005-0.192-0.005c-0.649,0-1.086,0.211-1.309,0.634c-0.125,0.238-0.188,0.604-0.188,1.1v2.951H69.64v-6.175
				h1.541v1.076c0.249-0.411,0.466-0.693,0.65-0.844c0.303-0.253,0.695-0.38,1.18-0.38C73.04,161.176,73.065,161.177,73.087,161.179
				z"/>
			<path d="M75.831,160.587h-1.638v-1.49h1.638V160.587z M74.193,161.323h1.638v6.175h-1.638V161.323z"/>
			<path d="M81.089,163.538c-0.031-0.23-0.108-0.438-0.233-0.623c-0.182-0.249-0.464-0.374-0.847-0.374
				c-0.545,0-0.918,0.271-1.118,0.811c-0.106,0.286-0.159,0.666-0.159,1.141c0,0.452,0.053,0.816,0.159,1.091
				c0.192,0.514,0.556,0.771,1.091,0.771c0.378,0,0.646-0.102,0.806-0.306s0.256-0.469,0.29-0.793h1.648
				c-0.038,0.491-0.216,0.955-0.533,1.394c-0.507,0.706-1.257,1.06-2.252,1.06c-0.994,0-1.725-0.295-2.193-0.884
				c-0.469-0.59-0.703-1.354-0.703-2.292c0-1.06,0.258-1.884,0.776-2.473c0.518-0.589,1.232-0.884,2.144-0.884
				c0.775,0,1.409,0.174,1.902,0.521s0.785,0.961,0.876,1.841H81.089z"/>
			<path d="M87.871,161.448c0.431,0.193,0.786,0.497,1.067,0.913c0.252,0.367,0.416,0.793,0.492,1.277
				c0.043,0.283,0.061,0.691,0.053,1.226h-4.498c0.025,0.619,0.24,1.054,0.646,1.303c0.246,0.154,0.543,0.232,0.891,0.232
				c0.367,0,0.666-0.095,0.896-0.283c0.125-0.103,0.235-0.244,0.332-0.426h1.648c-0.044,0.367-0.243,0.739-0.6,1.116
				c-0.553,0.601-1.326,0.901-2.322,0.901c-0.822,0-1.547-0.254-2.176-0.76c-0.628-0.507-0.941-1.331-0.941-2.473
				c0-1.069,0.283-1.89,0.85-2.461c0.568-0.57,1.304-0.855,2.209-0.855C86.956,161.159,87.44,161.255,87.871,161.448z
				 M85.456,162.843c-0.229,0.235-0.372,0.554-0.431,0.956h2.782c-0.029-0.429-0.174-0.754-0.431-0.976s-0.577-0.333-0.958-0.333
				C86.005,162.49,85.684,162.607,85.456,162.843z"/>
			<path d="M93.937,161.255c0.299-0.694,0.734-1.442,1.309-2.243h1.219l-0.346,0.635c-0.477,0.872-0.807,1.786-0.992,2.741
				c-0.121,0.627-0.182,1.311-0.182,2.051c0,1.156,0.168,2.22,0.505,3.189c0.196,0.574,0.544,1.311,1.042,2.21h-1.195l-0.402-0.55
				c-0.26-0.332-0.537-0.827-0.832-1.484c-0.525-1.174-0.787-2.33-0.787-3.467C93.274,163.302,93.495,162.274,93.937,161.255z"/>
			<path d="M97.517,159.147h1.773v5.129c0,0.573,0.068,0.992,0.203,1.257c0.211,0.468,0.67,0.701,1.377,0.701
				c0.705,0,1.162-0.233,1.373-0.701c0.135-0.265,0.203-0.684,0.203-1.257v-5.129h1.772v5.133c0,0.888-0.138,1.579-0.413,2.073
				c-0.512,0.906-1.49,1.359-2.936,1.359c-1.443,0-2.424-0.453-2.94-1.359c-0.274-0.494-0.413-1.186-0.413-2.073V159.147z"/>
			<path d="M107.153,164.921c0.054,0.381,0.16,0.666,0.318,0.854c0.289,0.344,0.784,0.516,1.486,0.516
				c0.42,0,0.762-0.045,1.023-0.136c0.498-0.174,0.746-0.496,0.746-0.969c0-0.275-0.121-0.489-0.365-0.64
				c-0.244-0.147-0.631-0.278-1.159-0.392l-0.904-0.198c-0.889-0.196-1.499-0.409-1.831-0.64c-0.562-0.386-0.844-0.987-0.844-1.808
				c0-0.747,0.275-1.369,0.825-1.863c0.551-0.495,1.359-0.742,2.426-0.742c0.892,0,1.651,0.233,2.28,0.699
				c0.629,0.467,0.958,1.144,0.988,2.031h-1.676c-0.031-0.502-0.256-0.859-0.674-1.07c-0.279-0.141-0.626-0.21-1.04-0.21
				c-0.461,0-0.829,0.091-1.104,0.271c-0.274,0.182-0.412,0.435-0.412,0.76c0,0.298,0.136,0.521,0.406,0.668
				c0.175,0.099,0.544,0.214,1.109,0.346l1.466,0.346c0.643,0.151,1.123,0.354,1.443,0.606c0.498,0.393,0.747,0.961,0.747,1.705
				c0,0.763-0.295,1.396-0.885,1.9c-0.589,0.504-1.423,0.756-2.499,0.756c-1.1,0-1.965-0.248-2.594-0.744
				c-0.631-0.497-0.945-1.18-0.945-2.048H107.153z"/>
			<path d="M116.251,168.841h-0.549v-1.128c-0.744-0.083-1.299-0.245-1.666-0.486c-0.646-0.435-0.963-1.175-0.951-2.221h1.529
				c0.053,0.476,0.127,0.795,0.221,0.957c0.147,0.253,0.437,0.417,0.867,0.493v-2.419l-0.459-0.137
				c-0.722-0.211-1.23-0.506-1.527-0.884c-0.296-0.377-0.444-0.832-0.444-1.365c0-0.351,0.058-0.67,0.173-0.957
				s0.277-0.534,0.484-0.742c0.268-0.269,0.566-0.453,0.895-0.555c0.201-0.064,0.494-0.112,0.879-0.143v-0.753h0.549v0.765
				c0.613,0.049,1.094,0.2,1.443,0.453c0.637,0.404,0.965,1.06,0.987,1.966h-1.489c-0.03-0.336-0.086-0.581-0.168-0.736
				c-0.143-0.269-0.4-0.415-0.773-0.441v2.158c0.896,0.31,1.497,0.583,1.805,0.821c0.508,0.396,0.762,0.955,0.762,1.677
				c0,0.952-0.35,1.643-1.048,2.073c-0.427,0.265-0.933,0.419-1.519,0.465V168.841z M115.702,160.519
				c-0.328,0.008-0.572,0.096-0.73,0.264c-0.159,0.168-0.238,0.397-0.238,0.688c0,0.317,0.119,0.568,0.357,0.753
				c0.131,0.103,0.336,0.196,0.611,0.283V160.519z M116.251,166.438c0.295-0.037,0.51-0.105,0.645-0.204
				c0.235-0.173,0.354-0.474,0.354-0.9c0-0.325-0.111-0.582-0.331-0.771c-0.13-0.109-0.353-0.223-0.667-0.34V166.438z"/>
			<path d="M121.872,161.255c0.441,1.02,0.662,2.047,0.662,3.082c0,1.137-0.263,2.293-0.787,3.467
				c-0.293,0.657-0.57,1.152-0.83,1.484l-0.402,0.55h-1.193c0.497-0.899,0.844-1.636,1.039-2.21c0.334-0.97,0.502-2.033,0.502-3.189
				c0-0.74-0.061-1.424-0.18-2.051c-0.186-0.955-0.514-1.869-0.988-2.741l-0.345-0.635h1.216
				C121.139,159.812,121.574,160.561,121.872,161.255z"/>
		</g>
	</g>
	<circle fill="#26A9E0" cx="81.699" cy="196.672" r="15.958"/>
	<g>
		<g>
			<path fill="#FFFFFF" d="M74.039,194.398v-1.528c0.708-0.031,1.202-0.079,1.485-0.142c0.451-0.1,0.817-0.3,1.101-0.599
				c0.193-0.205,0.341-0.479,0.44-0.819c0.057-0.205,0.086-0.357,0.086-0.457h1.875v11.424h-2.301v-7.879H74.039z"/>
			<path fill="#FFFFFF" d="M88.335,192.311c0.586,1.024,0.879,2.479,0.879,4.365s-0.293,3.338-0.879,4.356
				c-0.585,1.02-1.605,1.528-3.061,1.528s-2.475-0.509-3.061-1.528c-0.586-1.019-0.879-2.471-0.879-4.356s0.293-3.341,0.879-4.365
				s1.605-1.536,3.061-1.536S87.75,191.286,88.335,192.311z M83.951,199.689c0.216,0.695,0.656,1.044,1.323,1.044
				c0.668,0,1.104-0.349,1.312-1.044c0.207-0.696,0.311-1.701,0.311-3.014c0-1.376-0.104-2.396-0.311-3.058
				c-0.208-0.661-0.645-0.992-1.312-0.992c-0.667,0-1.107,0.331-1.323,0.992c-0.216,0.662-0.323,1.682-0.323,3.058
				C83.628,197.988,83.735,198.993,83.951,199.689z"/>
		</g>
	</g>
	<circle fill="#A6A8AB" cx="40.885" cy="196.672" r="15.958"/>
	<g>
		<g>
			<path fill="#FFFFFF" d="M39.337,199.221c0.089,0.488,0.26,0.865,0.511,1.13c0.251,0.266,0.618,0.398,1.101,0.398
				c0.555,0,0.979-0.195,1.27-0.587s0.436-0.884,0.436-1.478c0-0.583-0.136-1.075-0.408-1.478c-0.272-0.401-0.697-0.603-1.273-0.603
				c-0.272,0-0.508,0.034-0.707,0.103c-0.352,0.126-0.616,0.359-0.795,0.701l-2.012-0.095l0.801-6.311h6.286v1.906H39.88
				l-0.41,2.498c0.347-0.226,0.617-0.376,0.811-0.449c0.326-0.121,0.722-0.182,1.188-0.182c0.944,0,1.768,0.318,2.471,0.954
				c0.703,0.635,1.054,1.56,1.054,2.772c0,1.057-0.338,1.999-1.015,2.829s-1.69,1.245-3.038,1.245c-1.086,0-1.979-0.292-2.676-0.875
				c-0.698-0.583-1.087-1.41-1.166-2.481H39.337z"/>
		</g>
	</g>
	<circle fill="#A6A8AB" cx="122.523" cy="196.672" r="15.958"/>
	<g>
		<g>
			<path fill="#FFFFFF" d="M114.774,200.032c0.32-0.762,1.077-1.568,2.27-2.419c1.035-0.741,1.704-1.271,2.009-1.592
				c0.468-0.499,0.702-1.045,0.702-1.639c0-0.483-0.135-0.885-0.402-1.205s-0.651-0.481-1.15-0.481
				c-0.684,0-1.148,0.255-1.395,0.765c-0.143,0.294-0.227,0.762-0.252,1.402h-2.183c0.036-0.972,0.213-1.757,0.528-2.355
				c0.6-1.14,1.664-1.71,3.194-1.71c1.209,0,2.171,0.335,2.886,1.005c0.716,0.67,1.073,1.556,1.073,2.659
				c0,0.846-0.253,1.597-0.758,2.253c-0.331,0.437-0.876,0.922-1.634,1.458l-0.9,0.638c-0.562,0.399-0.948,0.688-1.155,0.867
				c-0.208,0.179-0.382,0.386-0.524,0.622h4.987v1.978h-7.823C114.269,201.458,114.444,200.709,114.774,200.032z"/>
			<path fill="#FFFFFF" d="M130.008,192.311c0.586,1.024,0.878,2.479,0.878,4.365s-0.292,3.338-0.878,4.356
				c-0.585,1.02-1.606,1.528-3.061,1.528c-1.455,0-2.476-0.509-3.062-1.528c-0.586-1.019-0.878-2.471-0.878-4.356
				s0.292-3.341,0.878-4.365s1.606-1.536,3.062-1.536C128.401,190.774,129.423,191.286,130.008,192.311z M125.624,199.689
				c0.215,0.695,0.656,1.044,1.323,1.044s1.104-0.349,1.312-1.044c0.207-0.696,0.312-1.701,0.312-3.014
				c0-1.376-0.104-2.396-0.312-3.058c-0.207-0.661-0.645-0.992-1.312-0.992s-1.108,0.331-1.323,0.992
				c-0.216,0.662-0.324,1.682-0.324,3.058C125.3,197.988,125.408,198.993,125.624,199.689z"/>
		</g>
	</g>
	<circle fill="#A6A8AB" cx="163.346" cy="196.672" r="15.958"/>
	<g>
		<g>
			<path fill="#FFFFFF" d="M157.198,198.771c0,0.457,0.074,0.835,0.221,1.135c0.271,0.551,0.768,0.827,1.484,0.827
				c0.441,0,0.824-0.151,1.152-0.453c0.327-0.302,0.491-0.737,0.491-1.304c0-0.752-0.304-1.253-0.911-1.505
				c-0.346-0.143-0.891-0.213-1.634-0.213v-1.607c0.728-0.011,1.235-0.081,1.523-0.213c0.497-0.221,0.745-0.667,0.745-1.339
				c0-0.437-0.127-0.791-0.381-1.064c-0.254-0.272-0.611-0.409-1.072-0.409c-0.529,0-0.918,0.168-1.167,0.504
				s-0.368,0.785-0.357,1.348h-2.096c0.021-0.567,0.118-1.105,0.291-1.615c0.184-0.446,0.472-0.858,0.866-1.237
				c0.293-0.268,0.643-0.473,1.047-0.614c0.403-0.142,0.899-0.213,1.486-0.213c1.092,0,1.973,0.282,2.641,0.847
				c0.67,0.565,1.004,1.323,1.004,2.273c0,0.673-0.199,1.239-0.599,1.702c-0.252,0.289-0.515,0.485-0.788,0.591
				c0.205,0,0.499,0.176,0.883,0.527c0.572,0.531,0.858,1.256,0.858,2.175c0,0.967-0.335,1.816-1.003,2.549
				c-0.67,0.732-1.66,1.099-2.972,1.099c-1.616,0-2.739-0.527-3.368-1.583c-0.331-0.562-0.516-1.298-0.552-2.206H157.198z"/>
			<path fill="#FFFFFF" d="M170.824,192.311c0.586,1.024,0.878,2.479,0.878,4.365s-0.292,3.338-0.878,4.356
				c-0.585,1.02-1.606,1.528-3.061,1.528c-1.455,0-2.476-0.509-3.062-1.528c-0.586-1.019-0.878-2.471-0.878-4.356
				s0.292-3.341,0.878-4.365s1.606-1.536,3.062-1.536C169.218,190.774,170.239,191.286,170.824,192.311z M166.44,199.689
				c0.215,0.695,0.656,1.044,1.323,1.044s1.104-0.349,1.312-1.044c0.207-0.696,0.312-1.701,0.312-3.014
				c0-1.376-0.104-2.396-0.312-3.058c-0.207-0.661-0.645-0.992-1.312-0.992s-1.108,0.331-1.323,0.992
				c-0.216,0.662-0.324,1.682-0.324,3.058C166.116,197.988,166.225,198.993,166.44,199.689z"/>
		</g>
	</g>
	<g>
		<g>
			<path d="M207.271,163.884c-0.488,0.408-1.187,0.611-2.094,0.611h-1.738v3.003h-1.734v-8.351h3.586
				c0.826,0,1.485,0.216,1.977,0.646c0.492,0.43,0.738,1.097,0.738,1.999C208.005,162.779,207.76,163.476,207.271,163.884z
				 M205.939,160.876c-0.222-0.186-0.53-0.278-0.929-0.278h-1.572v2.459h1.572c0.398,0,0.707-0.1,0.929-0.3
				c0.221-0.2,0.331-0.518,0.331-0.952S206.16,161.061,205.939,160.876z"/>
			<path d="M212.703,161.179c0.021,0.002,0.067,0.005,0.139,0.009v1.654c-0.102-0.012-0.192-0.02-0.272-0.023
				c-0.078-0.003-0.143-0.005-0.191-0.005c-0.65,0-1.086,0.211-1.309,0.634c-0.125,0.238-0.188,0.604-0.188,1.1v2.951h-1.626v-6.175
				h1.541v1.076c0.249-0.411,0.466-0.693,0.651-0.844c0.303-0.253,0.695-0.38,1.179-0.38
				C212.657,161.176,212.683,161.177,212.703,161.179z"/>
			<path d="M217.812,161.448c0.432,0.193,0.787,0.497,1.067,0.913c0.253,0.367,0.417,0.793,0.492,1.277
				c0.044,0.283,0.062,0.691,0.054,1.226h-4.498c0.025,0.619,0.24,1.054,0.646,1.303c0.246,0.154,0.543,0.232,0.89,0.232
				c0.368,0,0.667-0.095,0.896-0.283c0.125-0.103,0.235-0.244,0.332-0.426h1.648c-0.044,0.367-0.243,0.739-0.599,1.116
				c-0.553,0.601-1.327,0.901-2.322,0.901c-0.822,0-1.547-0.254-2.176-0.76c-0.629-0.507-0.942-1.331-0.942-2.473
				c0-1.069,0.284-1.89,0.851-2.461c0.567-0.57,1.303-0.855,2.209-0.855C216.897,161.159,217.382,161.255,217.812,161.448z
				 M215.396,162.843c-0.228,0.235-0.372,0.554-0.431,0.956h2.782c-0.029-0.429-0.173-0.754-0.431-0.976
				c-0.257-0.222-0.576-0.333-0.957-0.333C215.946,162.49,215.624,162.607,215.396,162.843z"/>
			<path d="M227.945,161.346c0.265,0.105,0.505,0.291,0.72,0.556c0.174,0.215,0.291,0.479,0.352,0.793
				c0.037,0.207,0.057,0.512,0.057,0.912l-0.012,3.892h-1.654v-3.932c0-0.234-0.038-0.427-0.113-0.578
				c-0.144-0.286-0.408-0.431-0.793-0.431c-0.445,0-0.754,0.186-0.924,0.556c-0.087,0.196-0.131,0.433-0.131,0.708v3.677h-1.625
				v-3.677c0-0.366-0.038-0.633-0.113-0.799c-0.137-0.298-0.402-0.447-0.799-0.447c-0.461,0-0.771,0.149-0.93,0.447
				c-0.086,0.17-0.13,0.423-0.13,0.76v3.716h-1.638v-6.164h1.57v0.901c0.199-0.321,0.389-0.55,0.566-0.686
				c0.312-0.242,0.719-0.362,1.218-0.362c0.472,0,0.853,0.104,1.144,0.312c0.234,0.192,0.412,0.439,0.533,0.742
				c0.211-0.363,0.474-0.629,0.787-0.799c0.332-0.17,0.703-0.255,1.11-0.255C227.413,161.188,227.681,161.24,227.945,161.346z"/>
			<path d="M232.216,160.587h-1.637v-1.49h1.637V160.587z M230.579,161.323h1.637v6.175h-1.637V161.323z"/>
			<path d="M235.39,161.323v3.722c0,0.352,0.041,0.616,0.123,0.793c0.146,0.313,0.435,0.471,0.863,0.471
				c0.549,0,0.924-0.223,1.127-0.669c0.105-0.241,0.158-0.561,0.158-0.957v-3.359h1.637v6.175h-1.568v-0.872
				c-0.016,0.019-0.053,0.075-0.113,0.17c-0.061,0.094-0.133,0.177-0.215,0.249c-0.252,0.227-0.496,0.382-0.731,0.465
				s-0.512,0.124-0.827,0.124c-0.912,0-1.525-0.328-1.842-0.985c-0.178-0.362-0.266-0.897-0.266-1.604v-3.722H235.39z"/>
			<path d="M248.571,161.346c0.265,0.105,0.505,0.291,0.72,0.556c0.174,0.215,0.291,0.479,0.352,0.793
				c0.038,0.207,0.057,0.512,0.057,0.912l-0.011,3.892h-1.654v-3.932c0-0.234-0.039-0.427-0.113-0.578
				c-0.145-0.286-0.408-0.431-0.794-0.431c-0.445,0-0.753,0.186-0.923,0.556c-0.088,0.196-0.131,0.433-0.131,0.708v3.677h-1.625
				v-3.677c0-0.366-0.039-0.633-0.113-0.799c-0.137-0.298-0.402-0.447-0.799-0.447c-0.461,0-0.771,0.149-0.93,0.447
				c-0.087,0.17-0.131,0.423-0.131,0.76v3.716h-1.637v-6.164h1.569v0.901c0.2-0.321,0.389-0.55,0.566-0.686
				c0.313-0.242,0.72-0.362,1.218-0.362c0.473,0,0.854,0.104,1.145,0.312c0.234,0.192,0.412,0.439,0.533,0.742
				c0.211-0.363,0.473-0.629,0.787-0.799c0.332-0.17,0.702-0.255,1.109-0.255C248.039,161.188,248.308,161.24,248.571,161.346z"/>
			<path d="M260.144,163.884c-0.489,0.408-1.188,0.611-2.095,0.611h-1.739v3.003h-1.732v-8.351h3.585
				c0.827,0,1.485,0.216,1.978,0.646c0.49,0.43,0.736,1.097,0.736,1.999C260.876,162.779,260.632,163.476,260.144,163.884z
				 M258.812,160.876c-0.221-0.186-0.531-0.278-0.929-0.278h-1.573v2.459h1.573c0.397,0,0.708-0.1,0.929-0.3
				s0.331-0.518,0.331-0.952S259.032,161.061,258.812,160.876z"/>
			<path d="M265.575,161.179c0.021,0.002,0.067,0.005,0.139,0.009v1.654c-0.102-0.012-0.191-0.02-0.271-0.023
				c-0.079-0.003-0.144-0.005-0.192-0.005c-0.649,0-1.086,0.211-1.309,0.634c-0.124,0.238-0.187,0.604-0.187,1.1v2.951h-1.627
				v-6.175h1.541v1.076c0.25-0.411,0.467-0.693,0.652-0.844c0.302-0.253,0.694-0.38,1.178-0.38
				C265.529,161.176,265.556,161.177,265.575,161.179z"/>
			<path d="M268.32,160.587h-1.638v-1.49h1.638V160.587z M266.683,161.323h1.638v6.175h-1.638V161.323z"/>
			<path d="M273.577,163.538c-0.029-0.23-0.107-0.438-0.232-0.623c-0.182-0.249-0.464-0.374-0.846-0.374
				c-0.546,0-0.918,0.271-1.119,0.811c-0.105,0.286-0.159,0.666-0.159,1.141c0,0.452,0.054,0.816,0.159,1.091
				c0.193,0.514,0.557,0.771,1.09,0.771c0.379,0,0.648-0.102,0.807-0.306c0.159-0.204,0.256-0.469,0.289-0.793h1.649
				c-0.038,0.491-0.216,0.955-0.533,1.394c-0.507,0.706-1.257,1.06-2.251,1.06s-1.727-0.295-2.195-0.884
				c-0.469-0.59-0.703-1.354-0.703-2.292c0-1.06,0.26-1.884,0.777-2.473s1.232-0.884,2.144-0.884c0.774,0,1.409,0.174,1.902,0.521
				s0.785,0.961,0.876,1.841H273.577z"/>
			<path d="M280.36,161.448c0.431,0.193,0.787,0.497,1.066,0.913c0.254,0.367,0.418,0.793,0.492,1.277
				c0.044,0.283,0.062,0.691,0.054,1.226h-4.497c0.024,0.619,0.24,1.054,0.646,1.303c0.247,0.154,0.543,0.232,0.89,0.232
				c0.368,0,0.667-0.095,0.896-0.283c0.125-0.103,0.236-0.244,0.332-0.426h1.648c-0.043,0.367-0.242,0.739-0.598,1.116
				c-0.554,0.601-1.328,0.901-2.323,0.901c-0.821,0-1.547-0.254-2.175-0.76c-0.629-0.507-0.943-1.331-0.943-2.473
				c0-1.069,0.284-1.89,0.852-2.461c0.566-0.57,1.303-0.855,2.208-0.855C279.445,161.159,279.93,161.255,280.36,161.448z
				 M277.944,162.843c-0.228,0.235-0.371,0.554-0.43,0.956h2.781c-0.029-0.429-0.172-0.754-0.43-0.976s-0.576-0.333-0.957-0.333
				C278.494,162.49,278.173,162.607,277.944,162.843z"/>
			<path d="M284.041,165.526c0.034,0.287,0.108,0.491,0.222,0.612c0.201,0.215,0.573,0.322,1.116,0.322
				c0.318,0,0.571-0.047,0.76-0.142c0.188-0.094,0.282-0.235,0.282-0.425c0-0.181-0.076-0.318-0.228-0.413s-0.714-0.257-1.688-0.487
				c-0.702-0.174-1.197-0.391-1.483-0.651c-0.287-0.257-0.431-0.627-0.431-1.11c0-0.57,0.225-1.061,0.673-1.471
				c0.448-0.409,1.079-0.614,1.894-0.614c0.771,0,1.4,0.154,1.887,0.462s0.766,0.839,0.838,1.595h-1.614
				c-0.022-0.208-0.081-0.372-0.177-0.493c-0.178-0.219-0.48-0.328-0.908-0.328c-0.353,0-0.604,0.055-0.753,0.164
				s-0.224,0.238-0.224,0.385c0,0.186,0.078,0.319,0.238,0.402c0.158,0.087,0.721,0.236,1.686,0.448
				c0.643,0.15,1.125,0.379,1.446,0.685c0.317,0.311,0.476,0.697,0.476,1.162c0,0.611-0.229,1.111-0.684,1.498
				c-0.457,0.387-1.161,0.581-2.115,0.581c-0.973,0-1.689-0.205-2.154-0.615c-0.463-0.409-0.695-0.932-0.695-1.566H284.041z"/>
		</g>
	</g>
	<path fill="#929497" d="M226.653,181.848c8.176,0,14.828,6.65,14.828,14.825c0,8.175-6.652,14.826-14.828,14.826h-9.916
		c-8.175,0-14.825-6.651-14.825-14.826c0-8.175,6.65-14.825,14.825-14.825H226.653 M226.653,180.716h-9.916
		c-8.813,0-15.957,7.145-15.957,15.957c0,8.813,7.144,15.958,15.957,15.958h9.916c8.814,0,15.96-7.145,15.96-15.958
		C242.613,187.86,235.468,180.716,226.653,180.716L226.653,180.716z"/>
	<g>
		<g>
			<path fill="#929497" d="M210.12,194.399v-1.528c0.707-0.031,1.202-0.079,1.484-0.142c0.451-0.1,0.818-0.3,1.102-0.599
				c0.193-0.205,0.34-0.479,0.439-0.819c0.058-0.205,0.086-0.357,0.086-0.457h1.875v11.424h-2.3v-7.879H210.12z"/>
			<path fill="#929497" d="M224.416,192.312c0.586,1.024,0.878,2.479,0.878,4.365s-0.292,3.338-0.878,4.356
				c-0.585,1.02-1.606,1.528-3.061,1.528c-1.455,0-2.476-0.509-3.062-1.528c-0.586-1.019-0.878-2.471-0.878-4.356
				s0.292-3.341,0.878-4.365s1.606-1.536,3.062-1.536C222.81,190.775,223.831,191.287,224.416,192.312z M220.032,199.69
				c0.215,0.695,0.656,1.044,1.323,1.044s1.104-0.349,1.312-1.044c0.207-0.696,0.312-1.701,0.312-3.014
				c0-1.376-0.104-2.396-0.312-3.058c-0.207-0.661-0.645-0.992-1.312-0.992s-1.108,0.331-1.323,0.992
				c-0.216,0.662-0.324,1.682-0.324,3.058C219.708,197.989,219.816,198.994,220.032,199.69z"/>
			<path fill="#929497" d="M233.306,192.312c0.586,1.024,0.879,2.479,0.879,4.365s-0.293,3.338-0.879,4.356
				c-0.585,1.02-1.605,1.528-3.061,1.528s-2.475-0.509-3.061-1.528c-0.586-1.019-0.879-2.471-0.879-4.356s0.293-3.341,0.879-4.365
				s1.605-1.536,3.061-1.536S232.721,191.287,233.306,192.312z M228.922,199.69c0.216,0.695,0.656,1.044,1.323,1.044
				c0.668,0,1.104-0.349,1.312-1.044c0.207-0.696,0.311-1.701,0.311-3.014c0-1.376-0.104-2.396-0.311-3.058
				c-0.208-0.661-0.645-0.992-1.312-0.992c-0.667,0-1.107,0.331-1.323,0.992c-0.216,0.662-0.323,1.682-0.323,3.058
				C228.599,197.989,228.706,198.994,228.922,199.69z"/>
		</g>
	</g>
	<path fill="#929497" d="M277.394,181.848c8.176,0,14.827,6.65,14.827,14.825c0,8.175-6.651,14.826-14.827,14.826h-9.917
		c-8.174,0-14.824-6.651-14.824-14.826c0-8.175,6.65-14.825,14.824-14.825H277.394 M277.394,180.716h-9.917
		c-8.813,0-15.956,7.145-15.956,15.957c0,8.813,7.143,15.958,15.956,15.958h9.917c8.814,0,15.959-7.145,15.959-15.958
		C293.353,187.86,286.208,180.716,277.394,180.716L277.394,180.716z"/>
	<g>
		<path fill="#929497" d="M262.023,199.222c0.089,0.488,0.259,0.865,0.511,1.13c0.252,0.266,0.619,0.398,1.101,0.398
			c0.556,0,0.979-0.195,1.27-0.587c0.29-0.392,0.437-0.884,0.437-1.478c0-0.583-0.137-1.075-0.409-1.478
			c-0.272-0.401-0.697-0.603-1.273-0.603c-0.272,0-0.509,0.034-0.708,0.103c-0.351,0.126-0.615,0.359-0.793,0.701l-2.014-0.095
			l0.803-6.311h6.285v1.906h-4.666l-0.408,2.498c0.346-0.226,0.616-0.376,0.811-0.449c0.324-0.121,0.721-0.182,1.188-0.182
			c0.944,0,1.768,0.318,2.471,0.954c0.703,0.635,1.055,1.56,1.055,2.772c0,1.057-0.339,1.999-1.016,2.829
			c-0.678,0.83-1.689,1.245-3.038,1.245c-1.087,0-1.979-0.292-2.677-0.875c-0.697-0.583-1.086-1.41-1.164-2.481H262.023z"/>
		<path fill="#929497" d="M275.54,192.312c0.586,1.024,0.879,2.479,0.879,4.365s-0.293,3.338-0.879,4.356
			c-0.586,1.02-1.605,1.528-3.061,1.528s-2.476-0.509-3.061-1.528c-0.586-1.019-0.879-2.471-0.879-4.356s0.293-3.341,0.879-4.365
			c0.585-1.024,1.605-1.536,3.061-1.536S274.954,191.287,275.54,192.312z M271.155,199.69c0.216,0.695,0.656,1.044,1.324,1.044
			c0.667,0,1.104-0.349,1.312-1.044c0.208-0.696,0.312-1.701,0.312-3.014c0-1.376-0.104-2.396-0.312-3.058
			c-0.208-0.661-0.645-0.992-1.312-0.992c-0.668,0-1.108,0.331-1.324,0.992c-0.215,0.662-0.322,1.682-0.322,3.058
			C270.833,197.989,270.94,198.994,271.155,199.69z"/>
		<path fill="#929497" d="M284.431,192.312c0.586,1.024,0.878,2.479,0.878,4.365s-0.292,3.338-0.878,4.356
			c-0.586,1.02-1.606,1.528-3.061,1.528c-1.455,0-2.477-0.509-3.062-1.528c-0.586-1.019-0.878-2.471-0.878-4.356
			s0.292-3.341,0.878-4.365c0.585-1.024,1.606-1.536,3.062-1.536C282.824,190.775,283.845,191.287,284.431,192.312z M280.046,199.69
			c0.215,0.695,0.656,1.044,1.324,1.044c0.666,0,1.104-0.349,1.311-1.044c0.208-0.696,0.312-1.701,0.312-3.014
			c0-1.376-0.104-2.396-0.312-3.058c-0.207-0.661-0.645-0.992-1.311-0.992c-0.668,0-1.109,0.331-1.324,0.992
			c-0.215,0.662-0.323,1.682-0.323,3.058C279.723,197.989,279.831,198.994,280.046,199.69z"/>
	</g>
	<path fill="#929497" d="M336.112,181.848c8.177,0,14.829,6.65,14.829,14.825c0,8.175-6.652,14.826-14.829,14.826h-17.896
		c-8.174,0-14.824-6.651-14.824-14.826c0-8.175,6.65-14.825,14.824-14.825H336.112 M336.112,180.716h-17.896
		c-8.812,0-15.956,7.145-15.956,15.957c0,8.813,7.144,15.958,15.956,15.958h17.896c8.812,0,15.961-7.145,15.961-15.958
		C352.073,187.86,344.925,180.716,336.112,180.716L336.112,180.716z"/>
	<g>
		<path fill="#929497" d="M311.14,194.399v-1.528c0.708-0.031,1.203-0.079,1.486-0.142c0.45-0.1,0.816-0.3,1.1-0.599
			c0.193-0.205,0.341-0.479,0.44-0.819c0.058-0.205,0.087-0.357,0.087-0.457h1.875v11.424h-2.301v-7.879H311.14z"/>
		<path fill="#929497" d="M325.437,192.312c0.586,1.024,0.879,2.479,0.879,4.365s-0.293,3.338-0.879,4.356
			c-0.586,1.02-1.605,1.528-3.061,1.528s-2.476-0.509-3.061-1.528c-0.586-1.019-0.879-2.471-0.879-4.356s0.293-3.341,0.879-4.365
			c0.585-1.024,1.605-1.536,3.061-1.536S324.851,191.287,325.437,192.312z M321.052,199.69c0.216,0.695,0.656,1.044,1.324,1.044
			c0.667,0,1.104-0.349,1.312-1.044c0.208-0.696,0.312-1.701,0.312-3.014c0-1.376-0.104-2.396-0.312-3.058
			c-0.208-0.661-0.645-0.992-1.312-0.992c-0.668,0-1.108,0.331-1.324,0.992c-0.215,0.662-0.322,1.682-0.322,3.058
			C320.729,197.989,320.837,198.994,321.052,199.69z"/>
		<path fill="#929497" d="M334.327,192.312c0.586,1.024,0.878,2.479,0.878,4.365s-0.292,3.338-0.878,4.356
			c-0.586,1.02-1.606,1.528-3.061,1.528c-1.455,0-2.477-0.509-3.062-1.528c-0.586-1.019-0.878-2.471-0.878-4.356
			s0.292-3.341,0.878-4.365c0.585-1.024,1.606-1.536,3.062-1.536C332.721,190.775,333.741,191.287,334.327,192.312z M329.942,199.69
			c0.215,0.695,0.656,1.044,1.324,1.044c0.666,0,1.104-0.349,1.311-1.044c0.208-0.696,0.312-1.701,0.312-3.014
			c0-1.376-0.104-2.396-0.312-3.058c-0.207-0.661-0.645-0.992-1.311-0.992c-0.668,0-1.109,0.331-1.324,0.992
			c-0.215,0.662-0.323,1.682-0.323,3.058C329.619,197.989,329.728,198.994,329.942,199.69z"/>
		<path fill="#929497" d="M343.216,192.312c0.586,1.024,0.879,2.479,0.879,4.365s-0.293,3.338-0.879,4.356
			c-0.585,1.02-1.605,1.528-3.061,1.528s-2.475-0.509-3.061-1.528c-0.586-1.019-0.879-2.471-0.879-4.356s0.293-3.341,0.879-4.365
			s1.605-1.536,3.061-1.536S342.631,191.287,343.216,192.312z M338.832,199.69c0.216,0.695,0.656,1.044,1.323,1.044
			c0.668,0,1.104-0.349,1.312-1.044c0.207-0.696,0.311-1.701,0.311-3.014c0-1.376-0.104-2.396-0.311-3.058
			c-0.208-0.661-0.645-0.992-1.312-0.992c-0.667,0-1.107,0.331-1.323,0.992c-0.216,0.662-0.323,1.682-0.323,3.058
			C338.509,197.989,338.616,198.994,338.832,199.69z"/>
	</g>
	<g>
		<polygon fill="#FFFFFF" points="89.825,217.294 89.825,220.247 88.349,220.247 88.349,215.815 86.87,215.815 86.87,218.769 
			85.394,218.769 85.394,214.339 83.916,214.339 83.916,218.769 82.439,218.769 82.439,208.429 79.483,208.429 79.483,223.2 
			78.006,223.2 78.006,220.247 76.529,220.247 76.529,218.769 75.052,218.769 75.052,217.294 72.099,217.294 72.099,220.247 
			73.575,220.247 73.575,221.724 75.052,221.724 75.052,224.681 76.529,224.681 76.529,226.157 78.006,226.157 78.006,227.634 
			79.483,227.634 79.483,230.589 88.349,230.589 88.349,227.634 89.825,227.634 89.825,224.681 91.301,224.681 91.301,217.294 		"/>
		<path fill="#000100" d="M70.621,220.247h1.478v-2.953h-1.478V220.247z M72.099,215.815v1.479h2.953v-1.479H72.099z
			 M75.052,217.294v1.475h1.478v-1.475H75.052z M78.006,218.769h-1.477v1.479h1.477v2.953h1.478v-14.771h-1.478V218.769z
			 M79.483,206.952v1.477h2.956v-1.477H79.483z M73.575,221.724v-1.477h-1.477v1.477H73.575z M75.052,224.681v-2.957h-1.477v2.957
			H75.052z M76.529,226.157v-1.477h-1.478v1.477H76.529z M78.006,227.634v-1.477h-1.477v1.477H78.006z M79.483,230.589v-2.955
			h-1.478v2.955H79.483z M89.825,215.815v-1.477H86.87v-1.479h-2.954v-4.432h-1.477v10.34h1.477v-4.43h1.478v4.43h1.477v-2.953
			h1.479v4.432h1.477v-2.953h1.476v7.387h1.478v-8.865H89.825z M89.825,227.634h1.476v-2.953h-1.476V227.634z M88.349,230.589h1.477
			v-2.955h-1.477V230.589z"/>
	</g>
</g>
</svg>
