<?xml version="1.0" encoding="utf-8"?>
<!-- Generator: Adobe Illustrator 16.0.5, SVG Export Plug-In . SVG Version: 6.00 Build 0)  -->
<!DOCTYPE svg PUBLIC "-//W3C//DTD SVG 1.1//EN" "http://www.w3.org/Graphics/SVG/1.1/DTD/svg11.dtd">
<svg version="1.1" id="Layer_1" xmlns="http://www.w3.org/2000/svg" xmlns:xlink="http://www.w3.org/1999/xlink" x="0px" y="0px"
	 width="150px" height="150px" viewBox="0 0 150 150" enable-background="new 0 0 150 150" xml:space="preserve">
<g>
	<path fill="#26A9E0" d="M75.005,124.916h-0.009c-1.062,0-2.112-0.354-3.035-1.022c-6.375-4.616-28.122-20.62-40.203-32.692
		c-10.877-10.876-15.447-24.28-12.539-36.78c2.466-10.593,10.076-19.005,20.358-22.501c3.303-1.123,6.663-1.693,9.987-1.693
		c12.654,0,21.797,8.037,25.437,11.871c3.636-3.834,12.779-11.871,25.434-11.871c3.323,0,6.685,0.57,9.986,1.693
		c10.282,3.496,17.895,11.908,20.359,22.502c2.91,12.499-1.66,25.903-12.54,36.779c-12.066,12.061-33.824,28.073-40.204,32.692
		C77.114,124.562,76.066,124.916,75.005,124.916z M49.564,34.585c-2.845,0-5.732,0.491-8.583,1.461
		c-8.847,3.009-15.395,10.248-17.517,19.364c-2.561,11,1.586,22.921,11.375,32.708c11.853,11.844,33.369,27.675,39.681,32.246
		c0.177,0.128,0.336,0.191,0.476,0.191h0.009c0.138,0,0.298-0.063,0.474-0.191c6.316-4.574,27.84-20.413,39.681-32.246
		c9.789-9.787,13.936-21.708,11.376-32.708c-2.121-9.116-8.67-16.355-17.517-19.364c-2.851-0.97-5.739-1.461-8.584-1.461
		c-14.085,0-23.618,12.028-23.713,12.149l-1.725,2.215l-1.72-2.217C73.186,46.613,63.649,34.585,49.564,34.585z"/>
	<path fill="#26A9E0" d="M100.06,38.962c-12.868,0-23.303,10.432-23.303,23.301c0,12.867,10.435,23.299,23.303,23.299
		s23.299-10.432,23.299-23.299C123.358,49.394,112.928,38.962,100.06,38.962z M109.767,45.475c4.567,2.645,7.86,7.031,9.125,12.155
		l-9.125,5.477V45.475z M100.06,42.846c1.975,0.001,3.938,0.304,5.824,0.893v10.466l-15.533-8.737
		C93.296,43.744,96.647,42.84,100.06,42.846z M105.884,58.67v6.796l-5.536,3.32l-6.112-3.738v-6.087l6.037-3.495L105.884,58.67z
		 M86.962,47.969l9.376,5.303l-15.695,8.991C80.643,56.819,82.936,51.631,86.962,47.969z M90.351,79.048
		c-4.698-2.716-8.045-7.274-9.234-12.572h0.022l9.212-5.292V79.048z M100.06,81.679c-1.975-0.002-3.938-0.304-5.824-0.895V69.591
		l15.531,9.437C106.825,80.759,103.473,81.673,100.06,81.679z M113.175,76.533l-9.079-5.534l15.38-9.176v0.439
		C119.476,67.692,117.189,72.875,113.175,76.533z"/>
</g>
</svg>
