<?xml version="1.0" encoding="utf-8"?>
<!-- Generator: Adobe Illustrator 16.0.5, SVG Export Plug-In . SVG Version: 6.00 Build 0)  -->
<!DOCTYPE svg PUBLIC "-//W3C//DTD SVG 1.1//EN" "http://www.w3.org/Graphics/SVG/1.1/DTD/svg11.dtd">
<svg version="1.1" id="Layer_1" xmlns="http://www.w3.org/2000/svg" xmlns:xlink="http://www.w3.org/1999/xlink" x="0px" y="0px"
	 width="441px" height="291.358px" viewBox="0 0 441 291.358" enable-background="new 0 0 441 291.358" xml:space="preserve">
<g>
	<g>
		<g>
			<path fill="#29ABE2" d="M277.68,51.771c0.965,1.02,1.447,2.518,1.447,4.492c0,2.084-0.473,3.672-1.415,4.764
				c-0.942,1.093-2.157,1.639-3.643,1.639c-0.946,0-1.733-0.235-2.358-0.705c-0.343-0.261-0.678-0.641-1.006-1.14v6.164h-3.06
				V50.502h2.962v1.747c0.336-0.514,0.691-0.919,1.07-1.216c0.691-0.527,1.515-0.792,2.469-0.792
				C275.537,50.241,276.715,50.751,277.68,51.771z M275.306,53.996c-0.421-0.702-1.103-1.053-2.044-1.053
				c-1.134,0-1.912,0.531-2.336,1.595c-0.219,0.564-0.328,1.281-0.328,2.149c0,1.374,0.368,2.34,1.105,2.896
				c0.439,0.326,0.957,0.488,1.557,0.488c0.871,0,1.533-0.332,1.99-0.998c0.457-0.665,0.686-1.552,0.686-2.658
				C275.936,55.504,275.726,54.697,275.306,53.996z"/>
			<path fill="#29ABE2" d="M284.486,49.091h-3.135v-2.854h3.135V49.091z M281.352,50.502h3.135V62.33h-3.135V50.502z"/>
			<path fill="#29ABE2" d="M294.557,54.745c-0.058-0.441-0.207-0.84-0.445-1.194c-0.349-0.478-0.889-0.716-1.621-0.716
				c-1.045,0-1.759,0.518-2.143,1.552c-0.203,0.549-0.305,1.277-0.305,2.187c0,0.866,0.102,1.562,0.305,2.089
				c0.369,0.983,1.065,1.476,2.088,1.476c0.726,0,1.24-0.195,1.545-0.586s0.489-0.896,0.555-1.52h3.158
				c-0.072,0.941-0.413,1.831-1.021,2.67c-0.971,1.353-2.408,2.029-4.312,2.029s-3.306-0.564-4.203-1.693
				c-0.898-1.128-1.348-2.592-1.348-4.39c0-2.028,0.496-3.607,1.488-4.736c0.992-1.128,2.361-1.692,4.106-1.692
				c1.484,0,2.698,0.333,3.644,0.998c0.945,0.666,1.505,1.842,1.679,3.527H294.557z"/>
			<path fill="#29ABE2" d="M299.809,46.389h3.039v8.629l3.9-4.462h3.846l-4.239,4.407l4.403,7.367h-3.764l-2.865-5.054l-1.281,1.331
				v3.723h-3.039V46.389z"/>
			<path fill="#29ABE2" d="M323.061,55.136c0.576-0.072,0.987-0.163,1.235-0.271c0.444-0.188,0.667-0.481,0.667-0.879
				c0-0.484-0.171-0.819-0.512-1.004s-0.842-0.276-1.502-0.276c-0.74,0-1.265,0.181-1.572,0.542
				c-0.221,0.268-0.367,0.63-0.439,1.085h-2.984c0.064-1.034,0.355-1.884,0.871-2.55c0.821-1.042,2.23-1.562,4.229-1.562
				c1.301,0,2.456,0.257,3.467,0.771c1.01,0.514,1.514,1.483,1.514,2.908v5.426c0,0.376,0.008,0.832,0.021,1.367
				c0.022,0.405,0.084,0.68,0.186,0.824c0.101,0.146,0.253,0.265,0.455,0.358v0.456h-3.363c-0.095-0.239-0.16-0.463-0.195-0.673
				c-0.037-0.21-0.065-0.448-0.088-0.717c-0.429,0.464-0.924,0.857-1.484,1.184c-0.669,0.383-1.426,0.575-2.27,0.575
				c-1.077,0-1.967-0.306-2.669-0.917s-1.054-1.478-1.054-2.6c0-1.454,0.565-2.507,1.695-3.157c0.619-0.354,1.53-0.607,2.732-0.76
				L323.061,55.136z M324.951,56.578c-0.197,0.124-0.397,0.223-0.6,0.299c-0.201,0.076-0.479,0.146-0.83,0.212l-0.703,0.13
				c-0.66,0.116-1.135,0.257-1.422,0.423c-0.487,0.282-0.73,0.721-0.73,1.313c0,0.528,0.148,0.91,0.445,1.145
				c0.298,0.235,0.66,0.353,1.086,0.353c0.676,0,1.298-0.195,1.867-0.586c0.57-0.391,0.865-1.103,0.887-2.138V56.578z"/>
			<path fill="#29ABE2" d="M346.857,51.771c0.965,1.02,1.447,2.518,1.447,4.492c0,2.084-0.473,3.672-1.415,4.764
				c-0.942,1.093-2.157,1.639-3.643,1.639c-0.946,0-1.733-0.235-2.358-0.705c-0.343-0.261-0.678-0.641-1.006-1.14v6.164h-3.06
				V50.502h2.962v1.747c0.336-0.514,0.691-0.919,1.07-1.216c0.691-0.527,1.515-0.792,2.469-0.792
				C344.715,50.241,345.893,50.751,346.857,51.771z M344.483,53.996c-0.421-0.702-1.103-1.053-2.044-1.053
				c-1.134,0-1.912,0.531-2.336,1.595c-0.219,0.564-0.328,1.281-0.328,2.149c0,1.374,0.368,2.34,1.105,2.896
				c0.439,0.326,0.957,0.488,1.557,0.488c0.871,0,1.533-0.332,1.99-0.998c0.457-0.665,0.686-1.552,0.686-2.658
				C345.113,55.504,344.903,54.697,344.483,53.996z"/>
			<path fill="#29ABE2" d="M357.056,50.225c0.04,0.004,0.128,0.01,0.267,0.017v3.169c-0.195-0.021-0.369-0.036-0.521-0.044
				c-0.152-0.007-0.275-0.011-0.369-0.011c-1.244,0-2.08,0.405-2.506,1.216c-0.239,0.455-0.359,1.157-0.359,2.104v5.654h-3.113
				V50.502h2.951v2.062c0.478-0.788,0.894-1.327,1.248-1.617c0.578-0.484,1.331-0.727,2.257-0.727
				C356.967,50.22,357.016,50.222,357.056,50.225z"/>
			<path fill="#29ABE2" d="M362.312,49.091h-3.135v-2.854h3.135V49.091z M359.178,50.502h3.135V62.33h-3.135V50.502z"/>
			<path fill="#29ABE2" d="M372.383,54.745c-0.058-0.441-0.207-0.84-0.445-1.194c-0.349-0.478-0.889-0.716-1.621-0.716
				c-1.045,0-1.759,0.518-2.143,1.552c-0.203,0.549-0.305,1.277-0.305,2.187c0,0.866,0.102,1.562,0.305,2.089
				c0.369,0.983,1.065,1.476,2.088,1.476c0.726,0,1.24-0.195,1.545-0.586s0.489-0.896,0.555-1.52h3.158
				c-0.072,0.941-0.413,1.831-1.021,2.67c-0.971,1.353-2.408,2.029-4.312,2.029s-3.306-0.564-4.203-1.693
				c-0.898-1.128-1.348-2.592-1.348-4.39c0-2.028,0.496-3.607,1.488-4.736c0.992-1.128,2.361-1.692,4.106-1.692
				c1.484,0,2.698,0.333,3.644,0.998c0.945,0.666,1.505,1.842,1.679,3.527H372.383z"/>
			<path fill="#29ABE2" d="M385.375,50.741c0.826,0.37,1.507,0.953,2.045,1.75c0.484,0.703,0.798,1.518,0.941,2.445
				c0.084,0.543,0.117,1.326,0.103,2.348h-8.614c0.047,1.187,0.459,2.019,1.236,2.495c0.473,0.297,1.041,0.445,1.705,0.445
				c0.705,0,1.277-0.181,1.717-0.543c0.24-0.195,0.453-0.466,0.637-0.813h3.158c-0.084,0.702-0.466,1.414-1.146,2.138
				c-1.061,1.15-2.543,1.726-4.451,1.726c-1.573,0-2.963-0.485-4.166-1.455c-1.203-0.971-1.805-2.549-1.805-4.735
				c0-2.049,0.543-3.62,1.63-4.714c1.086-1.093,2.496-1.64,4.229-1.64C383.623,50.188,384.551,50.372,385.375,50.741z
				 M380.749,53.413c-0.438,0.45-0.712,1.061-0.824,1.831h5.328c-0.056-0.821-0.331-1.444-0.823-1.869
				c-0.494-0.425-1.105-0.638-1.835-0.638C381.801,52.737,381.186,52.963,380.749,53.413z"/>
		</g>
	</g>
	<g>
		<g>
			<path fill="#FFFFFF" d="M271.41,89.895c-0.385,0.322-0.937,0.483-1.652,0.483h-1.372v2.369h-1.368v-6.59h2.83
				c0.652,0,1.172,0.17,1.56,0.51s0.582,0.866,0.582,1.578C271.989,89.023,271.797,89.573,271.41,89.895z M270.359,87.521
				c-0.174-0.146-0.418-0.219-0.732-0.219h-1.241v1.94h1.241c0.314,0,0.559-0.079,0.732-0.237c0.174-0.157,0.262-0.408,0.262-0.751
				S270.533,87.667,270.359,87.521z"/>
			<path fill="#FFFFFF" d="M276.492,87.901c0.245,0.104,0.446,0.264,0.604,0.479c0.134,0.182,0.215,0.369,0.245,0.562
				c0.029,0.192,0.044,0.507,0.044,0.941v2.864h-1.301v-2.968c0-0.262-0.044-0.474-0.133-0.635
				c-0.115-0.228-0.334-0.341-0.656-0.341c-0.335,0-0.588,0.113-0.762,0.338c-0.173,0.226-0.26,0.547-0.26,0.965v2.641H273V86.18
				h1.273v2.325c0.184-0.283,0.396-0.481,0.639-0.593s0.496-0.168,0.764-0.168C275.976,87.744,276.248,87.797,276.492,87.901z"/>
			<path fill="#FFFFFF" d="M282.646,92.151c-0.41,0.507-1.035,0.761-1.873,0.761c-0.837,0-1.461-0.254-1.873-0.761
				c-0.411-0.508-0.617-1.119-0.617-1.834c0-0.703,0.206-1.312,0.617-1.827c0.412-0.515,1.036-0.772,1.873-0.772
				c0.838,0,1.463,0.258,1.873,0.772c0.412,0.516,0.617,1.124,0.617,1.827C283.264,91.032,283.059,91.644,282.646,92.151z
				 M281.628,91.446c0.2-0.265,0.3-0.641,0.3-1.129s-0.1-0.864-0.3-1.127c-0.2-0.264-0.485-0.396-0.858-0.396
				s-0.66,0.132-0.861,0.396c-0.201,0.263-0.301,0.639-0.301,1.127s0.1,0.864,0.301,1.129c0.201,0.266,0.488,0.397,0.861,0.397
				S281.428,91.712,281.628,91.446z"/>
			<path fill="#FFFFFF" d="M283.676,88.826v-0.907h0.68V86.56h1.26v1.359h0.792v0.907h-0.792v2.575c0,0.2,0.025,0.324,0.076,0.373
				c0.051,0.05,0.206,0.074,0.465,0.074c0.039,0,0.08-0.001,0.123-0.002c0.043-0.002,0.086-0.004,0.128-0.007v0.952l-0.604,0.022
				c-0.602,0.021-1.013-0.084-1.233-0.313c-0.144-0.146-0.214-0.371-0.214-0.675v-3H283.676z"/>
			<path fill="#FFFFFF" d="M291.289,92.151c-0.412,0.507-1.036,0.761-1.873,0.761c-0.838,0-1.463-0.254-1.873-0.761
				c-0.412-0.508-0.617-1.119-0.617-1.834c0-0.703,0.205-1.312,0.617-1.827c0.41-0.515,1.035-0.772,1.873-0.772
				c0.837,0,1.461,0.258,1.873,0.772c0.411,0.516,0.617,1.124,0.617,1.827C291.906,91.032,291.7,91.644,291.289,92.151z
				 M290.27,91.446c0.199-0.265,0.299-0.641,0.299-1.129s-0.1-0.864-0.299-1.127c-0.199-0.264-0.486-0.396-0.858-0.396
				s-0.659,0.132-0.86,0.396c-0.201,0.263-0.303,0.639-0.303,1.127s0.102,0.864,0.303,1.129c0.201,0.266,0.488,0.397,0.86,0.397
				S290.07,91.712,290.27,91.446z"/>
			<path fill="#FFFFFF" d="M299.459,88.397c0.398,0.42,0.597,1.037,0.597,1.851c0,0.858-0.194,1.513-0.583,1.963
				s-0.889,0.675-1.5,0.675c-0.391,0-0.714-0.097-0.973-0.291c-0.141-0.107-0.278-0.264-0.414-0.469v2.539h-1.26v-6.791h1.221v0.72
				c0.138-0.212,0.285-0.378,0.44-0.501c0.285-0.217,0.624-0.326,1.017-0.326C298.577,87.767,299.062,87.977,299.459,88.397z
				 M298.482,89.313c-0.174-0.289-0.455-0.434-0.843-0.434c-0.467,0-0.788,0.219-0.962,0.657c-0.091,0.232-0.136,0.527-0.136,0.885
				c0,0.566,0.151,0.965,0.456,1.194c0.18,0.134,0.395,0.201,0.641,0.201c0.359,0,0.633-0.138,0.82-0.411
				c0.188-0.274,0.283-0.64,0.283-1.096C298.742,89.935,298.654,89.603,298.482,89.313z"/>
			<path fill="#FFFFFF" d="M303.662,87.76c0.016,0.002,0.053,0.004,0.109,0.007v1.306c-0.081-0.009-0.152-0.015-0.215-0.018
				s-0.113-0.005-0.152-0.005c-0.513,0-0.857,0.167-1.033,0.501c-0.098,0.188-0.146,0.477-0.146,0.867v2.329h-1.283v-4.873h1.216
				v0.85c0.196-0.325,0.368-0.547,0.515-0.666c0.238-0.2,0.548-0.3,0.93-0.3C303.625,87.758,303.645,87.759,303.662,87.76z"/>
			<path fill="#FFFFFF" d="M305.827,87.293h-1.292v-1.176h1.292V87.293z M304.535,87.874h1.292v4.873h-1.292V87.874z"/>
			<path fill="#FFFFFF" d="M309.977,89.622c-0.024-0.182-0.086-0.346-0.184-0.492c-0.145-0.196-0.367-0.295-0.668-0.295
				c-0.431,0-0.725,0.214-0.883,0.64c-0.084,0.226-0.125,0.526-0.125,0.9c0,0.357,0.041,0.644,0.125,0.861
				c0.152,0.405,0.439,0.607,0.86,0.607c0.299,0,0.511-0.08,0.636-0.241c0.126-0.161,0.202-0.369,0.229-0.626h1.301
				c-0.029,0.388-0.17,0.754-0.42,1.1c-0.4,0.558-0.992,0.836-1.777,0.836c-0.784,0-1.361-0.232-1.73-0.697
				c-0.371-0.465-0.556-1.067-0.556-1.809c0-0.836,0.204-1.486,0.613-1.951s0.972-0.697,1.691-0.697
				c0.612,0,1.112,0.137,1.501,0.411c0.39,0.274,0.62,0.759,0.691,1.453H309.977z"/>
			<path fill="#FFFFFF" d="M315.328,87.973c0.34,0.152,0.621,0.393,0.843,0.721c0.199,0.29,0.329,0.626,0.388,1.008
				c0.035,0.224,0.049,0.546,0.043,0.967h-3.55c0.021,0.489,0.189,0.832,0.51,1.028c0.194,0.122,0.429,0.184,0.702,0.184
				c0.291,0,0.526-0.074,0.707-0.224c0.1-0.08,0.188-0.192,0.263-0.335h1.301c-0.034,0.289-0.191,0.582-0.472,0.88
				c-0.438,0.475-1.048,0.711-1.834,0.711c-0.648,0-1.221-0.199-1.717-0.6c-0.495-0.399-0.743-1.05-0.743-1.95
				c0-0.845,0.224-1.492,0.671-1.942c0.448-0.45,1.029-0.676,1.743-0.676C314.606,87.744,314.988,87.82,315.328,87.973z
				 M313.422,89.073c-0.18,0.186-0.293,0.438-0.339,0.755h2.195c-0.023-0.339-0.136-0.596-0.339-0.771s-0.455-0.263-0.756-0.263
				C313.855,88.795,313.603,88.888,313.422,89.073z"/>
			<path fill="#FFFFFF" d="M320.115,87.82c0.235-0.548,0.58-1.139,1.033-1.771h0.961l-0.273,0.501
				c-0.375,0.688-0.636,1.41-0.781,2.164c-0.096,0.494-0.144,1.034-0.144,1.618c0,0.912,0.132,1.751,0.397,2.517
				c0.155,0.453,0.43,1.034,0.822,1.744h-0.942l-0.317-0.434c-0.206-0.263-0.425-0.653-0.657-1.172
				c-0.415-0.927-0.622-1.839-0.622-2.735C319.592,89.436,319.767,88.625,320.115,87.82z"/>
			<path fill="#FFFFFF" d="M322.941,86.157h1.398v4.047c0,0.453,0.055,0.783,0.161,0.992c0.166,0.369,0.528,0.554,1.087,0.554
				c0.555,0,0.916-0.185,1.082-0.554c0.107-0.209,0.16-0.539,0.16-0.992v-4.047h1.4v4.051c0,0.7-0.109,1.245-0.326,1.636
				c-0.404,0.716-1.178,1.073-2.316,1.073c-1.14,0-1.914-0.357-2.32-1.073c-0.218-0.391-0.326-0.936-0.326-1.636V86.157z"/>
			<path fill="#FFFFFF" d="M330.545,90.713c0.043,0.301,0.127,0.526,0.252,0.675c0.228,0.271,0.619,0.407,1.173,0.407
				c0.331,0,0.601-0.036,0.808-0.107c0.393-0.137,0.589-0.392,0.589-0.765c0-0.218-0.097-0.386-0.288-0.505
				c-0.192-0.116-0.498-0.219-0.915-0.309l-0.714-0.156c-0.701-0.155-1.183-0.323-1.445-0.506c-0.443-0.304-0.666-0.779-0.666-1.426
				c0-0.59,0.218-1.08,0.652-1.471c0.434-0.391,1.072-0.586,1.914-0.586c0.703,0,1.303,0.185,1.799,0.553s0.757,0.902,0.781,1.603
				h-1.324c-0.023-0.396-0.201-0.678-0.531-0.845c-0.22-0.11-0.493-0.166-0.82-0.166c-0.363,0-0.654,0.071-0.871,0.215
				c-0.217,0.143-0.325,0.343-0.325,0.599c0,0.236,0.106,0.412,0.321,0.528c0.137,0.077,0.429,0.168,0.875,0.272l1.156,0.272
				c0.508,0.119,0.887,0.279,1.141,0.479c0.393,0.31,0.589,0.759,0.589,1.346c0,0.602-0.233,1.102-0.698,1.5
				c-0.466,0.397-1.123,0.597-1.973,0.597c-0.867,0-1.55-0.196-2.047-0.588s-0.746-0.931-0.746-1.616H330.545z"/>
			<path fill="#FFFFFF" d="M337.725,93.807h-0.434v-0.89c-0.586-0.065-1.025-0.193-1.314-0.385c-0.509-0.343-0.76-0.927-0.75-1.752
				h1.207c0.041,0.375,0.1,0.627,0.174,0.755c0.116,0.2,0.344,0.33,0.684,0.39v-1.909l-0.361-0.107
				c-0.569-0.167-0.971-0.399-1.205-0.697s-0.352-0.657-0.352-1.077c0-0.277,0.046-0.529,0.137-0.756
				c0.092-0.227,0.219-0.422,0.383-0.586c0.211-0.211,0.447-0.357,0.706-0.438c0.158-0.051,0.39-0.088,0.692-0.112v-0.595h0.434
				v0.604c0.484,0.039,0.863,0.158,1.14,0.357c0.501,0.319,0.761,0.837,0.778,1.552h-1.176c-0.023-0.266-0.067-0.459-0.132-0.581
				c-0.112-0.212-0.315-0.328-0.61-0.349v1.703c0.707,0.244,1.182,0.461,1.425,0.648c0.401,0.312,0.601,0.754,0.601,1.323
				c0,0.751-0.275,1.296-0.826,1.636c-0.338,0.209-0.736,0.331-1.199,0.367V93.807z M337.291,87.239
				c-0.259,0.006-0.451,0.075-0.576,0.208s-0.188,0.313-0.188,0.543c0,0.25,0.094,0.448,0.281,0.595
				c0.104,0.08,0.266,0.155,0.482,0.224V87.239z M337.725,91.911c0.233-0.03,0.402-0.083,0.509-0.161
				c0.187-0.137,0.278-0.374,0.278-0.711c0-0.256-0.086-0.459-0.26-0.607c-0.104-0.087-0.279-0.176-0.527-0.269V91.911z"/>
			<path fill="#FFFFFF" d="M342.161,87.82c0.349,0.805,0.522,1.615,0.522,2.433c0,0.896-0.207,1.809-0.621,2.735
				c-0.231,0.519-0.45,0.909-0.655,1.172l-0.317,0.434h-0.941c0.393-0.71,0.665-1.291,0.82-1.744
				c0.264-0.766,0.396-1.604,0.396-2.517c0-0.584-0.049-1.124-0.143-1.618c-0.146-0.754-0.406-1.476-0.78-2.164l-0.271-0.501h0.96
				C341.582,86.682,341.926,87.272,342.161,87.82z"/>
		</g>
	</g>
	<g>
		<circle fill="#26A9E0" cx="323.062" cy="118.744" r="15.958"/>
		<g>
			<g>
				<path fill="#FFFFFF" d="M315.4,116.471v-1.528c0.708-0.031,1.203-0.079,1.486-0.142c0.45-0.1,0.816-0.3,1.1-0.599
					c0.193-0.205,0.341-0.479,0.44-0.819c0.058-0.205,0.087-0.357,0.087-0.457h1.875v11.424h-2.301v-7.879H315.4z"/>
				<path fill="#FFFFFF" d="M329.697,114.383c0.586,1.024,0.879,2.479,0.879,4.365s-0.293,3.338-0.879,4.356
					c-0.586,1.02-1.605,1.528-3.061,1.528s-2.476-0.509-3.061-1.528c-0.586-1.019-0.879-2.471-0.879-4.356s0.293-3.341,0.879-4.365
					c0.585-1.024,1.605-1.536,3.061-1.536S329.111,113.358,329.697,114.383z M325.312,121.762c0.216,0.695,0.656,1.044,1.324,1.044
					c0.667,0,1.104-0.349,1.312-1.044c0.208-0.696,0.312-1.701,0.312-3.014c0-1.376-0.104-2.396-0.312-3.058
					c-0.208-0.661-0.645-0.992-1.312-0.992c-0.668,0-1.108,0.331-1.324,0.992c-0.215,0.662-0.322,1.682-0.322,3.058
					C324.99,120.061,325.098,121.065,325.312,121.762z"/>
			</g>
		</g>
		<circle fill="#A6A8AB" cx="282.248" cy="118.744" r="15.958"/>
		<g>
			<g>
				<path fill="#FFFFFF" d="M280.699,121.293c0.088,0.488,0.259,0.865,0.51,1.13c0.252,0.266,0.619,0.398,1.102,0.398
					c0.555,0,0.979-0.195,1.27-0.587c0.29-0.392,0.436-0.884,0.436-1.478c0-0.583-0.137-1.075-0.408-1.478
					c-0.273-0.401-0.697-0.603-1.273-0.603c-0.273,0-0.509,0.034-0.708,0.103c-0.351,0.126-0.616,0.359-0.794,0.701l-2.013-0.095
					l0.802-6.311h6.285v1.906h-4.665l-0.409,2.498c0.346-0.226,0.617-0.376,0.811-0.449c0.325-0.121,0.721-0.182,1.188-0.182
					c0.945,0,1.768,0.318,2.471,0.954c0.703,0.635,1.055,1.56,1.055,2.772c0,1.057-0.338,1.999-1.016,2.829
					c-0.677,0.83-1.689,1.245-3.037,1.245c-1.087,0-1.979-0.292-2.677-0.875s-1.087-1.41-1.165-2.481H280.699z"/>
			</g>
		</g>
		<circle fill="#A6A8AB" cx="363.885" cy="118.744" r="15.958"/>
		<g>
			<g>
				<path fill="#FFFFFF" d="M356.137,122.104c0.32-0.762,1.076-1.568,2.27-2.419c1.034-0.741,1.703-1.271,2.008-1.592
					c0.469-0.499,0.702-1.045,0.702-1.639c0-0.483-0.134-0.885-0.401-1.205c-0.269-0.32-0.652-0.481-1.15-0.481
					c-0.684,0-1.148,0.255-1.395,0.765c-0.143,0.294-0.227,0.762-0.253,1.402h-2.183c0.037-0.972,0.213-1.757,0.529-2.355
					c0.6-1.14,1.664-1.71,3.193-1.71c1.209,0,2.172,0.335,2.887,1.005s1.072,1.556,1.072,2.659c0,0.846-0.252,1.597-0.758,2.253
					c-0.331,0.437-0.875,0.922-1.633,1.458l-0.9,0.638c-0.562,0.399-0.949,0.688-1.156,0.867s-0.382,0.386-0.523,0.622h4.986v1.978
					h-7.822C355.63,123.53,355.806,122.781,356.137,122.104z"/>
				<path fill="#FFFFFF" d="M371.369,114.383c0.586,1.024,0.879,2.479,0.879,4.365s-0.293,3.338-0.879,4.356
					c-0.585,1.02-1.605,1.528-3.061,1.528s-2.475-0.509-3.061-1.528c-0.586-1.019-0.879-2.471-0.879-4.356s0.293-3.341,0.879-4.365
					s1.605-1.536,3.061-1.536S370.784,113.358,371.369,114.383z M366.985,121.762c0.216,0.695,0.656,1.044,1.323,1.044
					c0.668,0,1.104-0.349,1.312-1.044c0.207-0.696,0.311-1.701,0.311-3.014c0-1.376-0.104-2.396-0.311-3.058
					c-0.208-0.661-0.645-0.992-1.312-0.992c-0.667,0-1.107,0.331-1.323,0.992c-0.216,0.662-0.323,1.682-0.323,3.058
					C366.662,120.061,366.77,121.065,366.985,121.762z"/>
			</g>
		</g>
		<circle fill="#A6A8AB" cx="404.708" cy="118.744" r="15.958"/>
		<g>
			<g>
				<path fill="#FFFFFF" d="M398.561,120.844c0,0.457,0.073,0.835,0.22,1.135c0.272,0.551,0.768,0.827,1.485,0.827
					c0.44,0,0.824-0.151,1.152-0.453c0.326-0.302,0.49-0.737,0.49-1.304c0-0.752-0.303-1.253-0.91-1.505
					c-0.346-0.143-0.891-0.213-1.635-0.213v-1.607c0.729-0.011,1.236-0.081,1.523-0.213c0.498-0.221,0.746-0.667,0.746-1.339
					c0-0.437-0.127-0.791-0.381-1.064c-0.254-0.272-0.611-0.409-1.072-0.409c-0.529,0-0.918,0.168-1.168,0.504
					c-0.248,0.336-0.367,0.785-0.357,1.348h-2.096c0.021-0.567,0.119-1.105,0.291-1.615c0.184-0.446,0.473-0.858,0.866-1.237
					c0.294-0.268,0.643-0.473,1.047-0.614c0.403-0.142,0.899-0.213,1.487-0.213c1.092,0,1.972,0.282,2.641,0.847
					c0.669,0.565,1.004,1.323,1.004,2.273c0,0.673-0.2,1.239-0.6,1.702c-0.252,0.289-0.514,0.485-0.787,0.591
					c0.205,0,0.498,0.176,0.883,0.527c0.572,0.531,0.857,1.256,0.857,2.175c0,0.967-0.334,1.816-1.003,2.549
					s-1.659,1.099-2.972,1.099c-1.615,0-2.738-0.527-3.368-1.583c-0.331-0.562-0.515-1.298-0.552-2.206H398.561z"/>
				<path fill="#FFFFFF" d="M412.186,114.383c0.586,1.024,0.879,2.479,0.879,4.365s-0.293,3.338-0.879,4.356
					c-0.585,1.02-1.605,1.528-3.061,1.528s-2.475-0.509-3.061-1.528c-0.586-1.019-0.879-2.471-0.879-4.356s0.293-3.341,0.879-4.365
					s1.605-1.536,3.061-1.536S411.601,113.358,412.186,114.383z M407.802,121.762c0.216,0.695,0.656,1.044,1.323,1.044
					c0.668,0,1.104-0.349,1.312-1.044c0.207-0.696,0.311-1.701,0.311-3.014c0-1.376-0.104-2.396-0.311-3.058
					c-0.208-0.661-0.645-0.992-1.312-0.992c-0.667,0-1.107,0.331-1.323,0.992c-0.216,0.662-0.323,1.682-0.323,3.058
					C407.479,120.061,407.586,121.065,407.802,121.762z"/>
			</g>
		</g>
		<g>
			<polygon fill="#FFFFFF" points="331.188,139.367 331.188,142.32 329.71,142.32 329.71,137.889 328.232,137.889 328.232,140.842 
				326.756,140.842 326.756,136.412 325.278,136.412 325.278,140.842 323.802,140.842 323.802,130.502 320.846,130.502 
				320.846,145.273 319.368,145.273 319.368,142.32 317.892,142.32 317.892,140.842 316.414,140.842 316.414,139.367 
				313.461,139.367 313.461,142.32 314.938,142.32 314.938,143.797 316.414,143.797 316.414,146.754 317.892,146.754 
				317.892,148.23 319.368,148.23 319.368,149.707 320.846,149.707 320.846,152.662 329.71,152.662 329.71,149.707 331.188,149.707 
				331.188,146.754 332.663,146.754 332.663,139.367 			"/>
			<path fill="#000100" d="M311.983,142.32h1.478v-2.953h-1.478V142.32z M313.461,137.889v1.479h2.953v-1.479H313.461z
				 M316.414,139.367v1.475h1.478v-1.475H316.414z M319.368,140.842h-1.477v1.479h1.477v2.953h1.478v-14.771h-1.478V140.842z
				 M320.846,129.025v1.477h2.956v-1.477H320.846z M314.938,143.797v-1.477h-1.477v1.477H314.938z M316.414,146.754v-2.957h-1.477
				v2.957H316.414z M317.892,148.23v-1.477h-1.478v1.477H317.892z M319.368,149.707v-1.477h-1.477v1.477H319.368z M320.846,152.662
				v-2.955h-1.478v2.955H320.846z M331.188,137.889v-1.477h-2.955v-1.479h-2.954v-4.432h-1.477v10.34h1.477v-4.43h1.478v4.43h1.477
				v-2.953h1.478v4.432h1.478v-2.953h1.476v7.387h1.478v-8.865H331.188z M331.188,149.707h1.476v-2.953h-1.476V149.707z
				 M329.71,152.662h1.478v-2.955h-1.478V152.662z"/>
		</g>
	</g>
	<g>
		<g>
			<path fill="#29ABE2" d="M272.154,191.803c0.551-0.068,0.945-0.156,1.183-0.26c0.426-0.18,0.638-0.461,0.638-0.842
				c0-0.463-0.163-0.783-0.489-0.961c-0.326-0.176-0.806-0.264-1.438-0.264c-0.708,0-1.21,0.172-1.505,0.52
				c-0.211,0.256-0.352,0.602-0.421,1.037h-2.856c0.062-0.988,0.341-1.803,0.834-2.439c0.786-0.998,2.135-1.496,4.048-1.496
				c1.244,0,2.351,0.246,3.317,0.738c0.966,0.49,1.449,1.418,1.449,2.783v5.193c0,0.359,0.007,0.795,0.021,1.309
				c0.021,0.387,0.079,0.65,0.176,0.789c0.098,0.139,0.243,0.252,0.437,0.342v0.438h-3.22c-0.09-0.229-0.152-0.443-0.187-0.645
				c-0.035-0.201-0.062-0.43-0.083-0.686c-0.411,0.443-0.885,0.82-1.421,1.133c-0.642,0.367-1.365,0.551-2.174,0.551
				c-1.03,0-1.882-0.293-2.554-0.879c-0.672-0.584-1.008-1.414-1.008-2.486c0-1.393,0.54-2.4,1.621-3.023
				c0.593-0.34,1.465-0.582,2.616-0.727L272.154,191.803z M273.965,193.184c-0.189,0.119-0.381,0.213-0.574,0.287
				c-0.193,0.072-0.458,0.139-0.795,0.201l-0.674,0.125c-0.632,0.111-1.085,0.246-1.36,0.404c-0.467,0.271-0.699,0.689-0.699,1.258
				c0,0.506,0.142,0.871,0.427,1.096s0.631,0.338,1.039,0.338c0.646,0,1.242-0.188,1.787-0.561c0.545-0.375,0.828-1.057,0.85-2.047
				V193.184z"/>
			<path fill="#29ABE2" d="M288.63,188.018c0.741,0.611,1.111,1.629,1.111,3.047v7.625h-3.032v-6.887
				c0-0.596-0.079-1.053-0.237-1.371c-0.289-0.582-0.839-0.873-1.649-0.873c-0.997,0-1.681,0.426-2.052,1.277
				c-0.192,0.451-0.289,1.025-0.289,1.725v6.129h-2.96v-11.301h2.866v1.65c0.379-0.58,0.738-1,1.076-1.256
				c0.606-0.457,1.375-0.686,2.307-0.686C286.936,187.098,287.889,187.404,288.63,188.018z"/>
			<path fill="#29ABE2" d="M298.497,187.549c0.533,0.303,0.966,0.719,1.298,1.252v-5.4h3.002v15.289h-2.877v-1.568
				c-0.423,0.672-0.903,1.16-1.443,1.465s-1.212,0.457-2.016,0.457c-1.322,0-2.436-0.535-3.339-1.605s-1.355-2.443-1.355-4.119
				c0-1.932,0.445-3.451,1.335-4.559s2.079-1.662,3.567-1.662C297.354,187.098,297.964,187.248,298.497,187.549z M299.224,195.615
				c0.437-0.623,0.655-1.43,0.655-2.42c0-1.385-0.351-2.375-1.05-2.971c-0.429-0.361-0.928-0.541-1.495-0.541
				c-0.866,0-1.501,0.328-1.906,0.982s-0.607,1.465-0.607,2.436c0,1.045,0.206,1.881,0.618,2.508s1.037,0.939,1.875,0.939
				C298.15,196.549,298.788,196.238,299.224,195.615z"/>
			<path fill="#29ABE2" d="M269.966,216.35c0.062,0.525,0.198,0.9,0.407,1.121c0.368,0.395,1.051,0.592,2.045,0.592
				c0.585,0,1.049-0.086,1.394-0.26c0.345-0.172,0.517-0.432,0.517-0.779c0-0.332-0.139-0.584-0.416-0.758
				c-0.277-0.172-1.31-0.471-3.097-0.893c-1.286-0.318-2.193-0.717-2.719-1.195c-0.526-0.471-0.79-1.148-0.79-2.035
				c0-1.045,0.411-1.943,1.233-2.695s1.979-1.127,3.472-1.127c1.415,0,2.569,0.281,3.461,0.846s1.403,1.539,1.535,2.924h-2.96
				c-0.042-0.381-0.149-0.682-0.323-0.902c-0.326-0.402-0.882-0.604-1.666-0.604c-0.646,0-1.105,0.102-1.38,0.301
				c-0.274,0.201-0.412,0.438-0.412,0.707c0,0.34,0.146,0.586,0.438,0.738c0.291,0.158,1.321,0.432,3.09,0.82
				c1.18,0.277,2.063,0.695,2.652,1.256c0.581,0.568,0.872,1.277,0.872,2.129c0,1.123-0.418,2.039-1.254,2.748
				s-2.128,1.064-3.877,1.064c-1.783,0-3.1-0.375-3.949-1.127c-0.851-0.752-1.275-1.709-1.275-2.871H269.966z"/>
			<path fill="#29ABE2" d="M278.337,210.854v-2.107h1.579v-3.158h2.929v3.158h1.839v2.107h-1.839v5.984
				c0,0.463,0.059,0.752,0.177,0.867c0.118,0.113,0.478,0.17,1.08,0.17c0.09,0,0.186,0,0.286-0.004
				c0.1-0.004,0.198-0.01,0.296-0.016v2.211l-1.402,0.053c-1.398,0.049-2.354-0.193-2.867-0.727
				c-0.332-0.34-0.498-0.863-0.498-1.568v-6.971H278.337z"/>
			<path fill="#29ABE2" d="M291.068,213.078c0.551-0.07,0.945-0.156,1.183-0.26c0.426-0.182,0.638-0.461,0.638-0.842
				c0-0.465-0.163-0.785-0.489-0.961s-0.806-0.266-1.438-0.266c-0.708,0-1.21,0.174-1.505,0.52
				c-0.211,0.256-0.352,0.604-0.421,1.039h-2.856c0.062-0.99,0.341-1.803,0.834-2.441c0.786-0.996,2.135-1.494,4.048-1.494
				c1.244,0,2.351,0.244,3.317,0.736c0.966,0.492,1.449,1.42,1.449,2.783v5.193c0,0.361,0.007,0.797,0.021,1.309
				c0.021,0.389,0.079,0.652,0.176,0.789c0.098,0.139,0.243,0.254,0.437,0.344v0.436h-3.22c-0.09-0.229-0.152-0.443-0.187-0.643
				c-0.035-0.201-0.062-0.43-0.083-0.686c-0.411,0.441-0.885,0.82-1.421,1.131c-0.642,0.367-1.365,0.551-2.174,0.551
				c-1.03,0-1.882-0.293-2.554-0.877c-0.672-0.586-1.008-1.414-1.008-2.488c0-1.393,0.54-2.398,1.621-3.021
				c0.593-0.34,1.465-0.582,2.616-0.729L291.068,213.078z M292.879,214.459c-0.189,0.117-0.381,0.213-0.574,0.285
				s-0.458,0.141-0.795,0.203l-0.674,0.125c-0.632,0.109-1.085,0.244-1.36,0.404c-0.467,0.27-0.699,0.689-0.699,1.256
				c0,0.506,0.142,0.871,0.427,1.096c0.285,0.227,0.631,0.338,1.039,0.338c0.646,0,1.242-0.186,1.787-0.561
				c0.545-0.373,0.828-1.055,0.85-2.047V214.459z"/>
			<path fill="#29ABE2" d="M304.703,208.377c0.038,0.004,0.123,0.01,0.255,0.016v3.033c-0.187-0.021-0.354-0.035-0.498-0.041
				c-0.146-0.008-0.264-0.012-0.354-0.012c-1.191,0-1.991,0.389-2.399,1.164c-0.229,0.436-0.343,1.107-0.343,2.016v5.41h-2.98
				v-11.32h2.825v1.973c0.457-0.754,0.854-1.27,1.194-1.547c0.554-0.465,1.273-0.695,2.16-0.695
				C304.619,208.373,304.665,208.373,304.703,208.377z"/>
			<path fill="#29ABE2" d="M305.528,210.854v-2.107h1.579v-3.158h2.929v3.158h1.839v2.107h-1.839v5.984
				c0,0.463,0.059,0.752,0.177,0.867c0.118,0.113,0.478,0.17,1.08,0.17c0.09,0,0.186,0,0.286-0.004
				c0.1-0.004,0.198-0.01,0.296-0.016v2.211l-1.402,0.053c-1.398,0.049-2.354-0.193-2.867-0.727
				c-0.332-0.34-0.498-0.863-0.498-1.568v-6.971H305.528z"/>
			<path fill="#29ABE2" d="M269.966,237.623c0.062,0.527,0.198,0.9,0.407,1.121c0.368,0.396,1.051,0.594,2.045,0.594
				c0.585,0,1.049-0.088,1.394-0.26c0.345-0.174,0.517-0.434,0.517-0.779c0-0.332-0.139-0.586-0.416-0.758
				c-0.277-0.174-1.31-0.471-3.097-0.895c-1.286-0.318-2.193-0.717-2.719-1.193c-0.526-0.471-0.79-1.15-0.79-2.037
				c0-1.045,0.411-1.943,1.233-2.695c0.822-0.75,1.979-1.127,3.472-1.127c1.415,0,2.569,0.283,3.461,0.848s1.403,1.539,1.535,2.924
				h-2.96c-0.042-0.381-0.149-0.682-0.323-0.904c-0.326-0.4-0.882-0.602-1.666-0.602c-0.646,0-1.105,0.1-1.38,0.301
				s-0.412,0.436-0.412,0.707c0,0.338,0.146,0.584,0.438,0.736c0.291,0.16,1.321,0.434,3.09,0.82
				c1.18,0.277,2.063,0.697,2.652,1.258c0.581,0.566,0.872,1.277,0.872,2.129c0,1.121-0.418,2.037-1.254,2.746
				c-0.836,0.711-2.128,1.066-3.877,1.066c-1.783,0-3.1-0.377-3.949-1.127c-0.851-0.752-1.275-1.709-1.275-2.873H269.966z"/>
			<path fill="#29ABE2" d="M286.878,230.146c0.79,0.354,1.441,0.912,1.956,1.674c0.464,0.674,0.765,1.453,0.902,2.342
				c0.079,0.52,0.112,1.268,0.098,2.246h-8.246c0.046,1.135,0.441,1.932,1.185,2.389c0.452,0.283,0.996,0.426,1.632,0.426
				c0.674,0,1.222-0.172,1.644-0.52c0.229-0.188,0.433-0.445,0.609-0.779h3.022c-0.08,0.672-0.446,1.355-1.098,2.047
				c-1.015,1.102-2.434,1.652-4.26,1.652c-1.507,0-2.836-0.465-3.987-1.395c-1.152-0.928-1.728-2.439-1.728-4.531
				c0-1.961,0.52-3.465,1.56-4.512c1.039-1.047,2.389-1.57,4.048-1.57C285.2,229.615,286.088,229.793,286.878,230.146z
				 M282.449,232.703c-0.418,0.432-0.681,1.016-0.788,1.752h5.1c-0.054-0.785-0.316-1.381-0.789-1.789
				c-0.472-0.406-1.057-0.609-1.755-0.609C283.457,232.057,282.868,232.271,282.449,232.703z"/>
			<path fill="#29ABE2" d="M294.354,241.238h-2.961v-15.311h2.961V241.238z"/>
			<path fill="#29ABE2" d="M300.264,241.238h-2.961v-15.311h2.961V241.238z"/>
			<path fill="#29ABE2" d="M306.194,228.566h-3.002v-2.732h3.002V228.566z M303.192,229.916h3.002v11.322h-3.002V229.916z"/>
			<path fill="#29ABE2" d="M318.189,230.566c0.741,0.611,1.111,1.629,1.111,3.047v7.625h-3.032v-6.887
				c0-0.596-0.079-1.053-0.237-1.371c-0.289-0.582-0.839-0.873-1.649-0.873c-0.997,0-1.681,0.426-2.052,1.277
				c-0.192,0.451-0.289,1.025-0.289,1.725v6.129h-2.96v-11.301h2.866v1.65c0.379-0.58,0.738-1,1.076-1.256
				c0.606-0.457,1.375-0.686,2.307-0.686C316.495,229.646,317.448,229.953,318.189,230.566z"/>
			<path fill="#29ABE2" d="M327.654,229.906c0.719,0.297,1.3,0.846,1.742,1.641v-1.631h2.888v10.74c0,1.461-0.246,2.562-0.737,3.303
				c-0.846,1.273-2.466,1.912-4.861,1.912c-1.447,0-2.628-0.285-3.542-0.854c-0.914-0.566-1.419-1.416-1.517-2.543h3.221
				c0.083,0.346,0.218,0.594,0.404,0.746c0.318,0.271,0.855,0.406,1.61,0.406c1.066,0,1.779-0.357,2.14-1.07
				c0.235-0.457,0.353-1.225,0.353-2.305v-0.729c-0.283,0.484-0.588,0.85-0.913,1.092c-0.589,0.449-1.354,0.674-2.296,0.674
				c-1.454,0-2.616-0.51-3.484-1.531c-0.869-1.021-1.304-2.404-1.304-4.15c0-1.682,0.418-3.096,1.255-4.242s2.023-1.719,3.559-1.719
				C326.737,229.646,327.231,229.732,327.654,229.906z M328.662,238.023c0.476-0.523,0.714-1.355,0.714-2.498
				c0-1.074-0.227-1.891-0.678-2.451c-0.452-0.561-1.057-0.842-1.815-0.842c-1.034,0-1.748,0.488-2.141,1.465
				c-0.207,0.52-0.311,1.16-0.311,1.922c0,0.658,0.11,1.242,0.331,1.756c0.399,0.955,1.117,1.432,2.151,1.432
				C327.604,238.807,328.187,238.547,328.662,238.023z"/>
			<path fill="#29ABE2" d="M336.003,225.98h3.251v3.881L338.413,237h-1.548l-0.862-7.139V225.98z M336.075,238.236h3.106v3.002
				h-3.106V238.236z"/>
		</g>
	</g>
	<g>
		<g>
			<path fill="#29ABE2" d="M48.927,154.223c-0.056-0.422-0.198-0.803-0.427-1.143c-0.333-0.457-0.851-0.686-1.552-0.686
				c-0.999,0-1.683,0.496-2.051,1.486c-0.194,0.523-0.291,1.223-0.291,2.092c0,0.828,0.097,1.496,0.291,2
				c0.354,0.941,1.021,1.412,1.999,1.412c0.694,0,1.188-0.188,1.479-0.561c0.291-0.375,0.469-0.859,0.531-1.455h3.022
				c-0.069,0.9-0.396,1.752-0.978,2.557c-0.929,1.295-2.305,1.941-4.128,1.941c-1.822,0-3.164-0.541-4.023-1.621
				s-1.289-2.48-1.289-4.201c0-1.941,0.475-3.453,1.425-4.533c0.949-1.08,2.259-1.619,3.93-1.619c1.421,0,2.583,0.318,3.488,0.955
				c0.904,0.637,1.439,1.762,1.606,3.375H48.927z"/>
			<path fill="#29ABE2" d="M62.121,150.225c0.568,0.242,1.036,0.613,1.401,1.111c0.311,0.424,0.5,0.859,0.568,1.305
				c0.069,0.447,0.104,1.178,0.104,2.189v6.652h-3.022v-6.893c0-0.611-0.103-1.104-0.309-1.477
				c-0.269-0.527-0.777-0.791-1.526-0.791c-0.776,0-1.366,0.262-1.768,0.785c-0.402,0.523-0.604,1.27-0.604,2.24v6.135h-2.96
				v-15.258h2.96v5.402c0.428-0.658,0.922-1.117,1.484-1.377c0.562-0.26,1.152-0.389,1.773-0.389
				C60.92,149.861,61.553,149.982,62.121,150.225z"/>
			<path fill="#29ABE2" d="M76.419,160.098c-0.955,1.18-2.406,1.77-4.352,1.77s-3.396-0.59-4.352-1.77
				c-0.956-1.18-1.434-2.6-1.434-4.26c0-1.633,0.478-3.047,1.434-4.244c0.955-1.197,2.406-1.795,4.352-1.795
				s3.396,0.598,4.352,1.795c0.956,1.197,1.434,2.611,1.434,4.244C77.853,157.498,77.375,158.918,76.419,160.098z M74.051,158.463
				c0.464-0.617,0.696-1.49,0.696-2.625s-0.232-2.008-0.696-2.619s-1.128-0.918-1.994-0.918c-0.865,0-1.531,0.307-1.999,0.918
				s-0.701,1.484-0.701,2.619s0.233,2.008,0.701,2.625c0.468,0.615,1.134,0.922,1.999,0.922
				C72.923,159.385,73.587,159.078,74.051,158.463z"/>
			<path fill="#29ABE2" d="M89.413,160.098c-0.955,1.18-2.406,1.77-4.352,1.77s-3.396-0.59-4.352-1.77
				c-0.956-1.18-1.434-2.6-1.434-4.26c0-1.633,0.478-3.047,1.434-4.244c0.955-1.197,2.406-1.795,4.352-1.795
				s3.396,0.598,4.352,1.795c0.956,1.197,1.434,2.611,1.434,4.244C90.847,157.498,90.369,158.918,89.413,160.098z M87.045,158.463
				c0.464-0.617,0.696-1.49,0.696-2.625s-0.232-2.008-0.696-2.619s-1.128-0.918-1.994-0.918c-0.865,0-1.531,0.307-1.999,0.918
				s-0.701,1.484-0.701,2.619s0.233,2.008,0.701,2.625c0.468,0.615,1.134,0.922,1.999,0.922
				C85.917,159.385,86.581,159.078,87.045,158.463z"/>
			<path fill="#29ABE2" d="M95.261,157.869c0.062,0.525,0.198,0.9,0.407,1.121c0.368,0.395,1.051,0.592,2.045,0.592
				c0.585,0,1.049-0.086,1.394-0.26c0.345-0.172,0.517-0.432,0.517-0.779c0-0.332-0.139-0.584-0.416-0.758
				c-0.277-0.172-1.31-0.471-3.097-0.893c-1.286-0.318-2.193-0.717-2.719-1.195c-0.526-0.471-0.79-1.148-0.79-2.035
				c0-1.045,0.411-1.943,1.233-2.695s1.979-1.127,3.472-1.127c1.415,0,2.569,0.281,3.461,0.846s1.403,1.539,1.535,2.924h-2.96
				c-0.042-0.381-0.149-0.682-0.323-0.902c-0.326-0.402-0.882-0.604-1.666-0.604c-0.646,0-1.105,0.102-1.38,0.301
				c-0.274,0.201-0.412,0.438-0.412,0.707c0,0.34,0.146,0.586,0.438,0.738c0.291,0.158,1.321,0.432,3.09,0.82
				c1.18,0.277,2.063,0.695,2.652,1.256c0.581,0.568,0.872,1.277,0.872,2.129c0,1.123-0.418,2.039-1.254,2.748
				s-2.128,1.064-3.877,1.064c-1.783,0-3.1-0.375-3.949-1.127c-0.851-0.752-1.275-1.709-1.275-2.871H95.261z"/>
			<path fill="#29ABE2" d="M112.173,150.391c0.79,0.354,1.441,0.912,1.956,1.676c0.464,0.672,0.765,1.453,0.902,2.34
				c0.079,0.52,0.112,1.27,0.098,2.246h-8.246c0.046,1.137,0.441,1.934,1.185,2.391c0.452,0.283,0.996,0.426,1.632,0.426
				c0.674,0,1.222-0.174,1.644-0.52c0.229-0.188,0.433-0.447,0.609-0.779h3.022c-0.08,0.672-0.446,1.354-1.098,2.045
				c-1.015,1.102-2.434,1.652-4.26,1.652c-1.507,0-2.836-0.465-3.987-1.393c-1.152-0.93-1.728-2.439-1.728-4.533
				c0-1.961,0.52-3.465,1.56-4.512c1.039-1.045,2.389-1.568,4.048-1.568C110.495,149.861,111.383,150.037,112.173,150.391z
				 M107.744,152.947c-0.418,0.432-0.681,1.016-0.788,1.754h5.1c-0.054-0.787-0.316-1.383-0.789-1.789
				c-0.472-0.408-1.057-0.611-1.755-0.611C108.752,152.301,108.163,152.518,107.744,152.947z"/>
			<path fill="#29ABE2" d="M121.372,152.373v-2.107h1.579v-3.158h2.929v3.158h1.839v2.107h-1.839v5.984
				c0,0.463,0.059,0.752,0.177,0.867c0.118,0.113,0.478,0.17,1.08,0.17c0.09,0,0.186,0,0.286-0.004
				c0.1-0.004,0.198-0.01,0.296-0.016v2.211l-1.402,0.053c-1.398,0.049-2.354-0.193-2.867-0.727
				c-0.332-0.34-0.498-0.863-0.498-1.568v-6.971H121.372z"/>
			<path fill="#29ABE2" d="M137.755,150.225c0.568,0.242,1.036,0.613,1.401,1.111c0.311,0.424,0.5,0.859,0.568,1.305
				c0.069,0.447,0.104,1.178,0.104,2.189v6.652h-3.022v-6.893c0-0.611-0.103-1.104-0.309-1.477
				c-0.269-0.527-0.777-0.791-1.526-0.791c-0.776,0-1.366,0.262-1.768,0.785c-0.402,0.523-0.604,1.27-0.604,2.24v6.135h-2.96
				v-15.258h2.96v5.402c0.428-0.658,0.922-1.117,1.484-1.377c0.562-0.26,1.152-0.389,1.773-0.389
				C136.554,149.861,137.187,149.982,137.755,150.225z"/>
			<path fill="#29ABE2" d="M149.989,150.391c0.79,0.354,1.441,0.912,1.956,1.676c0.464,0.672,0.765,1.453,0.902,2.34
				c0.079,0.52,0.112,1.27,0.098,2.246h-8.246c0.046,1.137,0.441,1.934,1.185,2.391c0.452,0.283,0.996,0.426,1.632,0.426
				c0.674,0,1.222-0.174,1.644-0.52c0.229-0.188,0.433-0.447,0.609-0.779h3.022c-0.08,0.672-0.446,1.354-1.098,2.045
				c-1.015,1.102-2.434,1.652-4.26,1.652c-1.507,0-2.836-0.465-3.987-1.393c-1.152-0.93-1.728-2.439-1.728-4.533
				c0-1.961,0.52-3.465,1.56-4.512c1.039-1.045,2.389-1.568,4.048-1.568C148.312,149.861,149.199,150.037,149.989,150.391z
				 M145.561,152.947c-0.418,0.432-0.681,1.016-0.788,1.754h5.1c-0.054-0.787-0.316-1.383-0.789-1.789
				c-0.472-0.408-1.057-0.611-1.755-0.611C146.568,152.301,145.979,152.518,145.561,152.947z"/>
			<path fill="#29ABE2" d="M170.019,151.521c0.847,1.074,1.271,2.459,1.271,4.156c0,1.758-0.418,3.215-1.253,4.371
				s-2.001,1.734-3.497,1.734c-0.939,0-1.695-0.186-2.266-0.561c-0.341-0.221-0.71-0.609-1.106-1.162v1.422h-2.919v-15.289h2.96
				v5.443c0.377-0.525,0.791-0.928,1.244-1.205c0.537-0.346,1.22-0.52,2.049-0.52C167.999,149.912,169.172,150.449,170.019,151.521z
				 M167.545,158.418c0.426-0.615,0.639-1.426,0.639-2.43c0-0.803-0.104-1.467-0.314-1.994c-0.397-0.996-1.131-1.496-2.199-1.496
				c-1.082,0-1.825,0.488-2.23,1.465c-0.21,0.52-0.314,1.191-0.314,2.016c0,0.969,0.217,1.771,0.649,2.41
				c0.433,0.637,1.093,0.955,1.979,0.955C166.521,159.344,167.119,159.035,167.545,158.418z"/>
			<path fill="#29ABE2" d="M180.723,150.391c0.79,0.354,1.441,0.912,1.956,1.676c0.464,0.672,0.765,1.453,0.902,2.34
				c0.079,0.52,0.112,1.27,0.098,2.246h-8.246c0.046,1.137,0.441,1.934,1.185,2.391c0.452,0.283,0.996,0.426,1.632,0.426
				c0.674,0,1.222-0.174,1.644-0.52c0.229-0.188,0.433-0.447,0.609-0.779h3.022c-0.08,0.672-0.446,1.354-1.098,2.045
				c-1.015,1.102-2.434,1.652-4.26,1.652c-1.507,0-2.836-0.465-3.987-1.393c-1.152-0.93-1.728-2.439-1.728-4.533
				c0-1.961,0.52-3.465,1.56-4.512c1.039-1.045,2.389-1.568,4.048-1.568C179.045,149.861,179.933,150.037,180.723,150.391z
				 M176.294,152.947c-0.418,0.432-0.681,1.016-0.788,1.754h5.1c-0.054-0.787-0.316-1.383-0.789-1.789
				c-0.472-0.408-1.057-0.611-1.755-0.611C177.302,152.301,176.713,152.518,176.294,152.947z"/>
			<path fill="#29ABE2" d="M187.471,157.869c0.062,0.525,0.198,0.9,0.407,1.121c0.368,0.395,1.051,0.592,2.045,0.592
				c0.585,0,1.049-0.086,1.394-0.26c0.345-0.172,0.517-0.432,0.517-0.779c0-0.332-0.139-0.584-0.416-0.758
				c-0.277-0.172-1.31-0.471-3.097-0.893c-1.286-0.318-2.193-0.717-2.719-1.195c-0.526-0.471-0.79-1.148-0.79-2.035
				c0-1.045,0.411-1.943,1.233-2.695s1.979-1.127,3.472-1.127c1.415,0,2.569,0.281,3.461,0.846s1.403,1.539,1.535,2.924h-2.96
				c-0.042-0.381-0.149-0.682-0.323-0.902c-0.326-0.402-0.882-0.604-1.666-0.604c-0.646,0-1.105,0.102-1.38,0.301
				c-0.274,0.201-0.412,0.438-0.412,0.707c0,0.34,0.146,0.586,0.438,0.738c0.291,0.158,1.321,0.432,3.09,0.82
				c1.18,0.277,2.063,0.695,2.652,1.256c0.581,0.568,0.872,1.277,0.872,2.129c0,1.123-0.418,2.039-1.254,2.748
				s-2.128,1.064-3.877,1.064c-1.783,0-3.1-0.375-3.949-1.127c-0.851-0.752-1.275-1.709-1.275-2.871H187.471z"/>
			<path fill="#29ABE2" d="M195.842,152.373v-2.107h1.579v-3.158h2.929v3.158h1.839v2.107h-1.839v5.984
				c0,0.463,0.059,0.752,0.177,0.867c0.118,0.113,0.478,0.17,1.08,0.17c0.09,0,0.186,0,0.286-0.004
				c0.1-0.004,0.198-0.01,0.296-0.016v2.211l-1.402,0.053c-1.398,0.049-2.354-0.193-2.867-0.727
				c-0.332-0.34-0.498-0.863-0.498-1.568v-6.971H195.842z"/>
			<path fill="#29ABE2" d="M45.178,182.758h-2.961v-15.311h2.961V182.758z"/>
			<path fill="#29ABE2" d="M51.108,170.086h-3.002v-2.732h3.002V170.086z M48.106,171.436h3.002v11.322h-3.002V171.436z"/>
			<path fill="#29ABE2" d="M60.746,175.498c-0.056-0.424-0.198-0.805-0.427-1.143c-0.333-0.457-0.851-0.686-1.552-0.686
				c-0.999,0-1.683,0.494-2.051,1.484c-0.194,0.525-0.291,1.223-0.291,2.094c0,0.828,0.097,1.494,0.291,1.998
				c0.354,0.941,1.021,1.414,1.999,1.414c0.694,0,1.188-0.188,1.479-0.562c0.291-0.373,0.469-0.857,0.531-1.453h3.022
				c-0.069,0.9-0.396,1.752-0.978,2.555c-0.929,1.295-2.305,1.943-4.128,1.943c-1.822,0-3.164-0.541-4.023-1.621
				s-1.289-2.48-1.289-4.201c0-1.943,0.475-3.453,1.425-4.533c0.949-1.08,2.259-1.621,3.93-1.621c1.421,0,2.583,0.318,3.488,0.955
				c0.904,0.637,1.439,1.764,1.606,3.377H60.746z"/>
			<path fill="#29ABE2" d="M73.182,171.666c0.79,0.354,1.441,0.912,1.956,1.674c0.464,0.674,0.765,1.453,0.902,2.342
				c0.079,0.52,0.112,1.268,0.098,2.246h-8.246c0.046,1.135,0.441,1.932,1.185,2.389c0.452,0.283,0.996,0.426,1.632,0.426
				c0.674,0,1.222-0.172,1.644-0.52c0.229-0.188,0.433-0.445,0.609-0.779h3.022c-0.08,0.672-0.446,1.355-1.098,2.047
				c-1.015,1.102-2.434,1.652-4.26,1.652c-1.507,0-2.836-0.465-3.987-1.395c-1.152-0.928-1.728-2.439-1.728-4.531
				c0-1.961,0.52-3.465,1.56-4.512c1.039-1.047,2.389-1.57,4.048-1.57C71.504,171.135,72.392,171.312,73.182,171.666z
				 M68.753,174.223c-0.418,0.432-0.681,1.016-0.788,1.752h5.1c-0.054-0.785-0.316-1.381-0.789-1.789
				c-0.472-0.406-1.057-0.609-1.755-0.609C69.761,173.576,69.172,173.791,68.753,174.223z"/>
			<path fill="#29ABE2" d="M86.764,172.086c0.741,0.611,1.111,1.629,1.111,3.047v7.625h-3.032v-6.887
				c0-0.596-0.079-1.053-0.237-1.371c-0.289-0.582-0.839-0.873-1.649-0.873c-0.997,0-1.681,0.426-2.052,1.277
				c-0.192,0.451-0.289,1.025-0.289,1.725v6.129h-2.96v-11.301h2.866v1.65c0.379-0.58,0.738-1,1.076-1.256
				c0.606-0.457,1.375-0.686,2.307-0.686C85.069,171.166,86.022,171.473,86.764,172.086z"/>
			<path fill="#29ABE2" d="M92.924,179.143c0.062,0.527,0.198,0.9,0.407,1.121c0.368,0.396,1.051,0.594,2.045,0.594
				c0.585,0,1.049-0.088,1.394-0.26c0.345-0.174,0.517-0.434,0.517-0.779c0-0.332-0.139-0.586-0.416-0.758
				c-0.277-0.174-1.31-0.471-3.097-0.895c-1.286-0.318-2.193-0.717-2.719-1.193c-0.526-0.471-0.79-1.15-0.79-2.037
				c0-1.045,0.411-1.943,1.233-2.695c0.822-0.75,1.979-1.127,3.472-1.127c1.415,0,2.569,0.283,3.461,0.848s1.403,1.539,1.535,2.924
				h-2.96c-0.042-0.381-0.149-0.682-0.323-0.904c-0.326-0.4-0.882-0.602-1.666-0.602c-0.646,0-1.105,0.1-1.38,0.301
				s-0.412,0.436-0.412,0.707c0,0.338,0.146,0.584,0.438,0.736c0.291,0.16,1.321,0.434,3.09,0.82
				c1.18,0.277,2.063,0.697,2.652,1.258c0.581,0.566,0.872,1.277,0.872,2.129c0,1.121-0.418,2.037-1.254,2.746
				c-0.836,0.711-2.128,1.066-3.877,1.066c-1.783,0-3.1-0.377-3.949-1.127c-0.851-0.752-1.275-1.709-1.275-2.873H92.924z"/>
			<path fill="#29ABE2" d="M109.836,171.666c0.79,0.354,1.441,0.912,1.956,1.674c0.464,0.674,0.765,1.453,0.902,2.342
				c0.079,0.52,0.112,1.268,0.098,2.246h-8.246c0.046,1.135,0.441,1.932,1.185,2.389c0.452,0.283,0.996,0.426,1.632,0.426
				c0.674,0,1.222-0.172,1.644-0.52c0.229-0.188,0.433-0.445,0.609-0.779h3.022c-0.08,0.672-0.446,1.355-1.098,2.047
				c-1.015,1.102-2.434,1.652-4.26,1.652c-1.507,0-2.836-0.465-3.987-1.395c-1.152-0.928-1.728-2.439-1.728-4.531
				c0-1.961,0.52-3.465,1.56-4.512c1.039-1.047,2.389-1.57,4.048-1.57C108.158,171.135,109.046,171.312,109.836,171.666z
				 M105.407,174.223c-0.418,0.432-0.681,1.016-0.788,1.752h5.1c-0.054-0.785-0.316-1.381-0.789-1.789
				c-0.472-0.406-1.057-0.609-1.755-0.609C106.415,173.576,105.826,173.791,105.407,174.223z"/>
			<path fill="#29ABE2" d="M124.883,167.307c0.152,0.012,0.36,0.027,0.623,0.047v2.41c-0.166-0.021-0.444-0.035-0.836-0.047
				c-0.391-0.01-0.661,0.076-0.81,0.26c-0.149,0.184-0.224,0.387-0.224,0.607c0,0.223,0,0.541,0,0.955h1.942v2.088h-1.942v9.131
				h-2.939v-9.131h-1.662v-2.088h1.621v-0.727c0-1.211,0.204-2.045,0.612-2.502c0.43-0.68,1.465-1.02,3.105-1.02
				C124.562,167.291,124.73,167.297,124.883,167.307z"/>
			<path fill="#29ABE2" d="M136.723,181.373c-0.955,1.18-2.406,1.77-4.352,1.77s-3.396-0.59-4.352-1.77
				c-0.956-1.18-1.434-2.6-1.434-4.262c0-1.631,0.478-3.047,1.434-4.244c0.955-1.195,2.406-1.795,4.352-1.795s3.396,0.6,4.352,1.795
				c0.956,1.197,1.434,2.613,1.434,4.244C138.156,178.773,137.679,180.193,136.723,181.373z M134.354,179.736
				c0.464-0.615,0.696-1.49,0.696-2.625c0-1.133-0.232-2.006-0.696-2.617c-0.464-0.613-1.128-0.918-1.994-0.918
				c-0.865,0-1.531,0.305-1.999,0.918c-0.468,0.611-0.701,1.484-0.701,2.617c0,1.135,0.233,2.01,0.701,2.625
				s1.134,0.924,1.999,0.924C133.227,180.66,133.891,180.352,134.354,179.736z"/>
			<path fill="#29ABE2" d="M146.563,171.172c0.038,0.004,0.123,0.008,0.255,0.016v3.031c-0.187-0.02-0.354-0.033-0.498-0.041
				c-0.146-0.006-0.264-0.01-0.354-0.01c-1.191,0-1.991,0.387-2.399,1.162c-0.229,0.438-0.343,1.109-0.343,2.016v5.412h-2.98
				v-11.322h2.825v1.975c0.457-0.756,0.854-1.271,1.194-1.549c0.554-0.463,1.273-0.695,2.16-0.695
				C146.479,171.166,146.525,171.168,146.563,171.172z"/>
			<path fill="#29ABE2" d="M154.91,184.928l0.374,0.021c0.291,0.014,0.567,0.004,0.831-0.031c0.263-0.035,0.484-0.115,0.664-0.238
				c0.173-0.119,0.334-0.365,0.483-0.738c0.148-0.373,0.213-0.602,0.192-0.686l-4.16-11.82h3.293l2.472,8.352l2.337-8.352h3.146
				l-3.881,11.135c-0.75,2.146-1.344,3.479-1.78,3.994s-1.31,0.773-2.62,0.773c-0.264,0-0.475-0.002-0.634-0.006
				c-0.16-0.004-0.399-0.016-0.718-0.035V184.928z"/>
			<path fill="#29ABE2" d="M175.734,181.373c-0.955,1.18-2.406,1.77-4.352,1.77s-3.396-0.59-4.352-1.77
				c-0.956-1.18-1.434-2.6-1.434-4.262c0-1.631,0.478-3.047,1.434-4.244c0.955-1.195,2.406-1.795,4.352-1.795s3.396,0.6,4.352,1.795
				c0.956,1.197,1.434,2.613,1.434,4.244C177.168,178.773,176.69,180.193,175.734,181.373z M173.366,179.736
				c0.464-0.615,0.696-1.49,0.696-2.625c0-1.133-0.232-2.006-0.696-2.617c-0.464-0.613-1.128-0.918-1.994-0.918
				c-0.865,0-1.531,0.305-1.999,0.918c-0.468,0.611-0.701,1.484-0.701,2.617c0,1.135,0.233,2.01,0.701,2.625
				s1.134,0.924,1.999,0.924C172.238,180.66,172.902,180.352,173.366,179.736z"/>
			<path fill="#29ABE2" d="M182.236,171.436v6.824c0,0.645,0.076,1.129,0.228,1.455c0.269,0.574,0.796,0.861,1.581,0.861
				c1.006,0,1.695-0.408,2.067-1.227c0.192-0.441,0.289-1.027,0.289-1.754v-6.16h3.002v11.322h-2.877v-1.6
				c-0.028,0.035-0.097,0.139-0.207,0.311c-0.111,0.174-0.242,0.326-0.394,0.457c-0.463,0.416-0.91,0.699-1.342,0.852
				s-0.938,0.229-1.518,0.229c-1.671,0-2.796-0.602-3.376-1.807c-0.325-0.664-0.487-1.645-0.487-2.939v-6.824H182.236z"/>
		</g>
	</g>
	<g>
		<g>
			<path fill="#FFFFFF" d="M72.661,209.27h-4.229v1.697h3.883v1.389h-3.883v2.055h4.425v1.438H66.8v-7.992h5.861V209.27z"/>
			<path fill="#FFFFFF" d="M77.168,210.031c0.278,0.158,0.504,0.375,0.678,0.654v-2.82h1.567v7.982H77.91v-0.818
				c-0.22,0.35-0.472,0.605-0.753,0.764c-0.282,0.158-0.633,0.238-1.052,0.238c-0.691,0-1.272-0.279-1.744-0.838
				s-0.707-1.275-0.707-2.15c0-1.008,0.232-1.801,0.696-2.379c0.465-0.578,1.086-0.869,1.863-0.869
				C76.571,209.795,76.89,209.875,77.168,210.031z M77.547,214.242c0.229-0.326,0.342-0.746,0.342-1.264
				c0-0.723-0.183-1.24-0.548-1.551c-0.224-0.188-0.484-0.281-0.78-0.281c-0.452,0-0.783,0.17-0.995,0.512
				c-0.211,0.342-0.317,0.766-0.317,1.271c0,0.547,0.107,0.982,0.323,1.311c0.215,0.326,0.541,0.49,0.979,0.49
				S77.319,214.568,77.547,214.242z"/>
			<path fill="#FFFFFF" d="M82.405,209.232h-1.566v-1.426h1.566V209.232z M80.839,209.938h1.566v5.91h-1.566V209.938z"/>
			<path fill="#FFFFFF" d="M83.295,211.092v-1.102h0.824v-1.648h1.528v1.648h0.96v1.102h-0.96v3.123
				c0,0.242,0.031,0.393,0.093,0.453c0.062,0.059,0.249,0.09,0.563,0.09c0.047,0,0.097-0.002,0.149-0.004s0.104-0.004,0.154-0.008
				v1.156l-0.731,0.025c-0.73,0.025-1.229-0.1-1.497-0.379c-0.174-0.178-0.26-0.449-0.26-0.818v-3.639H83.295z"/>
			<path fill="#FFFFFF" d="M92.529,215.125c-0.499,0.615-1.257,0.922-2.272,0.922s-1.772-0.307-2.271-0.922
				c-0.499-0.617-0.749-1.357-0.749-2.225c0-0.854,0.25-1.592,0.749-2.217s1.256-0.938,2.271-0.938s1.773,0.312,2.272,0.938
				c0.498,0.625,0.748,1.363,0.748,2.217C93.277,213.768,93.027,214.508,92.529,215.125z M91.293,214.27
				c0.242-0.32,0.363-0.777,0.363-1.369s-0.121-1.049-0.363-1.367c-0.242-0.32-0.59-0.479-1.041-0.479
				c-0.452,0-0.8,0.158-1.044,0.479c-0.244,0.318-0.366,0.775-0.366,1.367s0.122,1.049,0.366,1.369
				c0.244,0.322,0.592,0.482,1.044,0.482C90.703,214.752,91.051,214.592,91.293,214.27z"/>
			<path fill="#FFFFFF" d="M97.666,209.799c0.021,0.002,0.064,0.004,0.134,0.008v1.584c-0.098-0.012-0.185-0.02-0.261-0.021
				c-0.076-0.004-0.138-0.006-0.185-0.006c-0.621,0-1.039,0.201-1.252,0.607c-0.12,0.227-0.18,0.578-0.18,1.051v2.826h-1.556v-5.91
				h1.475v1.029c0.238-0.395,0.446-0.662,0.624-0.809c0.289-0.24,0.665-0.363,1.128-0.363
				C97.622,209.795,97.646,209.797,97.666,209.799z"/>
			<path fill="#FFFFFF" d="M100.293,209.232h-1.566v-1.426h1.566V209.232z M98.727,209.938h1.566v5.91h-1.566V209.938z"/>
			<path fill="#FFFFFF" d="M104.132,212.252c0.287-0.035,0.493-0.082,0.617-0.135c0.222-0.094,0.333-0.24,0.333-0.439
				c0-0.242-0.085-0.41-0.256-0.502c-0.17-0.092-0.42-0.139-0.75-0.139c-0.37,0-0.632,0.092-0.786,0.271
				c-0.11,0.135-0.184,0.314-0.22,0.543h-1.491c0.032-0.518,0.178-0.941,0.436-1.275c0.41-0.52,1.114-0.781,2.113-0.781
				c0.649,0,1.227,0.129,1.731,0.387c0.505,0.256,0.757,0.74,0.757,1.453v2.711c0,0.188,0.004,0.416,0.011,0.684
				c0.011,0.201,0.042,0.34,0.093,0.412c0.05,0.072,0.126,0.131,0.228,0.178v0.229h-1.681c-0.048-0.119-0.08-0.232-0.098-0.336
				c-0.019-0.105-0.033-0.225-0.044-0.359c-0.214,0.232-0.462,0.43-0.741,0.592c-0.335,0.191-0.713,0.287-1.135,0.287
				c-0.538,0-0.982-0.152-1.333-0.457c-0.352-0.307-0.526-0.738-0.526-1.299c0-0.727,0.282-1.254,0.847-1.578
				c0.31-0.178,0.765-0.305,1.365-0.381L104.132,212.252z M105.076,212.973c-0.099,0.062-0.198,0.111-0.3,0.15
				c-0.101,0.037-0.238,0.072-0.415,0.105l-0.352,0.064c-0.329,0.059-0.566,0.129-0.71,0.211c-0.243,0.143-0.365,0.361-0.365,0.656
				c0,0.264,0.074,0.455,0.223,0.572c0.149,0.117,0.33,0.176,0.543,0.176c0.338,0,0.648-0.098,0.933-0.291
				c0.285-0.195,0.433-0.553,0.443-1.068V212.973z"/>
			<path fill="#FFFFFF" d="M109.544,215.848h-1.545v-7.992h1.545V215.848z"/>
			<path fill="#FFFFFF" d="M114.262,207.855h1.697v4.908c0,0.549,0.064,0.949,0.194,1.203c0.202,0.447,0.642,0.672,1.318,0.672
				c0.674,0,1.111-0.225,1.313-0.672c0.129-0.254,0.194-0.654,0.194-1.203v-4.908h1.697v4.912c0,0.85-0.132,1.512-0.396,1.984
				c-0.49,0.867-1.427,1.301-2.81,1.301c-1.382,0-2.32-0.434-2.814-1.301c-0.264-0.473-0.396-1.135-0.396-1.984V207.855z"/>
			<path fill="#FFFFFF" d="M123.355,213.961c0.032,0.273,0.104,0.469,0.212,0.584c0.192,0.207,0.549,0.311,1.068,0.311
				c0.305,0,0.547-0.045,0.727-0.137c0.181-0.09,0.271-0.225,0.271-0.406c0-0.174-0.073-0.305-0.218-0.396
				c-0.145-0.09-0.684-0.244-1.616-0.465c-0.672-0.166-1.146-0.375-1.42-0.625c-0.274-0.244-0.412-0.6-0.412-1.062
				c0-0.545,0.215-1.014,0.644-1.406c0.43-0.393,1.034-0.588,1.812-0.588c0.739,0,1.342,0.146,1.807,0.441
				c0.466,0.295,0.733,0.803,0.802,1.525h-1.545c-0.022-0.197-0.078-0.355-0.169-0.471c-0.17-0.209-0.46-0.314-0.87-0.314
				c-0.337,0-0.577,0.053-0.72,0.156c-0.144,0.105-0.215,0.229-0.215,0.369c0,0.178,0.076,0.307,0.228,0.385
				c0.152,0.084,0.69,0.227,1.614,0.43c0.615,0.145,1.077,0.363,1.384,0.654c0.304,0.297,0.456,0.668,0.456,1.113
				c0,0.584-0.219,1.062-0.655,1.434s-1.11,0.555-2.023,0.555c-0.931,0-1.618-0.195-2.062-0.588
				c-0.443-0.393-0.665-0.891-0.665-1.498H123.355z"/>
			<path fill="#FFFFFF" d="M132.184,210.057c0.412,0.186,0.753,0.477,1.021,0.875c0.242,0.35,0.399,0.758,0.471,1.221
				c0.042,0.271,0.059,0.662,0.051,1.174h-4.304c0.023,0.592,0.229,1.008,0.617,1.246c0.236,0.148,0.521,0.223,0.853,0.223
				c0.352,0,0.638-0.09,0.858-0.271c0.119-0.098,0.226-0.232,0.317-0.406h1.578c-0.042,0.352-0.232,0.707-0.573,1.068
				c-0.529,0.574-1.271,0.861-2.224,0.861c-0.786,0-1.48-0.242-2.082-0.727c-0.601-0.484-0.901-1.273-0.901-2.365
				c0-1.025,0.271-1.811,0.814-2.355c0.542-0.547,1.247-0.82,2.113-0.82C131.309,209.779,131.771,209.871,132.184,210.057z
				 M129.872,211.391c-0.219,0.227-0.355,0.531-0.412,0.916h2.663c-0.028-0.41-0.166-0.723-0.412-0.934
				c-0.246-0.213-0.552-0.318-0.916-0.318C130.397,211.055,130.091,211.166,129.872,211.391z"/>
			<path fill="#FFFFFF" d="M143.873,215.137c-0.604,0.621-1.477,0.934-2.619,0.934c-1.142,0-2.015-0.312-2.618-0.934
				c-0.811-0.762-1.215-1.861-1.215-3.297c0-1.463,0.404-2.562,1.215-3.297c0.604-0.621,1.477-0.932,2.618-0.932
				c1.143,0,2.016,0.311,2.619,0.932c0.807,0.734,1.209,1.834,1.209,3.297C145.082,213.275,144.68,214.375,143.873,215.137z
				 M142.829,213.922c0.389-0.488,0.583-1.182,0.583-2.082c0-0.896-0.194-1.59-0.583-2.08c-0.389-0.488-0.913-0.734-1.575-0.734
				c-0.661,0-1.189,0.244-1.583,0.732s-0.591,1.182-0.591,2.082s0.197,1.594,0.591,2.082s0.922,0.732,1.583,0.732
				C141.916,214.654,142.44,214.41,142.829,213.922z"/>
			<path fill="#FFFFFF" d="M150.998,210.275c0.387,0.32,0.58,0.852,0.58,1.592v3.98h-1.583v-3.596c0-0.311-0.041-0.549-0.124-0.715
				c-0.15-0.305-0.438-0.457-0.861-0.457c-0.521,0-0.877,0.223-1.071,0.668c-0.101,0.234-0.15,0.535-0.15,0.9v3.199h-1.545v-5.9
				h1.496v0.863c0.198-0.305,0.385-0.523,0.562-0.656c0.316-0.238,0.718-0.359,1.204-0.359
				C150.113,209.795,150.611,209.955,150.998,210.275z"/>
			<path fill="#FFFFFF" d="M154.593,215.848h-1.545v-7.992h1.545V215.848z"/>
			<path fill="#FFFFFF" d="M156.333,216.98l0.195,0.012c0.152,0.006,0.297,0,0.434-0.018c0.138-0.018,0.253-0.059,0.348-0.125
				c0.09-0.061,0.174-0.189,0.252-0.385c0.077-0.195,0.111-0.314,0.101-0.357l-2.172-6.17h1.719l1.29,4.359l1.221-4.359h1.643
				l-2.026,5.812c-0.392,1.121-0.701,1.814-0.929,2.084c-0.229,0.27-0.685,0.404-1.368,0.404c-0.138,0-0.248,0-0.331-0.002
				s-0.208-0.008-0.375-0.02V216.98z"/>
		</g>
	</g>
	<g>
		<path fill="#FFFFFF" stroke="#9C9B9B" stroke-width="1.2753" stroke-miterlimit="10" d="M57.064,214.98
			c0,1.271-1.032,2.303-2.306,2.303h-8.953c-1.271,0-2.304-1.031-2.304-2.303v-8.955c0-1.273,1.032-2.305,2.304-2.305h8.953
			c1.273,0,2.306,1.031,2.306,2.305V214.98z"/>
	</g>
	<g>
		<path fill="#FFFFFF" stroke="#9C9B9B" stroke-width="1.2753" stroke-miterlimit="10" d="M57.066,240.984
			c0,1.271-1.034,2.303-2.308,2.303h-8.952c-1.271,0-2.305-1.031-2.305-2.303v-8.955c0-1.271,1.033-2.305,2.305-2.305h8.952
			c1.273,0,2.308,1.033,2.308,2.305V240.984z"/>
		<path fill="#35A8E0" d="M45.807,241.268c-0.157,0-0.285-0.127-0.285-0.283v-8.955c0-0.156,0.128-0.285,0.285-0.285h8.952
			c0.158,0,0.286,0.129,0.286,0.285v8.955c0,0.156-0.128,0.283-0.286,0.283H45.807z"/>
	</g>
	<g>
		<g>
			<path fill="#FFFFFF" d="M67.515,234.693c0.644-0.658,1.463-0.986,2.457-0.986c1.33,0,2.303,0.441,2.918,1.322
				c0.34,0.496,0.522,0.992,0.547,1.492h-1.67c-0.106-0.383-0.242-0.674-0.409-0.867c-0.297-0.348-0.738-0.521-1.322-0.521
				c-0.595,0-1.064,0.244-1.408,0.734c-0.343,0.49-0.515,1.184-0.515,2.08s0.181,1.568,0.544,2.014
				c0.362,0.447,0.822,0.67,1.381,0.67c0.573,0,1.01-0.191,1.311-0.574c0.166-0.207,0.304-0.516,0.414-0.928h1.659
				c-0.144,0.871-0.509,1.58-1.098,2.125c-0.588,0.547-1.342,0.82-2.261,0.82c-1.137,0-2.031-0.369-2.682-1.107
				c-0.651-0.74-0.977-1.756-0.977-3.047C66.404,236.525,66.774,235.449,67.515,234.693z"/>
			<path fill="#FFFFFF" d="M79.575,241.129c-0.499,0.615-1.257,0.922-2.272,0.922s-1.772-0.307-2.271-0.922
				c-0.499-0.617-0.749-1.357-0.749-2.225c0-0.854,0.25-1.592,0.749-2.217s1.256-0.938,2.271-0.938s1.773,0.312,2.272,0.938
				c0.498,0.625,0.748,1.363,0.748,2.217C80.323,239.771,80.073,240.512,79.575,241.129z M78.339,240.273
				c0.242-0.32,0.363-0.777,0.363-1.369s-0.121-1.049-0.363-1.367c-0.242-0.32-0.59-0.479-1.041-0.479
				c-0.452,0-0.8,0.158-1.044,0.479c-0.244,0.318-0.366,0.775-0.366,1.367s0.122,1.049,0.366,1.369
				c0.244,0.322,0.592,0.482,1.044,0.482C77.749,240.756,78.097,240.596,78.339,240.273z"/>
			<path fill="#FFFFFF" d="M88.804,235.963c0.253,0.102,0.482,0.277,0.688,0.531c0.166,0.205,0.278,0.459,0.336,0.76
				c0.036,0.197,0.055,0.488,0.055,0.871l-0.011,3.727h-1.584v-3.764c0-0.225-0.036-0.408-0.108-0.553
				c-0.137-0.275-0.39-0.412-0.759-0.412c-0.427,0-0.722,0.178-0.884,0.531c-0.083,0.188-0.125,0.414-0.125,0.678v3.52h-1.556v-3.52
				c0-0.352-0.036-0.605-0.108-0.764c-0.131-0.287-0.386-0.43-0.765-0.43c-0.441,0-0.737,0.143-0.89,0.43
				c-0.083,0.162-0.125,0.404-0.125,0.727v3.557h-1.566v-5.9h1.502v0.863c0.191-0.309,0.372-0.527,0.542-0.656
				c0.3-0.232,0.688-0.348,1.166-0.348c0.451,0,0.816,0.1,1.095,0.299c0.225,0.184,0.395,0.42,0.51,0.709
				c0.203-0.346,0.454-0.602,0.754-0.764c0.318-0.162,0.673-0.244,1.062-0.244C88.294,235.811,88.551,235.861,88.804,235.963z"/>
			<path fill="#FFFFFF" d="M98.678,235.963c0.253,0.102,0.482,0.277,0.688,0.531c0.166,0.205,0.278,0.459,0.336,0.76
				c0.036,0.197,0.055,0.488,0.055,0.871l-0.011,3.727h-1.584v-3.764c0-0.225-0.036-0.408-0.108-0.553
				c-0.137-0.275-0.39-0.412-0.759-0.412c-0.427,0-0.722,0.178-0.884,0.531c-0.083,0.188-0.125,0.414-0.125,0.678v3.52H94.73v-3.52
				c0-0.352-0.036-0.605-0.108-0.764c-0.131-0.287-0.386-0.43-0.765-0.43c-0.441,0-0.737,0.143-0.89,0.43
				c-0.083,0.162-0.125,0.404-0.125,0.727v3.557h-1.566v-5.9h1.502v0.863c0.191-0.309,0.372-0.527,0.542-0.656
				c0.3-0.232,0.688-0.348,1.166-0.348c0.451,0,0.816,0.1,1.095,0.299c0.225,0.184,0.395,0.42,0.51,0.709
				c0.203-0.346,0.454-0.602,0.754-0.764c0.318-0.162,0.673-0.244,1.062-0.244C98.168,235.811,98.425,235.861,98.678,235.963z"/>
			<path fill="#FFFFFF" d="M105.028,236.061c0.412,0.186,0.753,0.477,1.021,0.875c0.242,0.35,0.399,0.758,0.471,1.221
				c0.042,0.271,0.059,0.662,0.051,1.174h-4.304c0.023,0.592,0.229,1.008,0.617,1.246c0.236,0.148,0.521,0.223,0.853,0.223
				c0.352,0,0.638-0.09,0.858-0.271c0.119-0.098,0.226-0.232,0.317-0.406h1.578c-0.042,0.352-0.232,0.707-0.573,1.068
				c-0.529,0.574-1.271,0.861-2.224,0.861c-0.786,0-1.48-0.242-2.082-0.727c-0.601-0.484-0.901-1.273-0.901-2.365
				c0-1.025,0.271-1.811,0.814-2.355c0.542-0.547,1.247-0.82,2.113-0.82C104.153,235.783,104.616,235.875,105.028,236.061z
				 M102.717,237.395c-0.219,0.227-0.355,0.531-0.412,0.916h2.663c-0.028-0.41-0.166-0.723-0.412-0.934
				c-0.246-0.213-0.552-0.318-0.916-0.318C103.242,237.059,102.936,237.17,102.717,237.395z"/>
			<path fill="#FFFFFF" d="M110.637,235.803c0.021,0.002,0.064,0.004,0.134,0.008v1.584c-0.098-0.012-0.185-0.02-0.261-0.021
				c-0.076-0.004-0.138-0.006-0.185-0.006c-0.621,0-1.039,0.201-1.252,0.607c-0.12,0.227-0.18,0.578-0.18,1.051v2.826h-1.556v-5.91
				h1.475v1.029c0.238-0.395,0.446-0.662,0.624-0.809c0.289-0.24,0.665-0.363,1.128-0.363
				C110.593,235.799,110.617,235.801,110.637,235.803z"/>
			<path fill="#FFFFFF" d="M115.211,238.061c-0.029-0.221-0.104-0.42-0.223-0.596c-0.175-0.238-0.444-0.357-0.811-0.357
				c-0.521,0-0.879,0.258-1.07,0.775c-0.102,0.273-0.152,0.637-0.152,1.092c0,0.432,0.051,0.781,0.152,1.043
				c0.185,0.492,0.532,0.738,1.043,0.738c0.362,0,0.62-0.098,0.772-0.293s0.244-0.447,0.277-0.76h1.577
				c-0.036,0.471-0.206,0.916-0.51,1.334c-0.485,0.676-1.203,1.014-2.155,1.014c-0.951,0-1.651-0.281-2.101-0.846
				c-0.448-0.562-0.673-1.295-0.673-2.193c0-1.014,0.248-1.803,0.744-2.365c0.495-0.564,1.18-0.848,2.052-0.848
				c0.741,0,1.349,0.168,1.82,0.5c0.473,0.332,0.752,0.92,0.839,1.762H115.211z"/>
			<path fill="#FFFFFF" d="M119.439,235.236h-1.566v-1.426h1.566V235.236z M117.873,235.941h1.566v5.91h-1.566V235.941z"/>
			<path fill="#FFFFFF" d="M123.277,238.256c0.287-0.035,0.493-0.082,0.617-0.135c0.222-0.094,0.333-0.24,0.333-0.439
				c0-0.242-0.085-0.41-0.256-0.502c-0.17-0.092-0.42-0.139-0.75-0.139c-0.37,0-0.632,0.092-0.786,0.271
				c-0.11,0.135-0.184,0.314-0.22,0.543h-1.491c0.032-0.518,0.178-0.941,0.436-1.275c0.41-0.52,1.114-0.781,2.113-0.781
				c0.649,0,1.227,0.129,1.731,0.387c0.505,0.256,0.757,0.74,0.757,1.453v2.711c0,0.188,0.004,0.416,0.011,0.684
				c0.011,0.201,0.042,0.34,0.093,0.412c0.05,0.072,0.126,0.131,0.228,0.178v0.229h-1.681c-0.048-0.119-0.08-0.232-0.098-0.336
				c-0.019-0.105-0.033-0.225-0.044-0.359c-0.214,0.232-0.462,0.43-0.741,0.592c-0.335,0.191-0.713,0.287-1.135,0.287
				c-0.538,0-0.982-0.152-1.333-0.457c-0.352-0.307-0.526-0.738-0.526-1.299c0-0.727,0.282-1.254,0.847-1.578
				c0.31-0.178,0.765-0.305,1.365-0.381L123.277,238.256z M124.222,238.977c-0.099,0.062-0.198,0.111-0.3,0.15
				c-0.101,0.037-0.238,0.072-0.415,0.105l-0.352,0.064c-0.329,0.059-0.566,0.129-0.71,0.211c-0.243,0.143-0.365,0.361-0.365,0.656
				c0,0.264,0.074,0.455,0.223,0.572c0.149,0.117,0.33,0.176,0.543,0.176c0.338,0,0.648-0.098,0.933-0.291
				c0.285-0.195,0.433-0.553,0.443-1.068V238.977z"/>
			<path fill="#FFFFFF" d="M128.69,241.852h-1.545v-7.992h1.545V241.852z"/>
			<path fill="#FFFFFF" d="M133.407,233.859h1.697v4.908c0,0.549,0.064,0.949,0.194,1.203c0.202,0.447,0.642,0.672,1.318,0.672
				c0.674,0,1.111-0.225,1.313-0.672c0.129-0.254,0.194-0.654,0.194-1.203v-4.908h1.697v4.912c0,0.85-0.132,1.512-0.396,1.984
				c-0.49,0.867-1.427,1.301-2.81,1.301c-1.382,0-2.32-0.434-2.814-1.301c-0.264-0.473-0.396-1.135-0.396-1.984V233.859z"/>
			<path fill="#FFFFFF" d="M142.501,239.965c0.032,0.273,0.104,0.469,0.212,0.584c0.192,0.207,0.549,0.311,1.068,0.311
				c0.305,0,0.547-0.045,0.727-0.137c0.181-0.09,0.271-0.225,0.271-0.406c0-0.174-0.073-0.305-0.218-0.396
				c-0.145-0.09-0.684-0.244-1.616-0.465c-0.672-0.166-1.146-0.375-1.42-0.625c-0.274-0.244-0.412-0.6-0.412-1.062
				c0-0.545,0.215-1.014,0.644-1.406c0.43-0.393,1.034-0.588,1.812-0.588c0.739,0,1.342,0.146,1.807,0.441
				c0.466,0.295,0.733,0.803,0.802,1.525h-1.545c-0.022-0.197-0.078-0.355-0.169-0.471c-0.17-0.209-0.46-0.314-0.87-0.314
				c-0.337,0-0.577,0.053-0.72,0.156c-0.144,0.105-0.215,0.229-0.215,0.369c0,0.178,0.076,0.307,0.228,0.385
				c0.152,0.084,0.69,0.227,1.614,0.43c0.615,0.145,1.077,0.363,1.384,0.654c0.304,0.297,0.456,0.668,0.456,1.113
				c0,0.584-0.219,1.062-0.655,1.434s-1.11,0.555-2.023,0.555c-0.931,0-1.618-0.195-2.062-0.588
				c-0.443-0.393-0.665-0.891-0.665-1.498H142.501z"/>
			<path fill="#FFFFFF" d="M151.33,236.061c0.412,0.186,0.753,0.477,1.021,0.875c0.242,0.35,0.399,0.758,0.471,1.221
				c0.042,0.271,0.059,0.662,0.051,1.174h-4.304c0.023,0.592,0.229,1.008,0.617,1.246c0.236,0.148,0.521,0.223,0.853,0.223
				c0.352,0,0.638-0.09,0.858-0.271c0.119-0.098,0.226-0.232,0.317-0.406h1.578c-0.042,0.352-0.232,0.707-0.573,1.068
				c-0.529,0.574-1.271,0.861-2.224,0.861c-0.786,0-1.48-0.242-2.082-0.727c-0.601-0.484-0.901-1.273-0.901-2.365
				c0-1.025,0.271-1.811,0.814-2.355c0.542-0.547,1.247-0.82,2.113-0.82C150.455,235.783,150.918,235.875,151.33,236.061z
				 M149.019,237.395c-0.219,0.227-0.355,0.531-0.412,0.916h2.663c-0.028-0.41-0.166-0.723-0.412-0.934
				c-0.246-0.213-0.552-0.318-0.916-0.318C149.544,237.059,149.237,237.17,149.019,237.395z"/>
		</g>
	</g>
	<g>
		<polygon fill="#FFFFFF" points="59.154,249.041 59.154,251.869 57.74,251.869 57.74,247.627 56.325,247.627 56.325,250.453 
			54.912,250.453 54.912,246.213 53.498,246.213 53.498,250.453 52.085,250.453 52.085,240.557 49.256,240.557 49.256,254.695 
			47.842,254.695 47.842,251.869 46.428,251.869 46.428,250.453 45.014,250.453 45.014,249.041 42.188,249.041 42.188,251.869 
			43.601,251.869 43.601,253.281 45.014,253.281 45.014,256.111 46.428,256.111 46.428,257.525 47.842,257.525 47.842,258.939 
			49.256,258.939 49.256,261.768 57.74,261.768 57.74,258.939 59.154,258.939 59.154,256.111 60.566,256.111 60.566,249.041 		"/>
		<path fill="#000100" d="M40.773,251.869h1.414v-2.828h-1.414V251.869z M42.188,247.627v1.414h2.826v-1.414H42.188z
			 M45.014,249.041v1.412h1.414v-1.412H45.014z M47.842,250.453h-1.414v1.416h1.414v2.826h1.414v-14.139h-1.414V250.453z
			 M49.256,239.143v1.414h2.829v-1.414H49.256z M43.601,253.281v-1.412h-1.413v1.412H43.601z M45.014,256.111v-2.83h-1.413v2.83
			H45.014z M46.428,257.525v-1.414h-1.414v1.414H46.428z M47.842,258.939v-1.414h-1.414v1.414H47.842z M49.256,261.768v-2.828
			h-1.414v2.828H49.256z M59.154,247.627v-1.414h-2.829v-1.414h-2.827v-4.242h-1.413v9.896h1.413v-4.24h1.414v4.24h1.413v-2.826
			h1.415v4.242h1.414v-2.828h1.412v7.07h1.414v-8.484H59.154z M59.154,258.939h1.412v-2.828h-1.412V258.939z M57.74,261.768h1.414
			v-2.828H57.74V261.768z"/>
	</g>
	<g>
		<g>
			<path fill="#29ABE2" d="M51.676,51.404c0.923,0.977,1.385,2.41,1.385,4.301c0,1.994-0.451,3.514-1.354,4.56
				c-0.902,1.045-2.064,1.568-3.486,1.568c-0.906,0-1.659-0.226-2.258-0.676c-0.328-0.249-0.648-0.612-0.962-1.09v5.899h-2.93
				V50.189h2.836v1.672c0.32-0.491,0.662-0.879,1.024-1.163c0.662-0.505,1.449-0.758,2.362-0.758
				C49.625,49.94,50.752,50.429,51.676,51.404z M49.403,53.534c-0.402-0.672-1.055-1.008-1.957-1.008
				c-1.084,0-1.829,0.509-2.234,1.527c-0.21,0.54-0.315,1.226-0.315,2.056c0,1.316,0.354,2.24,1.06,2.773
				c0.419,0.312,0.916,0.468,1.49,0.468c0.832,0,1.468-0.318,1.904-0.956c0.438-0.637,0.656-1.485,0.656-2.544
				C50.007,54.978,49.806,54.206,49.403,53.534z"/>
			<path fill="#29ABE2" d="M58.191,48.839h-3.002v-2.731h3.002V48.839z M55.189,50.189h3.002v11.321h-3.002V50.189z"/>
			<path fill="#29ABE2" d="M67.83,54.251c-0.056-0.423-0.198-0.804-0.427-1.143c-0.333-0.457-0.851-0.686-1.552-0.686
				c-0.999,0-1.683,0.495-2.051,1.485c-0.194,0.524-0.291,1.223-0.291,2.093c0,0.828,0.097,1.495,0.291,1.999
				c0.354,0.941,1.021,1.413,1.999,1.413c0.694,0,1.188-0.188,1.479-0.562s0.469-0.858,0.531-1.454h3.022
				c-0.069,0.9-0.396,1.752-0.978,2.556c-0.929,1.295-2.305,1.942-4.128,1.942c-1.822,0-3.164-0.541-4.023-1.621
				s-1.289-2.48-1.289-4.201c0-1.942,0.475-3.453,1.425-4.533c0.949-1.08,2.259-1.62,3.93-1.62c1.421,0,2.583,0.318,3.488,0.955
				c0.904,0.637,1.439,1.763,1.606,3.376H67.83z"/>
			<path fill="#29ABE2" d="M72.857,46.253h2.908v8.259l3.733-4.271h3.681l-4.058,4.218l4.215,7.052h-3.603l-2.743-4.837
				l-1.226,1.274v3.562h-2.908V46.253z"/>
			<path fill="#29ABE2" d="M95.112,54.625c0.551-0.069,0.945-0.156,1.183-0.26c0.426-0.181,0.638-0.461,0.638-0.842
				c0-0.464-0.163-0.784-0.489-0.961c-0.326-0.176-0.806-0.265-1.438-0.265c-0.708,0-1.21,0.173-1.505,0.52
				c-0.211,0.256-0.352,0.603-0.421,1.038h-2.856c0.062-0.989,0.341-1.803,0.834-2.44c0.786-0.997,2.135-1.495,4.048-1.495
				c1.244,0,2.351,0.245,3.317,0.737c0.966,0.491,1.449,1.419,1.449,2.783v5.193c0,0.36,0.007,0.796,0.021,1.309
				c0.021,0.388,0.079,0.651,0.176,0.789c0.098,0.139,0.243,0.253,0.437,0.343v0.437h-3.22c-0.09-0.229-0.152-0.443-0.187-0.644
				c-0.035-0.201-0.062-0.43-0.083-0.686c-0.411,0.442-0.885,0.82-1.421,1.132c-0.642,0.367-1.365,0.551-2.174,0.551
				c-1.03,0-1.882-0.293-2.554-0.878s-1.008-1.414-1.008-2.487c0-1.393,0.54-2.399,1.621-3.022c0.593-0.34,1.465-0.582,2.616-0.728
				L95.112,54.625z M96.923,56.006c-0.189,0.118-0.381,0.213-0.574,0.286c-0.193,0.072-0.458,0.14-0.795,0.202l-0.674,0.125
				c-0.632,0.11-1.085,0.245-1.36,0.404c-0.467,0.271-0.699,0.689-0.699,1.257c0,0.506,0.142,0.871,0.427,1.096
				c0.285,0.226,0.631,0.338,1.039,0.338c0.646,0,1.242-0.187,1.787-0.561s0.828-1.056,0.85-2.047V56.006z"/>
			<path fill="#29ABE2" d="M113.97,50.179c0.719,0.298,1.3,0.846,1.742,1.642v-1.631h2.888v10.739c0,1.461-0.246,2.562-0.737,3.304
				c-0.846,1.273-2.466,1.911-4.861,1.911c-1.447,0-2.628-0.284-3.542-0.853c-0.914-0.567-1.419-1.416-1.517-2.544h3.221
				c0.083,0.346,0.218,0.595,0.404,0.747c0.318,0.271,0.855,0.405,1.61,0.405c1.066,0,1.779-0.356,2.14-1.069
				c0.235-0.457,0.353-1.226,0.353-2.306v-0.728c-0.283,0.484-0.588,0.849-0.913,1.091c-0.589,0.45-1.354,0.675-2.296,0.675
				c-1.454,0-2.616-0.511-3.484-1.532c-0.869-1.021-1.304-2.404-1.304-4.149c0-1.683,0.418-3.097,1.255-4.242
				c0.837-1.146,2.023-1.719,3.559-1.719C113.053,49.92,113.547,50.006,113.97,50.179z M114.978,58.296
				c0.476-0.522,0.714-1.355,0.714-2.498c0-1.073-0.227-1.89-0.678-2.451c-0.452-0.561-1.057-0.841-1.815-0.841
				c-1.034,0-1.748,0.488-2.141,1.464c-0.207,0.52-0.311,1.16-0.311,1.922c0,0.658,0.11,1.243,0.331,1.756
				c0.399,0.955,1.117,1.433,2.151,1.433C113.919,59.08,114.502,58.819,114.978,58.296z"/>
			<path fill="#29ABE2" d="M127.65,49.925c0.038,0.004,0.123,0.009,0.255,0.016v3.032c-0.187-0.021-0.354-0.034-0.498-0.041
				c-0.146-0.007-0.264-0.011-0.354-0.011c-1.191,0-1.991,0.388-2.399,1.163c-0.229,0.437-0.343,1.108-0.343,2.016v5.411h-2.98
				V50.189h2.825v1.974c0.457-0.755,0.854-1.271,1.194-1.548c0.554-0.464,1.273-0.695,2.16-0.695
				C127.566,49.92,127.612,49.921,127.65,49.925z"/>
			<path fill="#29ABE2" d="M137.017,50.419c0.79,0.354,1.441,0.912,1.956,1.675c0.464,0.673,0.765,1.453,0.902,2.341
				c0.079,0.52,0.112,1.269,0.098,2.246h-8.246c0.046,1.136,0.441,1.933,1.185,2.39c0.452,0.283,0.996,0.426,1.632,0.426
				c0.674,0,1.222-0.173,1.644-0.52c0.229-0.188,0.433-0.446,0.609-0.779h3.022c-0.08,0.672-0.446,1.354-1.098,2.046
				c-1.015,1.102-2.434,1.652-4.26,1.652c-1.507,0-2.836-0.465-3.987-1.394c-1.152-0.929-1.728-2.439-1.728-4.532
				c0-1.961,0.52-3.465,1.56-4.512c1.039-1.046,2.389-1.569,4.048-1.569C135.339,49.889,136.227,50.065,137.017,50.419z
				 M132.588,52.976c-0.418,0.432-0.681,1.016-0.788,1.753h5.1c-0.054-0.786-0.316-1.382-0.789-1.789
				c-0.472-0.407-1.057-0.61-1.755-0.61C133.596,52.329,133.007,52.545,132.588,52.976z"/>
			<path fill="#29ABE2" d="M145.953,54.625c0.551-0.069,0.945-0.156,1.183-0.26c0.426-0.181,0.638-0.461,0.638-0.842
				c0-0.464-0.163-0.784-0.489-0.961c-0.326-0.176-0.806-0.265-1.438-0.265c-0.708,0-1.21,0.173-1.505,0.52
				c-0.211,0.256-0.352,0.603-0.421,1.038h-2.856c0.062-0.989,0.341-1.803,0.834-2.44c0.786-0.997,2.135-1.495,4.048-1.495
				c1.244,0,2.351,0.245,3.317,0.737c0.966,0.491,1.449,1.419,1.449,2.783v5.193c0,0.36,0.007,0.796,0.021,1.309
				c0.021,0.388,0.079,0.651,0.176,0.789c0.098,0.139,0.243,0.253,0.437,0.343v0.437h-3.22c-0.09-0.229-0.152-0.443-0.187-0.644
				c-0.035-0.201-0.062-0.43-0.083-0.686c-0.411,0.442-0.885,0.82-1.421,1.132c-0.642,0.367-1.365,0.551-2.174,0.551
				c-1.03,0-1.882-0.293-2.554-0.878s-1.008-1.414-1.008-2.487c0-1.393,0.54-2.399,1.621-3.022c0.593-0.34,1.465-0.582,2.616-0.728
				L145.953,54.625z M147.764,56.006c-0.189,0.118-0.381,0.213-0.574,0.286c-0.193,0.072-0.458,0.14-0.795,0.202l-0.674,0.125
				c-0.632,0.11-1.085,0.245-1.36,0.404c-0.467,0.271-0.699,0.689-0.699,1.257c0,0.506,0.142,0.871,0.427,1.096
				c0.285,0.226,0.631,0.338,1.039,0.338c0.646,0,1.242-0.187,1.787-0.561s0.828-1.056,0.85-2.047V56.006z"/>
			<path fill="#29ABE2" d="M152.136,52.401v-2.108h1.579v-3.157h2.929v3.157h1.839v2.108h-1.839v5.983
				c0,0.464,0.059,0.753,0.177,0.867s0.478,0.171,1.08,0.171c0.09,0,0.186-0.001,0.286-0.005c0.1-0.004,0.198-0.009,0.296-0.016
				v2.212l-1.402,0.053c-1.398,0.048-2.354-0.194-2.867-0.728c-0.332-0.339-0.498-0.862-0.498-1.568v-6.97H152.136z"/>
			<path fill="#29ABE2" d="M168.589,57.896c0.062,0.526,0.198,0.9,0.407,1.121c0.368,0.396,1.051,0.593,2.045,0.593
				c0.585,0,1.049-0.087,1.394-0.26s0.517-0.433,0.517-0.779c0-0.332-0.139-0.585-0.416-0.758s-1.31-0.471-3.097-0.894
				c-1.286-0.318-2.193-0.717-2.719-1.194c-0.526-0.471-0.79-1.149-0.79-2.036c0-1.045,0.411-1.943,1.233-2.695
				c0.822-0.751,1.979-1.127,3.472-1.127c1.415,0,2.569,0.282,3.461,0.847s1.403,1.539,1.535,2.924h-2.96
				c-0.042-0.381-0.149-0.682-0.323-0.903c-0.326-0.401-0.882-0.603-1.666-0.603c-0.646,0-1.105,0.101-1.38,0.301
				c-0.274,0.201-0.412,0.437-0.412,0.707c0,0.339,0.146,0.585,0.438,0.737c0.291,0.159,1.321,0.433,3.09,0.82
				c1.18,0.277,2.063,0.696,2.652,1.257c0.581,0.567,0.872,1.277,0.872,2.129c0,1.122-0.418,2.038-1.254,2.747
				c-0.836,0.71-2.128,1.065-3.877,1.065c-1.783,0-3.1-0.376-3.949-1.127c-0.851-0.752-1.275-1.709-1.275-2.872H168.589z"/>
			<path fill="#29ABE2" d="M186.26,50.252c0.568,0.243,1.036,0.613,1.401,1.112c0.311,0.423,0.5,0.858,0.568,1.305
				c0.069,0.447,0.104,1.177,0.104,2.188v6.653h-3.022v-6.894c0-0.61-0.103-1.103-0.309-1.477c-0.269-0.527-0.777-0.791-1.526-0.791
				c-0.776,0-1.366,0.262-1.768,0.785c-0.402,0.523-0.604,1.271-0.604,2.241v6.135h-2.96V46.253h2.96v5.401
				c0.428-0.658,0.922-1.117,1.484-1.377c0.562-0.259,1.152-0.389,1.773-0.389C185.059,49.889,185.691,50.01,186.26,50.252z"/>
			<path fill="#29ABE2" d="M200.558,60.126c-0.955,1.18-2.406,1.77-4.352,1.77s-3.396-0.59-4.352-1.77
				c-0.956-1.18-1.434-2.6-1.434-4.261c0-1.632,0.478-3.047,1.434-4.244c0.955-1.196,2.406-1.795,4.352-1.795
				s3.396,0.599,4.352,1.795c0.956,1.197,1.434,2.612,1.434,4.244C201.991,57.526,201.514,58.946,200.558,60.126z M198.189,58.49
				c0.464-0.616,0.696-1.49,0.696-2.625c0-1.134-0.232-2.007-0.696-2.618c-0.464-0.612-1.128-0.918-1.994-0.918
				c-0.865,0-1.531,0.306-1.999,0.918c-0.468,0.611-0.701,1.484-0.701,2.618c0,1.135,0.233,2.009,0.701,2.625
				c0.468,0.615,1.134,0.923,1.999,0.923C197.062,59.413,197.726,59.105,198.189,58.49z"/>
			<path fill="#29ABE2" d="M202.946,52.401v-2.108h1.579v-3.157h2.929v3.157h1.839v2.108h-1.839v5.983
				c0,0.464,0.059,0.753,0.177,0.867s0.478,0.171,1.08,0.171c0.09,0,0.186-0.001,0.286-0.005c0.1-0.004,0.198-0.009,0.296-0.016
				v2.212l-1.402,0.053c-1.398,0.048-2.354-0.194-2.867-0.728c-0.332-0.339-0.498-0.862-0.498-1.568v-6.97H202.946z"/>
		</g>
	</g>
	<g>
		<g>
			<path fill="#FFFFFF" d="M90.604,82.93h-5.808l-3.348-3.659H70.452l-3.35,3.659H61.29c-0.835,0-1.598,0.296-2.217,0.774
				l9.946,7.907c1.68-1.947,4.159-3.186,6.928-3.186c5.059,0,9.163,4.11,9.163,9.161c0,5.056-4.104,9.16-9.163,9.16
				c-2.895,0-5.472-1.348-7.151-3.447l-10.012,7.933c0.657,0.622,1.537,1.01,2.506,1.01h29.314c2.012,0,3.661-1.647,3.661-3.661
				V86.597C94.266,84.582,92.616,82.93,90.604,82.93z M75.947,103.449c3.239,0,5.864-2.623,5.864-5.862
				c0-3.236-2.625-5.861-5.864-5.861c-1.724,0-3.26,0.76-4.333,1.947l4.659,3.703l-4.877,3.865
				C72.472,102.578,74.101,103.449,75.947,103.449z"/>
			<linearGradient id="SVGID_2_" gradientUnits="userSpaceOnUse" x1="76.2734" y1="97.4507" x2="94.2656" y2="97.4507">
				<stop  offset="0" style="stop-color:#585757"/>
				<stop  offset="0.2092" style="stop-color:#757474"/>
				<stop  offset="0.4527" style="stop-color:#919090"/>
				<stop  offset="0.5935" style="stop-color:#9B9A9B"/>
				<stop  offset="0.8889" style="stop-color:#BAB8B8"/>
				<stop  offset="1" style="stop-color:#C7C5C4"/>
			</linearGradient>
			<path fill="url(#SVGID_2_)" d="M76.273,97.376l4.485,3.553c0.659-0.947,1.053-2.097,1.053-3.342c0-1.364-0.486-2.605-1.27-3.602
				L76.273,97.376z M93.143,83.969l-10.008,7.954c1.235,1.56,1.976,3.524,1.976,5.664c0,2.017-0.66,3.877-1.765,5.39l10.038,7.956
				c0.54-0.64,0.882-1.453,0.882-2.352V86.597C94.266,85.567,93.831,84.636,93.143,83.969z"/>
			<polygon fill="#37A6DE" points="53.108,81.731 72.772,97.308 53.108,112.955 48.237,97.308 			"/>
			<path fill="#2071B7" d="M58.531,97.341c0,9.357-3.979,16.943-8.881,16.943c-4.902,0-8.877-7.586-8.877-16.943
				c0-9.354,3.975-16.941,8.877-16.941C54.552,80.399,58.531,87.986,58.531,97.341z"/>
			<path fill="#FFFFFF" d="M45.718,89.427l1.895-0.314v8l2.702-4.357l2.983-0.243l-3.273,4.567l3.407,7.714l-2.938-0.455
				l-2.026-5.083l-0.854,1.184v3.453l-1.895-0.296V89.427z"/>
		</g>
	</g>
	<g>
		<g>
			<path fill="#FFFFFF" d="M21.63,39.18v-3.222c1.49-0.066,2.534-0.166,3.13-0.299c0.95-0.21,1.723-0.631,2.319-1.262
				c0.408-0.432,0.718-1.008,0.928-1.728c0.121-0.432,0.182-0.752,0.182-0.963h3.952v24.078h-4.849V39.18H21.63z"/>
		</g>
	</g>
	<g>
		<g>
			<path fill="#FFFFFF" d="M21.447,153.885c0.675-1.605,2.269-3.305,4.782-5.098c2.181-1.562,3.592-2.68,4.234-3.355
				c0.985-1.051,1.478-2.203,1.478-3.453c0-1.02-0.282-1.865-0.847-2.541s-1.373-1.014-2.425-1.014
				c-1.439,0-2.419,0.537-2.938,1.611c-0.3,0.621-0.477,1.605-0.532,2.955h-4.6c0.077-2.047,0.449-3.703,1.114-4.965
				c1.263-2.402,3.507-3.604,6.731-3.604c2.549,0,4.577,0.707,6.084,2.117c1.507,1.412,2.261,3.279,2.261,5.605
				c0,1.781-0.532,3.365-1.597,4.748c-0.699,0.92-1.847,1.943-3.444,3.072l-1.896,1.346c-1.187,0.842-1.999,1.449-2.437,1.826
				c-0.437,0.377-0.805,0.814-1.104,1.312h10.511v4.168H20.334C20.378,156.891,20.749,155.312,21.447,153.885z"/>
		</g>
	</g>
	<g>
		<g>
			<path fill="#FFFFFF" d="M260.604,189.514h-2.723v5.18h-4.633v-5.18h-9.532v-4.135l8.851-14.613h5.314v15.045h2.723V189.514z
				 M253.249,185.811v-10.371l-6.011,10.371H253.249z"/>
		</g>
	</g>
	<g>
		<g>
			<path fill="#FFFFFF" d="M248.366,48.396c0,0.963,0.155,1.761,0.464,2.392c0.574,1.162,1.618,1.743,3.131,1.743
				c0.929,0,1.737-0.318,2.428-0.955c0.689-0.636,1.035-1.552,1.035-2.748c0-1.583-0.64-2.64-1.92-3.171
				c-0.729-0.3-1.877-0.449-3.443-0.449V41.82c1.533-0.022,2.604-0.172,3.21-0.448c1.048-0.466,1.572-1.406,1.572-2.823
				c0-0.919-0.268-1.666-0.804-2.242c-0.535-0.575-1.289-0.863-2.261-0.863c-1.115,0-1.935,0.354-2.459,1.062
				c-0.524,0.709-0.775,1.655-0.754,2.84h-4.417c0.044-1.195,0.249-2.33,0.614-3.404c0.387-0.94,0.995-1.81,1.824-2.606
				c0.619-0.565,1.354-0.997,2.206-1.296s1.896-0.448,3.136-0.448c2.3,0,4.155,0.596,5.564,1.785c1.41,1.19,2.115,2.787,2.115,4.791
				c0,1.417-0.421,2.612-1.262,3.587c-0.531,0.608-1.085,1.023-1.661,1.245c0.432,0,1.052,0.371,1.86,1.112
				c1.206,1.118,1.81,2.646,1.81,4.583c0,2.037-0.705,3.828-2.115,5.372s-3.497,2.316-6.262,2.316c-3.406,0-5.773-1.112-7.101-3.338
				c-0.696-1.185-1.084-2.733-1.161-4.649H248.366z"/>
		</g>
	</g>
</g>
</svg>
