<?xml version="1.0" encoding="utf-8"?>
<!-- Generator: Adobe Illustrator 16.0.5, SVG Export Plug-In . SVG Version: 6.00 Build 0)  -->
<!DOCTYPE svg PUBLIC "-//W3C//DTD SVG 1.1//EN" "http://www.w3.org/Graphics/SVG/1.1/DTD/svg11.dtd">
<svg version="1.1" id="Layer_1" xmlns="http://www.w3.org/2000/svg" xmlns:xlink="http://www.w3.org/1999/xlink" x="0px" y="0px"
	 width="150px" height="122.321px" viewBox="0 0 150 122.321" enable-background="new 0 0 150 122.321" xml:space="preserve">
<path fill="#29ABE2" d="M124.19,28.05H99.099l-9.094-9.023h-29.85l-9.098,9.023h-5.387v-1.979c0-2.645-2.143-4.789-4.787-4.789
	h-6.217c-2.645,0-4.789,2.145-4.789,4.789v1.979h-3.922c-5.457,0-9.615,6.094-9.615,11.567v59.688c0,5.465,4.158,9.966,9.615,9.966
	h98.234c5.455,0,9.469-4.501,9.469-9.966V39.617C133.659,34.144,129.646,28.05,124.19,28.05z M75.071,40.703
	c11.867,0,22.059,7.207,26.451,17.467c-7.717-6.496-16.785-10.252-26.447-10.252c-9.664,0-18.732,3.751-26.445,10.268
	C53.019,47.917,63.212,40.703,75.071,40.703z M76.331,81.743c9.121-0.548,16.797-8.236,17.346-17.32
	c0.113-2.233-0.15-4.384-0.742-6.387c4.432,3.098,7.422,7.343,7.117,12.386C99.495,79.298,86.038,85.87,75.075,85.87
	c-10.967,0-25.73-7.048-25.084-17.78c0.254-3.993,3.1-7.553,7.186-10.273c-0.373,1.302-0.635,2.654-0.719,4.047
	C55.907,73.172,65.034,82.464,76.331,81.743z M63.786,60.492c0.178-3.27,2.814-5.88,6.066-6.072
	c3.953-0.266,7.158,2.989,6.961,6.957c-0.197,3.184-2.893,5.873-6.074,6.07C66.782,67.692,63.579,64.446,63.786,60.492z
	 M75.071,98.21c-12.033,0-22.338-7.426-26.617-17.938c7.752,6.581,16.885,10.391,26.621,10.391c9.75,0,18.898-3.825,26.66-10.462
	C97.472,90.75,87.146,98.21,75.071,98.21z M122.435,47.901c-2.287,2.285-6.422,5.33-7.625,6.199
	c-0.217,0.156-0.459,0.155-0.676-0.002c-1.207-0.873-5.34-3.913-7.625-6.197c-4.117-4.118-2.533-9.55,1.361-10.876
	c3.914-1.331,6.602,3.469,6.602,3.469s2.688-4.8,6.6-3.469C124.97,38.352,126.552,43.783,122.435,47.901z"/>
</svg>
