<?xml version="1.0" encoding="utf-8"?>
<!-- Generator: Adobe Illustrator 16.0.5, SVG Export Plug-In . SVG Version: 6.00 Build 0)  -->
<!DOCTYPE svg PUBLIC "-//W3C//DTD SVG 1.1//EN" "http://www.w3.org/Graphics/SVG/1.1/DTD/svg11.dtd">
<svg version="1.1" id="Layer_1" xmlns="http://www.w3.org/2000/svg" xmlns:xlink="http://www.w3.org/1999/xlink" x="0px" y="0px"
	 width="230px" height="230px" viewBox="0 0 230 230" enable-background="new 0 0 230 230" xml:space="preserve">
<g>
	<g>
		<g>
			<path d="M32.296,101.251c-0.539,0.45-1.309,0.675-2.311,0.675h-1.918v3.313h-1.914v-9.214h3.957c0.912,0,1.639,0.237,2.182,0.713
				c0.543,0.475,0.812,1.21,0.812,2.206C33.104,100.032,32.835,100.801,32.296,101.251z M30.827,97.932
				c-0.244-0.204-0.586-0.306-1.025-0.306h-1.734v2.713h1.734c0.439,0,0.781-0.11,1.025-0.332c0.244-0.221,0.365-0.57,0.365-1.05
				S31.071,98.136,30.827,97.932z"/>
			<path d="M39.403,98.463c0.342,0.146,0.623,0.37,0.842,0.67c0.188,0.255,0.301,0.517,0.344,0.785
				c0.041,0.27,0.062,0.708,0.062,1.317v4.004h-1.82v-4.149c0-0.367-0.062-0.663-0.186-0.889c-0.162-0.316-0.467-0.476-0.918-0.476
				c-0.469,0-0.822,0.158-1.064,0.473c-0.242,0.315-0.363,0.765-0.363,1.349v3.692h-1.781v-9.183H36.3v3.25
				c0.258-0.396,0.555-0.672,0.893-0.828s0.695-0.234,1.068-0.234C38.679,98.244,39.06,98.317,39.403,98.463z"/>
			<path d="M48.009,104.405c-0.576,0.71-1.449,1.065-2.619,1.065c-1.172,0-2.045-0.355-2.619-1.065
				c-0.576-0.709-0.863-1.564-0.863-2.563c0-0.982,0.287-1.834,0.863-2.555c0.574-0.72,1.447-1.08,2.619-1.08
				c1.17,0,2.043,0.36,2.619,1.08c0.574,0.721,0.861,1.572,0.861,2.555C48.87,102.841,48.583,103.696,48.009,104.405z
				 M46.583,103.421c0.279-0.37,0.418-0.896,0.418-1.579s-0.139-1.208-0.418-1.576s-0.68-0.553-1.201-0.553
				c-0.52,0-0.922,0.185-1.203,0.553s-0.422,0.894-0.422,1.576s0.141,1.209,0.422,1.579s0.684,0.556,1.203,0.556
				C45.903,103.977,46.304,103.791,46.583,103.421z"/>
			<path d="M49.444,99.757v-1.269h0.951v-1.9h1.762v1.9h1.107v1.269h-1.107v3.601c0,0.279,0.037,0.453,0.107,0.522
				c0.07,0.068,0.287,0.103,0.65,0.103c0.053,0,0.111-0.001,0.172-0.003s0.119-0.005,0.178-0.009v1.331l-0.844,0.031
				c-0.842,0.029-1.418-0.116-1.725-0.438c-0.201-0.204-0.301-0.519-0.301-0.944v-4.194H49.444z"/>
			<path d="M60.091,104.405c-0.574,0.71-1.447,1.065-2.619,1.065c-1.17,0-2.043-0.355-2.619-1.065
				c-0.574-0.709-0.863-1.564-0.863-2.563c0-0.982,0.289-1.834,0.863-2.555c0.576-0.72,1.449-1.08,2.619-1.08
				c1.172,0,2.045,0.36,2.619,1.08c0.576,0.721,0.863,1.572,0.863,2.555C60.954,102.841,60.667,103.696,60.091,104.405z
				 M58.665,103.421c0.279-0.37,0.42-0.896,0.42-1.579s-0.141-1.208-0.42-1.576c-0.277-0.368-0.678-0.553-1.199-0.553
				s-0.922,0.185-1.203,0.553s-0.422,0.894-0.422,1.576s0.141,1.209,0.422,1.579s0.682,0.556,1.203,0.556
				S58.388,103.791,58.665,103.421z"/>
			<path d="M65.599,98.419c0.434,0.18,0.783,0.509,1.049,0.988v-0.981h1.738v6.464c0,0.879-0.148,1.541-0.443,1.987
				c-0.51,0.767-1.484,1.15-2.926,1.15c-0.871,0-1.582-0.171-2.133-0.513c-0.549-0.342-0.854-0.853-0.912-1.531h1.938
				c0.051,0.208,0.133,0.358,0.244,0.45c0.191,0.162,0.516,0.243,0.969,0.243c0.643,0,1.072-0.215,1.289-0.644
				c0.141-0.275,0.211-0.737,0.211-1.388v-0.438c-0.17,0.292-0.354,0.511-0.549,0.656c-0.355,0.271-0.814,0.406-1.383,0.406
				c-0.875,0-1.574-0.308-2.096-0.922c-0.523-0.615-0.785-1.447-0.785-2.497c0-1.013,0.252-1.864,0.756-2.554
				s1.217-1.035,2.141-1.035C65.048,98.263,65.345,98.315,65.599,98.419z M66.206,103.305c0.285-0.314,0.43-0.815,0.43-1.504
				c0-0.646-0.137-1.138-0.408-1.475c-0.271-0.338-0.637-0.507-1.092-0.507c-0.623,0-1.053,0.294-1.289,0.882
				c-0.125,0.312-0.188,0.698-0.188,1.156c0,0.396,0.066,0.748,0.199,1.057c0.242,0.575,0.674,0.862,1.295,0.862
				C65.569,103.776,65.919,103.619,66.206,103.305z"/>
			<path d="M73.833,98.267c0.023,0.002,0.074,0.005,0.154,0.009v1.825c-0.113-0.012-0.213-0.021-0.301-0.024
				s-0.158-0.007-0.213-0.007c-0.717,0-1.197,0.233-1.443,0.7c-0.137,0.263-0.207,0.667-0.207,1.213v3.257H70.03v-6.813h1.699v1.188
				c0.275-0.454,0.516-0.765,0.719-0.932c0.334-0.279,0.768-0.419,1.301-0.419C73.782,98.263,73.812,98.265,73.833,98.267z"/>
			<path d="M77.729,101.095c0.332-0.041,0.568-0.094,0.711-0.156c0.258-0.108,0.385-0.277,0.385-0.506
				c0-0.279-0.098-0.473-0.295-0.578c-0.195-0.106-0.484-0.16-0.865-0.16c-0.426,0-0.729,0.104-0.904,0.312
				c-0.127,0.154-0.213,0.363-0.254,0.625h-1.719c0.037-0.596,0.205-1.085,0.502-1.469c0.473-0.6,1.285-0.9,2.436-0.9
				c0.75,0,1.414,0.148,1.996,0.444s0.873,0.854,0.873,1.675v3.126c0,0.217,0.004,0.479,0.012,0.787
				c0.014,0.233,0.049,0.393,0.107,0.476s0.145,0.152,0.262,0.206v0.263h-1.938c-0.055-0.138-0.092-0.267-0.113-0.388
				c-0.02-0.121-0.037-0.258-0.049-0.412c-0.248,0.267-0.533,0.493-0.855,0.681c-0.387,0.222-0.822,0.332-1.309,0.332
				c-0.619,0-1.133-0.177-1.537-0.528c-0.404-0.353-0.605-0.852-0.605-1.497c0-0.838,0.324-1.444,0.975-1.819
				c0.357-0.204,0.883-0.35,1.574-0.438L77.729,101.095z M78.819,101.926c-0.115,0.071-0.229,0.129-0.346,0.172
				c-0.115,0.044-0.275,0.085-0.479,0.122l-0.406,0.075c-0.379,0.066-0.652,0.148-0.818,0.244c-0.279,0.162-0.42,0.414-0.42,0.756
				c0,0.305,0.086,0.524,0.256,0.66c0.172,0.135,0.381,0.203,0.625,0.203c0.391,0,0.748-0.113,1.076-0.338s0.498-0.636,0.512-1.231
				V101.926z"/>
			<path d="M87.882,99.157c0.555,0.587,0.832,1.45,0.832,2.588c0,1.2-0.271,2.115-0.814,2.744s-1.242,0.943-2.098,0.943
				c-0.545,0-0.998-0.135-1.359-0.406c-0.197-0.149-0.391-0.368-0.578-0.656v3.551h-1.764v-9.495h1.707v1.006
				c0.193-0.296,0.398-0.528,0.617-0.699c0.398-0.305,0.871-0.457,1.422-0.457C86.647,98.275,87.325,98.569,87.882,99.157z
				 M86.515,100.438c-0.242-0.404-0.635-0.606-1.178-0.606c-0.654,0-1.102,0.307-1.346,0.919c-0.127,0.325-0.189,0.737-0.189,1.237
				c0,0.792,0.213,1.349,0.637,1.67c0.252,0.188,0.553,0.281,0.896,0.281c0.502,0,0.885-0.192,1.146-0.575
				c0.264-0.384,0.396-0.895,0.396-1.532C86.878,101.308,86.757,100.843,86.515,100.438z"/>
			<path d="M94.868,98.463c0.342,0.146,0.623,0.37,0.842,0.67c0.188,0.255,0.301,0.517,0.344,0.785
				c0.041,0.27,0.062,0.708,0.062,1.317v4.004h-1.82v-4.149c0-0.367-0.062-0.663-0.186-0.889c-0.162-0.316-0.467-0.476-0.918-0.476
				c-0.469,0-0.822,0.158-1.064,0.473c-0.242,0.315-0.363,0.765-0.363,1.349v3.692h-1.781v-9.183h1.781v3.25
				c0.258-0.396,0.555-0.672,0.893-0.828s0.695-0.234,1.068-0.234C94.144,98.244,94.524,98.317,94.868,98.463z"/>
			<path d="M102.231,98.563c0.475,0.213,0.867,0.549,1.178,1.008c0.277,0.405,0.459,0.875,0.541,1.409
				c0.049,0.312,0.068,0.764,0.061,1.353h-4.963c0.027,0.683,0.264,1.162,0.713,1.438c0.271,0.171,0.598,0.256,0.98,0.256
				c0.406,0,0.736-0.104,0.99-0.312c0.139-0.112,0.26-0.269,0.367-0.469h1.818c-0.049,0.404-0.268,0.814-0.66,1.231
				c-0.611,0.663-1.465,0.994-2.564,0.994c-0.906,0-1.707-0.279-2.398-0.839c-0.693-0.559-1.041-1.468-1.041-2.728
				c0-1.181,0.312-2.085,0.939-2.715c0.625-0.63,1.438-0.945,2.436-0.945C101.222,98.244,101.755,98.351,102.231,98.563z
				 M99.565,100.103c-0.252,0.26-0.41,0.611-0.475,1.055h3.07c-0.033-0.473-0.191-0.832-0.475-1.076
				c-0.285-0.245-0.637-0.368-1.057-0.368C100.171,99.713,99.817,99.843,99.565,100.103z"/>
			<path d="M108.696,98.267c0.023,0.002,0.074,0.005,0.152,0.009v1.825c-0.111-0.012-0.213-0.021-0.299-0.024
				c-0.088-0.004-0.158-0.007-0.213-0.007c-0.717,0-1.199,0.233-1.445,0.7c-0.137,0.263-0.205,0.667-0.205,1.213v3.257h-1.795
				v-6.813h1.701v1.188c0.275-0.454,0.514-0.765,0.719-0.932c0.334-0.279,0.766-0.419,1.301-0.419
				C108.646,98.263,108.673,98.265,108.696,98.267z"/>
		</g>
	</g>
	<path d="M67.409,61.556h-2.824v5.375H59.78v-5.375h-9.887v-4.293l9.18-15.155h5.512v15.604h2.824V61.556z M59.78,57.711V46.952
		l-6.232,10.759H59.78z"/>
	<path d="M81.802,45.14c1.277,2.237,1.92,5.416,1.92,9.54s-0.643,7.299-1.92,9.527c-1.281,2.225-3.512,3.342-6.693,3.342
		c-3.18,0-5.41-1.117-6.693-3.342c-1.277-2.229-1.92-5.403-1.92-9.527s0.643-7.303,1.92-9.54c1.283-2.241,3.514-3.355,6.693-3.355
		C78.29,41.784,80.521,42.898,81.802,45.14z M72.214,61.271c0.471,1.52,1.434,2.282,2.895,2.282s2.414-0.763,2.869-2.282
		c0.451-1.522,0.678-3.722,0.678-6.591c0-3.006-0.227-5.236-0.678-6.683c-0.455-1.445-1.408-2.169-2.869-2.169
		s-2.424,0.724-2.895,2.169c-0.469,1.446-0.705,3.677-0.705,6.683C71.509,57.549,71.745,59.748,72.214,61.271z"/>
	<path fill="#29ABE2" d="M93.435,68c-4.752,9-14.77,16.258-26.334,16.258c-16.141,0-29.271-13.247-29.271-29.39
		c0-16.141,13.131-29.32,29.271-29.32C78.663,25.548,88.679,32,93.433,42h1.389c-4.846-10-15.443-17.772-27.721-17.772
		c-16.832,0-30.531,13.695-30.531,30.529c0,16.836,13.699,30.764,30.531,30.764C79.378,85.521,89.978,78,94.823,68H93.435z"/>
	<g>
		<path d="M93.587,53.768c-0.805,0.672-1.73,0.952-2.779,0.854c-1.039-0.1-1.896-0.551-2.562-1.363
			c-0.664-0.803-0.947-1.727-0.852-2.77c0.102-1.042,0.555-1.893,1.363-2.564c0.805-0.666,1.729-0.949,2.768-0.851
			c1.043,0.1,1.9,0.553,2.564,1.357c0.668,0.812,0.949,1.734,0.852,2.774C94.839,52.249,94.39,53.104,93.587,53.768z M92.2,52.096
			c0.342-0.282,0.537-0.647,0.578-1.097c0.045-0.444-0.076-0.839-0.363-1.186c-0.283-0.343-0.646-0.538-1.096-0.578
			c-0.445-0.044-0.84,0.077-1.186,0.361c-0.344,0.286-0.535,0.648-0.576,1.097c-0.045,0.445,0.076,0.844,0.359,1.183
			c0.283,0.346,0.648,0.543,1.096,0.586C91.462,52.503,91.856,52.379,92.2,52.096z M99.776,47.789l1.537,0.146l-9.629,14.31
			l-1.568-0.149L99.776,47.789z M102.733,62.093c-0.805,0.664-1.73,0.948-2.771,0.852c-1.041-0.1-1.896-0.555-2.564-1.361
			c-0.662-0.809-0.947-1.73-0.85-2.772c0.1-1.048,0.553-1.905,1.359-2.565c0.809-0.667,1.732-0.948,2.773-0.852
			c1.041,0.101,1.895,0.552,2.561,1.363c0.67,0.806,0.951,1.734,0.852,2.773C103.993,60.571,103.544,61.423,102.733,62.093z
			 M101.573,58.139c-0.287-0.349-0.652-0.542-1.098-0.584c-0.447-0.04-0.842,0.078-1.188,0.366c-0.34,0.281-0.537,0.647-0.58,1.096
			c-0.043,0.446,0.08,0.843,0.363,1.185c0.283,0.345,0.648,0.536,1.096,0.58c0.445,0.04,0.842-0.079,1.188-0.361
			c0.346-0.283,0.535-0.65,0.58-1.096C101.978,58.875,101.856,58.479,101.573,58.139z"/>
	</g>
	<g>
		<g>
			<path fill="#29A9E1" d="M142.522,96.226c0.646,0.212,1.17,0.602,1.57,1.169c0.322,0.458,0.541,0.954,0.658,1.487
				c0.115,0.533,0.174,1.042,0.174,1.525c0,1.226-0.246,2.263-0.738,3.113c-0.666,1.146-1.697,1.719-3.09,1.719h-3.973v-9.214h3.973
				C141.669,96.033,142.144,96.101,142.522,96.226z M138.993,97.626v6.013h1.777c0.91,0,1.545-0.447,1.904-1.344
				c0.195-0.491,0.295-1.077,0.295-1.757c0-0.938-0.148-1.657-0.441-2.159c-0.295-0.502-0.881-0.753-1.758-0.753H138.993z"/>
			<path fill="#29A9E1" d="M151.907,104.405c-0.574,0.71-1.447,1.065-2.619,1.065c-1.17,0-2.043-0.355-2.619-1.065
				c-0.574-0.709-0.863-1.564-0.863-2.563c0-0.982,0.289-1.834,0.863-2.555c0.576-0.72,1.449-1.08,2.619-1.08
				c1.172,0,2.045,0.36,2.619,1.08c0.576,0.721,0.863,1.572,0.863,2.555C152.771,102.841,152.483,103.696,151.907,104.405z
				 M150.481,103.421c0.279-0.37,0.42-0.896,0.42-1.579s-0.141-1.208-0.42-1.576c-0.277-0.368-0.678-0.553-1.199-0.553
				s-0.922,0.185-1.203,0.553s-0.422,0.894-0.422,1.576s0.141,1.209,0.422,1.579s0.682,0.556,1.203,0.556
				S150.204,103.791,150.481,103.421z"/>
			<path fill="#29A9E1" d="M159.54,98.816c0.445,0.369,0.67,0.98,0.67,1.835v4.588h-1.826v-4.145c0-0.358-0.047-0.633-0.143-0.825
				c-0.174-0.35-0.504-0.525-0.992-0.525c-0.6,0-1.012,0.257-1.236,0.77c-0.115,0.271-0.174,0.616-0.174,1.037v3.688h-1.781v-6.801
				h1.727v0.993c0.227-0.35,0.443-0.602,0.646-0.756c0.365-0.275,0.828-0.413,1.389-0.413
				C158.521,98.263,159.095,98.447,159.54,98.816z"/>
			<path fill="#29A9E1" d="M164.565,101.095c0.33-0.041,0.568-0.094,0.711-0.156c0.256-0.108,0.385-0.277,0.385-0.506
				c0-0.279-0.1-0.473-0.295-0.578c-0.197-0.106-0.484-0.16-0.865-0.16c-0.426,0-0.729,0.104-0.906,0.312
				c-0.127,0.154-0.211,0.363-0.254,0.625h-1.719c0.037-0.596,0.205-1.085,0.502-1.469c0.473-0.6,1.285-0.9,2.436-0.9
				c0.75,0,1.416,0.148,1.998,0.444c0.58,0.296,0.871,0.854,0.871,1.675v3.126c0,0.217,0.004,0.479,0.014,0.787
				c0.012,0.233,0.047,0.393,0.105,0.476s0.146,0.152,0.264,0.206v0.263h-1.939c-0.053-0.138-0.092-0.267-0.111-0.388
				c-0.021-0.121-0.037-0.258-0.051-0.412c-0.246,0.267-0.531,0.493-0.855,0.681c-0.385,0.222-0.82,0.332-1.307,0.332
				c-0.621,0-1.133-0.177-1.537-0.528c-0.404-0.353-0.607-0.852-0.607-1.497c0-0.838,0.326-1.444,0.977-1.819
				c0.357-0.204,0.881-0.35,1.574-0.438L164.565,101.095z M165.653,101.926c-0.113,0.071-0.229,0.129-0.344,0.172
				c-0.117,0.044-0.277,0.085-0.479,0.122l-0.406,0.075c-0.381,0.066-0.652,0.148-0.818,0.244c-0.281,0.162-0.422,0.414-0.422,0.756
				c0,0.305,0.086,0.524,0.258,0.66c0.172,0.135,0.379,0.203,0.625,0.203c0.389,0,0.748-0.113,1.076-0.338s0.498-0.636,0.51-1.231
				V101.926z"/>
			<path fill="#29A9E1" d="M168.284,99.757v-1.269h0.951v-1.9h1.762v1.9h1.107v1.269h-1.107v3.601c0,0.279,0.037,0.453,0.107,0.522
				c0.07,0.068,0.287,0.103,0.65,0.103c0.053,0,0.111-0.001,0.172-0.003s0.119-0.005,0.178-0.009v1.331l-0.844,0.031
				c-0.842,0.029-1.418-0.116-1.725-0.438c-0.201-0.204-0.301-0.519-0.301-0.944v-4.194H168.284z"/>
			<path fill="#29A9E1" d="M175.081,97.613h-1.807v-1.645h1.807V97.613z M173.274,98.426h1.807v6.813h-1.807V98.426z"/>
			<path fill="#29A9E1" d="M182.487,104.405c-0.574,0.71-1.447,1.065-2.619,1.065c-1.17,0-2.043-0.355-2.619-1.065
				c-0.574-0.709-0.863-1.564-0.863-2.563c0-0.982,0.289-1.834,0.863-2.555c0.576-0.72,1.449-1.08,2.619-1.08
				c1.172,0,2.045,0.36,2.619,1.08c0.576,0.721,0.863,1.572,0.863,2.555C183.351,102.841,183.063,103.696,182.487,104.405z
				 M181.062,103.421c0.279-0.37,0.42-0.896,0.42-1.579s-0.141-1.208-0.42-1.576c-0.277-0.368-0.678-0.553-1.199-0.553
				s-0.922,0.185-1.203,0.553s-0.422,0.894-0.422,1.576s0.141,1.209,0.422,1.579s0.682,0.556,1.203,0.556
				S180.784,103.791,181.062,103.421z"/>
			<path fill="#29A9E1" d="M190.12,98.816c0.445,0.369,0.67,0.98,0.67,1.835v4.588h-1.826v-4.145c0-0.358-0.047-0.633-0.143-0.825
				c-0.174-0.35-0.504-0.525-0.992-0.525c-0.6,0-1.012,0.257-1.236,0.77c-0.115,0.271-0.174,0.616-0.174,1.037v3.688h-1.781v-6.801
				h1.727v0.993c0.227-0.35,0.443-0.602,0.646-0.756c0.365-0.275,0.828-0.413,1.389-0.413
				C189.101,98.263,189.675,98.447,190.12,98.816z"/>
		</g>
	</g>
	<path d="M148.007,62.129c0.697-1.664,2.352-3.428,4.959-5.289c2.26-1.618,3.723-2.777,4.391-3.479
		c1.02-1.088,1.533-2.286,1.533-3.581c0-1.059-0.293-1.938-0.881-2.636c-0.584-0.7-1.422-1.052-2.514-1.052
		c-1.492,0-2.51,0.559-3.049,1.67c-0.311,0.646-0.496,1.664-0.549,3.066h-4.773c0.084-2.123,0.467-3.84,1.154-5.147
		c1.311-2.495,3.641-3.739,6.984-3.739c2.645,0,4.748,0.733,6.311,2.194c1.562,1.467,2.344,3.403,2.344,5.816
		c0,1.847-0.551,3.491-1.654,4.923c-0.727,0.952-1.918,2.015-3.572,3.188l-1.969,1.395c-1.229,0.873-2.072,1.506-2.525,1.896
		c-0.453,0.391-0.836,0.845-1.146,1.359h10.902v4.323h-17.102C146.896,65.246,147.28,63.61,148.007,62.129z"/>
	<path d="M178.687,45.248c1.279,2.24,1.918,5.419,1.918,9.544c0,4.122-0.639,7.297-1.918,9.524
		c-1.283,2.226-3.512,3.339-6.693,3.339s-5.41-1.113-6.691-3.339c-1.279-2.228-1.92-5.402-1.92-9.524
		c0-4.125,0.641-7.304,1.92-9.544c1.281-2.238,3.51-3.357,6.691-3.357S177.403,43.01,178.687,45.248z M169.101,61.381
		c0.469,1.521,1.434,2.28,2.893,2.28c1.457,0,2.412-0.76,2.867-2.28c0.455-1.524,0.682-3.72,0.682-6.589
		c0-3.007-0.227-5.236-0.682-6.685c-0.455-1.446-1.41-2.168-2.867-2.168c-1.459,0-2.424,0.722-2.893,2.168
		c-0.473,1.448-0.707,3.678-0.707,6.685C168.394,57.661,168.628,59.856,169.101,61.381z"/>
	<path fill="#29ABE2" d="M190.218,68c-4.752,9-14.768,16.258-26.334,16.258c-16.139,0-29.271-13.251-29.271-29.39
		c0-16.141,13.133-29.319,29.271-29.319c11.566,0,21.582,6.451,26.334,16.451h1.391c-4.846-10-15.449-17.772-27.725-17.772
		c-16.832,0-30.529,13.689-30.529,30.529c0,16.834,13.697,30.764,30.529,30.764c12.275,0,22.879-7.521,27.725-17.521H190.218z"/>
	<g>
		<path d="M190.544,53.768c-0.803,0.672-1.732,0.952-2.779,0.854c-1.039-0.1-1.896-0.551-2.561-1.363
			c-0.666-0.803-0.949-1.727-0.85-2.77c0.096-1.042,0.551-1.893,1.357-2.564c0.807-0.666,1.732-0.949,2.771-0.851
			c1.039,0.1,1.898,0.553,2.561,1.357c0.67,0.812,0.953,1.734,0.854,2.774C191.798,52.249,191.347,53.104,190.544,53.768z
			 M189.155,52.096c0.346-0.282,0.539-0.647,0.582-1.097c0.041-0.444-0.078-0.839-0.363-1.186c-0.285-0.343-0.646-0.538-1.098-0.578
			c-0.447-0.044-0.842,0.077-1.184,0.361c-0.344,0.286-0.539,0.648-0.58,1.097c-0.041,0.445,0.078,0.844,0.363,1.183
			c0.283,0.346,0.646,0.543,1.094,0.586C188.419,52.503,188.812,52.379,189.155,52.096z M196.735,47.789l1.535,0.146l-9.627,14.31
			l-1.572-0.149L196.735,47.789z M199.688,62.093c-0.805,0.664-1.729,0.948-2.77,0.852c-1.039-0.1-1.896-0.555-2.562-1.361
			c-0.666-0.809-0.947-1.73-0.852-2.772c0.104-1.048,0.555-1.905,1.359-2.565c0.809-0.667,1.734-0.948,2.775-0.852
			c1.041,0.101,1.896,0.552,2.559,1.363c0.668,0.806,0.953,1.734,0.854,2.773C200.95,60.571,200.503,61.423,199.688,62.093z
			 M198.53,58.139c-0.287-0.349-0.654-0.542-1.1-0.584c-0.445-0.04-0.84,0.078-1.186,0.366c-0.342,0.281-0.539,0.647-0.578,1.096
			c-0.045,0.446,0.078,0.843,0.361,1.185c0.285,0.345,0.65,0.536,1.098,0.58c0.445,0.04,0.84-0.079,1.188-0.361
			c0.346-0.283,0.535-0.65,0.578-1.096C198.933,58.875,198.813,58.479,198.53,58.139z"/>
	</g>
	<g>
		<g>
			<path d="M46.413,195.492h1.893v3.796l3.561-3.796h2.488l-3.781,3.789l3.975,5.425h-2.475l-2.84-4.022l-0.928,0.94v3.082h-1.893
				V195.492z"/>
			<path d="M57.302,204.706h-1.781v-9.214h1.781V204.706z"/>
			<path d="M60.858,204.706h-1.781v-9.214h1.781V204.706z"/>
			<path d="M68.278,203.872c-0.574,0.71-1.447,1.065-2.619,1.065c-1.17,0-2.043-0.355-2.619-1.065
				c-0.574-0.709-0.863-1.564-0.863-2.563c0-0.982,0.289-1.834,0.863-2.555c0.576-0.72,1.449-1.08,2.619-1.08
				c1.172,0,2.045,0.36,2.619,1.08c0.576,0.721,0.863,1.572,0.863,2.555C69.142,202.308,68.854,203.163,68.278,203.872z
				 M66.853,202.888c0.279-0.37,0.42-0.896,0.42-1.579s-0.141-1.208-0.42-1.576c-0.277-0.368-0.678-0.553-1.199-0.553
				s-0.922,0.185-1.203,0.553s-0.422,0.894-0.422,1.576s0.141,1.209,0.422,1.579s0.682,0.556,1.203,0.556
				S66.575,203.258,66.853,202.888z"/>
			<path d="M76.099,203.872c-0.576,0.71-1.449,1.065-2.619,1.065c-1.172,0-2.045-0.355-2.619-1.065
				c-0.576-0.709-0.863-1.564-0.863-2.563c0-0.982,0.287-1.834,0.863-2.555c0.574-0.72,1.447-1.08,2.619-1.08
				c1.17,0,2.043,0.36,2.619,1.08c0.574,0.721,0.861,1.572,0.861,2.555C76.96,202.308,76.673,203.163,76.099,203.872z
				 M74.673,202.888c0.279-0.37,0.418-0.896,0.418-1.579s-0.139-1.208-0.418-1.576s-0.68-0.553-1.201-0.553
				c-0.52,0-0.922,0.185-1.203,0.553s-0.422,0.894-0.422,1.576s0.141,1.209,0.422,1.579s0.684,0.556,1.203,0.556
				C73.993,203.443,74.394,203.258,74.673,202.888z"/>
			<path d="M86.737,197.917c0.291,0.117,0.557,0.321,0.795,0.613c0.191,0.237,0.32,0.529,0.387,0.875
				c0.041,0.229,0.062,0.564,0.062,1.006l-0.012,4.295h-1.826v-4.338c0-0.259-0.041-0.472-0.125-0.638
				c-0.158-0.316-0.449-0.476-0.875-0.476c-0.492,0-0.832,0.204-1.02,0.613c-0.096,0.217-0.143,0.477-0.143,0.781v4.057h-1.795
				v-4.057c0-0.404-0.041-0.698-0.125-0.882c-0.15-0.329-0.443-0.494-0.881-0.494c-0.508,0-0.85,0.165-1.025,0.494
				c-0.096,0.188-0.145,0.467-0.145,0.838v4.101h-1.807v-6.801h1.732v0.993c0.221-0.354,0.43-0.605,0.625-0.756
				c0.346-0.267,0.793-0.4,1.344-0.4c0.521,0,0.941,0.115,1.264,0.344c0.258,0.213,0.453,0.485,0.586,0.819
				c0.234-0.4,0.523-0.694,0.869-0.882c0.367-0.188,0.775-0.281,1.227-0.281C86.149,197.742,86.446,197.801,86.737,197.917z"/>
		</g>
	</g>
	<path d="M51.218,161.707c0.701-1.663,2.357-3.425,4.963-5.287c2.26-1.617,3.725-2.778,4.391-3.479
		c1.02-1.092,1.533-2.286,1.533-3.582c0-1.058-0.293-1.937-0.879-2.637c-0.586-0.698-1.426-1.049-2.516-1.049
		c-1.492,0-2.508,0.556-3.047,1.67c-0.312,0.646-0.496,1.663-0.551,3.065h-4.771c0.08-2.12,0.465-3.84,1.154-5.148
		c1.309-2.496,3.639-3.738,6.984-3.738c2.643,0,4.746,0.73,6.311,2.195c1.561,1.465,2.342,3.404,2.342,5.814
		c0,1.846-0.553,3.489-1.654,4.926c-0.725,0.951-1.918,2.013-3.574,3.185l-1.967,1.396c-1.23,0.871-2.072,1.507-2.523,1.896
		c-0.455,0.387-0.836,0.841-1.148,1.357h10.906v4.326H50.065C50.11,164.825,50.495,163.188,51.218,161.707z"/>
	<path d="M81.903,144.826c1.275,2.24,1.916,5.421,1.916,9.542c0,4.125-0.641,7.297-1.916,9.526
		c-1.285,2.226-3.514,3.342-6.695,3.342c-3.18,0-5.41-1.116-6.691-3.342c-1.279-2.229-1.918-5.401-1.918-9.526
		c0-4.121,0.639-7.302,1.918-9.542c1.281-2.237,3.512-3.355,6.691-3.355C78.39,141.471,80.618,142.589,81.903,144.826z
		 M72.317,160.957c0.467,1.521,1.434,2.283,2.891,2.283c1.459,0,2.416-0.763,2.871-2.283c0.453-1.519,0.678-3.719,0.678-6.589
		c0-3.007-0.225-5.233-0.678-6.683c-0.455-1.447-1.412-2.17-2.871-2.17c-1.457,0-2.424,0.723-2.891,2.17
		c-0.471,1.449-0.707,3.676-0.707,6.683C71.61,157.238,71.847,159.438,72.317,160.957z"/>
	<path fill="#36A7DE" d="M93.433,168c-4.752,8-14.77,15.992-26.332,15.992c-16.139,0-29.271-13.382-29.271-29.524
		c0-16.141,13.133-29.619,29.271-29.619c11.562,0,21.58,6.151,26.332,16.151h1.389c-4.848-10-15.447-17.539-27.721-17.539
		c-16.834,0-30.531,13.812-30.531,30.646c0,16.836,13.697,31.09,30.531,31.09c12.277,0,22.877-7.196,27.721-17.196H93.433z"/>
	<g>
		<path d="M93.585,153.234c-0.803,0.672-1.732,0.952-2.777,0.854c-1.039-0.1-1.896-0.551-2.562-1.363
			c-0.666-0.804-0.947-1.728-0.852-2.771c0.104-1.042,0.553-1.893,1.363-2.564c0.803-0.665,1.729-0.948,2.77-0.851
			c1.039,0.1,1.895,0.554,2.562,1.357c0.666,0.812,0.945,1.734,0.85,2.774C94.839,151.716,94.388,152.571,93.585,153.234z
			 M92.198,151.563c0.344-0.282,0.539-0.648,0.582-1.098c0.045-0.444-0.082-0.839-0.363-1.186c-0.281-0.342-0.648-0.538-1.098-0.578
			c-0.445-0.044-0.84,0.077-1.189,0.361c-0.34,0.287-0.531,0.649-0.574,1.097c-0.043,0.445,0.074,0.844,0.359,1.183
			c0.285,0.346,0.648,0.544,1.094,0.586C91.46,151.971,91.853,151.846,92.198,151.563z M99.776,147.256l1.535,0.146l-9.627,14.311
			l-1.572-0.149L99.776,147.256z M102.731,161.56c-0.805,0.665-1.729,0.949-2.771,0.852c-1.039-0.1-1.895-0.554-2.561-1.36
			c-0.668-0.81-0.949-1.731-0.852-2.773c0.104-1.047,0.555-1.905,1.359-2.564c0.807-0.667,1.732-0.949,2.773-0.852
			c1.043,0.101,1.893,0.552,2.561,1.363c0.668,0.806,0.951,1.734,0.854,2.772C103.995,160.039,103.542,160.891,102.731,161.56z
			 M101.569,157.605c-0.285-0.349-0.652-0.541-1.096-0.584c-0.447-0.04-0.84,0.078-1.186,0.366c-0.342,0.282-0.539,0.647-0.58,1.096
			c-0.043,0.446,0.08,0.844,0.363,1.185c0.283,0.345,0.648,0.536,1.094,0.58c0.449,0.041,0.846-0.079,1.188-0.361
			c0.344-0.283,0.539-0.65,0.582-1.096C101.978,158.343,101.856,157.945,101.569,157.605z"/>
	</g>
	<g>
		<g>
			<path d="M131.104,195.492v1.632h-2.758v7.582h-1.938v-7.582h-2.77v-1.632H131.104z"/>
			<path d="M133.841,200.562c0.33-0.041,0.568-0.094,0.711-0.156c0.256-0.108,0.385-0.277,0.385-0.506
				c0-0.279-0.1-0.473-0.295-0.578c-0.197-0.106-0.484-0.16-0.865-0.16c-0.426,0-0.729,0.104-0.906,0.312
				c-0.127,0.154-0.211,0.363-0.254,0.625h-1.719c0.037-0.596,0.205-1.085,0.502-1.469c0.473-0.6,1.285-0.9,2.436-0.9
				c0.75,0,1.416,0.148,1.998,0.444c0.58,0.296,0.871,0.854,0.871,1.675v3.126c0,0.217,0.004,0.479,0.014,0.787
				c0.012,0.233,0.047,0.393,0.105,0.476s0.146,0.152,0.264,0.206v0.263h-1.939c-0.053-0.138-0.092-0.267-0.111-0.388
				c-0.021-0.121-0.037-0.258-0.051-0.412c-0.246,0.267-0.531,0.493-0.855,0.681c-0.385,0.222-0.82,0.332-1.307,0.332
				c-0.621,0-1.133-0.177-1.537-0.528c-0.404-0.353-0.607-0.852-0.607-1.497c0-0.838,0.326-1.444,0.977-1.819
				c0.357-0.204,0.881-0.35,1.574-0.438L133.841,200.562z M134.929,201.393c-0.113,0.071-0.229,0.129-0.344,0.172
				c-0.117,0.044-0.277,0.085-0.479,0.122l-0.406,0.075c-0.381,0.066-0.652,0.148-0.818,0.244c-0.281,0.162-0.422,0.414-0.422,0.756
				c0,0.305,0.086,0.524,0.258,0.66c0.172,0.135,0.379,0.203,0.625,0.203c0.389,0,0.748-0.113,1.076-0.338s0.498-0.636,0.51-1.231
				V201.393z"/>
			<path d="M137.583,204.706l2.326-3.45l-2.227-3.351h2.182l1.139,1.974l1.113-1.974h2.119l-2.238,3.319l2.324,3.481h-2.219
				l-1.172-2.049l-1.184,2.049H137.583z"/>
			<path d="M149.821,198.03c0.477,0.213,0.869,0.549,1.178,1.008c0.279,0.405,0.461,0.875,0.543,1.409
				c0.049,0.312,0.068,0.764,0.059,1.353h-4.963c0.027,0.683,0.266,1.162,0.713,1.438c0.271,0.171,0.6,0.256,0.982,0.256
				c0.406,0,0.736-0.104,0.988-0.312c0.139-0.112,0.262-0.269,0.367-0.469h1.818c-0.047,0.404-0.268,0.814-0.66,1.231
				c-0.609,0.663-1.465,0.994-2.562,0.994c-0.906,0-1.707-0.279-2.4-0.839c-0.693-0.559-1.039-1.468-1.039-2.728
				c0-1.181,0.312-2.085,0.938-2.715c0.627-0.63,1.438-0.945,2.438-0.945C148.812,197.711,149.347,197.817,149.821,198.03z
				 M147.157,199.569c-0.252,0.26-0.41,0.611-0.475,1.055h3.068c-0.033-0.473-0.189-0.832-0.475-1.076
				c-0.283-0.245-0.637-0.368-1.057-0.368C147.763,199.18,147.407,199.31,147.157,199.569z"/>
			<path d="M153.884,202.53c0.037,0.317,0.119,0.542,0.244,0.676c0.223,0.237,0.633,0.356,1.23,0.356
				c0.354,0,0.633-0.053,0.84-0.156c0.207-0.104,0.311-0.261,0.311-0.469c0-0.2-0.084-0.353-0.25-0.457
				c-0.168-0.104-0.789-0.283-1.865-0.537c-0.773-0.191-1.318-0.432-1.635-0.719c-0.318-0.284-0.477-0.692-0.477-1.226
				c0-0.629,0.248-1.17,0.742-1.622c0.496-0.452,1.191-0.679,2.09-0.679c0.852,0,1.547,0.17,2.084,0.51
				c0.535,0.34,0.844,0.927,0.924,1.76h-1.781c-0.025-0.229-0.09-0.41-0.195-0.544c-0.197-0.241-0.531-0.362-1.002-0.362
				c-0.389,0-0.666,0.061-0.832,0.181c-0.164,0.121-0.246,0.263-0.246,0.426c0,0.204,0.086,0.352,0.262,0.443
				c0.176,0.096,0.797,0.261,1.861,0.494c0.709,0.167,1.24,0.419,1.596,0.756c0.35,0.342,0.525,0.77,0.525,1.282
				c0,0.675-0.252,1.226-0.756,1.653c-0.502,0.427-1.281,0.641-2.332,0.641c-1.074,0-1.865-0.227-2.377-0.679
				s-0.768-1.028-0.768-1.729H153.884z"/>
			<path d="M163.452,200.854c0.275-0.396,0.727-0.787,1.352-1.175l0.193-0.119c-0.268-0.301-0.473-0.607-0.619-0.92
				s-0.219-0.639-0.219-0.977c0-0.672,0.227-1.196,0.684-1.574c0.455-0.378,1.045-0.566,1.771-0.566c0.662,0,1.209,0.193,1.641,0.58
				s0.648,0.881,0.648,1.482c0,0.544-0.129,0.984-0.389,1.323s-0.639,0.652-1.141,0.94l1.324,1.605
				c0.15-0.217,0.268-0.452,0.35-0.706c0.084-0.254,0.127-0.522,0.131-0.807h1.582c-0.029,0.561-0.164,1.127-0.406,1.699
				c-0.133,0.322-0.35,0.678-0.648,1.066l1.674,1.998h-2.158l-0.641-0.78c-0.311,0.289-0.602,0.503-0.871,0.641
				c-0.48,0.247-1.035,0.371-1.662,0.371c-0.943,0-1.682-0.275-2.211-0.825c-0.531-0.55-0.797-1.161-0.797-1.832
				C163.04,201.726,163.177,201.251,163.452,200.854z M165.194,203.062c0.252,0.255,0.574,0.382,0.969,0.382
				c0.297,0,0.578-0.067,0.844-0.201s0.48-0.283,0.645-0.448l-1.723-2.099c-0.451,0.297-0.75,0.558-0.895,0.782
				c-0.146,0.226-0.219,0.474-0.219,0.745C164.815,202.527,164.942,202.807,165.194,203.062z M165.978,198.126
				c0.078,0.121,0.246,0.337,0.506,0.646c0.26-0.176,0.445-0.323,0.559-0.444c0.215-0.226,0.324-0.47,0.324-0.733
				c0-0.192-0.064-0.363-0.195-0.514c-0.129-0.15-0.326-0.226-0.59-0.226c-0.164,0-0.318,0.044-0.461,0.132
				c-0.215,0.13-0.324,0.334-0.324,0.614C165.796,197.768,165.856,197.942,165.978,198.126z"/>
			<path d="M176.124,195.505h6.57v1.619h-4.658v2.118h4.082v1.601h-4.082v3.863h-1.912V195.505z"/>
			<path d="M188.241,198.03c0.475,0.213,0.867,0.549,1.178,1.008c0.277,0.405,0.459,0.875,0.541,1.409
				c0.049,0.312,0.068,0.764,0.061,1.353h-4.963c0.027,0.683,0.264,1.162,0.713,1.438c0.271,0.171,0.598,0.256,0.98,0.256
				c0.406,0,0.736-0.104,0.99-0.312c0.139-0.112,0.26-0.269,0.367-0.469h1.818c-0.049,0.404-0.268,0.814-0.66,1.231
				c-0.611,0.663-1.465,0.994-2.564,0.994c-0.906,0-1.707-0.279-2.398-0.839c-0.693-0.559-1.041-1.468-1.041-2.728
				c0-1.181,0.312-2.085,0.939-2.715c0.625-0.63,1.438-0.945,2.436-0.945C187.231,197.711,187.765,197.817,188.241,198.03z
				 M185.575,199.569c-0.252,0.26-0.41,0.611-0.475,1.055h3.07c-0.033-0.473-0.191-0.832-0.475-1.076
				c-0.285-0.245-0.637-0.368-1.057-0.368C186.181,199.18,185.827,199.31,185.575,199.569z"/>
			<path d="M195.36,198.03c0.475,0.213,0.867,0.549,1.178,1.008c0.277,0.405,0.459,0.875,0.541,1.409
				c0.049,0.312,0.068,0.764,0.061,1.353h-4.963c0.027,0.683,0.264,1.162,0.713,1.438c0.271,0.171,0.598,0.256,0.98,0.256
				c0.406,0,0.736-0.104,0.99-0.312c0.139-0.112,0.26-0.269,0.367-0.469h1.818c-0.049,0.404-0.268,0.814-0.66,1.231
				c-0.611,0.663-1.465,0.994-2.564,0.994c-0.906,0-1.707-0.279-2.398-0.839c-0.693-0.559-1.041-1.468-1.041-2.728
				c0-1.181,0.312-2.085,0.939-2.715c0.625-0.63,1.438-0.945,2.436-0.945C194.351,197.711,194.884,197.817,195.36,198.03z
				 M192.694,199.569c-0.252,0.26-0.41,0.611-0.475,1.055h3.07c-0.033-0.473-0.191-0.832-0.475-1.076
				c-0.285-0.245-0.637-0.368-1.057-0.368C193.3,199.18,192.946,199.31,192.694,199.569z"/>
			<path d="M199.421,202.53c0.039,0.317,0.119,0.542,0.246,0.676c0.221,0.237,0.631,0.356,1.23,0.356
				c0.352,0,0.631-0.053,0.838-0.156c0.207-0.104,0.311-0.261,0.311-0.469c0-0.2-0.082-0.353-0.25-0.457
				c-0.166-0.104-0.787-0.283-1.863-0.537c-0.773-0.191-1.32-0.432-1.637-0.719c-0.316-0.284-0.475-0.692-0.475-1.226
				c0-0.629,0.248-1.17,0.742-1.622s1.191-0.679,2.09-0.679c0.852,0,1.545,0.17,2.082,0.51s0.846,0.927,0.924,1.76h-1.781
				c-0.025-0.229-0.09-0.41-0.193-0.544c-0.197-0.241-0.531-0.362-1.004-0.362c-0.389,0-0.666,0.061-0.83,0.181
				c-0.166,0.121-0.248,0.263-0.248,0.426c0,0.204,0.088,0.352,0.264,0.443c0.176,0.096,0.795,0.261,1.859,0.494
				c0.711,0.167,1.242,0.419,1.596,0.756c0.352,0.342,0.525,0.77,0.525,1.282c0,0.675-0.252,1.226-0.754,1.653
				c-0.504,0.427-1.281,0.641-2.334,0.641c-1.072,0-1.865-0.227-2.377-0.679s-0.768-1.028-0.768-1.729H199.421z"/>
		</g>
	</g>
	<path d="M148.079,161.814c0.703-1.661,2.355-3.426,4.961-5.284c2.262-1.621,3.723-2.78,4.393-3.48
		c1.02-1.09,1.531-2.284,1.531-3.582c0-1.055-0.293-1.938-0.879-2.635c-0.588-0.699-1.424-1.052-2.514-1.052
		c-1.494,0-2.508,0.559-3.049,1.671c-0.309,0.644-0.494,1.662-0.551,3.067h-4.77c0.08-2.124,0.463-3.842,1.152-5.15
		c1.311-2.493,3.637-3.739,6.982-3.739c2.645,0,4.748,0.734,6.309,2.196c1.564,1.466,2.35,3.402,2.35,5.813
		c0,1.849-0.553,3.49-1.656,4.928c-0.73,0.95-1.918,2.014-3.574,3.184l-1.965,1.396c-1.232,0.875-2.076,1.506-2.529,1.895
		c-0.455,0.393-0.836,0.845-1.145,1.36h10.902v4.323h-17.102C146.972,164.935,147.353,163.299,148.079,161.814z"/>
	<path d="M178.761,144.938c1.283,2.24,1.92,5.42,1.92,9.542c0,4.125-0.637,7.298-1.92,9.524c-1.279,2.226-3.51,3.343-6.691,3.343
		c-3.184,0-5.41-1.117-6.691-3.343c-1.279-2.227-1.922-5.399-1.922-9.524c0-4.122,0.643-7.302,1.922-9.542
		c1.281-2.24,3.508-3.359,6.691-3.359C175.251,141.578,177.481,142.697,178.761,144.938z M169.179,161.069
		c0.467,1.521,1.428,2.28,2.891,2.28c1.459,0,2.414-0.76,2.867-2.28c0.453-1.523,0.682-3.724,0.682-6.59
		c0-3.008-0.229-5.236-0.682-6.684c-0.453-1.445-1.408-2.17-2.867-2.17c-1.463,0-2.424,0.725-2.891,2.17
		c-0.473,1.447-0.709,3.676-0.709,6.684C168.47,157.346,168.706,159.546,169.179,161.069z"/>
	<path fill="#29ABE2" d="M190.294,168c-4.752,8-14.77,15.988-26.332,15.988c-16.143,0-29.271-13.38-29.271-29.522
		c0-16.139,13.129-29.616,29.271-29.616c11.562,0,21.582,6.15,26.332,16.15h1.389c-4.842-10-15.445-17.539-27.721-17.539
		c-16.834,0-30.533,13.806-30.533,30.642c0,16.838,13.699,31.091,30.533,31.091c12.273,0,22.873-7.193,27.721-17.193H190.294z"/>
	<g>
		<path d="M190.47,153.234c-0.801,0.672-1.729,0.952-2.779,0.854c-1.039-0.1-1.893-0.551-2.559-1.363
			c-0.666-0.804-0.949-1.728-0.854-2.771c0.1-1.042,0.553-1.893,1.363-2.564c0.805-0.665,1.729-0.948,2.77-0.851
			c1.043,0.1,1.898,0.554,2.561,1.357c0.668,0.812,0.951,1.734,0.854,2.774C191.724,151.716,191.274,152.571,190.47,153.234z
			 M189.087,151.563c0.342-0.282,0.535-0.648,0.578-1.098c0.041-0.444-0.078-0.839-0.363-1.186
			c-0.285-0.342-0.646-0.538-1.098-0.578c-0.447-0.044-0.84,0.077-1.186,0.361c-0.342,0.287-0.533,0.649-0.578,1.097
			c-0.043,0.445,0.078,0.844,0.361,1.183c0.285,0.346,0.65,0.544,1.096,0.586C188.347,151.971,188.741,151.846,189.087,151.563z
			 M196.663,147.256l1.535,0.146l-9.629,14.311l-1.57-0.149L196.663,147.256z M199.62,161.56c-0.809,0.665-1.732,0.949-2.773,0.852
			c-1.041-0.1-1.896-0.554-2.564-1.36c-0.664-0.81-0.945-1.731-0.846-2.773c0.1-1.047,0.551-1.905,1.355-2.564
			c0.809-0.667,1.732-0.949,2.773-0.852c1.039,0.101,1.895,0.552,2.561,1.363c0.668,0.806,0.951,1.734,0.852,2.772
			C200.878,160.039,200.427,160.891,199.62,161.56z M198.456,157.605c-0.283-0.349-0.648-0.541-1.098-0.584
			c-0.447-0.04-0.84,0.078-1.186,0.366c-0.342,0.282-0.539,0.647-0.578,1.096c-0.045,0.446,0.08,0.844,0.359,1.185
			c0.287,0.345,0.652,0.536,1.098,0.58c0.445,0.041,0.844-0.079,1.189-0.361c0.344-0.283,0.535-0.65,0.58-1.096
			C198.86,158.343,198.741,157.945,198.456,157.605z"/>
	</g>
</g>
</svg>
