<?xml version="1.0" encoding="utf-8"?>
<!-- Generator: Adobe Illustrator 16.0.5, SVG Export Plug-In . SVG Version: 6.00 Build 0)  -->
<!DOCTYPE svg PUBLIC "-//W3C//DTD SVG 1.1//EN" "http://www.w3.org/Graphics/SVG/1.1/DTD/svg11.dtd">
<svg version="1.1" id="Layer_1" xmlns="http://www.w3.org/2000/svg" xmlns:xlink="http://www.w3.org/1999/xlink" x="0px" y="0px"
	 width="520.226px" height="160px" viewBox="0 0 520.226 160" enable-background="new 0 0 520.226 160" xml:space="preserve">
<g>
	<g>
		<text transform="matrix(1 0 0 1 147.6592 106.207)" fill="#29ABE2" font-family="'Helvetica-Bold'" font-size="11.3238">Photographer</text>
	</g>
	<path d="M185.052,67.568h-2.498v4.754h-4.25v-4.754h-8.746v-3.797l8.121-13.406h4.875v13.801h2.498V67.568z M178.304,64.166V54.65
		l-5.514,9.516H178.304z"/>
	<path d="M197.782,53.047c1.131,1.979,1.697,4.791,1.697,8.439c0,3.646-0.566,6.455-1.697,8.426
		c-1.133,1.969-3.105,2.957-5.92,2.957c-2.812,0-4.785-0.988-5.922-2.957c-1.131-1.971-1.697-4.779-1.697-8.426
		c0-3.648,0.566-6.461,1.697-8.439c1.137-1.982,3.109-2.969,5.922-2.969C194.677,50.078,196.649,51.064,197.782,53.047z
		 M189.302,67.314c0.416,1.346,1.268,2.02,2.561,2.02c1.291,0,2.135-0.674,2.537-2.02c0.398-1.346,0.6-3.291,0.6-5.828
		c0-2.66-0.201-4.633-0.6-5.912c-0.402-1.277-1.246-1.918-2.537-1.918c-1.293,0-2.145,0.641-2.561,1.918
		c-0.416,1.279-0.623,3.252-0.623,5.912C188.679,64.023,188.886,65.969,189.302,67.314z"/>
	<path fill="#36A7DE" d="M208.071,73c-4.203,8-13.062,14.515-23.291,14.515c-14.277,0-25.893-11.653-25.893-25.929
		c0-14.277,11.615-26.037,25.893-26.037c10.227,0,19.088,5.451,23.291,14.451h1.229c-4.287-9-13.662-15.585-24.52-15.585
		c-14.891,0-27.006,12.181-27.006,27.071s12.115,27.111,27.006,27.111C195.64,88.598,205.015,82,209.3,73H208.071z"/>
	<g>
		<path d="M208.206,60.678c-0.711,0.596-1.531,0.844-2.457,0.756c-0.92-0.088-1.678-0.486-2.266-1.205
			c-0.59-0.711-0.84-1.527-0.754-2.451c0.09-0.922,0.49-1.674,1.205-2.268c0.711-0.588,1.529-0.84,2.449-0.752
			c0.922,0.088,1.68,0.488,2.268,1.201c0.59,0.717,0.84,1.533,0.752,2.453C209.315,59.336,208.917,60.092,208.206,60.678z
			 M206.979,59.199c0.303-0.248,0.477-0.572,0.512-0.969c0.039-0.393-0.066-0.742-0.32-1.049c-0.25-0.303-0.572-0.477-0.971-0.512
			c-0.393-0.039-0.742,0.068-1.047,0.318c-0.305,0.254-0.475,0.576-0.512,0.971s0.068,0.746,0.318,1.047
			c0.252,0.305,0.574,0.48,0.971,0.518C206.325,59.561,206.675,59.451,206.979,59.199z M213.683,55.391l1.357,0.129l-8.516,12.658
			l-1.389-0.133L213.683,55.391z M216.298,68.043c-0.713,0.588-1.531,0.84-2.451,0.752c-0.922-0.088-1.678-0.49-2.27-1.203
			c-0.586-0.715-0.838-1.531-0.75-2.453c0.088-0.926,0.488-1.684,1.201-2.268c0.715-0.59,1.533-0.84,2.453-0.754
			c0.922,0.09,1.676,0.488,2.266,1.205c0.592,0.713,0.84,1.535,0.754,2.453C217.413,66.697,217.013,67.451,216.298,68.043z
			 M215.271,64.545c-0.254-0.309-0.576-0.479-0.971-0.516s-0.744,0.068-1.049,0.322c-0.303,0.25-0.477,0.574-0.514,0.971
			c-0.039,0.395,0.07,0.746,0.32,1.047c0.252,0.305,0.574,0.475,0.971,0.514c0.393,0.035,0.744-0.07,1.049-0.32
			c0.307-0.25,0.475-0.574,0.514-0.969C215.628,65.197,215.522,64.846,215.271,64.545z"/>
	</g>
	<g>
		<text transform="matrix(1 0 0 1 245.8545 106.207)" fill="#29A9E1" font-family="'Helvetica-Bold'" font-size="11.3238">Donation</text>
	</g>
	<path d="M256.341,68.074c0.619-1.471,2.082-3.031,4.389-4.678c1.998-1.432,3.293-2.457,3.885-3.078
		c0.9-0.961,1.355-2.021,1.355-3.166c0-0.936-0.262-1.715-0.779-2.332c-0.516-0.619-1.258-0.93-2.225-0.93
		c-1.32,0-2.219,0.494-2.697,1.477c-0.273,0.57-0.438,1.473-0.484,2.713h-4.223c0.074-1.879,0.412-3.396,1.021-4.555
		c1.16-2.205,3.221-3.307,6.178-3.307c2.338,0,4.199,0.648,5.582,1.941c1.383,1.297,2.074,3.01,2.074,5.145
		c0,1.633-0.488,3.088-1.465,4.355c-0.643,0.842-1.695,1.781-3.158,2.818l-1.744,1.234c-1.086,0.771-1.832,1.332-2.232,1.676
		c-0.4,0.346-0.738,0.746-1.014,1.203h9.645v3.822h-15.129C255.358,70.832,255.7,69.385,256.341,68.074z"/>
	<path d="M283.479,53.143c1.131,1.982,1.697,4.793,1.697,8.441c0,3.646-0.566,6.455-1.697,8.426
		c-1.135,1.969-3.105,2.953-5.92,2.953s-4.785-0.984-5.92-2.953c-1.131-1.971-1.697-4.779-1.697-8.426
		c0-3.648,0.566-6.459,1.697-8.441c1.135-1.979,3.105-2.969,5.92-2.969S282.345,51.164,283.479,53.143z M275.001,67.412
		c0.416,1.346,1.268,2.018,2.559,2.018c1.289,0,2.133-0.672,2.537-2.018c0.4-1.348,0.602-3.289,0.602-5.828
		c0-2.658-0.201-4.631-0.602-5.912c-0.404-1.279-1.248-1.918-2.537-1.918c-1.291,0-2.143,0.639-2.559,1.918
		c-0.418,1.281-0.625,3.254-0.625,5.912C274.376,64.123,274.583,66.064,275.001,67.412z"/>
	<path fill="#36A7DE" d="M293.681,73c-4.203,8-13.062,14.515-23.293,14.515c-14.275,0-25.891-11.655-25.891-25.929
		c0-14.279,11.615-26.035,25.891-26.035c10.23,0,19.09,5.449,23.293,14.449h1.229c-4.285-9-13.664-15.584-24.521-15.584
		c-14.891,0-27.004,12.176-27.004,27.07c0,14.889,12.113,27.111,27.004,27.111c10.857,0,20.236-6.598,24.521-15.598H293.681z"/>
	<g>
		<path d="M293.968,60.678c-0.711,0.596-1.531,0.844-2.459,0.756c-0.918-0.088-1.676-0.486-2.264-1.205
			c-0.59-0.711-0.842-1.527-0.752-2.451c0.086-0.922,0.486-1.674,1.201-2.268c0.713-0.588,1.531-0.84,2.451-0.752
			s1.678,0.488,2.266,1.201c0.592,0.717,0.842,1.533,0.754,2.453C295.077,59.336,294.679,60.092,293.968,60.678z M292.741,59.199
			c0.305-0.248,0.477-0.572,0.514-0.969c0.037-0.393-0.07-0.742-0.322-1.049c-0.25-0.303-0.572-0.477-0.969-0.512
			c-0.396-0.039-0.746,0.068-1.049,0.318c-0.305,0.254-0.475,0.576-0.514,0.971c-0.035,0.395,0.068,0.746,0.322,1.047
			c0.25,0.305,0.572,0.48,0.967,0.518C292.089,59.561,292.437,59.451,292.741,59.199z M299.444,55.391l1.359,0.129l-8.518,12.658
			l-1.391-0.133L299.444,55.391z M302.058,68.043c-0.713,0.588-1.531,0.84-2.449,0.752c-0.922-0.088-1.68-0.49-2.268-1.203
			c-0.59-0.715-0.838-1.531-0.752-2.453c0.088-0.926,0.49-1.684,1.201-2.268c0.715-0.59,1.533-0.84,2.453-0.754
			c0.922,0.09,1.678,0.488,2.264,1.205c0.592,0.713,0.844,1.535,0.756,2.453C303.173,66.697,302.776,67.451,302.058,68.043z
			 M301.032,64.545c-0.254-0.309-0.578-0.479-0.971-0.516c-0.396-0.037-0.746,0.068-1.051,0.322
			c-0.303,0.25-0.477,0.574-0.512,0.971c-0.039,0.395,0.068,0.746,0.32,1.047c0.252,0.305,0.574,0.475,0.971,0.514
			c0.393,0.035,0.742-0.07,1.049-0.32s0.475-0.574,0.512-0.969C301.39,65.197,301.282,64.846,301.032,64.545z"/>
	</g>
	<g>
		<text transform="matrix(1 0 0 1 334.5811 106.207)" font-family="'Helvetica-Bold'" font-size="11.3238">Klloom</text>
	</g>
	<path d="M339.72,68.172c0.621-1.471,2.084-3.029,4.391-4.676c1.998-1.43,3.293-2.457,3.883-3.078
		c0.902-0.965,1.357-2.021,1.357-3.168c0-0.936-0.26-1.713-0.779-2.332c-0.516-0.617-1.26-0.928-2.223-0.928
		c-1.32,0-2.219,0.492-2.697,1.477c-0.275,0.57-0.438,1.471-0.486,2.711h-4.221c0.07-1.875,0.412-3.395,1.021-4.553
		c1.158-2.207,3.217-3.307,6.178-3.307c2.338,0,4.199,0.646,5.58,1.941c1.383,1.295,2.074,3.012,2.074,5.143
		c0,1.633-0.488,3.086-1.465,4.357c-0.641,0.842-1.697,1.781-3.16,2.816l-1.742,1.236c-1.086,0.77-1.83,1.332-2.23,1.678
		c-0.404,0.342-0.74,0.742-1.016,1.199h9.645v3.826h-15.127C338.741,70.932,339.081,69.482,339.72,68.172z"/>
	<path d="M366.862,53.242c1.131,1.98,1.695,4.793,1.695,8.439c0,3.648-0.564,6.453-1.695,8.426
		c-1.137,1.969-3.109,2.957-5.922,2.957c-2.814,0-4.785-0.988-5.918-2.957c-1.133-1.973-1.699-4.777-1.699-8.426
		c0-3.646,0.566-6.459,1.699-8.439s3.104-2.969,5.918-2.969C363.753,50.273,365.726,51.262,366.862,53.242z M358.384,67.51
		c0.414,1.346,1.266,2.02,2.557,2.02s2.135-0.674,2.537-2.02c0.402-1.344,0.602-3.289,0.602-5.828c0-2.66-0.199-4.629-0.602-5.91
		s-1.246-1.92-2.537-1.92s-2.143,0.639-2.557,1.92c-0.418,1.281-0.627,3.25-0.627,5.91C357.757,64.221,357.966,66.166,358.384,67.51
		z"/>
	<path fill="#36A7DE" d="M377.062,73c-4.203,8-13.062,14.515-23.291,14.515c-14.277,0-25.893-11.653-25.893-25.929
		c0-14.277,11.615-26.037,25.893-26.037c10.229,0,19.086,5.451,23.291,14.451h1.227c-4.285-9-13.662-15.585-24.518-15.585
		c-14.891,0-27.008,12.181-27.008,27.071s12.117,27.111,27.008,27.111c10.857,0,20.234-6.598,24.52-15.598H377.062z"/>
	<g>
		<path d="M377.196,60.678c-0.711,0.596-1.531,0.844-2.459,0.756c-0.92-0.088-1.676-0.486-2.264-1.205
			c-0.592-0.711-0.842-1.527-0.754-2.451c0.088-0.922,0.488-1.674,1.203-2.268c0.713-0.588,1.531-0.84,2.449-0.752
			c0.922,0.088,1.68,0.488,2.27,1.201c0.59,0.717,0.838,1.533,0.75,2.453C378.304,59.336,377.907,60.092,377.196,60.678z
			 M375.97,59.199c0.303-0.248,0.475-0.572,0.514-0.969c0.037-0.393-0.07-0.742-0.322-1.049c-0.25-0.303-0.574-0.477-0.971-0.512
			c-0.393-0.039-0.744,0.068-1.049,0.318c-0.303,0.254-0.475,0.576-0.512,0.971s0.068,0.746,0.32,1.047
			c0.25,0.305,0.574,0.48,0.969,0.518C375.315,59.561,375.665,59.451,375.97,59.199z M382.673,55.391l1.357,0.129l-8.516,12.658
			l-1.391-0.133L382.673,55.391z M385.286,68.043c-0.711,0.588-1.529,0.84-2.451,0.752s-1.676-0.49-2.268-1.203
			c-0.588-0.715-0.838-1.531-0.752-2.453c0.092-0.926,0.49-1.684,1.203-2.268c0.713-0.59,1.533-0.84,2.453-0.754
			c0.922,0.09,1.676,0.488,2.264,1.205c0.592,0.713,0.842,1.535,0.754,2.453C386.401,66.697,386.003,67.451,385.286,68.043z
			 M384.259,64.545c-0.252-0.309-0.576-0.479-0.969-0.516c-0.396-0.037-0.744,0.068-1.051,0.322
			c-0.303,0.25-0.477,0.574-0.512,0.971c-0.039,0.395,0.07,0.746,0.32,1.047c0.252,0.305,0.574,0.475,0.969,0.514
			c0.395,0.035,0.746-0.07,1.051-0.32s0.475-0.574,0.512-0.969C384.618,65.197,384.511,64.846,384.259,64.545z"/>
	</g>
	<g>
		<text transform="matrix(1 0 0 1 409.9873 106.207)" font-family="'Helvetica-Bold'" font-size="11.3238">Taxes &amp; Fees</text>
	</g>
	<path d="M431.72,68.268c0.621-1.469,2.082-3.029,4.389-4.674c2-1.434,3.293-2.459,3.883-3.078c0.904-0.965,1.355-2.021,1.355-3.17
		c0-0.932-0.26-1.713-0.775-2.33c-0.52-0.617-1.26-0.93-2.225-0.93c-1.32,0-2.219,0.494-2.695,1.479
		c-0.275,0.568-0.439,1.471-0.488,2.713h-4.221c0.072-1.879,0.412-3.398,1.021-4.557c1.16-2.205,3.217-3.307,6.176-3.307
		c2.338,0,4.201,0.65,5.582,1.943c1.383,1.295,2.076,3.01,2.076,5.141c0,1.637-0.488,3.088-1.467,4.359
		c-0.643,0.84-1.695,1.781-3.16,2.816l-1.74,1.234c-1.088,0.773-1.834,1.332-2.232,1.676c-0.402,0.348-0.74,0.748-1.016,1.203h9.645
		v3.824H430.7C430.741,71.027,431.079,69.58,431.72,68.268z"/>
	<path d="M458.858,53.34c1.133,1.98,1.697,4.793,1.697,8.439c0,3.648-0.564,6.455-1.697,8.424c-1.133,1.971-3.105,2.957-5.92,2.957
		c-2.812,0-4.785-0.986-5.918-2.957c-1.133-1.969-1.699-4.775-1.699-8.424c0-3.646,0.566-6.459,1.699-8.439s3.105-2.971,5.918-2.971
		C455.753,50.369,457.726,51.359,458.858,53.34z M450.382,67.609c0.414,1.344,1.266,2.016,2.557,2.016
		c1.293,0,2.137-0.672,2.539-2.016c0.4-1.348,0.6-3.293,0.6-5.83c0-2.66-0.199-4.631-0.6-5.912
		c-0.402-1.277-1.246-1.918-2.539-1.918c-1.291,0-2.143,0.641-2.557,1.918c-0.416,1.281-0.627,3.252-0.627,5.912
		C449.755,64.316,449.966,66.262,450.382,67.609z"/>
	<path fill="#36A7DE" d="M469.06,73c-4.203,8-13.062,14.513-23.291,14.513c-14.277,0-25.891-11.653-25.891-25.931
		c0-14.275,11.613-26.031,25.891-26.031c10.229,0,19.09,5.449,23.293,14.449h1.229c-4.285-9-13.662-15.584-24.521-15.584
		c-14.889,0-27.006,12.176-27.006,27.066c0,14.893,12.117,27.113,27.006,27.113c10.857,0,20.232-6.596,24.52-15.596H469.06z"/>
	<g>
		<path d="M469.216,60.678c-0.709,0.596-1.529,0.844-2.457,0.756c-0.92-0.088-1.676-0.486-2.266-1.205
			c-0.59-0.711-0.84-1.527-0.752-2.451c0.086-0.922,0.488-1.674,1.203-2.268c0.713-0.588,1.531-0.84,2.451-0.752
			s1.678,0.488,2.266,1.201c0.59,0.717,0.84,1.533,0.752,2.453C470.325,59.336,469.929,60.092,469.216,60.678z M467.989,59.199
			c0.307-0.248,0.477-0.572,0.514-0.969c0.037-0.393-0.07-0.742-0.322-1.049c-0.25-0.303-0.572-0.477-0.969-0.512
			c-0.395-0.039-0.744,0.068-1.049,0.318c-0.305,0.254-0.473,0.576-0.514,0.971c-0.035,0.395,0.07,0.746,0.32,1.047
			c0.254,0.305,0.574,0.48,0.971,0.518C467.339,59.561,467.687,59.451,467.989,59.199z M474.692,55.391l1.357,0.129l-8.516,12.658
			l-1.389-0.133L474.692,55.391z M477.31,68.043c-0.715,0.588-1.531,0.84-2.453,0.752s-1.678-0.49-2.268-1.203
			c-0.588-0.715-0.838-1.531-0.75-2.453c0.088-0.926,0.486-1.684,1.199-2.268c0.717-0.59,1.535-0.84,2.455-0.754
			c0.92,0.09,1.676,0.488,2.264,1.205c0.592,0.713,0.842,1.535,0.754,2.453C478.423,66.697,478.022,67.451,477.31,68.043z
			 M476.28,64.545c-0.252-0.309-0.576-0.479-0.971-0.516s-0.744,0.068-1.051,0.322c-0.301,0.25-0.475,0.574-0.512,0.971
			c-0.037,0.395,0.07,0.746,0.32,1.047c0.254,0.305,0.574,0.475,0.971,0.514c0.393,0.035,0.744-0.07,1.051-0.32
			c0.305-0.25,0.475-0.574,0.514-0.969C476.638,65.197,476.532,64.846,476.28,64.545z"/>
	</g>
	<g>
		<g>
			<path d="M41.776,36.668l1.791,7.779l0.393,2.166l0.387-2.121l1.535-7.824h2.998l1.609,7.777l0.416,2.168l0.42-2.082l1.809-7.863
				h2.891l-3.822,13.584h-2.715l-1.641-7.941l-0.48-2.627l-0.477,2.627l-1.641,7.941h-2.637l-3.855-13.584H41.776z"/>
			<path d="M64.741,40.264c0.504,0.213,0.92,0.543,1.242,0.986c0.277,0.375,0.443,0.762,0.508,1.156
				c0.061,0.4,0.09,1.045,0.09,1.943v5.902h-2.682v-6.117c0-0.541-0.094-0.979-0.273-1.309c-0.238-0.469-0.686-0.701-1.352-0.701
				c-0.691,0-1.215,0.232-1.57,0.695c-0.357,0.465-0.535,1.127-0.535,1.988v5.443H57.54V36.717h2.629v4.791
				c0.379-0.586,0.818-0.992,1.316-1.223c0.496-0.23,1.021-0.344,1.578-0.344C63.675,39.941,64.237,40.047,64.741,40.264z"/>
			<path d="M75.595,40.412c0.703,0.312,1.281,0.809,1.736,1.484c0.41,0.598,0.676,1.289,0.799,2.076
				c0.072,0.461,0.1,1.127,0.086,1.994h-7.311c0.041,1.008,0.389,1.713,1.049,2.117c0.398,0.254,0.881,0.379,1.447,0.379
				c0.598,0,1.084-0.154,1.457-0.461c0.207-0.164,0.385-0.395,0.541-0.689h2.684c-0.072,0.594-0.396,1.199-0.977,1.814
				c-0.898,0.977-2.158,1.463-3.777,1.463c-1.336,0-2.516-0.41-3.539-1.234c-1.02-0.824-1.533-2.162-1.533-4.021
				c0-1.74,0.463-3.072,1.387-4.002c0.922-0.928,2.119-1.391,3.592-1.391C74.108,39.941,74.894,40.098,75.595,40.412z M71.669,42.68
				c-0.375,0.381-0.605,0.9-0.703,1.555h4.525c-0.049-0.697-0.279-1.225-0.699-1.586c-0.418-0.363-0.938-0.543-1.557-0.543
				C72.562,42.105,72.04,42.297,71.669,42.68z"/>
			<path d="M85.124,39.973c0.031,0.002,0.107,0.01,0.227,0.014v2.691c-0.164-0.018-0.312-0.031-0.441-0.039
				c-0.129-0.004-0.236-0.008-0.314-0.008c-1.059,0-1.764,0.344-2.131,1.031c-0.201,0.387-0.301,0.984-0.301,1.789v4.801h-2.645
				V40.207h2.506v1.75c0.406-0.668,0.756-1.127,1.061-1.371c0.488-0.412,1.129-0.617,1.912-0.617
				C85.048,39.969,85.089,39.969,85.124,39.973z"/>
			<path d="M93.435,40.412c0.699,0.312,1.279,0.809,1.736,1.484c0.41,0.598,0.676,1.289,0.797,2.076
				c0.072,0.461,0.102,1.127,0.088,1.994h-7.316c0.041,1.008,0.395,1.713,1.051,2.117c0.404,0.254,0.885,0.379,1.449,0.379
				c0.598,0,1.084-0.154,1.455-0.461c0.207-0.164,0.387-0.395,0.545-0.689h2.68c-0.07,0.594-0.396,1.199-0.975,1.814
				c-0.898,0.977-2.158,1.463-3.779,1.463c-1.334,0-2.512-0.41-3.537-1.234c-1.02-0.824-1.531-2.162-1.531-4.021
				c0-1.74,0.459-3.072,1.383-4.002c0.922-0.928,2.119-1.391,3.594-1.391C91.944,39.941,92.731,40.098,93.435,40.412z M89.507,42.68
				c-0.373,0.381-0.605,0.9-0.701,1.555h4.523c-0.049-0.697-0.281-1.225-0.697-1.586c-0.418-0.363-0.939-0.543-1.559-0.543
				C90.401,42.105,89.876,42.297,89.507,42.68z"/>
			<path d="M45.042,57.742c0.473,0.27,0.857,0.639,1.148,1.111v-4.791h2.664v13.562h-2.553v-1.391
				c-0.373,0.596-0.799,1.027-1.279,1.299c-0.48,0.27-1.076,0.406-1.787,0.406c-1.174,0-2.164-0.477-2.963-1.424
				c-0.801-0.951-1.201-2.168-1.201-3.652c0-1.717,0.393-3.061,1.186-4.047c0.785-0.982,1.84-1.473,3.16-1.473
				C44.024,57.344,44.569,57.479,45.042,57.742z M45.687,64.898c0.389-0.553,0.578-1.27,0.578-2.146
				c0-1.229-0.312-2.107-0.932-2.635c-0.381-0.32-0.82-0.48-1.324-0.48c-0.771,0-1.334,0.291-1.691,0.871
				c-0.357,0.582-0.541,1.301-0.541,2.158c0,0.93,0.186,1.672,0.551,2.229c0.361,0.555,0.922,0.832,1.662,0.832
				C44.731,65.727,45.298,65.449,45.687,64.898z"/>
			<path d="M59.616,66.395c-0.848,1.049-2.137,1.57-3.859,1.57c-1.725,0-3.014-0.521-3.859-1.57
				c-0.854-1.043-1.275-2.305-1.275-3.777c0-1.447,0.422-2.701,1.275-3.764c0.846-1.064,2.135-1.594,3.859-1.594
				c1.723,0,3.012,0.529,3.859,1.594c0.85,1.062,1.275,2.316,1.275,3.764C60.892,64.09,60.466,65.352,59.616,66.395z M57.513,64.945
				c0.414-0.545,0.621-1.322,0.621-2.328c0-1.008-0.207-1.779-0.621-2.322c-0.41-0.543-1-0.814-1.766-0.814
				c-0.768,0-1.357,0.271-1.771,0.814c-0.418,0.543-0.623,1.314-0.623,2.322c0,1.006,0.205,1.783,0.623,2.328
				c0.414,0.547,1.004,0.818,1.771,0.818C56.513,65.764,57.103,65.492,57.513,64.945z"/>
			<path d="M69.312,57.785c0.701,0.312,1.277,0.809,1.736,1.486c0.412,0.598,0.676,1.289,0.797,2.076
				c0.07,0.461,0.102,1.127,0.09,1.992h-7.316c0.041,1.008,0.393,1.715,1.053,2.121c0.398,0.25,0.881,0.377,1.447,0.377
				c0.598,0,1.084-0.152,1.457-0.461c0.201-0.164,0.385-0.396,0.543-0.691h2.678c-0.07,0.596-0.395,1.201-0.973,1.816
				c-0.9,0.977-2.158,1.463-3.781,1.463c-1.332,0-2.512-0.412-3.535-1.232c-1.023-0.826-1.531-2.164-1.531-4.023
				c0-1.74,0.459-3.072,1.385-4c0.92-0.93,2.115-1.395,3.59-1.395C67.827,57.314,68.614,57.471,69.312,57.785z M65.384,60.055
				c-0.373,0.381-0.607,0.9-0.701,1.553h4.527c-0.051-0.695-0.283-1.225-0.701-1.584c-0.418-0.363-0.941-0.543-1.559-0.543
				C66.278,59.48,65.757,59.67,65.384,60.055z"/>
			<path d="M75.298,64.418c0.059,0.469,0.176,0.797,0.361,0.996c0.326,0.35,0.932,0.525,1.814,0.525c0.518,0,0.932-0.078,1.236-0.23
				s0.461-0.383,0.461-0.691c0-0.293-0.123-0.52-0.369-0.672c-0.252-0.154-1.164-0.418-2.752-0.793
				c-1.139-0.281-1.943-0.635-2.41-1.059c-0.467-0.42-0.701-1.021-0.701-1.807c0-0.928,0.367-1.725,1.094-2.393
				c0.732-0.664,1.758-1,3.08-1c1.254,0,2.281,0.252,3.07,0.756c0.791,0.496,1.242,1.361,1.363,2.592h-2.627
				c-0.037-0.34-0.133-0.607-0.283-0.803c-0.293-0.357-0.787-0.535-1.482-0.535c-0.572,0-0.979,0.09-1.225,0.27
				c-0.244,0.178-0.365,0.385-0.365,0.625c0,0.299,0.131,0.52,0.389,0.654c0.262,0.143,1.174,0.385,2.744,0.729
				c1.043,0.244,1.83,0.617,2.354,1.115c0.512,0.502,0.771,1.133,0.771,1.889c0,0.994-0.373,1.807-1.111,2.434
				c-0.74,0.633-1.893,0.945-3.441,0.945c-1.58,0-2.744-0.332-3.502-0.998c-0.754-0.666-1.131-1.518-1.131-2.549H75.298z"/>
			<path d="M38.685,76.92v-1.871h1.396v-2.801h2.604v2.801h1.627v1.871h-1.627v5.307c0,0.412,0.047,0.666,0.152,0.77
				c0.104,0.102,0.424,0.152,0.961,0.152c0.078,0,0.162-0.002,0.254-0.006c0.086-0.002,0.174-0.008,0.26-0.014v1.963l-1.242,0.047
				c-1.242,0.041-2.088-0.174-2.545-0.645c-0.295-0.303-0.443-0.766-0.443-1.393V76.92H38.685z"/>
			<path d="M53.218,75.012c0.502,0.217,0.916,0.547,1.24,0.986c0.279,0.375,0.443,0.762,0.504,1.158
				c0.062,0.396,0.092,1.045,0.092,1.941V85h-2.682v-6.115c0-0.541-0.09-0.979-0.273-1.311c-0.24-0.467-0.688-0.701-1.354-0.701
				c-0.688,0-1.213,0.232-1.566,0.697c-0.357,0.465-0.535,1.127-0.535,1.988V85h-2.625V71.465h2.625v4.791
				c0.377-0.584,0.816-0.99,1.312-1.221c0.5-0.229,1.029-0.346,1.578-0.346C52.149,74.689,52.71,74.797,53.218,75.012z"/>
			<path d="M64.071,75.16c0.699,0.314,1.275,0.809,1.734,1.486c0.412,0.596,0.674,1.289,0.797,2.076
				c0.072,0.463,0.102,1.125,0.09,1.992h-7.316c0.043,1.008,0.393,1.715,1.049,2.121c0.406,0.248,0.889,0.375,1.449,0.375
				c0.598,0,1.084-0.15,1.455-0.461c0.209-0.166,0.387-0.395,0.543-0.689h2.686c-0.072,0.596-0.396,1.201-0.977,1.816
				c-0.9,0.977-2.156,1.463-3.779,1.463c-1.334,0-2.514-0.412-3.539-1.234c-1.02-0.824-1.533-2.166-1.533-4.021
				c0-1.738,0.463-3.072,1.387-4.002c0.922-0.926,2.117-1.393,3.592-1.393C62.581,74.689,63.366,74.848,64.071,75.16z M60.144,77.43
				c-0.375,0.383-0.607,0.898-0.701,1.553h4.523c-0.051-0.695-0.279-1.225-0.699-1.586c-0.418-0.361-0.939-0.543-1.559-0.543
				C61.034,76.854,60.513,77.047,60.144,77.43z"/>
			<path d="M85.794,74.992c0.43,0.174,0.82,0.477,1.168,0.906c0.281,0.348,0.475,0.777,0.568,1.289
				c0.064,0.336,0.096,0.83,0.096,1.484L87.608,85h-2.691v-6.395c0-0.379-0.064-0.693-0.184-0.939
				c-0.234-0.467-0.664-0.699-1.291-0.699c-0.723,0-1.225,0.301-1.5,0.9c-0.141,0.32-0.215,0.705-0.215,1.152V85h-2.641v-5.98
				c0-0.596-0.064-1.027-0.184-1.299c-0.227-0.484-0.658-0.729-1.303-0.729c-0.75,0-1.252,0.244-1.508,0.729
				c-0.145,0.277-0.215,0.688-0.215,1.236V85h-2.662V74.975h2.551v1.467c0.326-0.523,0.635-0.895,0.926-1.117
				c0.506-0.391,1.166-0.588,1.979-0.588c0.77,0,1.389,0.168,1.857,0.506c0.383,0.314,0.674,0.715,0.871,1.207
				c0.338-0.59,0.77-1.023,1.275-1.299c0.545-0.277,1.146-0.414,1.809-0.414C84.925,74.736,85.364,74.82,85.794,74.992z"/>
			<path d="M98.415,83.771c-0.846,1.045-2.137,1.568-3.861,1.568s-3.012-0.523-3.859-1.568c-0.848-1.047-1.27-2.307-1.27-3.779
				c0-1.447,0.422-2.703,1.27-3.766c0.848-1.061,2.135-1.592,3.859-1.592s3.016,0.531,3.861,1.592
				c0.848,1.062,1.271,2.318,1.271,3.766C99.687,81.465,99.263,82.725,98.415,83.771z M96.315,82.318
				c0.41-0.543,0.617-1.32,0.617-2.326s-0.207-1.779-0.617-2.324c-0.412-0.543-1.004-0.814-1.77-0.814
				c-0.768,0-1.359,0.271-1.771,0.814c-0.42,0.545-0.623,1.318-0.623,2.324s0.203,1.783,0.623,2.326
				c0.412,0.547,1.004,0.82,1.771,0.82C95.312,83.139,95.903,82.865,96.315,82.318z"/>
			<path d="M109.663,75.533c0.658,0.543,0.988,1.445,0.988,2.703V85h-2.691v-6.109c0-0.529-0.07-0.934-0.211-1.217
				c-0.254-0.514-0.742-0.773-1.461-0.773c-0.885,0-1.49,0.379-1.824,1.135c-0.168,0.396-0.254,0.908-0.254,1.529V85h-2.625V74.975
				h2.541v1.467c0.336-0.518,0.656-0.889,0.957-1.117c0.535-0.404,1.221-0.607,2.041-0.607
				C108.159,74.717,109.005,74.99,109.663,75.533z"/>
			<path d="M119.64,75.16c0.697,0.314,1.277,0.809,1.732,1.486c0.41,0.596,0.678,1.289,0.799,2.076
				c0.072,0.463,0.102,1.125,0.086,1.992h-7.312c0.043,1.008,0.393,1.715,1.053,2.121c0.4,0.248,0.879,0.375,1.445,0.375
				c0.6,0,1.084-0.15,1.457-0.461c0.209-0.166,0.385-0.395,0.543-0.689h2.68c-0.07,0.596-0.396,1.201-0.977,1.816
				c-0.896,0.977-2.156,1.463-3.777,1.463c-1.332,0-2.514-0.412-3.537-1.234c-1.023-0.824-1.533-2.166-1.533-4.021
				c0-1.738,0.461-3.072,1.385-4.002c0.922-0.926,2.121-1.393,3.594-1.393C118.147,74.689,118.937,74.848,119.64,75.16z
				 M115.71,77.43c-0.373,0.383-0.605,0.898-0.703,1.553h4.525c-0.049-0.695-0.277-1.225-0.699-1.586
				c-0.416-0.361-0.938-0.543-1.557-0.543C116.604,76.854,116.079,77.047,115.71,77.43z"/>
			<path d="M123.983,86.926l0.332,0.018c0.256,0.014,0.502,0.004,0.738-0.027c0.23-0.029,0.43-0.102,0.588-0.211
				c0.152-0.104,0.299-0.324,0.428-0.656c0.131-0.33,0.188-0.535,0.17-0.607l-3.688-10.484h2.92l2.189,7.408l2.076-7.408h2.791
				l-3.445,9.875c-0.662,1.904-1.188,3.086-1.574,3.545c-0.391,0.457-1.16,0.686-2.326,0.686c-0.232,0-0.422-0.002-0.564-0.004
				c-0.143-0.004-0.35-0.016-0.635-0.033V86.926z"/>
			<path d="M44.683,92.324c0.639,0.262,1.15,0.746,1.549,1.455v-1.447h2.561v9.525c0,1.295-0.219,2.273-0.654,2.932
				c-0.75,1.129-2.191,1.695-4.311,1.695c-1.287,0-2.338-0.252-3.145-0.758c-0.811-0.502-1.26-1.254-1.344-2.256h2.852
				c0.076,0.307,0.193,0.527,0.361,0.662c0.281,0.24,0.758,0.361,1.428,0.361c0.947,0,1.58-0.316,1.896-0.951
				c0.209-0.404,0.314-1.084,0.314-2.045v-0.645c-0.248,0.43-0.521,0.752-0.812,0.967c-0.518,0.4-1.197,0.602-2.035,0.602
				c-1.287,0-2.318-0.453-3.086-1.359c-0.773-0.908-1.16-2.135-1.16-3.682c0-1.494,0.375-2.746,1.113-3.766
				c0.742-1.014,1.799-1.523,3.154-1.523C43.87,92.092,44.308,92.168,44.683,92.324z M45.577,99.521
				c0.422-0.463,0.633-1.203,0.633-2.215c0-0.949-0.197-1.676-0.602-2.174c-0.404-0.496-0.938-0.746-1.611-0.746
				c-0.916,0-1.549,0.432-1.896,1.297c-0.184,0.461-0.273,1.029-0.273,1.707c0,0.582,0.096,1.102,0.289,1.557
				c0.357,0.848,0.992,1.27,1.908,1.27C44.64,100.217,45.149,99.988,45.577,99.521z"/>
			<path d="M59.616,101.145c-0.848,1.047-2.137,1.57-3.859,1.57c-1.725,0-3.014-0.523-3.859-1.57
				c-0.854-1.045-1.275-2.305-1.275-3.777c0-1.449,0.422-2.703,1.275-3.766c0.846-1.061,2.135-1.594,3.859-1.594
				c1.723,0,3.012,0.533,3.859,1.594c0.85,1.062,1.275,2.316,1.275,3.766C60.892,98.84,60.466,100.1,59.616,101.145z M57.513,99.693
				c0.414-0.545,0.621-1.32,0.621-2.326s-0.207-1.781-0.621-2.324c-0.41-0.541-1-0.812-1.766-0.812
				c-0.768,0-1.357,0.271-1.771,0.812c-0.418,0.543-0.623,1.318-0.623,2.324s0.205,1.781,0.623,2.326
				c0.414,0.547,1.004,0.82,1.771,0.82C56.513,100.514,57.103,100.24,57.513,99.693z"/>
			<path d="M64.511,89.355c0.725-0.465,1.615-0.701,2.67-0.701c1.389,0,2.541,0.332,3.461,0.996
				c0.914,0.664,1.377,1.646,1.377,2.947c0,0.799-0.203,1.471-0.596,2.02c-0.236,0.33-0.682,0.756-1.344,1.27l-0.654,0.508
				c-0.354,0.277-0.59,0.598-0.705,0.967c-0.076,0.232-0.113,0.596-0.117,1.088h-2.502c0.041-1.039,0.139-1.756,0.297-2.15
				c0.16-0.396,0.568-0.852,1.23-1.369l0.67-0.525c0.217-0.166,0.4-0.348,0.533-0.545c0.246-0.338,0.367-0.707,0.367-1.113
				c0-0.467-0.133-0.893-0.406-1.275c-0.277-0.387-0.773-0.578-1.494-0.578c-0.713,0-1.221,0.238-1.514,0.711
				c-0.297,0.473-0.445,0.963-0.445,1.475h-2.666C62.747,91.326,63.36,90.084,64.511,89.355z M66.038,99.711h2.756v2.662h-2.756
				V99.711z"/>
		</g>
	</g>
	<g>
		<path fill="#26A9E0" d="M269.788,131.762l-11.361-9.004c0,0-0.023-0.012-0.039-0.016c-0.607-0.486-1.268-0.75-1.971-0.75
			c-2.826,0-5.131,4.383-5.131,9.789c0,5.404,2.305,9.789,5.131,9.789c0.689,0,1.346-0.262,1.947-0.729
			c0.033-0.025,0.062-0.035,0.062-0.035L269.788,131.762z M267.095,131.762l-6.25,4.984c0.449-1.457,0.715-3.152,0.715-4.965
			c0-1.82-0.266-3.523-0.727-4.984L267.095,131.762z M256.417,123.66c1.412,0,3.469,3.164,3.469,8.121
			c0,4.955-2.057,8.119-3.469,8.119c-1.41,0-3.453-3.164-3.453-8.119C252.964,126.824,255.007,123.66,256.417,123.66z"/>
		<path fill="#26A9E0" d="M283.999,131.738c0,0,4.172-1.275,3.266-5.846c-0.543-2.742-4.381-4.406-7.676-1.926
			c-2.611,1.969-9.773,7.771-9.773,7.771s7.162,5.816,9.773,7.779c3.295,2.486,7.133,0.818,7.676-1.924
			C288.171,133.021,283.999,131.738,283.999,131.738z"/>
	</g>
</g>
</svg>
