<?xml version="1.0" encoding="utf-8"?>
<!-- Generator: Adobe Illustrator 16.0.5, SVG Export Plug-In . SVG Version: 6.00 Build 0)  -->
<!DOCTYPE svg PUBLIC "-//W3C//DTD SVG 1.1//EN" "http://www.w3.org/Graphics/SVG/1.1/DTD/svg11.dtd">
<svg version="1.1" id="Layer_1" xmlns="http://www.w3.org/2000/svg" xmlns:xlink="http://www.w3.org/1999/xlink" x="0px" y="0px"
	 width="230px" height="230px" viewBox="0 0 230 230" enable-background="new 0 0 230 230" xml:space="preserve">
<path fill="#29ABE2" d="M190.613,207.356c4.097-1.732,6.972-5.789,6.972-10.517c0-5.71-4.199-10.427-9.676-11.265
	c3.784-1.859,6.396-5.739,6.396-10.24c0-6.303-5.109-11.41-11.411-11.41c-1.513,0-2.952,0.3-4.273,0.835
	c1.172-1.794,1.858-3.932,1.858-6.233c0-6.302-5.108-11.412-11.411-11.412c-2.435,0-4.685,0.768-6.537,2.066
	c1.88-2.035,3.038-4.746,3.038-7.735c0-6.302-5.109-11.41-11.412-11.41c-2.137,0-4.128,0.597-5.837,1.618
	c2.109-2.07,3.422-4.951,3.422-8.143c0-5.984-4.61-10.886-10.474-11.365c3.937-1.798,6.678-5.762,6.678-10.375
	c0-6.301-5.11-11.41-11.413-11.41c-4.317,0-8.072,2.398-10.011,5.935c-0.447-3.328-2.318-6.202-4.992-7.979h7.341
	c1.798,0,3.257-1.459,3.257-3.26v-6.518H98.32v6.518c0,1.801,1.459,3.26,3.259,3.26h7.34c-3.076,2.045-5.106,5.538-5.106,9.51
	c0,0.19,0.02,0.376,0.028,0.564c-2.046-3.063-5.532-5.08-9.491-5.08c-6.303,0-11.413,5.11-11.413,11.413
	c0,1.771,0.417,3.444,1.138,4.94c-1.585-0.834-3.388-1.312-5.305-1.312c-4.413,0-8.233,2.512-10.132,6.176
	c-0.783-5.54-5.53-9.804-11.286-9.804c-1.68,0-3.269,0.372-4.705,1.023c1.061-1.732,1.683-3.764,1.683-5.941
	c0-6.303-5.108-11.412-11.413-11.412c-0.146,0-0.29,0.015-0.437,0.021c2.391-2.093,3.909-5.158,3.909-8.587
	c0-4.554-2.677-8.473-6.535-10.304c3.276-0.426,6.117-2.239,7.907-4.837c0.293,5.77,5.068,10.378,10.915,10.378h113.115
	c6.024,0,10.926-4.906,10.926-10.936V12.831c0-6.025-4.901-10.928-10.926-10.928H58.676c-6.033,0-10.943,4.902-10.943,10.928v38.885
	c-2.061-2.964-5.486-4.907-9.369-4.907c-6.304,0-11.413,5.109-11.413,11.412c0,4.555,2.677,8.477,6.537,10.308
	c-5.597,0.731-9.922,5.505-9.922,11.299c0,6.304,5.109,11.414,11.412,11.414c0.147,0,0.289-0.016,0.436-0.021
	c-2.391,2.092-3.907,5.156-3.907,8.585c0,6.302,5.108,11.409,11.41,11.409c1.682,0,3.271-0.372,4.706-1.023
	c-1.06,1.732-1.682,3.763-1.682,5.944c0,6.303,5.109,11.409,11.411,11.409c4.414,0,8.234-2.507,10.133-6.175
	c0.784,5.54,5.529,9.804,11.285,9.804c6.304,0,11.411-5.107,11.411-11.41c0-1.774-0.416-3.445-1.137-4.94
	c1.586,0.834,3.39,1.312,5.306,1.312c6.302,0,11.41-5.11,11.41-11.412c0-0.191-0.019-0.379-0.028-0.568
	c1.32,1.974,3.242,3.504,5.5,4.35c-5.459,0.853-9.638,5.562-9.638,11.259c0,5.397,3.751,9.907,8.786,11.096
	c-3.877,1.822-6.567,5.754-6.567,10.321c0,4.927,3.126,9.11,7.497,10.709c-4.371,1.6-7.497,5.785-7.497,10.709
	c0,2.262,0.667,4.367,1.804,6.141c-1.253-0.473-2.604-0.742-4.022-0.742c-6.302,0-11.413,5.106-11.413,11.409
	c0,2.244,0.656,4.329,1.773,6.093c-0.579-0.091-1.168-0.152-1.773-0.152c-6.302,0-11.411,5.109-11.411,11.41
	c0,4.682,2.822,8.701,6.855,10.46c-5.946,0.395-10.65,5.33-10.65,11.373c0,6.305,5.108,11.411,11.411,11.411
	s11.412-5.106,11.412-11.411c0-4.68-2.821-8.697-6.855-10.458c5.946-0.394,10.651-5.328,10.651-11.375
	c0-2.24-0.656-4.327-1.774-6.091c0.58,0.09,1.169,0.152,1.774,0.152c6.303,0,11.411-5.107,11.411-11.412
	c0-2.263-0.666-4.365-1.803-6.139c1.253,0.473,2.604,0.743,4.021,0.743c6.304,0,11.413-5.108,11.413-11.412
	c0-4.924-3.126-9.109-7.498-10.709c4.372-1.599,7.498-5.782,7.498-10.709c0-5.397-3.751-9.909-8.786-11.096
	c3.876-1.824,6.566-5.753,6.566-10.321c0-4.895-3.088-9.059-7.417-10.678c3.556-0.558,6.57-2.743,8.237-5.785
	c0.708,5.271,5.005,9.399,10.358,9.837c-3.938,1.802-6.679,5.764-6.679,10.374c0,6.304,5.11,11.412,11.413,11.412
	c2.136,0,4.128-0.597,5.837-1.618c-2.109,2.07-3.422,4.951-3.422,8.141c0,6.306,5.11,11.413,11.412,11.413
	c2.433,0,4.685-0.769,6.536-2.065c-1.88,2.034-3.037,4.746-3.037,7.733c0,6.303,5.108,11.413,11.412,11.413
	c1.512,0,2.952-0.303,4.273-0.836c-1.172,1.792-1.858,3.93-1.858,6.231c0,5.71,4.198,10.429,9.674,11.266
	c-3.783,1.859-6.396,5.739-6.396,10.239c0,5.641,4.093,10.312,9.47,11.235c-4.097,1.731-6.972,5.786-6.972,10.514
	c0,6.305,5.11,11.411,11.413,11.411c6.302,0,11.41-5.106,11.41-11.411C200.083,212.949,195.988,208.278,190.613,207.356z
	 M53.65,12.831c0-2.761,2.255-5.009,5.025-5.009h113.115c2.762,0,5.008,2.248,5.008,5.009v51.298c0,2.768-2.246,5.018-5.008,5.018
	H58.676c-2.771,0-5.025-2.25-5.025-5.018V12.831z M58.676,68.059h113.115c2.162,0,3.921-1.763,3.921-3.93V12.831
	c0-2.16-1.759-3.924-3.921-3.924H58.676c-2.172,0-3.938,1.764-3.938,3.924v51.298C54.737,66.296,56.504,68.059,58.676,68.059z
	 M163.135,34.308c2.311,0,4.167,1.877,4.167,4.178c0,2.297-1.856,4.177-4.167,4.177c-2.293,0-4.17-1.88-4.17-4.177
	C158.965,36.185,160.842,34.308,163.135,34.308z M102.66,22.345c7.447-2.535,12.563,6.601,12.563,6.601s5.117-9.136,12.561-6.601
	c7.423,2.524,10.434,12.861,2.596,20.7c-4.354,4.353-12.224,10.145-14.514,11.803c-0.413,0.296-0.872,0.294-1.285-0.007
	c-2.298-1.661-10.164-7.446-14.513-11.796C92.23,35.206,95.245,24.869,102.66,22.345z M73.451,29.843
	c4.785,0,8.646,3.876,8.646,8.646c0,4.779-3.86,8.635-8.646,8.635c-4.767,0-8.648-3.855-8.648-8.635
	C64.803,33.719,68.685,29.843,73.451,29.843z"/>
</svg>
