<?xml version="1.0" encoding="utf-8"?>
<!-- Generator: Adobe Illustrator 16.0.0, SVG Export Plug-In . SVG Version: 6.00 Build 0)  -->
<!DOCTYPE svg PUBLIC "-//W3C//DTD SVG 1.1//EN" "http://www.w3.org/Graphics/SVG/1.1/DTD/svg11.dtd">
<svg version="1.1" id="Layer_1" xmlns="http://www.w3.org/2000/svg" xmlns:xlink="http://www.w3.org/1999/xlink" x="0px" y="0px"
	 width="48px" height="48px" viewBox="0 0 48 48" enable-background="new 0 0 48 48" xml:space="preserve">
<g>
	<g>
		<g>
			<path fill="#1D1E1C" d="M17.826,20.242h1.566v4.821l1.73-2.003h1.922l-2.016,2.287l2.066,2.785h-1.973l-1.711-2.566h-0.02v2.566
				h-1.566V20.242z"/>
			<path fill="#1D1E1C" d="M23.301,20.242h1.564v7.889h-1.564V20.242z"/>
			<path fill="#1D1E1C" d="M25.674,20.242h1.564v7.889h-1.564V20.242z"/>
			<path fill="#1D1E1C" d="M27.801,25.596c0-0.404,0.074-0.769,0.221-1.095c0.145-0.327,0.346-0.608,0.6-0.841
				c0.254-0.233,0.553-0.412,0.896-0.537c0.346-0.126,0.711-0.188,1.102-0.188c0.389,0,0.756,0.062,1.1,0.188
				c0.346,0.125,0.645,0.304,0.898,0.537c0.254,0.232,0.453,0.514,0.6,0.841c0.146,0.326,0.221,0.691,0.221,1.095
				c0,0.402-0.074,0.77-0.221,1.096s-0.346,0.607-0.6,0.84s-0.553,0.412-0.898,0.537c-0.344,0.125-0.711,0.188-1.1,0.188
				c-0.391,0-0.756-0.062-1.102-0.188c-0.344-0.125-0.643-0.305-0.896-0.537s-0.455-0.514-0.6-0.84
				C27.875,26.365,27.801,25.998,27.801,25.596z M29.367,25.596c0,0.383,0.109,0.691,0.328,0.928s0.527,0.355,0.924,0.355
				s0.703-0.119,0.924-0.355c0.219-0.236,0.328-0.545,0.328-0.928s-0.109-0.693-0.328-0.929c-0.221-0.236-0.527-0.354-0.924-0.354
				s-0.705,0.118-0.924,0.354S29.367,25.213,29.367,25.596z"/>
			<path fill="#1D1E1C" d="M33.729,25.596c0-0.404,0.072-0.769,0.219-1.095c0.145-0.327,0.346-0.608,0.6-0.841
				c0.252-0.233,0.553-0.412,0.896-0.537c0.346-0.126,0.713-0.188,1.102-0.188c0.391,0,0.756,0.062,1.102,0.188
				c0.344,0.125,0.643,0.304,0.896,0.537c0.254,0.232,0.455,0.514,0.602,0.841c0.145,0.326,0.219,0.691,0.219,1.095
				c0,0.402-0.074,0.77-0.219,1.096c-0.146,0.326-0.348,0.607-0.602,0.84s-0.553,0.412-0.896,0.537
				c-0.346,0.125-0.711,0.188-1.102,0.188c-0.389,0-0.756-0.062-1.102-0.188c-0.344-0.125-0.645-0.305-0.896-0.537
				c-0.254-0.232-0.455-0.514-0.6-0.84C33.801,26.365,33.729,25.998,33.729,25.596z M35.293,25.596c0,0.383,0.109,0.691,0.328,0.928
				s0.527,0.355,0.924,0.355s0.703-0.119,0.924-0.355c0.219-0.236,0.328-0.545,0.328-0.928s-0.109-0.693-0.328-0.929
				c-0.221-0.236-0.527-0.354-0.924-0.354s-0.705,0.118-0.924,0.354S35.293,25.213,35.293,25.596z"/>
			<path fill="#1D1E1C" d="M39.902,23.059h1.504v0.689h0.02c0.049-0.098,0.119-0.195,0.209-0.293
				c0.09-0.097,0.199-0.184,0.324-0.261c0.125-0.076,0.268-0.139,0.428-0.188c0.16-0.048,0.334-0.073,0.521-0.073
				c0.355,0,0.67,0.073,0.945,0.22c0.273,0.146,0.48,0.376,0.621,0.688c0.18-0.327,0.398-0.56,0.656-0.699
				c0.258-0.139,0.574-0.209,0.949-0.209c0.342,0,0.629,0.058,0.861,0.173c0.232,0.114,0.418,0.271,0.553,0.47
				c0.137,0.197,0.232,0.431,0.293,0.699c0.059,0.268,0.088,0.554,0.088,0.859v2.996h-1.564v-2.953c0-0.237-0.051-0.44-0.15-0.61
				c-0.102-0.171-0.281-0.256-0.539-0.256c-0.182,0-0.332,0.029-0.453,0.089c-0.121,0.059-0.219,0.141-0.293,0.245
				c-0.072,0.104-0.125,0.226-0.156,0.364c-0.031,0.141-0.047,0.287-0.047,0.439v2.682h-1.566v-2.682c0-0.09-0.004-0.201-0.01-0.334
				c-0.008-0.131-0.031-0.257-0.072-0.375c-0.043-0.118-0.109-0.22-0.203-0.303s-0.232-0.125-0.414-0.125
				c-0.201,0-0.363,0.036-0.488,0.109c-0.127,0.073-0.223,0.171-0.289,0.292c-0.066,0.122-0.107,0.26-0.129,0.412
				c-0.021,0.154-0.031,0.314-0.031,0.48v2.525h-1.566V23.059z"/>
		</g>
	</g>
	<polygon fill="#E74F1C" points="12.912,20.074 8.045,23.929 12.912,27.801 14.117,23.929 	"/>
	<ellipse fill="#F19004" cx="13.746" cy="23.937" rx="2.197" ry="4.194"/>
	<path fill="#FFFFFF" d="M14.701,25.703l-0.469,0.078v-1.98l-0.668,1.078l-0.738,0.061l0.809-1.13l-0.842-1.909l0.727,0.112
		l0.5,1.259l0.213-0.294v-0.854l0.469,0.073V25.703z"/>
	<polygon fill="#37A6DE" points="3.176,20.074 8.045,23.929 3.176,27.801 1.973,23.929 	"/>
	<ellipse fill="#1D70B6" cx="2.322" cy="23.937" rx="2.197" ry="4.194"/>
	<path fill="#FFFFFF" d="M1.348,21.978l0.471-0.077v1.98l0.666-1.079l0.738-0.061l-0.809,1.13l0.844,1.91L2.529,25.67l-0.5-1.26
		l-0.211,0.295v0.854l-0.471-0.072V21.978z"/>
	<path fill="#FFFFFF" d="M1.348,21.978l0.471-0.077v1.98l0.666-1.079l0.738-0.061l-0.809,1.13l0.844,1.91L2.529,25.67l-0.5-1.26
		l-0.211,0.295v0.854l-0.471-0.072V21.978z"/>
</g>
</svg>
