<?xml version="1.0" encoding="utf-8"?>
<!-- Generator: Adobe Illustrator 16.0.5, SVG Export Plug-In . SVG Version: 6.00 Build 0)  -->
<!DOCTYPE svg PUBLIC "-//W3C//DTD SVG 1.1//EN" "http://www.w3.org/Graphics/SVG/1.1/DTD/svg11.dtd">
<svg version="1.1" id="Layer_1" xmlns="http://www.w3.org/2000/svg" xmlns:xlink="http://www.w3.org/1999/xlink" x="0px" y="0px"
	 width="376.875px" height="69.5px" viewBox="0 0 376.875 69.5" enable-background="new 0 0 376.875 69.5" xml:space="preserve">
<g>
	<g>
		<path fill="#231F20" d="M129.475,7.83h11.256v34.666l12.457-14.406h13.81l-14.484,16.428l14.858,20.045h-14.189l-12.312-18.455
			h-0.151v18.455h-11.256V7.83H129.475z"/>
		<path fill="#231F20" d="M168.852,7.83h11.25v56.732h-11.25V7.83z"/>
		<path fill="#231F20" d="M185.912,7.83h11.256v56.732h-11.256V7.83z"/>
		<path fill="#231F20" d="M201.225,46.33c0-2.906,0.519-5.531,1.574-7.883c1.051-2.359,2.488-4.366,4.313-6.041
			c1.828-1.683,3.978-2.97,6.451-3.869c2.476-0.898,5.115-1.352,7.92-1.352c2.812,0,5.443,0.445,7.918,1.352
			c2.48,0.899,4.64,2.187,6.459,3.869c1.828,1.669,3.267,3.682,4.314,6.041c1.051,2.352,1.576,4.97,1.576,7.883
			c0,2.893-0.519,5.531-1.576,7.883c-1.049,2.354-2.486,4.357-4.314,6.041c-1.825,1.684-3.983,2.963-6.459,3.862
			c-2.473,0.899-5.104,1.352-7.918,1.352c-2.805,0-5.438-0.444-7.92-1.352c-2.481-0.907-4.631-2.187-6.451-3.862
			c-1.819-1.676-3.264-3.689-4.313-6.041C201.742,51.859,201.225,49.229,201.225,46.33z M212.481,46.33
			c0,2.747,0.783,4.97,2.357,6.674c1.576,1.705,3.783,2.555,6.639,2.555c2.856,0,5.07-0.856,6.646-2.555
			c1.573-1.695,2.358-3.927,2.358-6.674c0-2.755-0.785-4.982-2.358-6.682c-1.576-1.697-3.783-2.553-6.646-2.553
			c-2.848,0-5.062,0.854-6.639,2.553C213.272,41.346,212.481,43.582,212.481,46.33z"/>
		<path fill="#231F20" d="M243.844,46.33c0-2.906,0.525-5.531,1.576-7.883c1.049-2.359,2.488-4.366,4.313-6.041
			c1.828-1.683,3.984-2.97,6.459-3.869c2.476-0.898,5.115-1.352,7.912-1.352c2.806,0,5.451,0.445,7.926,1.352
			c2.474,0.906,4.625,2.187,6.451,3.869c1.834,1.669,3.265,3.682,4.322,6.041c1.049,2.352,1.574,4.97,1.574,7.883
			c0,2.893-0.525,5.531-1.574,7.883c-1.051,2.354-2.488,4.357-4.322,6.041s-3.983,2.963-6.451,3.862
			c-2.467,0.899-5.12,1.352-7.926,1.352c-2.799,0-5.438-0.444-7.912-1.352c-2.479-0.899-4.639-2.187-6.459-3.862
			c-1.819-1.676-3.258-3.689-4.313-6.041C244.369,51.859,243.844,49.229,243.844,46.33z M255.092,46.33
			c0,2.747,0.791,4.97,2.367,6.674c1.582,1.697,3.783,2.555,6.639,2.555c2.854,0,5.068-0.856,6.652-2.555
			c1.574-1.695,2.358-3.927,2.358-6.674c0-2.755-0.784-4.982-2.358-6.682c-1.582-1.697-3.791-2.553-6.652-2.553
			c-2.85,0-5.057,0.854-6.639,2.553C255.883,41.346,255.092,43.582,255.092,46.33z"/>
		<path fill="#231F20" d="M288.248,28.09h10.811v4.955h0.15c0.354-0.697,0.85-1.401,1.504-2.106c0.646-0.698,1.424-1.323,2.321-1.87
			c0.906-0.554,1.937-1,3.078-1.353c1.152-0.345,2.402-0.524,3.754-0.524c2.547,0,4.812,0.524,6.789,1.575
			c1.972,1.05,3.459,2.696,4.459,4.955c1.31-2.359,2.877-4.028,4.726-5.027c1.856-1,4.129-1.496,6.834-1.496
			c2.453,0,4.518,0.41,6.186,1.237c1.683,0.827,3.006,1.948,3.982,3.373c0.979,1.431,1.67,3.106,2.102,5.026
			c0.424,1.937,0.639,3.992,0.639,6.192v21.539h-11.247V43.331c0-1.697-0.367-3.165-1.087-4.388c-0.727-1.229-2.014-1.84-3.862-1.84
			c-1.31,0-2.396,0.209-3.265,0.633c-0.877,0.432-1.575,1.021-2.1,1.769c-0.525,0.748-0.9,1.625-1.123,2.625
			c-0.223,1.009-0.338,2.058-0.338,3.149v19.289h-11.256V45.279c0-0.646-0.029-1.452-0.078-2.401
			c-0.051-0.948-0.225-1.849-0.525-2.696c-0.295-0.85-0.785-1.582-1.461-2.18c-0.682-0.598-1.66-0.898-2.963-0.898
			c-1.453,0-2.625,0.267-3.531,0.785c-0.897,0.53-1.588,1.229-2.062,2.105c-0.469,0.877-0.785,1.863-0.937,2.956
			c-0.149,1.1-0.223,2.258-0.223,3.452v18.16H288.27V28.09H288.248z"/>
	</g>
</g>
<polygon fill="#35A8E0" points="24.276,6.406 59.552,34.349 24.276,62.404 15.552,34.349 "/>
<polygon fill="#E84E1B" points="94.823,6.406 59.552,34.349 94.823,62.404 103.54,34.349 "/>
<ellipse fill="#1D70B7" cx="18.091" cy="34.412" rx="15.924" ry="30.38"/>
<ellipse fill="#F29100" cx="100.865" cy="34.412" rx="15.916" ry="30.38"/>
<path fill="#FFFFFF" d="M11.021,20.215l3.416-0.567v14.348l4.833-7.811l5.352-0.439l-5.862,8.192l6.113,13.83L19.6,46.954
	l-3.64-9.12l-1.524,2.129v6.191l-3.416-0.531L11.021,20.215L11.021,20.215z"/>
<path fill="#FFFFFF" d="M11.021,20.215l3.416-0.567v14.348l4.833-7.811l5.352-0.439l-5.862,8.192l6.113,13.83L19.6,46.954
	l-3.64-9.12l-1.524,2.129v6.191l-3.416-0.531L11.021,20.215L11.021,20.215z"/>
<path fill="#FFFFFF" d="M107.129,47.79l-4.344-0.676l0.014-14.543l-5.026,7.121l-4.409-0.346l4.905-6.683l-5.1-11.097l4.322-0.597
	l3.617,7.867l1.705-2.322l-0.007-6.293l4.344-0.604L107.129,47.79z"/>
<g>
	<path fill="#231F20" d="M356.197,37.757c-2.962,0-5.373-2.413-5.373-5.374s2.411-5.371,5.373-5.371s5.368,2.41,5.368,5.371
		S359.157,37.757,356.197,37.757z M356.197,28.141c-2.34,0-4.237,1.902-4.237,4.242c0,2.337,1.897,4.239,4.237,4.239
		c2.336,0,4.238-1.902,4.238-4.239C360.435,30.043,358.531,28.141,356.197,28.141z"/>
	<g>
		<path fill="#231F20" d="M358.419,34.745h-1.529l-1.171-1.814v1.814h-1.226v-4.723h1.911c0.265,0,0.484,0.037,0.666,0.123
			c0.207,0.068,0.383,0.176,0.509,0.314c0.106,0.126,0.221,0.286,0.275,0.453c0.074,0.177,0.095,0.372,0.095,0.567
			c0,0.365-0.077,0.653-0.264,0.885c-0.163,0.21-0.422,0.372-0.758,0.446L358.419,34.745z M355.719,32.133h0.223
			c0.237,0,0.431-0.049,0.559-0.155c0.132-0.097,0.204-0.248,0.204-0.423c0-0.197-0.072-0.344-0.204-0.437
			c-0.128-0.104-0.32-0.147-0.559-0.147h-0.223V32.133z"/>
	</g>
</g>
<g>
	<g>
		<path fill="#231F20" d="M356.559,59.355c0.438,0.561,0.658,1.283,0.658,2.17c0,0.92-0.215,1.682-0.652,2.287
			c-0.436,0.604-1.046,0.905-1.827,0.905c-0.494,0-0.886-0.096-1.187-0.291c-0.177-0.118-0.37-0.319-0.576-0.608v0.744h-1.525
			v-7.994h1.543v2.846c0.201-0.275,0.413-0.482,0.655-0.63c0.276-0.183,0.639-0.272,1.071-0.272
			C355.503,58.512,356.114,58.795,356.559,59.355z M355.261,62.963c0.222-0.324,0.334-0.748,0.334-1.271
			c0-0.422-0.052-0.771-0.166-1.041c-0.205-0.526-0.586-0.783-1.147-0.783c-0.563,0-0.953,0.255-1.165,0.765
			c-0.109,0.269-0.167,0.624-0.167,1.054c0,0.508,0.113,0.928,0.342,1.26s0.571,0.502,1.034,0.502
			C354.731,63.445,355.035,63.283,355.261,62.963z"/>
		<path fill="#231F20" d="M362.152,58.764c0.41,0.187,0.753,0.478,1.021,0.877c0.241,0.354,0.399,0.76,0.471,1.223
			c0.041,0.271,0.061,0.662,0.053,1.174h-4.311c0.024,0.596,0.229,1.013,0.618,1.251c0.236,0.147,0.52,0.223,0.853,0.223
			c0.354,0,0.64-0.094,0.861-0.272c0.118-0.098,0.225-0.234,0.315-0.408h1.581c-0.042,0.354-0.232,0.709-0.576,1.068
			c-0.526,0.58-1.271,0.865-2.222,0.865c-0.792,0-1.486-0.242-2.09-0.728c-0.6-0.488-0.902-1.274-0.902-2.371
			c0-1.024,0.275-1.812,0.817-2.354c0.544-0.547,1.249-0.822,2.116-0.822C361.274,58.486,361.736,58.578,362.152,58.764z
			 M359.835,60.104c-0.22,0.224-0.355,0.527-0.413,0.912h2.669c-0.027-0.41-0.168-0.72-0.415-0.936
			c-0.243-0.212-0.554-0.321-0.917-0.321C360.363,59.759,360.055,59.874,359.835,60.104z"/>
		<path fill="#231F20" d="M363.953,59.798v-1.101h0.825v-1.65h1.53v1.65h0.962v1.101h-0.962v3.132c0,0.24,0.034,0.391,0.095,0.45
			c0.061,0.062,0.252,0.091,0.563,0.091c0.049,0,0.099,0,0.15-0.005c0.053,0,0.104-0.001,0.152-0.006v1.157l-0.73,0.025
			c-0.731,0.026-1.231-0.101-1.501-0.383c-0.173-0.176-0.261-0.447-0.261-0.814v-3.647H363.953z"/>
		<path fill="#231F20" d="M370.525,60.961c0.291-0.034,0.493-0.08,0.619-0.135c0.224-0.096,0.336-0.24,0.336-0.44
			c0-0.241-0.09-0.409-0.257-0.501c-0.174-0.092-0.422-0.138-0.755-0.138c-0.371,0-0.63,0.092-0.783,0.271
			c-0.111,0.133-0.187,0.312-0.222,0.543h-1.495c0.036-0.519,0.18-0.941,0.435-1.275c0.415-0.521,1.12-0.782,2.119-0.782
			c0.65,0,1.229,0.127,1.733,0.386c0.506,0.256,0.761,0.743,0.761,1.452v2.716c0,0.188,0,0.416,0.012,0.687
			c0.005,0.205,0.038,0.335,0.088,0.409c0.056,0.076,0.13,0.137,0.229,0.183v0.229h-1.681c-0.054-0.123-0.079-0.234-0.102-0.338
			c-0.018-0.104-0.032-0.228-0.04-0.358c-0.216,0.233-0.463,0.429-0.745,0.593c-0.333,0.193-0.712,0.287-1.136,0.287
			c-0.541,0-0.979-0.154-1.334-0.458c-0.352-0.31-0.529-0.741-0.529-1.301c0-0.729,0.286-1.255,0.85-1.58
			c0.311-0.179,0.766-0.306,1.367-0.384L370.525,60.961z M371.474,61.686c-0.102,0.062-0.2,0.111-0.302,0.148
			c-0.102,0.034-0.241,0.073-0.415,0.105l-0.354,0.062c-0.33,0.059-0.564,0.128-0.709,0.212c-0.244,0.142-0.367,0.358-0.367,0.658
			c0,0.264,0.074,0.455,0.223,0.571c0.148,0.119,0.33,0.178,0.542,0.178c0.339,0,0.65-0.098,0.938-0.294
			c0.285-0.191,0.433-0.552,0.445-1.069V61.686L371.474,61.686z"/>
	</g>
</g>
</svg>
