<?xml version="1.0" encoding="utf-8"?>
<!-- Generator: Adobe Illustrator 16.0.0, SVG Export Plug-In . SVG Version: 6.00 Build 0)  -->
<!DOCTYPE svg PUBLIC "-//W3C//DTD SVG 1.1//EN" "http://www.w3.org/Graphics/SVG/1.1/DTD/svg11.dtd">
<svg version="1.1" id="Layer_1" xmlns="http://www.w3.org/2000/svg" xmlns:xlink="http://www.w3.org/1999/xlink" x="0px" y="0px"
	 width="107.003px" height="102.692px" viewBox="0 0 107.003 102.692" enable-background="new 0 0 107.003 102.692"
	 xml:space="preserve">
<g>
	<g>
		<path fill="#9C9B9B" d="M14.509,3.509c0.557,0.707,0.836,1.619,0.836,2.736c0,1.158-0.275,2.118-0.826,2.88
			c-0.549,0.762-1.316,1.142-2.303,1.142c-0.619,0-1.115-0.123-1.492-0.369c-0.225-0.146-0.467-0.401-0.729-0.766v0.937H8.073V0
			h1.949v3.584c0.248-0.347,0.521-0.611,0.82-0.793c0.354-0.228,0.803-0.342,1.35-0.342C13.179,2.449,13.95,2.802,14.509,3.509z
			 M12.878,8.051C13.159,7.645,13.3,7.112,13.3,6.45c0-0.529-0.07-0.966-0.207-1.313c-0.262-0.657-0.746-0.985-1.449-0.985
			c-0.713,0-1.201,0.321-1.469,0.964c-0.137,0.342-0.207,0.784-0.207,1.327c0,0.639,0.143,1.167,0.428,1.587
			C10.681,8.45,11.116,8.66,11.7,8.66C12.204,8.66,12.599,8.457,12.878,8.051z"/>
		<path fill="#9C9B9B" d="M21.558,2.764c0.52,0.233,0.949,0.601,1.289,1.103c0.305,0.443,0.502,0.957,0.594,1.542
			c0.053,0.342,0.074,0.835,0.064,1.479h-5.432c0.031,0.748,0.291,1.272,0.781,1.573c0.297,0.187,0.654,0.28,1.074,0.28
			c0.443,0,0.805-0.114,1.082-0.342c0.152-0.123,0.285-0.294,0.402-0.513h1.99c-0.053,0.442-0.295,0.892-0.725,1.348
			c-0.666,0.725-1.602,1.087-2.805,1.087c-0.992,0-1.867-0.306-2.625-0.917c-0.76-0.612-1.139-1.607-1.139-2.985
			c0-1.292,0.342-2.282,1.027-2.971c0.686-0.689,1.574-1.034,2.666-1.034C20.452,2.415,21.038,2.531,21.558,2.764z M18.642,4.448
			c-0.275,0.284-0.449,0.668-0.52,1.154h3.357c-0.035-0.517-0.207-0.91-0.518-1.178c-0.312-0.268-0.697-0.402-1.156-0.402
			C19.304,4.022,18.917,4.164,18.642,4.448z"/>
		<path fill="#9C9B9B" d="M23.724,4.07V2.682h1.039v-2.08h1.93v2.08h1.211V4.07h-1.211v3.94c0,0.306,0.039,0.496,0.117,0.571
			c0.076,0.075,0.314,0.113,0.711,0.113c0.059,0,0.121-0.001,0.188-0.003c0.066-0.002,0.131-0.005,0.195-0.01v1.457l-0.924,0.034
			c-0.92,0.032-1.551-0.127-1.887-0.479c-0.219-0.224-0.33-0.568-0.33-1.033V4.07H23.724z"/>
		<path fill="#9C9B9B" d="M32.108,5.534c0.361-0.045,0.621-0.103,0.777-0.171c0.281-0.119,0.42-0.303,0.42-0.554
			c0-0.305-0.107-0.516-0.322-0.632c-0.215-0.117-0.529-0.175-0.945-0.175c-0.467,0-0.797,0.114-0.992,0.342
			c-0.139,0.168-0.23,0.396-0.277,0.684h-1.881c0.041-0.652,0.225-1.188,0.549-1.607c0.518-0.657,1.406-0.985,2.666-0.985
			c0.82,0,1.549,0.162,2.186,0.486s0.955,0.935,0.955,1.833v3.42c0,0.237,0.004,0.524,0.014,0.862
			c0.014,0.255,0.051,0.429,0.115,0.52c0.064,0.091,0.16,0.167,0.287,0.226v0.287H33.54c-0.061-0.15-0.102-0.292-0.125-0.424
			c-0.021-0.132-0.041-0.282-0.055-0.451c-0.27,0.292-0.582,0.541-0.936,0.746c-0.422,0.242-0.898,0.362-1.43,0.362
			c-0.68,0-1.24-0.192-1.684-0.578c-0.441-0.386-0.662-0.932-0.662-1.638c0-0.917,0.355-1.58,1.066-1.991
			c0.391-0.223,0.965-0.383,1.723-0.479L32.108,5.534z M33.3,6.443c-0.125,0.078-0.252,0.141-0.379,0.188s-0.301,0.092-0.523,0.133
			l-0.443,0.082c-0.416,0.073-0.715,0.162-0.896,0.267c-0.307,0.178-0.459,0.454-0.459,0.828c0,0.333,0.094,0.574,0.281,0.722
			c0.188,0.148,0.414,0.223,0.684,0.223c0.426,0,0.818-0.124,1.178-0.37c0.357-0.246,0.545-0.695,0.559-1.348V6.443z"/>
		<path fill="#9C9B9B" d="M37.007,3.229V1.902c0.615-0.027,1.045-0.068,1.289-0.123c0.393-0.087,0.711-0.26,0.955-0.52
			c0.17-0.178,0.297-0.415,0.383-0.711c0.051-0.178,0.076-0.31,0.076-0.396h1.627v9.918h-1.998v-6.84H37.007z"/>
	</g>
	<g>
		<path fill="#9C9B9B" d="M70.173,3.509c0.557,0.707,0.836,1.619,0.836,2.736c0,1.158-0.275,2.118-0.826,2.88
			c-0.549,0.762-1.316,1.142-2.303,1.142c-0.619,0-1.115-0.123-1.492-0.369c-0.225-0.146-0.467-0.401-0.729-0.766v0.937h-1.922V0
			h1.949v3.584c0.248-0.347,0.521-0.611,0.82-0.793c0.354-0.228,0.803-0.342,1.35-0.342C68.843,2.449,69.614,2.802,70.173,3.509z
			 M68.542,8.051c0.281-0.406,0.422-0.939,0.422-1.601c0-0.529-0.07-0.966-0.207-1.313c-0.262-0.657-0.746-0.985-1.449-0.985
			c-0.713,0-1.201,0.321-1.469,0.964c-0.137,0.342-0.207,0.784-0.207,1.327c0,0.639,0.143,1.167,0.428,1.587
			c0.285,0.42,0.721,0.629,1.305,0.629C67.868,8.66,68.263,8.457,68.542,8.051z"/>
		<path fill="#9C9B9B" d="M77.222,2.764c0.52,0.233,0.949,0.601,1.289,1.103c0.305,0.443,0.502,0.957,0.594,1.542
			c0.053,0.342,0.074,0.835,0.064,1.479h-5.432c0.031,0.748,0.291,1.272,0.781,1.573c0.297,0.187,0.654,0.28,1.074,0.28
			c0.443,0,0.805-0.114,1.082-0.342c0.152-0.123,0.285-0.294,0.402-0.513h1.99c-0.053,0.442-0.295,0.892-0.725,1.348
			c-0.666,0.725-1.602,1.087-2.805,1.087c-0.992,0-1.867-0.306-2.625-0.917c-0.76-0.612-1.139-1.607-1.139-2.985
			c0-1.292,0.342-2.282,1.027-2.971c0.686-0.689,1.574-1.034,2.666-1.034C76.116,2.415,76.702,2.531,77.222,2.764z M74.306,4.448
			c-0.275,0.284-0.449,0.668-0.52,1.154h3.357c-0.035-0.517-0.207-0.91-0.518-1.178c-0.312-0.268-0.697-0.402-1.156-0.402
			C74.968,4.022,74.581,4.164,74.306,4.448z"/>
		<path fill="#9C9B9B" d="M79.388,4.07V2.682h1.039v-2.08h1.93v2.08h1.211V4.07h-1.211v3.94c0,0.306,0.039,0.496,0.117,0.571
			c0.076,0.075,0.314,0.113,0.711,0.113c0.059,0,0.121-0.001,0.188-0.003c0.066-0.002,0.131-0.005,0.195-0.01v1.457l-0.924,0.034
			c-0.92,0.032-1.551-0.127-1.887-0.479c-0.219-0.224-0.33-0.568-0.33-1.033V4.07H79.388z"/>
		<path fill="#9C9B9B" d="M87.772,5.534c0.361-0.045,0.621-0.103,0.777-0.171c0.281-0.119,0.42-0.303,0.42-0.554
			c0-0.305-0.107-0.516-0.322-0.632c-0.215-0.117-0.529-0.175-0.945-0.175c-0.467,0-0.797,0.114-0.992,0.342
			c-0.139,0.168-0.23,0.396-0.277,0.684h-1.881c0.041-0.652,0.225-1.188,0.549-1.607c0.518-0.657,1.406-0.985,2.666-0.985
			c0.82,0,1.549,0.162,2.186,0.486s0.955,0.935,0.955,1.833v3.42c0,0.237,0.004,0.524,0.014,0.862
			c0.014,0.255,0.051,0.429,0.115,0.52c0.064,0.091,0.16,0.167,0.287,0.226v0.287h-2.119c-0.061-0.15-0.102-0.292-0.125-0.424
			c-0.021-0.132-0.041-0.282-0.055-0.451c-0.27,0.292-0.582,0.541-0.936,0.746c-0.422,0.242-0.898,0.362-1.43,0.362
			c-0.68,0-1.24-0.192-1.684-0.578c-0.441-0.386-0.662-0.932-0.662-1.638c0-0.917,0.355-1.58,1.066-1.991
			c0.391-0.223,0.965-0.383,1.723-0.479L87.772,5.534z M88.964,6.443c-0.125,0.078-0.252,0.141-0.379,0.188
			s-0.301,0.092-0.523,0.133l-0.443,0.082c-0.416,0.073-0.715,0.162-0.896,0.267c-0.307,0.178-0.459,0.454-0.459,0.828
			c0,0.333,0.094,0.574,0.281,0.722c0.188,0.148,0.414,0.223,0.684,0.223c0.426,0,0.818-0.124,1.178-0.37
			c0.357-0.246,0.545-0.695,0.559-1.348V6.443z"/>
		<path fill="#9C9B9B" d="M92.597,8.12c0.277-0.661,0.934-1.361,1.969-2.1c0.898-0.643,1.48-1.104,1.744-1.382
			c0.406-0.433,0.609-0.907,0.609-1.423c0-0.419-0.117-0.768-0.35-1.046c-0.232-0.278-0.564-0.417-0.998-0.417
			c-0.592,0-0.996,0.221-1.211,0.663c-0.123,0.256-0.195,0.662-0.219,1.218h-1.895c0.031-0.844,0.186-1.525,0.459-2.045
			c0.52-0.989,1.445-1.484,2.773-1.484c1.049,0,1.885,0.291,2.506,0.873c0.621,0.581,0.932,1.351,0.932,2.308
			c0,0.734-0.221,1.387-0.658,1.957c-0.289,0.378-0.762,0.8-1.42,1.266l-0.781,0.554c-0.488,0.347-0.822,0.598-1.002,0.752
			c-0.182,0.155-0.332,0.335-0.455,0.541h4.33v1.717h-6.793C92.155,9.357,92.31,8.708,92.597,8.12z"/>
	</g>
	<path fill="#35A8E0" d="M36.108,37.542l-8.836-6.536c-0.953-0.706-2.535-0.706-3.488,0l-8.836,6.536
		c-0.887,0.657-1.553,1.983-1.553,3.088v18.902c0,1.341,1.088,2.431,2.432,2.431h19.404c1.342,0,2.432-1.09,2.432-2.431V40.63
		C37.663,39.525,36.993,38.199,36.108,37.542z M35.663,59.532c0,0.235-0.197,0.432-0.432,0.432H15.827
		c-0.238,0-0.432-0.196-0.432-0.432V40.63c0-0.469,0.367-1.202,0.744-1.479l8.834-6.537c0.131-0.098,0.338-0.156,0.555-0.156
		s0.424,0.059,0.555,0.156l8.836,6.537c0.373,0.277,0.744,1.01,0.744,1.479V59.532z M25.528,36.039
		c-2.229,0-4.039,1.813-4.039,4.042c0,2.227,1.811,4.038,4.039,4.038c2.227,0,4.041-1.812,4.041-4.038
		C29.569,37.852,27.755,36.039,25.528,36.039z M25.528,42.12c-1.127,0-2.041-0.915-2.041-2.04c0-1.126,0.914-2.042,2.041-2.042
		s2.041,0.916,2.041,2.042C27.569,41.205,26.655,42.12,25.528,42.12z"/>
	<g>
		<path fill="#35A8E0" d="M91.761,61.346L91.761,61.346c-0.391,0-0.799-0.148-1.178-0.43l-8.834-6.537
			c-0.264-0.193-0.85-0.195-1.111,0.001l-8.834,6.536c-0.379,0.281-0.789,0.43-1.18,0.43c-0.754,0-1.566-0.568-1.566-1.812V40.63
			c0-1.103,0.67-2.43,1.557-3.086l8.836-6.537c0.951-0.707,2.533-0.707,3.488,0l8.832,6.537c0.889,0.656,1.557,1.982,1.557,3.086
			v18.904c0,0.468-0.115,0.868-0.344,1.185C92.698,61.117,92.253,61.346,91.761,61.346z M81.192,32.458
			c-0.217,0-0.422,0.059-0.555,0.156l-8.834,6.537c-0.377,0.277-0.746,1.01-0.746,1.479v18.352l8.393-6.209
			c0.951-0.706,2.533-0.706,3.488,0l8.391,6.209V40.63c0-0.469-0.371-1.202-0.746-1.479l-8.834-6.537
			C81.616,32.517,81.411,32.458,81.192,32.458z"/>
		<path fill="#35A8E0" d="M81.192,44.118c-2.227,0-4.043-1.812-4.043-4.038c0-2.229,1.816-4.042,4.043-4.042
			c2.229,0,4.039,1.813,4.039,4.042C85.231,42.307,83.421,44.118,81.192,44.118z M81.192,38.038c-1.125,0-2.043,0.917-2.043,2.042
			c0,1.125,0.918,2.041,2.043,2.041s2.043-0.916,2.043-2.041C83.235,38.955,82.317,38.038,81.192,38.038z"/>
	</g>
	<g>
		<g>
			<g>
				<g>
					<path fill="none" stroke="#35A8E0" stroke-width="1.665" stroke-miterlimit="10" d="M80.729,98.417
						c0.19,0.188,0.503,0.188,0.693,0l14.541-14.231c0.19-0.187,0.239-0.53,0.108-0.763l-4.342-7.705
						c-0.131-0.232-0.457-0.423-0.724-0.423h-5.828c-0.267,0-0.571,0.201-0.675,0.447l-3.297,7.752
						c-0.104,0.246-0.272,0.245-0.374-0.002l-3.193-7.749c-0.102-0.247-0.403-0.449-0.67-0.449h-5.826
						c-0.267,0-0.593,0.19-0.724,0.423l-4.344,7.705c-0.131,0.232-0.082,0.576,0.108,0.762L80.729,98.417z"/>
				</g>
			</g>
		</g>
		
			<line fill="none" stroke="#35A8E0" stroke-width="1.665" stroke-miterlimit="10" x1="65.886" y1="83.961" x2="96.55" y2="83.961"/>
		<polyline fill="none" stroke="#35A8E0" stroke-width="1.665" stroke-miterlimit="10" points="77.456,75.105 74.026,83.75 
			81.075,98.756 		"/>
		<polyline fill="none" stroke="#35A8E0" stroke-width="1.665" stroke-miterlimit="10" points="84.692,75.105 88.126,83.75 
			81.075,98.756 		"/>
	</g>
</g>
</svg>
