<?xml version="1.0" encoding="utf-8"?>
<!-- Generator: Adobe Illustrator 16.0.0, SVG Export Plug-In . SVG Version: 6.00 Build 0)  -->
<!DOCTYPE svg PUBLIC "-//W3C//DTD SVG 1.1//EN" "http://www.w3.org/Graphics/SVG/1.1/DTD/svg11.dtd">
<svg version="1.1" id="Layer_1" xmlns="http://www.w3.org/2000/svg" xmlns:xlink="http://www.w3.org/1999/xlink" x="0px" y="0px"
	 width="318.137px" height="318px" viewBox="0 0 318.137 318" enable-background="new 0 0 318.137 318" xml:space="preserve">
<g>
	<linearGradient id="SVGID_1_" gradientUnits="userSpaceOnUse" x1="43.2842" y1="164.2871" x2="274.8525" y2="164.2871">
		<stop  offset="0" style="stop-color:#35A8E0"/>
		<stop  offset="1" style="stop-color:#1D70B7"/>
	</linearGradient>
	<path fill="url(#SVGID_1_)" d="M274.853,159.705V98.19c0-29.835-24.022-54.108-53.551-54.108H96.836
		c-29.528,0-53.552,24.273-53.552,54.108v61.515c0,29.835,24.023,54.112,53.552,54.112h61.323l-34.852,70.675
		c18.561-10.749,122.496-71.197,136.199-84.808C269.833,189.421,274.853,176.344,274.853,159.705z"/>
	<path fill="#FFFFFF" d="M118.651,289.464l36.328-73.67H96.836c-30.619,0-55.529-25.163-55.529-56.089V98.19
		c0-30.926,24.91-56.086,55.529-56.086h124.466c30.619,0,55.528,25.16,55.528,56.086v61.515c0,17.192-5.21,30.729-15.93,41.383
		c-15.162,15.058-134.362,83.83-139.429,86.75L118.651,289.464z M96.836,44.082c-29.528,0-53.552,24.273-53.552,54.108v61.515
		c0,29.835,24.023,54.112,53.552,54.112h61.323l-34.852,70.675c18.561-10.749,122.496-71.197,136.199-84.808
		c10.326-10.264,15.346-23.341,15.346-39.979V98.19c0-29.835-24.022-54.108-53.551-54.108H96.836z"/>
	<g>
		<g>
			<path fill="#FFFFFF" d="M96.414,105.148v3.13h-5.287v14.543H87.41v-14.543h-5.312v-3.13H96.414z"/>
			<path fill="#FFFFFF" d="M101.662,114.872c0.637-0.079,1.092-0.18,1.365-0.3c0.491-0.207,0.736-0.531,0.736-0.971
				c0-0.535-0.188-0.905-0.564-1.109c-0.377-0.203-0.93-0.306-1.659-0.306c-0.818,0-1.397,0.2-1.738,0.6
				c-0.243,0.296-0.405,0.695-0.485,1.199h-3.298c0.072-1.144,0.394-2.082,0.964-2.817c0.906-1.151,2.464-1.727,4.672-1.727
				c1.437,0,2.713,0.283,3.829,0.851c1.116,0.568,1.674,1.639,1.674,3.214v5.994c0,0.416,0.008,0.92,0.024,1.511
				c0.023,0.448,0.092,0.752,0.203,0.911c0.111,0.16,0.279,0.292,0.504,0.396v0.503h-3.717c-0.104-0.264-0.176-0.511-0.217-0.743
				c-0.039-0.231-0.071-0.495-0.096-0.791c-0.474,0.512-1.021,0.947-1.64,1.307c-0.739,0.424-1.575,0.636-2.509,0.636
				c-1.189,0-2.172-0.338-2.948-1.014c-0.776-0.675-1.163-1.632-1.163-2.871c0-1.606,0.623-2.77,1.871-3.489
				c0.686-0.392,1.691-0.671,3.02-0.839L101.662,114.872z M103.752,116.467c-0.219,0.137-0.439,0.246-0.662,0.33
				c-0.224,0.084-0.529,0.162-0.918,0.233l-0.777,0.145c-0.73,0.128-1.254,0.283-1.571,0.467c-0.538,0.312-0.808,0.796-0.808,1.451
				c0,0.584,0.164,1.005,0.494,1.265c0.328,0.26,0.728,0.39,1.199,0.39c0.746,0,1.434-0.216,2.062-0.647s0.956-1.219,0.98-2.361
				V116.467z"/>
			<path fill="#FFFFFF" d="M110.106,105.209h3.356v9.533l4.311-4.93h4.249l-4.685,4.869l4.866,8.14h-4.159l-3.166-5.583
				l-1.416,1.471v4.112h-3.356V105.209z"/>
			<path fill="#FFFFFF" d="M132.314,110.018c0.912,0.408,1.664,1.053,2.259,1.934c0.535,0.776,0.882,1.677,1.041,2.701
				c0.092,0.601,0.13,1.465,0.112,2.594h-9.518c0.053,1.312,0.508,2.23,1.366,2.758c0.522,0.328,1.149,0.491,1.884,0.491
				c0.779,0,1.411-0.199,1.897-0.599c0.266-0.216,0.5-0.516,0.704-0.899h3.488c-0.092,0.775-0.515,1.562-1.268,2.361
				c-1.17,1.271-2.809,1.907-4.916,1.907c-1.739,0-3.273-0.536-4.604-1.608s-1.994-2.816-1.994-5.232c0-2.264,0.6-4,1.801-5.208
				c1.199-1.207,2.758-1.812,4.673-1.812C130.379,109.405,131.403,109.609,132.314,110.018z M127.203,112.97
				c-0.483,0.497-0.787,1.172-0.91,2.022h5.887c-0.062-0.907-0.365-1.596-0.91-2.064c-0.545-0.47-1.221-0.705-2.027-0.705
				C128.365,112.223,127.686,112.472,127.203,112.97z"/>
			<path fill="#FFFFFF" d="M149.453,114.872c0.636-0.079,1.091-0.18,1.365-0.3c0.49-0.207,0.736-0.531,0.736-0.971
				c0-0.535-0.188-0.905-0.565-1.109c-0.377-0.203-0.93-0.306-1.659-0.306c-0.818,0-1.397,0.2-1.738,0.6
				c-0.242,0.296-0.404,0.695-0.485,1.199h-3.298c0.072-1.144,0.394-2.082,0.964-2.817c0.907-1.151,2.464-1.727,4.673-1.727
				c1.436,0,2.713,0.283,3.828,0.851c1.116,0.568,1.674,1.639,1.674,3.214v5.994c0,0.416,0.008,0.92,0.024,1.511
				c0.024,0.448,0.092,0.752,0.204,0.911c0.111,0.16,0.279,0.292,0.503,0.396v0.503h-3.717c-0.104-0.264-0.176-0.511-0.216-0.743
				c-0.04-0.231-0.072-0.495-0.096-0.791c-0.475,0.512-1.021,0.947-1.641,1.307c-0.739,0.424-1.575,0.636-2.508,0.636
				c-1.189,0-2.173-0.338-2.949-1.014c-0.775-0.675-1.163-1.632-1.163-2.871c0-1.606,0.624-2.77,1.872-3.489
				c0.685-0.392,1.691-0.671,3.02-0.839L149.453,114.872z M151.543,116.467c-0.22,0.137-0.44,0.246-0.663,0.33
				c-0.224,0.084-0.528,0.162-0.917,0.233l-0.778,0.145c-0.729,0.128-1.253,0.283-1.571,0.467c-0.537,0.312-0.807,0.796-0.807,1.451
				c0,0.584,0.164,1.005,0.493,1.265s0.728,0.39,1.199,0.39c0.747,0,1.435-0.216,2.063-0.647s0.955-1.219,0.98-2.361V116.467z"/>
			<path fill="#FFFFFF" d="M168.244,122.821h-3.417v-17.673h3.417V122.821z"/>
			<path fill="#FFFFFF" d="M182.476,121.223c-1.103,1.361-2.778,2.043-5.023,2.043c-2.247,0-3.921-0.682-5.024-2.043
				c-1.103-1.361-1.654-3.001-1.654-4.918c0-1.884,0.552-3.518,1.654-4.899c1.104-1.381,2.777-2.072,5.024-2.072
				c2.245,0,3.921,0.691,5.023,2.072c1.103,1.382,1.655,3.016,1.655,4.899C184.131,118.222,183.578,119.861,182.476,121.223z
				 M179.742,119.334c0.535-0.71,0.803-1.72,0.803-3.029c0-1.309-0.268-2.316-0.803-3.022s-1.303-1.06-2.303-1.06
				c-0.998,0-1.768,0.354-2.308,1.06s-0.81,1.714-0.81,3.022c0,1.31,0.27,2.319,0.81,3.029c0.54,0.711,1.31,1.065,2.308,1.065
				C178.439,120.399,179.207,120.045,179.742,119.334z"/>
			<path fill="#FFFFFF" d="M197.475,121.223c-1.104,1.361-2.777,2.043-5.023,2.043s-3.921-0.682-5.023-2.043
				c-1.104-1.361-1.654-3.001-1.654-4.918c0-1.884,0.551-3.518,1.654-4.899c1.103-1.381,2.777-2.072,5.023-2.072
				s3.92,0.691,5.023,2.072c1.104,1.382,1.654,3.016,1.654,4.899C199.129,118.222,198.578,119.861,197.475,121.223z
				 M194.741,119.334c0.535-0.71,0.804-1.72,0.804-3.029c0-1.309-0.269-2.316-0.804-3.022c-0.536-0.706-1.304-1.06-2.302-1.06
				c-1,0-1.77,0.354-2.309,1.06s-0.809,1.714-0.809,3.022c0,1.31,0.27,2.319,0.809,3.029c0.539,0.711,1.309,1.065,2.309,1.065
				C193.438,120.399,194.205,120.045,194.741,119.334z"/>
			<path fill="#FFFFFF" d="M201.539,105.209h3.357v9.533l4.31-4.93h4.249l-4.684,4.869l4.865,8.14h-4.158l-3.167-5.583l-1.415,1.471
				v4.112h-3.357V105.209z"/>
			<path fill="#FFFFFF" d="M88.475,141.525c0.635-0.08,1.09-0.18,1.364-0.3c0.491-0.208,0.737-0.531,0.737-0.972
				c0-0.535-0.189-0.904-0.566-1.108s-0.93-0.306-1.658-0.306c-0.818,0-1.398,0.199-1.738,0.6c-0.243,0.295-0.405,0.695-0.486,1.198
				H82.83c0.072-1.143,0.393-2.082,0.963-2.817c0.908-1.15,2.465-1.727,4.673-1.727c1.437,0,2.713,0.284,3.829,0.852
				c1.115,0.567,1.674,1.639,1.674,3.213v5.995c0,0.416,0.008,0.919,0.023,1.511c0.024,0.447,0.092,0.751,0.204,0.911
				s0.28,0.292,0.503,0.396v0.504h-3.717c-0.104-0.264-0.176-0.512-0.215-0.743c-0.041-0.232-0.072-0.496-0.096-0.792
				c-0.475,0.512-1.021,0.947-1.641,1.307c-0.74,0.424-1.576,0.636-2.508,0.636c-1.19,0-2.174-0.338-2.949-1.013
				c-0.775-0.676-1.164-1.633-1.164-2.872c0-1.606,0.625-2.77,1.873-3.488c0.684-0.392,1.69-0.672,3.02-0.84L88.475,141.525z
				 M90.563,143.12c-0.22,0.136-0.44,0.245-0.663,0.329s-0.528,0.162-0.917,0.234l-0.778,0.144c-0.729,0.128-1.252,0.284-1.57,0.468
				c-0.538,0.312-0.807,0.795-0.807,1.45c0,0.584,0.164,1.006,0.492,1.266c0.329,0.26,0.729,0.39,1.199,0.39
				c0.747,0,1.435-0.216,2.064-0.647c0.629-0.432,0.955-1.219,0.979-2.362V143.12z"/>
			<path fill="#FFFFFF" d="M95.611,138.959v-2.434h1.822v-3.645h3.381v3.645h2.123v2.434h-2.123v6.906
				c0,0.536,0.068,0.869,0.204,1.001s0.552,0.198,1.247,0.198c0.104,0,0.213-0.002,0.33-0.006c0.115-0.004,0.229-0.01,0.342-0.019
				v2.555l-1.619,0.06c-1.615,0.056-2.718-0.224-3.309-0.84c-0.385-0.391-0.576-0.995-0.576-1.81v-8.046H95.611z"/>
			<path fill="#FFFFFF" d="M110.61,138.959v-2.434h1.822v-3.645h3.381v3.645h2.122v2.434h-2.122v6.906
				c0,0.536,0.067,0.869,0.204,1.001c0.136,0.132,0.551,0.198,1.247,0.198c0.104,0,0.214-0.002,0.329-0.006
				c0.116-0.004,0.23-0.01,0.342-0.019v2.555l-1.618,0.06c-1.614,0.056-2.718-0.224-3.31-0.84c-0.383-0.391-0.575-0.995-0.575-1.81
				v-8.046H110.61z"/>
			<path fill="#FFFFFF" d="M129.521,136.478c0.656,0.28,1.196,0.709,1.618,1.284c0.358,0.488,0.577,0.99,0.656,1.507
				c0.079,0.516,0.12,1.357,0.12,2.525v7.681h-3.489v-7.958c0-0.704-0.119-1.272-0.357-1.705c-0.31-0.607-0.896-0.912-1.761-0.912
				c-0.896,0-1.578,0.303-2.041,0.906c-0.465,0.604-0.697,1.467-0.697,2.587v7.082h-3.416v-17.613h3.416v6.235
				c0.494-0.76,1.064-1.289,1.713-1.589c0.649-0.3,1.332-0.45,2.048-0.45C128.135,136.058,128.865,136.198,129.521,136.478z"/>
			<path fill="#FFFFFF" d="M138.642,134.847h-3.465v-3.153h3.465V134.847z M135.177,136.405h3.465v13.069h-3.465V136.405z"/>
			<path fill="#FFFFFF" d="M144.601,145.302c0.072,0.607,0.229,1.039,0.47,1.295c0.426,0.456,1.213,0.684,2.361,0.684
				c0.675,0,1.211-0.1,1.608-0.3c0.397-0.199,0.597-0.499,0.597-0.899c0-0.384-0.16-0.675-0.48-0.875
				c-0.32-0.199-1.512-0.544-3.575-1.031c-1.485-0.367-2.531-0.827-3.138-1.379c-0.608-0.543-0.912-1.326-0.912-2.35
				c0-1.207,0.475-2.244,1.424-3.111s2.285-1.301,4.008-1.301c1.633,0,2.965,0.325,3.994,0.977c1.029,0.652,1.621,1.777,1.772,3.376
				h-3.417c-0.048-0.44-0.172-0.788-0.373-1.044c-0.377-0.463-1.018-0.695-1.924-0.695c-0.744,0-1.275,0.116-1.592,0.348
				c-0.316,0.232-0.476,0.504-0.476,0.815c0,0.392,0.169,0.676,0.505,0.852c0.337,0.184,1.525,0.5,3.568,0.947
				c1.361,0.319,2.381,0.803,3.061,1.45c0.672,0.656,1.008,1.475,1.008,2.458c0,1.295-0.482,2.353-1.448,3.172
				c-0.966,0.818-2.456,1.229-4.476,1.229c-2.058,0-3.578-0.434-4.559-1.301s-1.472-1.973-1.472-3.315H144.601z"/>
			<path fill="#FFFFFF" d="M173.42,137.809c1.065,1.127,1.598,2.781,1.598,4.964c0,2.302-0.521,4.057-1.562,5.263
				c-1.041,1.207-2.383,1.811-4.023,1.811c-1.047,0-1.916-0.26-2.607-0.779c-0.378-0.287-0.748-0.707-1.109-1.259v6.811h-3.382
				v-18.213h3.273v1.931c0.37-0.567,0.765-1.015,1.183-1.343c0.764-0.583,1.673-0.875,2.727-0.875
				C171.053,136.118,172.354,136.682,173.42,137.809z M170.797,140.267c-0.465-0.775-1.217-1.163-2.26-1.163
				c-1.251,0-2.111,0.587-2.579,1.763c-0.243,0.623-0.364,1.414-0.364,2.374c0,1.519,0.408,2.585,1.223,3.201
				c0.484,0.359,1.059,0.539,1.721,0.539c0.961,0,1.693-0.367,2.199-1.103c0.504-0.735,0.757-1.715,0.757-2.938
				C171.493,141.933,171.261,141.042,170.797,140.267z"/>
			<path fill="#FFFFFF" d="M186.82,136.478c0.656,0.28,1.195,0.709,1.617,1.284c0.358,0.488,0.577,0.99,0.656,1.507
				c0.08,0.516,0.12,1.357,0.12,2.525v7.681h-3.489v-7.958c0-0.704-0.119-1.272-0.357-1.705c-0.309-0.607-0.896-0.912-1.761-0.912
				c-0.896,0-1.577,0.303-2.041,0.906c-0.464,0.604-0.696,1.467-0.696,2.587v7.082h-3.417v-17.613h3.417v6.235
				c0.494-0.76,1.064-1.289,1.713-1.589s1.331-0.45,2.047-0.45C185.434,136.058,186.164,136.198,186.82,136.478z"/>
			<path fill="#FFFFFF" d="M203.326,147.876c-1.104,1.361-2.778,2.042-5.023,2.042c-2.247,0-3.922-0.681-5.024-2.042
				c-1.103-1.362-1.654-3.001-1.654-4.918c0-1.885,0.552-3.518,1.654-4.899s2.777-2.072,5.024-2.072c2.245,0,3.92,0.69,5.023,2.072
				c1.103,1.382,1.654,3.015,1.654,4.899C204.98,144.875,204.429,146.514,203.326,147.876z M200.592,145.987
				c0.535-0.711,0.804-1.72,0.804-3.029c0-1.309-0.269-2.316-0.804-3.022c-0.535-0.707-1.303-1.06-2.302-1.06
				s-1.769,0.353-2.308,1.06c-0.54,0.706-0.81,1.714-0.81,3.022c0,1.31,0.27,2.318,0.81,3.029c0.539,0.71,1.309,1.065,2.308,1.065
				S200.057,146.697,200.592,145.987z"/>
			<path fill="#FFFFFF" d="M206.084,138.959v-2.434h1.822v-3.645h3.381v3.645h2.122v2.434h-2.122v6.906
				c0,0.536,0.067,0.869,0.203,1.001c0.137,0.132,0.552,0.198,1.248,0.198c0.104,0,0.213-0.002,0.329-0.006s0.229-0.01,0.342-0.019
				v2.555l-1.618,0.06c-1.615,0.056-2.719-0.224-3.31-0.84c-0.384-0.391-0.575-0.995-0.575-1.81v-8.046H206.084z"/>
			<path fill="#FFFFFF" d="M226.502,147.876c-1.104,1.361-2.778,2.042-5.023,2.042c-2.247,0-3.922-0.681-5.024-2.042
				c-1.103-1.362-1.654-3.001-1.654-4.918c0-1.885,0.552-3.518,1.654-4.899s2.777-2.072,5.024-2.072c2.245,0,3.92,0.69,5.023,2.072
				c1.103,1.382,1.654,3.015,1.654,4.899C228.156,144.875,227.604,146.514,226.502,147.876z M223.768,145.987
				c0.535-0.711,0.804-1.72,0.804-3.029c0-1.309-0.269-2.316-0.804-3.022c-0.535-0.707-1.303-1.06-2.302-1.06
				s-1.769,0.353-2.308,1.06c-0.54,0.706-0.81,1.714-0.81,3.022c0,1.31,0.27,2.318,0.81,3.029c0.539,0.71,1.309,1.065,2.308,1.065
				S223.232,146.697,223.768,145.987z"/>
			<path fill="#FFFFFF" d="M231.705,131.861h3.752v4.48l-0.971,8.241H232.7l-0.995-8.241V131.861z M231.789,146.01h3.585v3.465
				h-3.585V146.01z"/>
		</g>
	</g>
</g>
</svg>
