<?xml version="1.0" encoding="utf-8"?>
<!-- Generator: Adobe Illustrator 16.0.0, SVG Export Plug-In . SVG Version: 6.00 Build 0)  -->
<!DOCTYPE svg PUBLIC "-//W3C//DTD SVG 1.1//EN" "http://www.w3.org/Graphics/SVG/1.1/DTD/svg11.dtd">
<svg version="1.1" id="Layer_1" xmlns="http://www.w3.org/2000/svg" xmlns:xlink="http://www.w3.org/1999/xlink" x="0px" y="0px"
	 width="311.598px" height="104.989px" viewBox="0 0 311.598 104.989" enable-background="new 0 0 311.598 104.989"
	 xml:space="preserve">
<g>
	<g>
		<g>
			<path fill="#1D1D1B" d="M20.413,87.732c0.262,0.365,0.395,0.802,0.395,1.312c0,0.524-0.133,0.946-0.398,1.265
				c-0.148,0.179-0.367,0.342-0.656,0.489c0.439,0.16,0.77,0.412,0.994,0.758c0.223,0.347,0.334,0.766,0.334,1.26
				c0,0.509-0.127,0.965-0.383,1.369c-0.162,0.269-0.365,0.494-0.607,0.677c-0.275,0.21-0.6,0.354-0.971,0.431
				c-0.373,0.078-0.779,0.117-1.215,0.117h-3.871v-8.592h4.152C19.233,86.833,19.976,87.138,20.413,87.732z M15.747,88.31v1.894
				h2.088c0.373,0,0.676-0.07,0.91-0.212c0.232-0.143,0.348-0.394,0.348-0.755c0-0.4-0.152-0.665-0.461-0.793
				c-0.266-0.09-0.604-0.134-1.016-0.134H15.747z M15.747,91.626v2.291h2.086c0.373,0,0.662-0.051,0.871-0.151
				c0.375-0.187,0.564-0.545,0.564-1.073c0-0.446-0.184-0.754-0.547-0.921c-0.205-0.093-0.49-0.142-0.859-0.146H15.747z"/>
			<path fill="#1D1D1B" d="M26.021,88.906c0.021,0.002,0.07,0.005,0.143,0.009v1.702c-0.104-0.012-0.197-0.02-0.279-0.023
				s-0.146-0.006-0.197-0.006c-0.67,0-1.117,0.218-1.348,0.653c-0.127,0.245-0.191,0.622-0.191,1.131v3.037h-1.674v-6.354h1.586
				v1.107c0.256-0.424,0.48-0.713,0.67-0.869c0.311-0.26,0.715-0.391,1.213-0.391C25.974,88.903,25.999,88.904,26.021,88.906z"/>
			<path fill="#1D1D1B" d="M32.437,94.632c-0.537,0.662-1.352,0.993-2.443,0.993s-1.906-0.331-2.441-0.993
				c-0.537-0.662-0.805-1.459-0.805-2.391c0-0.917,0.268-1.711,0.805-2.383c0.535-0.671,1.35-1.007,2.441-1.007
				s1.906,0.336,2.443,1.007c0.535,0.672,0.803,1.466,0.803,2.383C33.239,93.173,32.972,93.97,32.437,94.632z M31.106,93.714
				c0.26-0.346,0.391-0.837,0.391-1.473c0-0.637-0.131-1.127-0.391-1.47c-0.26-0.344-0.633-0.516-1.119-0.516
				s-0.859,0.172-1.121,0.516c-0.264,0.343-0.395,0.833-0.395,1.47c0,0.636,0.131,1.127,0.395,1.473
				c0.262,0.345,0.635,0.518,1.121,0.518S30.847,94.059,31.106,93.714z"/>
			<path fill="#1D1D1B" d="M37.425,89.056h1.686l0.967,4.575l0.99-4.575H42.8l-1.842,6.354h-1.709l-0.996-4.629l-1.008,4.629h-1.727
				l-1.783-6.354h1.783l0.992,4.558L37.425,89.056z"/>
			<path fill="#1D1D1B" d="M45.003,93.381c0.035,0.295,0.111,0.505,0.229,0.629c0.207,0.222,0.59,0.332,1.148,0.332
				c0.328,0,0.588-0.048,0.781-0.146c0.193-0.097,0.291-0.242,0.291-0.437c0-0.187-0.078-0.329-0.234-0.426
				c-0.156-0.098-0.734-0.265-1.738-0.502c-0.721-0.179-1.23-0.401-1.525-0.67c-0.295-0.265-0.443-0.645-0.443-1.143
				c0-0.587,0.23-1.091,0.693-1.513c0.461-0.422,1.109-0.632,1.947-0.632c0.795,0,1.441,0.158,1.943,0.475
				c0.5,0.316,0.787,0.863,0.861,1.641h-1.662c-0.023-0.213-0.084-0.383-0.182-0.507c-0.182-0.226-0.494-0.338-0.934-0.338
				c-0.363,0-0.621,0.057-0.775,0.169s-0.23,0.245-0.23,0.396c0,0.19,0.082,0.328,0.246,0.414c0.162,0.089,0.74,0.242,1.734,0.46
				c0.66,0.155,1.156,0.391,1.488,0.705c0.326,0.319,0.488,0.718,0.488,1.195c0,0.63-0.234,1.144-0.703,1.542
				s-1.195,0.598-2.176,0.598c-1,0-1.74-0.211-2.217-0.633s-0.715-0.959-0.715-1.611H45.003z"/>
			<path fill="#1D1D1B" d="M54.493,89.184c0.443,0.199,0.811,0.513,1.1,0.94c0.26,0.377,0.428,0.815,0.506,1.313
				c0.045,0.292,0.062,0.712,0.055,1.261h-4.627c0.025,0.638,0.246,1.084,0.664,1.341c0.254,0.159,0.559,0.239,0.916,0.239
				c0.377,0,0.686-0.098,0.922-0.292c0.129-0.104,0.242-0.25,0.342-0.437h1.695c-0.043,0.377-0.25,0.76-0.615,1.148
				c-0.568,0.617-1.365,0.927-2.391,0.927c-0.846,0-1.592-0.261-2.238-0.782s-0.969-1.369-0.969-2.544
				c0-1.101,0.291-1.944,0.875-2.531c0.584-0.588,1.342-0.881,2.271-0.881C53.554,88.887,54.052,88.985,54.493,89.184z
				 M52.009,90.619c-0.234,0.242-0.383,0.569-0.443,0.983h2.863c-0.031-0.441-0.178-0.775-0.443-1.004
				c-0.264-0.229-0.594-0.343-0.984-0.343C52.573,90.256,52.243,90.377,52.009,90.619z"/>
			<path fill="#1D1D1B" d="M62.938,86.738c0.086,0.006,0.203,0.015,0.35,0.026v1.353c-0.094-0.012-0.25-0.021-0.469-0.026
				s-0.371,0.043-0.455,0.146s-0.125,0.217-0.125,0.341c0,0.125,0,0.304,0,0.536h1.09v1.172h-1.09v5.124h-1.65v-5.124h-0.932v-1.172
				h0.908v-0.408c0-0.68,0.115-1.147,0.346-1.404c0.24-0.381,0.82-0.571,1.742-0.571C62.759,86.729,62.853,86.732,62.938,86.738z"/>
			<path fill="#1D1D1B" d="M65.993,88.298H64.31v-1.533h1.684V88.298z M64.31,89.056h1.684v6.354H64.31V89.056z"/>
			<path fill="#1D1D1B" d="M69.298,95.409h-1.66v-8.592h1.66V95.409z"/>
			<path fill="#1D1D1B" d="M75.06,89.184c0.443,0.199,0.809,0.513,1.098,0.94c0.26,0.377,0.43,0.815,0.506,1.313
				c0.045,0.292,0.064,0.712,0.055,1.261h-4.627c0.025,0.638,0.248,1.084,0.664,1.341c0.254,0.159,0.559,0.239,0.916,0.239
				c0.379,0,0.686-0.098,0.924-0.292c0.129-0.104,0.242-0.25,0.342-0.437h1.695c-0.045,0.377-0.25,0.76-0.615,1.148
				c-0.57,0.617-1.367,0.927-2.391,0.927c-0.846,0-1.592-0.261-2.238-0.782s-0.969-1.369-0.969-2.544
				c0-1.101,0.291-1.944,0.875-2.531c0.582-0.588,1.34-0.881,2.271-0.881C74.118,88.887,74.616,88.985,75.06,89.184z M72.575,90.619
				c-0.236,0.242-0.383,0.569-0.443,0.983h2.861c-0.029-0.441-0.178-0.775-0.441-1.004c-0.266-0.229-0.594-0.343-0.986-0.343
				C73.14,90.256,72.81,90.377,72.575,90.619z"/>
			<path fill="#1D1D1B" d="M78.847,93.381c0.035,0.295,0.111,0.505,0.229,0.629c0.207,0.222,0.59,0.332,1.146,0.332
				c0.328,0,0.59-0.048,0.783-0.146c0.193-0.097,0.289-0.242,0.289-0.437c0-0.187-0.078-0.329-0.232-0.426
				c-0.156-0.098-0.736-0.265-1.738-0.502c-0.723-0.179-1.23-0.401-1.525-0.67c-0.297-0.265-0.443-0.645-0.443-1.143
				c0-0.587,0.23-1.091,0.691-1.513s1.111-0.632,1.949-0.632c0.793,0,1.441,0.158,1.941,0.475s0.787,0.863,0.861,1.641h-1.66
				c-0.023-0.213-0.084-0.383-0.182-0.507c-0.184-0.226-0.496-0.338-0.936-0.338c-0.363,0-0.621,0.057-0.773,0.169
				c-0.154,0.112-0.232,0.245-0.232,0.396c0,0.19,0.082,0.328,0.246,0.414c0.164,0.089,0.742,0.242,1.734,0.46
				c0.662,0.155,1.158,0.391,1.488,0.705c0.326,0.319,0.49,0.718,0.49,1.195c0,0.63-0.234,1.144-0.705,1.542
				c-0.469,0.398-1.193,0.598-2.176,0.598c-1,0-1.738-0.211-2.215-0.633c-0.479-0.422-0.717-0.959-0.717-1.611H78.847z"/>
			<path fill="#1D1D1B" d="M92.813,94.632c-0.537,0.662-1.352,0.993-2.443,0.993s-1.906-0.331-2.441-0.993
				c-0.537-0.662-0.805-1.459-0.805-2.391c0-0.917,0.268-1.711,0.805-2.383c0.535-0.671,1.35-1.007,2.441-1.007
				s1.906,0.336,2.443,1.007c0.535,0.672,0.803,1.466,0.803,2.383C93.616,93.173,93.349,93.97,92.813,94.632z M91.483,93.714
				c0.26-0.346,0.391-0.837,0.391-1.473c0-0.637-0.131-1.127-0.391-1.47c-0.26-0.344-0.633-0.516-1.119-0.516
				s-0.859,0.172-1.121,0.516c-0.264,0.343-0.395,0.833-0.395,1.47c0,0.636,0.131,1.127,0.395,1.473
				c0.262,0.345,0.635,0.518,1.121,0.518S91.224,94.059,91.483,93.714z"/>
			<path fill="#1D1D1B" d="M98.335,88.906c0.021,0.002,0.07,0.005,0.143,0.009v1.702c-0.104-0.012-0.197-0.02-0.279-0.023
				s-0.146-0.006-0.197-0.006c-0.67,0-1.117,0.218-1.348,0.653c-0.127,0.245-0.191,0.622-0.191,1.131v3.037h-1.674v-6.354h1.586
				v1.107c0.256-0.424,0.48-0.713,0.67-0.869c0.311-0.26,0.715-0.391,1.213-0.391C98.288,88.903,98.313,88.904,98.335,88.906z"/>
			<path fill="#1D1D1B" d="M106.138,89.157c0.299,0.169,0.543,0.403,0.729,0.702v-3.031h1.686v8.581h-1.615v-0.881
				c-0.236,0.377-0.508,0.651-0.811,0.822s-0.68,0.257-1.131,0.257c-0.742,0-1.367-0.301-1.873-0.901
				c-0.508-0.6-0.762-1.37-0.762-2.311c0-1.084,0.25-1.938,0.75-2.56c0.498-0.621,1.166-0.933,2.002-0.933
				C105.497,88.903,105.839,88.988,106.138,89.157z M106.546,93.684c0.244-0.35,0.367-0.803,0.367-1.358
				c0-0.777-0.195-1.333-0.588-1.667c-0.242-0.202-0.521-0.303-0.84-0.303c-0.486,0-0.842,0.184-1.07,0.551
				c-0.227,0.367-0.34,0.822-0.34,1.366c0,0.587,0.115,1.057,0.346,1.408c0.232,0.352,0.582,0.527,1.053,0.527
				S106.302,94.033,106.546,93.684z"/>
			<path fill="#1D1D1B" d="M113.591,88.906c0.021,0.002,0.068,0.005,0.143,0.009v1.702c-0.105-0.012-0.199-0.02-0.279-0.023
				c-0.082-0.004-0.148-0.006-0.199-0.006c-0.668,0-1.117,0.218-1.346,0.653c-0.129,0.245-0.193,0.622-0.193,1.131v3.037h-1.672
				v-6.354h1.586v1.107c0.256-0.424,0.479-0.713,0.67-0.869c0.311-0.26,0.715-0.391,1.211-0.391
				C113.542,88.903,113.569,88.904,113.591,88.906z"/>
			<path fill="#1D1D1B" d="M117.224,91.544c0.309-0.038,0.529-0.087,0.662-0.146c0.24-0.101,0.359-0.258,0.359-0.472
				c0-0.261-0.092-0.44-0.275-0.539c-0.184-0.1-0.451-0.149-0.807-0.149c-0.398,0-0.68,0.098-0.844,0.292
				c-0.119,0.144-0.197,0.338-0.236,0.583h-1.604c0.035-0.556,0.191-1.013,0.469-1.37c0.439-0.56,1.197-0.84,2.271-0.84
				c0.697,0,1.318,0.139,1.861,0.414c0.541,0.276,0.812,0.797,0.812,1.562v2.914c0,0.202,0.004,0.447,0.012,0.734
				c0.012,0.218,0.045,0.366,0.1,0.443c0.055,0.078,0.137,0.142,0.244,0.192v0.245h-1.807c-0.051-0.129-0.086-0.249-0.104-0.361
				c-0.02-0.113-0.035-0.241-0.047-0.385c-0.23,0.248-0.498,0.46-0.799,0.635c-0.359,0.206-0.766,0.31-1.219,0.31
				c-0.578,0-1.057-0.164-1.434-0.493c-0.377-0.328-0.566-0.793-0.566-1.396c0-0.781,0.305-1.347,0.91-1.696
				c0.334-0.19,0.822-0.326,1.469-0.408L117.224,91.544z M118.239,92.319c-0.107,0.066-0.215,0.12-0.322,0.16
				c-0.109,0.041-0.258,0.079-0.447,0.114l-0.377,0.069c-0.355,0.062-0.609,0.139-0.764,0.228c-0.262,0.151-0.393,0.387-0.393,0.705
				c0,0.284,0.08,0.489,0.24,0.615c0.158,0.126,0.354,0.189,0.582,0.189c0.363,0,0.697-0.104,1.004-0.314
				c0.305-0.21,0.465-0.593,0.477-1.148V92.319z"/>
			<path fill="#1D1D1B" d="M124.489,89.05c0.404,0.167,0.729,0.474,0.979,0.921v-0.915h1.619v6.026c0,0.82-0.137,1.438-0.414,1.854
				c-0.473,0.715-1.383,1.072-2.727,1.072c-0.812,0-1.475-0.159-1.988-0.479c-0.514-0.318-0.797-0.794-0.852-1.428h1.809
				c0.045,0.194,0.121,0.334,0.227,0.42c0.178,0.151,0.48,0.228,0.902,0.228c0.6,0,1-0.2,1.201-0.601
				c0.133-0.257,0.199-0.688,0.199-1.294v-0.408c-0.16,0.271-0.33,0.476-0.514,0.612c-0.33,0.252-0.76,0.379-1.287,0.379
				c-0.816,0-1.469-0.287-1.957-0.86c-0.486-0.573-0.73-1.35-0.73-2.328c0-0.944,0.234-1.738,0.703-2.382
				c0.471-0.643,1.137-0.965,1.998-0.965C123.976,88.903,124.253,88.952,124.489,89.05z M125.056,93.604
				c0.266-0.293,0.4-0.761,0.4-1.401c0-0.603-0.127-1.062-0.381-1.376s-0.594-0.472-1.018-0.472c-0.582,0-0.982,0.273-1.203,0.821
				c-0.115,0.292-0.174,0.651-0.174,1.079c0,0.369,0.062,0.697,0.186,0.984c0.225,0.536,0.627,0.805,1.207,0.805
				C124.462,94.045,124.788,93.898,125.056,93.604z"/>
			<path fill="#1D1D1B" d="M132.21,91.817c0.258-0.369,0.678-0.734,1.26-1.096l0.182-0.11c-0.25-0.28-0.441-0.566-0.578-0.858
				c-0.135-0.292-0.203-0.596-0.203-0.91c0-0.627,0.211-1.116,0.637-1.469c0.424-0.352,0.975-0.528,1.652-0.528
				c0.617,0,1.127,0.181,1.529,0.541c0.404,0.36,0.605,0.821,0.605,1.383c0,0.507-0.121,0.918-0.363,1.234
				c-0.24,0.315-0.596,0.607-1.064,0.877l1.236,1.497c0.141-0.202,0.25-0.422,0.326-0.659c0.078-0.236,0.117-0.487,0.121-0.752
				h1.475c-0.027,0.522-0.152,1.051-0.377,1.585c-0.125,0.3-0.326,0.632-0.605,0.994l1.561,1.863h-2.012l-0.598-0.729
				c-0.291,0.271-0.561,0.47-0.812,0.599c-0.447,0.23-0.965,0.346-1.551,0.346c-0.879,0-1.566-0.257-2.061-0.77
				c-0.496-0.514-0.742-1.083-0.742-1.709C131.827,92.63,131.954,92.187,132.21,91.817z M133.835,93.875
				c0.234,0.238,0.537,0.356,0.904,0.356c0.277,0,0.539-0.062,0.785-0.188c0.248-0.125,0.449-0.264,0.604-0.418l-1.607-1.957
				c-0.422,0.276-0.699,0.52-0.836,0.729c-0.135,0.211-0.203,0.442-0.203,0.695C133.481,93.377,133.599,93.638,133.835,93.875z
				 M134.565,89.273c0.072,0.113,0.23,0.313,0.473,0.602c0.242-0.163,0.414-0.302,0.52-0.415c0.201-0.21,0.303-0.438,0.303-0.683
				c0-0.18-0.061-0.339-0.182-0.479c-0.121-0.14-0.305-0.21-0.551-0.21c-0.152,0-0.295,0.041-0.43,0.122
				c-0.201,0.121-0.301,0.312-0.301,0.573C134.397,88.938,134.454,89.103,134.565,89.273z"/>
			<path fill="#1D1D1B" d="M147.263,89.157c0.299,0.169,0.541,0.403,0.729,0.702v-3.031h1.684v8.581h-1.613v-0.881
				c-0.238,0.377-0.508,0.651-0.811,0.822s-0.68,0.257-1.131,0.257c-0.742,0-1.367-0.301-1.875-0.901
				c-0.506-0.6-0.76-1.37-0.76-2.311c0-1.084,0.25-1.938,0.748-2.56c0.5-0.621,1.168-0.933,2.002-0.933
				C146.62,88.903,146.962,88.988,147.263,89.157z M147.671,93.684c0.244-0.35,0.367-0.803,0.367-1.358
				c0-0.777-0.197-1.333-0.59-1.667c-0.24-0.202-0.52-0.303-0.84-0.303c-0.484,0-0.842,0.184-1.068,0.551
				c-0.229,0.367-0.342,0.822-0.342,1.366c0,0.587,0.115,1.057,0.348,1.408c0.23,0.352,0.582,0.527,1.051,0.527
				C147.067,94.208,147.425,94.033,147.671,93.684z"/>
			<path fill="#1D1D1B" d="M154.714,88.906c0.021,0.002,0.07,0.005,0.143,0.009v1.702c-0.104-0.012-0.197-0.02-0.279-0.023
				s-0.146-0.006-0.197-0.006c-0.67,0-1.117,0.218-1.348,0.653c-0.127,0.245-0.191,0.622-0.191,1.131v3.037h-1.674v-6.354h1.586
				v1.107c0.256-0.424,0.48-0.713,0.67-0.869c0.311-0.26,0.715-0.391,1.213-0.391C154.667,88.903,154.692,88.904,154.714,88.906z"/>
			<path fill="#1D1D1B" d="M161.13,94.632c-0.537,0.662-1.352,0.993-2.443,0.993s-1.906-0.331-2.441-0.993
				c-0.537-0.662-0.805-1.459-0.805-2.391c0-0.917,0.268-1.711,0.805-2.383c0.535-0.671,1.35-1.007,2.441-1.007
				s1.906,0.336,2.443,1.007c0.535,0.672,0.803,1.466,0.803,2.383C161.933,93.173,161.665,93.97,161.13,94.632z M159.8,93.714
				c0.26-0.346,0.391-0.837,0.391-1.473c0-0.637-0.131-1.127-0.391-1.47c-0.26-0.344-0.633-0.516-1.119-0.516
				s-0.859,0.172-1.121,0.516c-0.264,0.343-0.395,0.833-0.395,1.47c0,0.636,0.131,1.127,0.395,1.473
				c0.262,0.345,0.635,0.518,1.121,0.518S159.54,94.059,159.8,93.714z"/>
			<path fill="#1D1D1B" d="M168.466,89.737c0.518,0.548,0.777,1.353,0.777,2.413c0,1.119-0.254,1.973-0.76,2.559
				c-0.506,0.587-1.158,0.881-1.957,0.881c-0.508,0-0.932-0.127-1.268-0.379c-0.184-0.14-0.363-0.344-0.539-0.612v3.311h-1.645
				v-8.854h1.592v0.938c0.18-0.276,0.371-0.494,0.574-0.653c0.373-0.283,0.814-0.426,1.326-0.426
				C167.315,88.915,167.948,89.189,168.466,89.737z M167.19,90.933c-0.227-0.377-0.592-0.565-1.098-0.565
				c-0.609,0-1.027,0.285-1.254,0.856c-0.119,0.303-0.178,0.688-0.178,1.154c0,0.738,0.199,1.257,0.594,1.557
				c0.236,0.175,0.516,0.262,0.838,0.262c0.467,0,0.822-0.179,1.068-0.536s0.367-0.833,0.367-1.428
				C167.528,91.742,167.417,91.31,167.19,90.933z"/>
			<path fill="#1D1D1B" d="M179.075,89.737c0.518,0.548,0.777,1.353,0.777,2.413c0,1.119-0.254,1.973-0.76,2.559
				c-0.506,0.587-1.158,0.881-1.957,0.881c-0.508,0-0.932-0.127-1.268-0.379c-0.184-0.14-0.363-0.344-0.539-0.612v3.311h-1.645
				v-8.854h1.592v0.938c0.18-0.276,0.371-0.494,0.574-0.653c0.373-0.283,0.814-0.426,1.326-0.426
				C177.925,88.915,178.558,89.189,179.075,89.737z M177.8,90.933c-0.227-0.377-0.592-0.565-1.098-0.565
				c-0.609,0-1.027,0.285-1.254,0.856c-0.119,0.303-0.178,0.688-0.178,1.154c0,0.738,0.199,1.257,0.594,1.557
				c0.236,0.175,0.516,0.262,0.838,0.262c0.467,0,0.822-0.179,1.068-0.536s0.367-0.833,0.367-1.428
				C178.138,91.742,178.026,91.31,177.8,90.933z"/>
			<path fill="#1D1D1B" d="M185.591,89.091c0.318,0.136,0.58,0.344,0.785,0.624c0.174,0.237,0.281,0.481,0.32,0.732
				c0.037,0.251,0.057,0.66,0.057,1.228v3.734h-1.695V91.54c0-0.343-0.059-0.619-0.174-0.829c-0.15-0.295-0.436-0.443-0.855-0.443
				c-0.438,0-0.768,0.147-0.992,0.44c-0.227,0.294-0.34,0.713-0.34,1.258v3.443h-1.66v-8.563h1.66v3.031
				c0.24-0.369,0.518-0.626,0.834-0.772c0.314-0.146,0.646-0.218,0.994-0.218C184.915,88.887,185.271,88.954,185.591,89.091z"/>
			<path fill="#1D1D1B" d="M193.614,94.632c-0.537,0.662-1.35,0.993-2.441,0.993c-1.094,0-1.906-0.331-2.443-0.993
				c-0.535-0.662-0.805-1.459-0.805-2.391c0-0.917,0.27-1.711,0.805-2.383c0.537-0.671,1.35-1.007,2.443-1.007
				c1.092,0,1.904,0.336,2.441,1.007c0.537,0.672,0.805,1.466,0.805,2.383C194.419,93.173,194.151,93.97,193.614,94.632z
				 M192.286,93.714c0.26-0.346,0.391-0.837,0.391-1.473c0-0.637-0.131-1.127-0.391-1.47c-0.262-0.344-0.635-0.516-1.119-0.516
				c-0.486,0-0.861,0.172-1.123,0.516c-0.262,0.343-0.393,0.833-0.393,1.47c0,0.636,0.131,1.127,0.393,1.473
				c0.262,0.345,0.637,0.518,1.123,0.518C191.651,94.231,192.024,94.059,192.286,93.714z"/>
			<path fill="#1D1D1B" d="M194.954,90.297v-1.184h0.887v-1.771h1.645v1.771h1.031v1.184h-1.031v3.357
				c0,0.261,0.033,0.423,0.098,0.487c0.066,0.063,0.27,0.096,0.607,0.096c0.051,0,0.104-0.001,0.16-0.003s0.111-0.005,0.166-0.009
				v1.241l-0.787,0.029c-0.785,0.027-1.32-0.108-1.609-0.408c-0.186-0.189-0.279-0.483-0.279-0.88v-3.911H194.954z"/>
			<path fill="#1D1D1B" d="M204.882,94.632c-0.537,0.662-1.35,0.993-2.441,0.993c-1.094,0-1.906-0.331-2.443-0.993
				c-0.535-0.662-0.805-1.459-0.805-2.391c0-0.917,0.27-1.711,0.805-2.383c0.537-0.671,1.35-1.007,2.443-1.007
				c1.092,0,1.904,0.336,2.441,1.007c0.537,0.672,0.805,1.466,0.805,2.383C205.687,93.173,205.419,93.97,204.882,94.632z
				 M203.554,93.714c0.26-0.346,0.391-0.837,0.391-1.473c0-0.637-0.131-1.127-0.391-1.47c-0.262-0.344-0.635-0.516-1.119-0.516
				c-0.486,0-0.861,0.172-1.123,0.516c-0.262,0.343-0.393,0.833-0.393,1.47c0,0.636,0.131,1.127,0.393,1.473
				c0.262,0.345,0.637,0.518,1.123,0.518C202.919,94.231,203.292,94.059,203.554,93.714z"/>
			<path fill="#1D1D1B" d="M208.163,93.381c0.035,0.295,0.111,0.505,0.229,0.629c0.207,0.222,0.59,0.332,1.148,0.332
				c0.328,0,0.588-0.048,0.781-0.146c0.193-0.097,0.291-0.242,0.291-0.437c0-0.187-0.078-0.329-0.234-0.426
				c-0.156-0.098-0.734-0.265-1.738-0.502c-0.721-0.179-1.23-0.401-1.525-0.67c-0.295-0.265-0.443-0.645-0.443-1.143
				c0-0.587,0.23-1.091,0.693-1.513c0.461-0.422,1.109-0.632,1.947-0.632c0.795,0,1.441,0.158,1.943,0.475
				c0.5,0.316,0.787,0.863,0.861,1.641h-1.662c-0.023-0.213-0.084-0.383-0.182-0.507c-0.182-0.226-0.494-0.338-0.934-0.338
				c-0.363,0-0.621,0.057-0.775,0.169s-0.23,0.245-0.23,0.396c0,0.19,0.082,0.328,0.246,0.414c0.162,0.089,0.74,0.242,1.734,0.46
				c0.66,0.155,1.156,0.391,1.488,0.705c0.326,0.319,0.488,0.718,0.488,1.195c0,0.63-0.234,1.144-0.703,1.542
				s-1.195,0.598-2.176,0.598c-1,0-1.74-0.211-2.217-0.633s-0.715-0.959-0.715-1.611H208.163z"/>
			<path fill="#1D1D1B" d="M222.13,94.632c-0.537,0.662-1.35,0.993-2.441,0.993c-1.094,0-1.906-0.331-2.443-0.993
				c-0.535-0.662-0.805-1.459-0.805-2.391c0-0.917,0.27-1.711,0.805-2.383c0.537-0.671,1.35-1.007,2.443-1.007
				c1.092,0,1.904,0.336,2.441,1.007c0.537,0.672,0.805,1.466,0.805,2.383C222.935,93.173,222.667,93.97,222.13,94.632z
				 M220.802,93.714c0.26-0.346,0.391-0.837,0.391-1.473c0-0.637-0.131-1.127-0.391-1.47c-0.262-0.344-0.635-0.516-1.119-0.516
				c-0.486,0-0.861,0.172-1.123,0.516c-0.262,0.343-0.393,0.833-0.393,1.47c0,0.636,0.131,1.127,0.393,1.473
				c0.262,0.345,0.637,0.518,1.123,0.518C220.167,94.231,220.54,94.059,220.802,93.714z"/>
			<path fill="#1D1D1B" d="M229.247,89.42c0.416,0.344,0.623,0.914,0.623,1.711v4.278h-1.701v-3.865c0-0.334-0.045-0.59-0.133-0.77
				c-0.162-0.326-0.471-0.489-0.926-0.489c-0.561,0-0.943,0.239-1.152,0.717c-0.107,0.253-0.162,0.575-0.162,0.968v3.439h-1.66
				v-6.342h1.607v0.927c0.213-0.327,0.414-0.562,0.604-0.706c0.342-0.256,0.773-0.385,1.295-0.385
				C228.296,88.903,228.831,89.076,229.247,89.42z"/>
			<path fill="#1D1D1B" d="M230.763,90.297v-1.184h0.887v-1.771h1.643v1.771h1.031v1.184h-1.031v3.357
				c0,0.261,0.033,0.423,0.1,0.487c0.066,0.063,0.268,0.096,0.605,0.096c0.051,0,0.105-0.001,0.16-0.003
				c0.057-0.002,0.113-0.005,0.166-0.009v1.241l-0.785,0.029c-0.785,0.027-1.322-0.108-1.609-0.408
				c-0.188-0.189-0.279-0.483-0.279-0.88v-3.911H230.763z"/>
			<path fill="#1D1D1B" d="M240.69,94.632c-0.537,0.662-1.352,0.993-2.443,0.993s-1.906-0.331-2.441-0.993
				c-0.537-0.662-0.805-1.459-0.805-2.391c0-0.917,0.268-1.711,0.805-2.383c0.535-0.671,1.35-1.007,2.441-1.007
				s1.906,0.336,2.443,1.007c0.535,0.672,0.803,1.466,0.803,2.383C241.493,93.173,241.226,93.97,240.69,94.632z M239.36,93.714
				c0.26-0.346,0.391-0.837,0.391-1.473c0-0.637-0.131-1.127-0.391-1.47c-0.26-0.344-0.633-0.516-1.119-0.516
				s-0.859,0.172-1.121,0.516c-0.264,0.343-0.395,0.833-0.395,1.47c0,0.636,0.131,1.127,0.395,1.473
				c0.262,0.345,0.635,0.518,1.121,0.518S239.101,94.059,239.36,93.714z"/>
			<path fill="#1D1D1B" d="M245.347,90.297v-1.184h0.887v-1.771h1.643v1.771h1.031v1.184h-1.031v3.357
				c0,0.261,0.033,0.423,0.1,0.487c0.066,0.063,0.268,0.096,0.605,0.096c0.051,0,0.105-0.001,0.16-0.003
				c0.057-0.002,0.113-0.005,0.166-0.009v1.241l-0.785,0.029c-0.785,0.027-1.322-0.108-1.609-0.408
				c-0.188-0.189-0.279-0.483-0.279-0.88v-3.911H245.347z"/>
			<path fill="#1D1D1B" d="M254.542,89.091c0.318,0.136,0.58,0.344,0.785,0.624c0.174,0.237,0.281,0.481,0.32,0.732
				c0.037,0.251,0.057,0.66,0.057,1.228v3.734h-1.695V91.54c0-0.343-0.059-0.619-0.174-0.829c-0.15-0.295-0.436-0.443-0.855-0.443
				c-0.438,0-0.768,0.147-0.992,0.44c-0.227,0.294-0.34,0.713-0.34,1.258v3.443h-1.66v-8.563h1.66v3.031
				c0.24-0.369,0.518-0.626,0.834-0.772c0.314-0.146,0.646-0.218,0.994-0.218C253.866,88.887,254.222,88.954,254.542,89.091z"/>
			<path fill="#1D1D1B" d="M258.976,88.298h-1.686v-1.533h1.686V88.298z M257.29,89.056h1.686v6.354h-1.686V89.056z"/>
			<path fill="#1D1D1B" d="M261.872,93.381c0.035,0.295,0.111,0.505,0.229,0.629c0.207,0.222,0.59,0.332,1.146,0.332
				c0.328,0,0.59-0.048,0.783-0.146c0.193-0.097,0.289-0.242,0.289-0.437c0-0.187-0.078-0.329-0.232-0.426
				c-0.156-0.098-0.736-0.265-1.738-0.502c-0.723-0.179-1.23-0.401-1.525-0.67c-0.297-0.265-0.443-0.645-0.443-1.143
				c0-0.587,0.23-1.091,0.691-1.513s1.111-0.632,1.949-0.632c0.793,0,1.441,0.158,1.941,0.475s0.787,0.863,0.861,1.641h-1.66
				c-0.023-0.213-0.084-0.383-0.182-0.507c-0.184-0.226-0.496-0.338-0.936-0.338c-0.363,0-0.621,0.057-0.773,0.169
				c-0.154,0.112-0.232,0.245-0.232,0.396c0,0.19,0.082,0.328,0.246,0.414c0.164,0.089,0.742,0.242,1.734,0.46
				c0.662,0.155,1.158,0.391,1.488,0.705c0.326,0.319,0.49,0.718,0.49,1.195c0,0.63-0.234,1.144-0.705,1.542
				c-0.469,0.398-1.193,0.598-2.176,0.598c-1,0-1.738-0.211-2.215-0.633c-0.479-0.422-0.717-0.959-0.717-1.611H261.872z"/>
			<path fill="#1D1D1B" d="M275.882,89.737c0.52,0.548,0.777,1.353,0.777,2.413c0,1.119-0.252,1.973-0.76,2.559
				c-0.506,0.587-1.158,0.881-1.955,0.881c-0.51,0-0.932-0.127-1.268-0.379c-0.184-0.14-0.363-0.344-0.541-0.612v3.311h-1.643
				v-8.854h1.592v0.938c0.18-0.276,0.371-0.494,0.574-0.653c0.371-0.283,0.812-0.426,1.326-0.426
				C274.731,88.915,275.364,89.189,275.882,89.737z M274.608,90.933c-0.227-0.377-0.592-0.565-1.1-0.565
				c-0.607,0-1.025,0.285-1.254,0.856c-0.117,0.303-0.176,0.688-0.176,1.154c0,0.738,0.197,1.257,0.594,1.557
				c0.234,0.175,0.514,0.262,0.836,0.262c0.467,0,0.824-0.179,1.068-0.536c0.246-0.357,0.369-0.833,0.369-1.428
				C274.946,91.742,274.833,91.31,274.608,90.933z"/>
			<path fill="#1D1D1B" d="M280.349,91.544c0.309-0.038,0.531-0.087,0.664-0.146c0.238-0.101,0.357-0.258,0.357-0.472
				c0-0.261-0.092-0.44-0.273-0.539c-0.184-0.1-0.453-0.149-0.807-0.149c-0.398,0-0.68,0.098-0.846,0.292
				c-0.119,0.144-0.197,0.338-0.236,0.583h-1.604c0.035-0.556,0.191-1.013,0.469-1.37c0.441-0.56,1.199-0.84,2.271-0.84
				c0.699,0,1.318,0.139,1.861,0.414c0.543,0.276,0.814,0.797,0.814,1.562v2.914c0,0.202,0.004,0.447,0.012,0.734
				c0.012,0.218,0.045,0.366,0.1,0.443c0.053,0.078,0.135,0.142,0.244,0.192v0.245h-1.807c-0.051-0.129-0.086-0.249-0.105-0.361
				c-0.02-0.113-0.035-0.241-0.047-0.385c-0.23,0.248-0.496,0.46-0.797,0.635c-0.359,0.206-0.766,0.31-1.221,0.31
				c-0.578,0-1.055-0.164-1.432-0.493c-0.379-0.328-0.566-0.793-0.566-1.396c0-0.781,0.303-1.347,0.91-1.696
				c0.332-0.19,0.822-0.326,1.467-0.408L280.349,91.544z M281.364,92.319c-0.105,0.066-0.213,0.12-0.322,0.16
				c-0.107,0.041-0.256,0.079-0.445,0.114l-0.379,0.069c-0.354,0.062-0.609,0.139-0.764,0.228c-0.262,0.151-0.393,0.387-0.393,0.705
				c0,0.284,0.08,0.489,0.24,0.615s0.354,0.189,0.584,0.189c0.363,0,0.697-0.104,1.002-0.314c0.307-0.21,0.465-0.593,0.477-1.148
				V92.319z"/>
			<path fill="#1D1D1B" d="M287.614,89.05c0.404,0.167,0.729,0.474,0.979,0.921v-0.915h1.619v6.026c0,0.82-0.137,1.438-0.414,1.854
				c-0.473,0.715-1.383,1.072-2.727,1.072c-0.812,0-1.475-0.159-1.988-0.479c-0.514-0.318-0.797-0.794-0.852-1.428h1.809
				c0.045,0.194,0.121,0.334,0.227,0.42c0.178,0.151,0.48,0.228,0.902,0.228c0.6,0,1-0.2,1.201-0.601
				c0.133-0.257,0.199-0.688,0.199-1.294v-0.408c-0.16,0.271-0.33,0.476-0.514,0.612c-0.33,0.252-0.76,0.379-1.287,0.379
				c-0.816,0-1.469-0.287-1.957-0.86c-0.486-0.573-0.73-1.35-0.73-2.328c0-0.944,0.234-1.738,0.703-2.382
				c0.471-0.643,1.137-0.965,1.998-0.965C287.101,88.903,287.378,88.952,287.614,89.05z M288.181,93.604
				c0.266-0.293,0.4-0.761,0.4-1.401c0-0.603-0.127-1.062-0.381-1.376s-0.594-0.472-1.018-0.472c-0.582,0-0.982,0.273-1.203,0.821
				c-0.115,0.292-0.174,0.651-0.174,1.079c0,0.369,0.062,0.697,0.186,0.984c0.225,0.536,0.627,0.805,1.207,0.805
				C287.587,94.045,287.913,93.898,288.181,93.604z"/>
			<path fill="#1D1D1B" d="M295.903,89.184c0.443,0.199,0.809,0.513,1.098,0.94c0.26,0.377,0.43,0.815,0.506,1.313
				c0.045,0.292,0.064,0.712,0.055,1.261h-4.627c0.025,0.638,0.248,1.084,0.664,1.341c0.254,0.159,0.559,0.239,0.916,0.239
				c0.379,0,0.686-0.098,0.924-0.292c0.129-0.104,0.242-0.25,0.342-0.437h1.695c-0.045,0.377-0.25,0.76-0.615,1.148
				c-0.57,0.617-1.367,0.927-2.391,0.927c-0.846,0-1.592-0.261-2.238-0.782s-0.969-1.369-0.969-2.544
				c0-1.101,0.291-1.944,0.875-2.531c0.582-0.588,1.34-0.881,2.271-0.881C294.962,88.887,295.46,88.985,295.903,89.184z
				 M293.419,90.619c-0.236,0.242-0.383,0.569-0.443,0.983h2.861c-0.029-0.441-0.178-0.775-0.441-1.004
				c-0.266-0.229-0.594-0.343-0.986-0.343C293.983,90.256,293.653,90.377,293.419,90.619z"/>
		</g>
	</g>
	<g>
		<path fill="#B9B9B9" d="M184.608,18.92h-7.359l-4.24-4.635h-13.932l-4.244,4.635h-7.365c-1.057,0-2.023,0.375-2.811,0.981
			l12.604,10.019c2.129-2.467,5.27-4.034,8.779-4.034c6.408,0,11.607,5.205,11.607,11.605c0,6.407-5.199,11.608-11.607,11.608
			c-3.67,0-6.936-1.71-9.061-4.369l-12.686,10.05c0.832,0.787,1.947,1.28,3.174,1.28h37.141c2.551,0,4.639-2.088,4.639-4.637V23.566
			C189.247,21.013,187.159,18.92,184.608,18.92z M166.04,44.918c4.102,0,7.428-3.321,7.428-7.427c0-4.099-3.326-7.425-7.428-7.425
			c-2.186,0-4.133,0.96-5.492,2.465l5.904,4.695l-6.178,4.895C161.638,43.814,163.698,44.918,166.04,44.918z"/>
		<linearGradient id="SVGID_1_" gradientUnits="userSpaceOnUse" x1="166.4521" y1="37.3184" x2="189.2471" y2="37.3184">
			<stop  offset="0" style="stop-color:#575756"/>
			<stop  offset="0.2136" style="stop-color:#757574"/>
			<stop  offset="0.4542" style="stop-color:#919190"/>
			<stop  offset="0.5935" style="stop-color:#9C9B9B"/>
			<stop  offset="0.8952" style="stop-color:#BABAB9"/>
			<stop  offset="1" style="stop-color:#C6C6C5"/>
		</linearGradient>
		<path fill="url(#SVGID_1_)" d="M166.452,37.227l5.686,4.499c0.832-1.201,1.33-2.657,1.33-4.234c0-1.729-0.615-3.301-1.609-4.563
			L166.452,37.227z M187.827,20.237l-12.682,10.077c1.566,1.977,2.502,4.467,2.502,7.177c0,2.556-0.834,4.913-2.234,6.83
			l12.719,10.077c0.684-0.808,1.115-1.839,1.115-2.975V23.566C189.247,22.263,188.7,21.082,187.827,20.237z"/>
		<g>
			<polygon fill="#35A8E0" points="137.101,17.401 162.015,37.137 137.101,56.963 130.933,37.137 			"/>
			<path fill="#1D70B7" d="M143.972,37.18c0,11.855-5.043,21.467-11.25,21.467c-6.217,0-11.25-9.611-11.25-21.467
				c0-11.854,5.033-21.465,11.25-21.465C138.929,15.715,143.972,25.326,143.972,37.18z"/>
			<path fill="#FFFFFF" d="M127.739,27.153l2.398-0.399V36.89l3.422-5.521l3.783-0.307l-4.15,5.784l4.318,9.775l-3.723-0.577
				l-2.57-6.441l-1.08,1.501v4.376l-2.398-0.377V27.153z"/>
			<path fill="#FFFFFF" d="M127.739,27.153l2.398-0.399V36.89l3.422-5.521l3.783-0.307l-4.15,5.784l4.318,9.775l-3.723-0.577
				l-2.57-6.441l-1.08,1.501v4.376l-2.398-0.377V27.153z"/>
		</g>
	</g>
</g>
</svg>
