<?xml version="1.0" encoding="utf-8"?>
<!-- Generator: Adobe Illustrator 16.0.0, SVG Export Plug-In . SVG Version: 6.00 Build 0)  -->
<!DOCTYPE svg PUBLIC "-//W3C//DTD SVG 1.1//EN" "http://www.w3.org/Graphics/SVG/1.1/DTD/svg11.dtd">
<svg version="1.1" id="Layer_1" xmlns="http://www.w3.org/2000/svg" xmlns:xlink="http://www.w3.org/1999/xlink" x="0px" y="0px"
	 width="246.652px" height="165.572px" viewBox="0 0 246.652 165.572" enable-background="new 0 0 246.652 165.572"
	 xml:space="preserve">
<g>
	<g>
		<g>
			<path fill="#868686" d="M16.01,29.75c0.056,0.393,0.165,0.686,0.327,0.881c0.298,0.354,0.808,0.529,1.53,0.529
				c0.433,0,0.783-0.045,1.053-0.139c0.513-0.18,0.769-0.512,0.769-0.998c0-0.283-0.126-0.502-0.376-0.658
				c-0.251-0.15-0.648-0.285-1.193-0.402l-0.931-0.203c-0.914-0.203-1.542-0.422-1.884-0.658c-0.579-0.396-0.868-1.018-0.868-1.859
				c0-0.77,0.283-1.41,0.85-1.918c0.566-0.51,1.398-0.764,2.496-0.764c0.916,0,1.698,0.24,2.346,0.719
				c0.646,0.48,0.986,1.178,1.018,2.09H19.42c-0.032-0.516-0.263-0.883-0.693-1.102c-0.287-0.143-0.644-0.215-1.069-0.215
				c-0.475,0-0.853,0.092-1.136,0.279c-0.282,0.186-0.424,0.447-0.424,0.781c0,0.307,0.14,0.535,0.418,0.688
				c0.18,0.102,0.56,0.219,1.142,0.355l1.508,0.355c0.661,0.156,1.156,0.363,1.486,0.623c0.512,0.404,0.768,0.99,0.768,1.756
				c0,0.785-0.303,1.436-0.91,1.955c-0.606,0.52-1.464,0.779-2.571,0.779c-1.132,0-2.021-0.256-2.669-0.768
				c-0.648-0.512-0.973-1.213-0.973-2.107H16.01z"/>
			<path fill="#868686" d="M26.685,26.178c0.443,0.199,0.81,0.512,1.099,0.939c0.26,0.377,0.429,0.816,0.506,1.314
				c0.045,0.291,0.063,0.711,0.055,1.26h-4.627c0.025,0.639,0.247,1.084,0.664,1.342c0.254,0.158,0.559,0.238,0.916,0.238
				c0.378,0,0.686-0.098,0.923-0.291c0.129-0.105,0.242-0.25,0.342-0.438h1.695c-0.044,0.377-0.25,0.76-0.615,1.148
				c-0.569,0.617-1.366,0.928-2.391,0.928c-0.846,0-1.592-0.262-2.238-0.783s-0.969-1.369-0.969-2.543
				c0-1.102,0.291-1.945,0.875-2.531c0.583-0.588,1.341-0.881,2.271-0.881C25.744,25.881,26.242,25.979,26.685,26.178z M24.2,27.613
				c-0.235,0.242-0.383,0.568-0.443,0.982h2.862c-0.03-0.441-0.178-0.775-0.442-1.004s-0.594-0.342-0.985-0.342
				C24.765,27.25,24.435,27.371,24.2,27.613z"/>
			<path fill="#868686" d="M34.307,26.414c0.416,0.344,0.624,0.914,0.624,1.711v4.277h-1.702v-3.865c0-0.334-0.044-0.59-0.133-0.77
				c-0.162-0.326-0.471-0.488-0.926-0.488c-0.56,0-0.943,0.238-1.151,0.717c-0.108,0.252-0.162,0.574-0.162,0.967v3.439h-1.661
				v-6.342h1.608v0.928c0.213-0.328,0.414-0.562,0.604-0.707c0.341-0.256,0.772-0.385,1.295-0.385
				C33.355,25.896,33.891,26.07,34.307,26.414z"/>
			<path fill="#868686" d="M39.845,26.15c0.299,0.17,0.542,0.404,0.729,0.703v-3.031h1.685v8.58h-1.614v-0.881
				c-0.237,0.377-0.508,0.652-0.811,0.822c-0.303,0.172-0.68,0.258-1.131,0.258c-0.742,0-1.367-0.301-1.874-0.902
				c-0.507-0.6-0.761-1.369-0.761-2.311c0-1.084,0.25-1.938,0.749-2.559s1.167-0.934,2.002-0.934
				C39.203,25.896,39.545,25.982,39.845,26.15z M40.253,30.678c0.244-0.35,0.367-0.803,0.367-1.359c0-0.777-0.196-1.332-0.589-1.666
				c-0.241-0.203-0.521-0.303-0.84-0.303c-0.485,0-0.842,0.184-1.069,0.551s-0.341,0.822-0.341,1.365
				c0,0.588,0.115,1.057,0.347,1.408s0.582,0.527,1.052,0.527C39.65,31.201,40.008,31.027,40.253,30.678z"/>
			<path fill="#868686" d="M48.793,25.291h-1.685v-1.533h1.685V25.291z M47.108,26.049h1.685v6.354h-1.685V26.049z"/>
			<path fill="#868686" d="M49.748,27.291v-1.184h0.887v-1.771h1.644v1.771h1.031v1.184h-1.031v3.357
				c0,0.26,0.033,0.422,0.099,0.486c0.066,0.064,0.269,0.096,0.606,0.096c0.051,0,0.104,0,0.16-0.002
				c0.057-0.002,0.112-0.006,0.166-0.01v1.242l-0.786,0.029c-0.785,0.027-1.321-0.109-1.609-0.408
				c-0.187-0.189-0.279-0.484-0.279-0.881v-3.91H49.748z"/>
			<path fill="#868686" d="M57.04,27.291v-1.184h0.887v-1.771h1.644v1.771h1.031v1.184H59.57v3.357c0,0.26,0.033,0.422,0.099,0.486
				c0.066,0.064,0.269,0.096,0.606,0.096c0.051,0,0.104,0,0.16-0.002c0.057-0.002,0.112-0.006,0.166-0.01v1.242l-0.786,0.029
				c-0.785,0.027-1.321-0.109-1.609-0.408c-0.187-0.189-0.279-0.484-0.279-0.881v-3.91H57.04z"/>
			<path fill="#868686" d="M66.968,31.625c-0.537,0.662-1.351,0.994-2.442,0.994c-1.093,0-1.906-0.332-2.442-0.994
				s-0.805-1.459-0.805-2.391c0-0.916,0.269-1.711,0.805-2.383c0.536-0.67,1.35-1.006,2.442-1.006c1.092,0,1.905,0.336,2.442,1.006
				c0.536,0.672,0.804,1.467,0.804,2.383C67.771,30.166,67.504,30.963,66.968,31.625z M65.639,30.707
				c0.26-0.346,0.391-0.836,0.391-1.473s-0.131-1.127-0.391-1.469c-0.261-0.344-0.634-0.516-1.119-0.516
				c-0.486,0-0.86,0.172-1.122,0.516c-0.263,0.342-0.394,0.832-0.394,1.469s0.131,1.127,0.394,1.473
				c0.262,0.346,0.636,0.518,1.122,0.518C65.005,31.225,65.378,31.053,65.639,30.707z"/>
			<path fill="#868686" d="M74.906,23.732c0.085,0.006,0.202,0.014,0.35,0.025v1.354c-0.094-0.012-0.25-0.021-0.47-0.027
				c-0.219-0.006-0.371,0.043-0.454,0.146c-0.084,0.102-0.125,0.217-0.125,0.34c0,0.125,0,0.305,0,0.537h1.09v1.172h-1.09v5.123
				h-1.65v-5.123h-0.933v-1.172h0.909v-0.408c0-0.68,0.115-1.148,0.345-1.404c0.24-0.381,0.821-0.572,1.742-0.572
				C74.726,23.723,74.82,23.727,74.906,23.732z"/>
			<path fill="#868686" d="M79.782,25.9c0.021,0.002,0.069,0.004,0.143,0.008v1.703c-0.104-0.012-0.198-0.02-0.279-0.023
				c-0.082-0.004-0.147-0.006-0.198-0.006c-0.669,0-1.117,0.217-1.347,0.652c-0.128,0.246-0.192,0.623-0.192,1.131v3.037h-1.673
				v-6.354h1.586v1.107c0.256-0.424,0.479-0.713,0.67-0.869c0.311-0.26,0.715-0.391,1.212-0.391
				C79.734,25.896,79.761,25.898,79.782,25.9z"/>
			<path fill="#868686" d="M82.606,25.291h-1.685v-1.533h1.685V25.291z M80.922,26.049h1.685v6.354h-1.685V26.049z"/>
			<path fill="#868686" d="M88.355,26.178c0.443,0.199,0.81,0.512,1.099,0.939c0.26,0.377,0.429,0.816,0.506,1.314
				c0.045,0.291,0.063,0.711,0.055,1.26h-4.627c0.025,0.639,0.247,1.084,0.664,1.342c0.254,0.158,0.559,0.238,0.916,0.238
				c0.378,0,0.686-0.098,0.923-0.291c0.129-0.105,0.242-0.25,0.342-0.438h1.695c-0.044,0.377-0.25,0.76-0.615,1.148
				c-0.569,0.617-1.366,0.928-2.391,0.928c-0.846,0-1.592-0.262-2.238-0.783s-0.969-1.369-0.969-2.543
				c0-1.102,0.291-1.945,0.875-2.531c0.583-0.588,1.341-0.881,2.271-0.881C87.415,25.881,87.913,25.979,88.355,26.178z
				 M85.871,27.613c-0.235,0.242-0.383,0.568-0.443,0.982h2.862c-0.03-0.441-0.178-0.775-0.442-1.004s-0.594-0.342-0.985-0.342
				C86.436,27.25,86.105,27.371,85.871,27.613z"/>
			<path fill="#868686" d="M95.978,26.414c0.416,0.344,0.624,0.914,0.624,1.711v4.277h-1.702v-3.865c0-0.334-0.044-0.59-0.133-0.77
				c-0.162-0.326-0.471-0.488-0.926-0.488c-0.56,0-0.943,0.238-1.151,0.717c-0.108,0.252-0.162,0.574-0.162,0.967v3.439h-1.661
				v-6.342h1.608v0.928c0.213-0.328,0.414-0.562,0.604-0.707c0.341-0.256,0.772-0.385,1.295-0.385
				C95.026,25.896,95.562,26.07,95.978,26.414z"/>
			<path fill="#868686" d="M101.516,26.15c0.299,0.17,0.542,0.404,0.729,0.703v-3.031h1.685v8.58h-1.614v-0.881
				c-0.237,0.377-0.508,0.652-0.811,0.822c-0.303,0.172-0.68,0.258-1.131,0.258c-0.742,0-1.367-0.301-1.874-0.902
				c-0.507-0.6-0.761-1.369-0.761-2.311c0-1.084,0.25-1.938,0.749-2.559s1.167-0.934,2.002-0.934
				C100.874,25.896,101.216,25.982,101.516,26.15z M101.924,30.678c0.244-0.35,0.367-0.803,0.367-1.359
				c0-0.777-0.196-1.332-0.589-1.666c-0.241-0.203-0.521-0.303-0.84-0.303c-0.485,0-0.842,0.184-1.069,0.551
				s-0.341,0.822-0.341,1.365c0,0.588,0.115,1.057,0.347,1.408s0.582,0.527,1.052,0.527
				C101.321,31.201,101.679,31.027,101.924,30.678z"/>
			<path fill="#868686" d="M106.728,30.375c0.035,0.295,0.111,0.504,0.229,0.629c0.207,0.221,0.59,0.332,1.147,0.332
				c0.328,0,0.589-0.049,0.782-0.146c0.193-0.096,0.29-0.242,0.29-0.436c0-0.188-0.078-0.33-0.233-0.426
				c-0.156-0.098-0.735-0.266-1.738-0.502c-0.722-0.18-1.23-0.402-1.525-0.67c-0.296-0.266-0.443-0.645-0.443-1.143
				c0-0.588,0.23-1.092,0.692-1.514c0.461-0.422,1.11-0.631,1.948-0.631c0.794,0,1.441,0.158,1.942,0.475
				c0.5,0.316,0.787,0.863,0.861,1.641h-1.661c-0.023-0.213-0.084-0.383-0.182-0.508c-0.183-0.225-0.495-0.338-0.935-0.338
				c-0.363,0-0.621,0.057-0.774,0.17c-0.154,0.111-0.231,0.244-0.231,0.396c0,0.189,0.082,0.328,0.246,0.414
				c0.163,0.088,0.741,0.242,1.734,0.459c0.661,0.156,1.157,0.391,1.488,0.705c0.326,0.32,0.489,0.719,0.489,1.195
				c0,0.631-0.234,1.145-0.704,1.543c-0.469,0.398-1.194,0.598-2.176,0.598c-1,0-1.739-0.211-2.216-0.633
				c-0.478-0.422-0.716-0.959-0.716-1.611H106.728z"/>
			<path fill="#868686" d="M39.758,48.289c-0.537,0.662-1.351,0.994-2.442,0.994c-1.093,0-1.906-0.332-2.442-0.994
				s-0.805-1.459-0.805-2.391c0-0.916,0.269-1.711,0.805-2.383c0.536-0.67,1.35-1.006,2.442-1.006c1.092,0,1.905,0.336,2.442,1.006
				c0.536,0.672,0.804,1.467,0.804,2.383C40.562,46.83,40.294,47.627,39.758,48.289z M38.429,47.371
				c0.26-0.346,0.391-0.836,0.391-1.473s-0.131-1.127-0.391-1.469c-0.261-0.344-0.634-0.516-1.119-0.516
				c-0.486,0-0.86,0.172-1.122,0.516c-0.263,0.342-0.394,0.832-0.394,1.469s0.131,1.127,0.394,1.473
				c0.262,0.346,0.636,0.518,1.122,0.518C37.795,47.889,38.168,47.717,38.429,47.371z"/>
			<path fill="#868686" d="M45.28,42.564c0.021,0.002,0.069,0.004,0.143,0.008v1.703c-0.104-0.012-0.198-0.02-0.279-0.023
				c-0.082-0.004-0.147-0.006-0.198-0.006c-0.669,0-1.117,0.217-1.347,0.652c-0.128,0.246-0.192,0.623-0.192,1.131v3.037h-1.673
				v-6.354h1.586v1.107c0.256-0.424,0.479-0.713,0.67-0.869c0.311-0.26,0.715-0.391,1.212-0.391
				C45.232,42.561,45.259,42.562,45.28,42.564z"/>
			<path fill="#868686" d="M53.515,44.992c-0.031-0.236-0.111-0.451-0.24-0.641c-0.187-0.258-0.477-0.385-0.87-0.385
				c-0.562,0-0.945,0.277-1.151,0.832c-0.109,0.295-0.163,0.688-0.163,1.176c0,0.465,0.054,0.84,0.163,1.121
				c0.198,0.529,0.572,0.793,1.122,0.793c0.39,0,0.666-0.104,0.83-0.314c0.163-0.209,0.263-0.482,0.298-0.816h1.696
				c-0.039,0.506-0.222,0.984-0.549,1.434c-0.521,0.729-1.293,1.092-2.316,1.092s-1.775-0.305-2.258-0.91s-0.724-1.393-0.724-2.357
				c0-1.09,0.267-1.939,0.799-2.545c0.533-0.605,1.269-0.91,2.206-0.91c0.797,0,1.45,0.18,1.957,0.537
				c0.508,0.357,0.809,0.988,0.902,1.895H53.515z"/>
			<path fill="#868686" d="M61.651,48.289c-0.537,0.662-1.351,0.994-2.442,0.994c-1.093,0-1.906-0.332-2.442-0.994
				s-0.805-1.459-0.805-2.391c0-0.916,0.269-1.711,0.805-2.383c0.536-0.67,1.35-1.006,2.442-1.006c1.092,0,1.905,0.336,2.442,1.006
				c0.536,0.672,0.804,1.467,0.804,2.383C62.455,46.83,62.188,47.627,61.651,48.289z M60.322,47.371
				c0.26-0.346,0.391-0.836,0.391-1.473s-0.131-1.127-0.391-1.469c-0.261-0.344-0.634-0.516-1.119-0.516
				c-0.486,0-0.86,0.172-1.122,0.516c-0.263,0.342-0.394,0.832-0.394,1.469s0.131,1.127,0.394,1.473
				c0.262,0.346,0.636,0.518,1.122,0.518C59.688,47.889,60.062,47.717,60.322,47.371z"/>
			<path fill="#868686" d="M71.572,42.736c0.271,0.109,0.519,0.299,0.74,0.57c0.179,0.223,0.299,0.494,0.361,0.816
				c0.038,0.215,0.058,0.527,0.058,0.939l-0.012,4.004h-1.701v-4.045c0-0.24-0.039-0.439-0.117-0.596
				c-0.147-0.295-0.42-0.441-0.815-0.441c-0.459,0-0.775,0.189-0.95,0.57c-0.09,0.203-0.135,0.445-0.135,0.729v3.783h-1.673v-3.783
				c0-0.377-0.039-0.65-0.116-0.822c-0.14-0.307-0.414-0.459-0.822-0.459c-0.474,0-0.793,0.152-0.956,0.459
				c-0.089,0.176-0.134,0.436-0.134,0.781v3.824h-1.685v-6.342h1.614v0.928c0.206-0.332,0.4-0.566,0.583-0.707
				c0.323-0.248,0.74-0.373,1.254-0.373c0.485,0,0.878,0.107,1.177,0.322c0.241,0.197,0.424,0.451,0.548,0.764
				c0.218-0.373,0.488-0.648,0.811-0.822c0.342-0.176,0.723-0.264,1.143-0.264C71.024,42.572,71.3,42.627,71.572,42.736z"/>
			<path fill="#868686" d="M79.603,43.395c0.519,0.549,0.777,1.354,0.777,2.414c0,1.119-0.253,1.973-0.76,2.559
				c-0.506,0.586-1.158,0.881-1.956,0.881c-0.509,0-0.932-0.127-1.268-0.379c-0.184-0.141-0.363-0.344-0.54-0.613v3.311h-1.644
				v-8.854h1.592v0.939c0.18-0.277,0.371-0.494,0.574-0.654c0.372-0.283,0.813-0.426,1.326-0.426
				C78.452,42.572,79.085,42.848,79.603,43.395z M78.328,44.59c-0.227-0.377-0.592-0.564-1.099-0.564
				c-0.608,0-1.026,0.285-1.254,0.855c-0.118,0.303-0.177,0.688-0.177,1.154c0,0.738,0.198,1.258,0.594,1.557
				c0.235,0.176,0.515,0.262,0.837,0.262c0.467,0,0.823-0.178,1.068-0.535c0.246-0.357,0.368-0.834,0.368-1.428
				C78.666,45.4,78.554,44.967,78.328,44.59z"/>
			<path fill="#868686" d="M84.068,45.201c0.309-0.037,0.53-0.086,0.663-0.145c0.239-0.102,0.358-0.258,0.358-0.473
				c0-0.26-0.092-0.439-0.274-0.539c-0.184-0.1-0.452-0.148-0.807-0.148c-0.398,0-0.68,0.098-0.845,0.291
				c-0.119,0.145-0.197,0.338-0.236,0.584h-1.604c0.035-0.557,0.191-1.014,0.469-1.371c0.44-0.559,1.198-0.84,2.271-0.84
				c0.698,0,1.318,0.139,1.861,0.414c0.542,0.277,0.813,0.797,0.813,1.562v2.914c0,0.203,0.004,0.447,0.012,0.734
				c0.012,0.219,0.045,0.367,0.1,0.443c0.054,0.078,0.136,0.143,0.244,0.193v0.244h-1.807c-0.051-0.129-0.086-0.248-0.104-0.361
				c-0.02-0.113-0.035-0.24-0.047-0.385c-0.23,0.248-0.497,0.461-0.798,0.635c-0.359,0.207-0.766,0.311-1.22,0.311
				c-0.578,0-1.056-0.164-1.433-0.494c-0.378-0.328-0.566-0.793-0.566-1.395c0-0.781,0.304-1.348,0.91-1.697
				c0.333-0.189,0.822-0.326,1.468-0.408L84.068,45.201z M85.084,45.977c-0.106,0.066-0.214,0.121-0.322,0.16
				c-0.108,0.041-0.257,0.08-0.446,0.115l-0.378,0.068c-0.354,0.062-0.609,0.139-0.764,0.229c-0.262,0.15-0.393,0.387-0.393,0.705
				c0,0.283,0.08,0.488,0.24,0.615c0.159,0.125,0.354,0.189,0.583,0.189c0.363,0,0.697-0.105,1.003-0.314
				c0.306-0.211,0.465-0.594,0.477-1.148V45.977z"/>
			<path fill="#868686" d="M93.313,43.078c0.416,0.344,0.624,0.914,0.624,1.711v4.277h-1.702v-3.865c0-0.334-0.044-0.59-0.133-0.77
				c-0.162-0.326-0.471-0.488-0.926-0.488c-0.56,0-0.943,0.238-1.151,0.717c-0.108,0.252-0.162,0.574-0.162,0.967v3.439h-1.661
				v-6.342h1.608v0.928c0.213-0.328,0.414-0.562,0.604-0.707c0.341-0.256,0.772-0.385,1.295-0.385
				C92.362,42.561,92.897,42.734,93.313,43.078z"/>
			<path fill="#868686" d="M97.191,41.955h-1.685v-1.533h1.685V41.955z M95.507,42.713h1.685v6.354h-1.685V42.713z"/>
			<path fill="#868686" d="M102.939,42.842c0.443,0.199,0.81,0.512,1.099,0.939c0.26,0.377,0.429,0.816,0.506,1.314
				c0.045,0.291,0.063,0.711,0.055,1.26h-4.627c0.025,0.639,0.247,1.084,0.664,1.342c0.254,0.158,0.559,0.238,0.916,0.238
				c0.378,0,0.686-0.098,0.923-0.291c0.129-0.105,0.242-0.25,0.342-0.438h1.695c-0.044,0.377-0.25,0.76-0.615,1.148
				c-0.569,0.617-1.366,0.928-2.391,0.928c-0.846,0-1.592-0.262-2.238-0.783s-0.969-1.369-0.969-2.543
				c0-1.102,0.291-1.945,0.875-2.531c0.583-0.588,1.341-0.881,2.271-0.881C101.999,42.545,102.497,42.643,102.939,42.842z
				 M100.455,44.277c-0.235,0.242-0.383,0.568-0.443,0.982h2.862c-0.03-0.441-0.178-0.775-0.442-1.004s-0.594-0.342-0.985-0.342
				C101.02,43.914,100.689,44.035,100.455,44.277z"/>
			<path fill="#868686" d="M106.728,47.039c0.035,0.295,0.111,0.504,0.229,0.629c0.207,0.221,0.59,0.332,1.147,0.332
				c0.328,0,0.589-0.049,0.782-0.146c0.193-0.096,0.29-0.242,0.29-0.436c0-0.188-0.078-0.33-0.233-0.426
				c-0.156-0.098-0.735-0.266-1.738-0.502c-0.722-0.18-1.23-0.402-1.525-0.67c-0.296-0.266-0.443-0.645-0.443-1.143
				c0-0.588,0.23-1.092,0.692-1.514c0.461-0.422,1.11-0.631,1.948-0.631c0.794,0,1.441,0.158,1.942,0.475
				c0.5,0.316,0.787,0.863,0.861,1.641h-1.661c-0.023-0.213-0.084-0.383-0.182-0.508c-0.183-0.225-0.495-0.338-0.935-0.338
				c-0.363,0-0.621,0.057-0.774,0.17c-0.154,0.111-0.231,0.244-0.231,0.396c0,0.189,0.082,0.328,0.246,0.414
				c0.163,0.088,0.741,0.242,1.734,0.459c0.661,0.156,1.157,0.391,1.488,0.705c0.326,0.32,0.489,0.719,0.489,1.195
				c0,0.631-0.234,1.145-0.704,1.543c-0.469,0.398-1.194,0.598-2.176,0.598c-1,0-1.739-0.211-2.216-0.633
				c-0.478-0.422-0.716-0.959-0.716-1.611H106.728z"/>
		</g>
	</g>
	<g>
		<g>
			<path fill="#868686" d="M145.317,29.75c0.056,0.393,0.165,0.686,0.327,0.881c0.298,0.354,0.808,0.529,1.53,0.529
				c0.433,0,0.783-0.045,1.053-0.139c0.513-0.18,0.769-0.512,0.769-0.998c0-0.283-0.126-0.502-0.376-0.658
				c-0.251-0.15-0.648-0.285-1.193-0.402l-0.931-0.203c-0.914-0.203-1.542-0.422-1.884-0.658c-0.579-0.396-0.868-1.018-0.868-1.859
				c0-0.77,0.283-1.41,0.85-1.918c0.566-0.51,1.398-0.764,2.496-0.764c0.916,0,1.698,0.24,2.346,0.719
				c0.646,0.48,0.986,1.178,1.018,2.09h-1.726c-0.032-0.516-0.263-0.883-0.693-1.102c-0.287-0.143-0.644-0.215-1.069-0.215
				c-0.475,0-0.853,0.092-1.136,0.279c-0.282,0.186-0.424,0.447-0.424,0.781c0,0.307,0.14,0.535,0.418,0.688
				c0.18,0.102,0.56,0.219,1.142,0.355l1.508,0.355c0.661,0.156,1.156,0.363,1.486,0.623c0.512,0.404,0.768,0.99,0.768,1.756
				c0,0.785-0.303,1.436-0.91,1.955c-0.606,0.52-1.464,0.779-2.571,0.779c-1.132,0-2.021-0.256-2.669-0.768
				c-0.648-0.512-0.973-1.213-0.973-2.107H145.317z"/>
			<path fill="#868686" d="M156.419,26.084c0.318,0.137,0.581,0.344,0.786,0.625c0.174,0.236,0.28,0.48,0.319,0.732
				c0.038,0.25,0.058,0.66,0.058,1.227v3.734h-1.696v-3.869c0-0.342-0.058-0.619-0.173-0.828c-0.15-0.295-0.437-0.443-0.856-0.443
				c-0.437,0-0.767,0.146-0.992,0.439c-0.227,0.295-0.339,0.713-0.339,1.258v3.443h-1.661V23.84h1.661v3.031
				c0.24-0.369,0.518-0.627,0.833-0.773c0.315-0.145,0.646-0.217,0.995-0.217C155.744,25.881,156.1,25.947,156.419,26.084z"/>
			<path fill="#868686" d="M161.661,28.537c0.309-0.037,0.53-0.086,0.663-0.145c0.239-0.102,0.358-0.258,0.358-0.473
				c0-0.26-0.092-0.439-0.274-0.539c-0.184-0.1-0.452-0.148-0.807-0.148c-0.398,0-0.68,0.098-0.845,0.291
				c-0.119,0.145-0.197,0.338-0.236,0.584h-1.604c0.035-0.557,0.191-1.014,0.469-1.371c0.44-0.559,1.198-0.84,2.271-0.84
				c0.698,0,1.318,0.139,1.861,0.414c0.542,0.277,0.813,0.797,0.813,1.562v2.914c0,0.203,0.004,0.447,0.012,0.734
				c0.012,0.219,0.045,0.367,0.1,0.443c0.054,0.078,0.136,0.143,0.244,0.193v0.244h-1.807c-0.051-0.129-0.086-0.248-0.104-0.361
				c-0.02-0.113-0.035-0.24-0.047-0.385c-0.23,0.248-0.497,0.461-0.798,0.635c-0.359,0.207-0.766,0.311-1.22,0.311
				c-0.578,0-1.056-0.164-1.433-0.494c-0.378-0.328-0.566-0.793-0.566-1.395c0-0.781,0.304-1.348,0.91-1.697
				c0.333-0.189,0.822-0.326,1.468-0.408L161.661,28.537z M162.677,29.312c-0.106,0.066-0.214,0.121-0.322,0.16
				c-0.108,0.041-0.257,0.08-0.446,0.115l-0.378,0.068c-0.354,0.062-0.609,0.139-0.764,0.229c-0.262,0.15-0.393,0.387-0.393,0.705
				c0,0.283,0.08,0.488,0.24,0.615c0.159,0.125,0.354,0.189,0.583,0.189c0.363,0,0.697-0.105,1.003-0.314
				c0.306-0.211,0.465-0.594,0.477-1.148V29.312z"/>
			<path fill="#868686" d="M169.312,25.9c0.021,0.002,0.069,0.004,0.143,0.008v1.703c-0.104-0.012-0.198-0.02-0.279-0.023
				c-0.082-0.004-0.147-0.006-0.198-0.006c-0.669,0-1.117,0.217-1.347,0.652c-0.128,0.246-0.192,0.623-0.192,1.131v3.037h-1.673
				v-6.354h1.586v1.107c0.256-0.424,0.479-0.713,0.67-0.869c0.311-0.26,0.715-0.391,1.212-0.391
				C169.265,25.896,169.291,25.898,169.312,25.9z"/>
			<path fill="#868686" d="M174.568,26.178c0.443,0.199,0.81,0.512,1.099,0.939c0.26,0.377,0.429,0.816,0.506,1.314
				c0.045,0.291,0.063,0.711,0.055,1.26h-4.627c0.025,0.639,0.247,1.084,0.664,1.342c0.254,0.158,0.559,0.238,0.916,0.238
				c0.378,0,0.686-0.098,0.923-0.291c0.129-0.105,0.242-0.25,0.342-0.438h1.695c-0.044,0.377-0.25,0.76-0.615,1.148
				c-0.569,0.617-1.366,0.928-2.391,0.928c-0.846,0-1.592-0.262-2.238-0.783s-0.969-1.369-0.969-2.543
				c0-1.102,0.291-1.945,0.875-2.531c0.583-0.588,1.341-0.881,2.271-0.881C173.628,25.881,174.126,25.979,174.568,26.178z
				 M172.084,27.613c-0.235,0.242-0.383,0.568-0.443,0.982h2.862c-0.03-0.441-0.178-0.775-0.442-1.004s-0.594-0.342-0.985-0.342
				C172.648,27.25,172.318,27.371,172.084,27.613z"/>
			<path fill="#868686" d="M182.093,25.291h-1.685v-1.533h1.685V25.291z M180.408,26.049h1.685v6.354h-1.685V26.049z"/>
			<path fill="#868686" d="M183.049,27.291v-1.184h0.887v-1.771h1.644v1.771h1.031v1.184h-1.031v3.357
				c0,0.26,0.033,0.422,0.099,0.486c0.066,0.064,0.269,0.096,0.606,0.096c0.051,0,0.104,0,0.16-0.002
				c0.057-0.002,0.112-0.006,0.166-0.01v1.242l-0.786,0.029c-0.785,0.027-1.321-0.109-1.609-0.408
				c-0.187-0.189-0.279-0.484-0.279-0.881v-3.91H183.049z"/>
			<path fill="#868686" d="M149.188,48.289c-0.537,0.662-1.351,0.994-2.442,0.994c-1.093,0-1.906-0.332-2.442-0.994
				s-0.805-1.459-0.805-2.391c0-0.916,0.269-1.711,0.805-2.383c0.536-0.67,1.35-1.006,2.442-1.006c1.092,0,1.905,0.336,2.442,1.006
				c0.536,0.672,0.804,1.467,0.804,2.383C149.992,46.83,149.725,47.627,149.188,48.289z M147.859,47.371
				c0.26-0.346,0.391-0.836,0.391-1.473s-0.131-1.127-0.391-1.469c-0.261-0.344-0.634-0.516-1.119-0.516
				c-0.486,0-0.86,0.172-1.122,0.516c-0.263,0.342-0.394,0.832-0.394,1.469s0.131,1.127,0.394,1.473
				c0.262,0.346,0.636,0.518,1.122,0.518C147.226,47.889,147.599,47.717,147.859,47.371z"/>
			<path fill="#868686" d="M156.305,43.078c0.416,0.344,0.624,0.914,0.624,1.711v4.277h-1.702v-3.865c0-0.334-0.044-0.59-0.133-0.77
				c-0.162-0.326-0.471-0.488-0.926-0.488c-0.56,0-0.943,0.238-1.151,0.717c-0.108,0.252-0.162,0.574-0.162,0.967v3.439h-1.661
				v-6.342h1.608v0.928c0.213-0.328,0.414-0.562,0.604-0.707c0.341-0.256,0.772-0.385,1.295-0.385
				C155.354,42.561,155.889,42.734,156.305,43.078z"/>
			<path fill="#868686" d="M163.079,47.039c0.035,0.295,0.111,0.504,0.229,0.629c0.207,0.221,0.59,0.332,1.147,0.332
				c0.328,0,0.589-0.049,0.782-0.146c0.193-0.096,0.29-0.242,0.29-0.436c0-0.188-0.078-0.33-0.233-0.426
				c-0.156-0.098-0.735-0.266-1.738-0.502c-0.722-0.18-1.23-0.402-1.525-0.67c-0.296-0.266-0.443-0.645-0.443-1.143
				c0-0.588,0.23-1.092,0.692-1.514c0.461-0.422,1.11-0.631,1.948-0.631c0.794,0,1.441,0.158,1.942,0.475
				c0.5,0.316,0.787,0.863,0.861,1.641h-1.661c-0.023-0.213-0.084-0.383-0.182-0.508c-0.183-0.225-0.495-0.338-0.935-0.338
				c-0.363,0-0.621,0.057-0.774,0.17c-0.154,0.111-0.231,0.244-0.231,0.396c0,0.189,0.082,0.328,0.246,0.414
				c0.163,0.088,0.741,0.242,1.734,0.459c0.661,0.156,1.157,0.391,1.488,0.705c0.326,0.32,0.489,0.719,0.489,1.195
				c0,0.631-0.234,1.145-0.704,1.543c-0.469,0.398-1.194,0.598-2.176,0.598c-1,0-1.739-0.211-2.216-0.633
				c-0.478-0.422-0.716-0.959-0.716-1.611H163.079z"/>
			<path fill="#868686" d="M173.729,48.289c-0.537,0.662-1.351,0.994-2.442,0.994c-1.093,0-1.906-0.332-2.442-0.994
				s-0.805-1.459-0.805-2.391c0-0.916,0.269-1.711,0.805-2.383c0.536-0.67,1.35-1.006,2.442-1.006c1.092,0,1.905,0.336,2.442,1.006
				c0.536,0.672,0.804,1.467,0.804,2.383C174.532,46.83,174.265,47.627,173.729,48.289z M172.399,47.371
				c0.26-0.346,0.391-0.836,0.391-1.473s-0.131-1.127-0.391-1.469c-0.261-0.344-0.634-0.516-1.119-0.516
				c-0.486,0-0.86,0.172-1.122,0.516c-0.263,0.342-0.394,0.832-0.394,1.469s0.131,1.127,0.394,1.473
				c0.262,0.346,0.636,0.518,1.122,0.518C171.766,47.889,172.139,47.717,172.399,47.371z"/>
			<path fill="#868686" d="M179.522,44.992c-0.031-0.236-0.111-0.451-0.24-0.641c-0.187-0.258-0.477-0.385-0.87-0.385
				c-0.562,0-0.945,0.277-1.151,0.832c-0.109,0.295-0.163,0.688-0.163,1.176c0,0.465,0.054,0.84,0.163,1.121
				c0.198,0.529,0.572,0.793,1.122,0.793c0.39,0,0.666-0.104,0.83-0.314c0.163-0.209,0.263-0.482,0.298-0.816h1.696
				c-0.039,0.506-0.222,0.984-0.549,1.434c-0.521,0.729-1.293,1.092-2.316,1.092s-1.775-0.305-2.258-0.91s-0.724-1.393-0.724-2.357
				c0-1.09,0.267-1.939,0.799-2.545c0.533-0.605,1.269-0.91,2.206-0.91c0.797,0,1.45,0.18,1.957,0.537
				c0.508,0.357,0.809,0.988,0.902,1.895H179.522z"/>
			<path fill="#868686" d="M184.069,41.955h-1.685v-1.533h1.685V41.955z M182.385,42.713h1.685v6.354h-1.685V42.713z"/>
			<path fill="#868686" d="M188.194,45.201c0.309-0.037,0.53-0.086,0.663-0.145c0.239-0.102,0.358-0.258,0.358-0.473
				c0-0.26-0.092-0.439-0.274-0.539c-0.184-0.1-0.452-0.148-0.807-0.148c-0.398,0-0.68,0.098-0.845,0.291
				c-0.119,0.145-0.197,0.338-0.236,0.584h-1.604c0.035-0.557,0.191-1.014,0.469-1.371c0.44-0.559,1.198-0.84,2.271-0.84
				c0.698,0,1.318,0.139,1.861,0.414c0.542,0.277,0.813,0.797,0.813,1.562v2.914c0,0.203,0.004,0.447,0.012,0.734
				c0.012,0.219,0.045,0.367,0.1,0.443c0.054,0.078,0.136,0.143,0.244,0.193v0.244h-1.807c-0.051-0.129-0.086-0.248-0.104-0.361
				c-0.02-0.113-0.035-0.24-0.047-0.385c-0.23,0.248-0.497,0.461-0.798,0.635c-0.359,0.207-0.766,0.311-1.22,0.311
				c-0.578,0-1.056-0.164-1.433-0.494c-0.378-0.328-0.566-0.793-0.566-1.395c0-0.781,0.304-1.348,0.91-1.697
				c0.333-0.189,0.822-0.326,1.468-0.408L188.194,45.201z M189.21,45.977c-0.106,0.066-0.214,0.121-0.322,0.16
				c-0.108,0.041-0.257,0.08-0.446,0.115l-0.378,0.068c-0.354,0.062-0.609,0.139-0.764,0.229c-0.262,0.15-0.393,0.387-0.393,0.705
				c0,0.283,0.08,0.488,0.24,0.615c0.159,0.125,0.354,0.189,0.583,0.189c0.363,0,0.697-0.105,1.003-0.314
				c0.306-0.211,0.465-0.594,0.477-1.148V45.977z"/>
			<path fill="#868686" d="M194.014,49.066h-1.661v-8.592h1.661V49.066z"/>
			<path fill="#868686" d="M206.878,42.736c0.271,0.109,0.519,0.299,0.74,0.57c0.179,0.223,0.299,0.494,0.361,0.816
				c0.038,0.215,0.058,0.527,0.058,0.939l-0.012,4.004h-1.701v-4.045c0-0.24-0.039-0.439-0.117-0.596
				c-0.147-0.295-0.42-0.441-0.815-0.441c-0.459,0-0.775,0.189-0.95,0.57c-0.09,0.203-0.135,0.445-0.135,0.729v3.783h-1.673v-3.783
				c0-0.377-0.039-0.65-0.116-0.822c-0.14-0.307-0.414-0.459-0.822-0.459c-0.474,0-0.793,0.152-0.956,0.459
				c-0.089,0.176-0.134,0.436-0.134,0.781v3.824h-1.685v-6.342h1.614v0.928c0.206-0.332,0.4-0.566,0.583-0.707
				c0.323-0.248,0.74-0.373,1.254-0.373c0.485,0,0.878,0.107,1.177,0.322c0.241,0.197,0.424,0.451,0.548,0.764
				c0.218-0.373,0.488-0.648,0.811-0.822c0.342-0.176,0.723-0.264,1.143-0.264C206.33,42.572,206.605,42.627,206.878,42.736z"/>
			<path fill="#868686" d="M213.705,42.842c0.443,0.199,0.81,0.512,1.099,0.939c0.26,0.377,0.429,0.816,0.506,1.314
				c0.045,0.291,0.063,0.711,0.055,1.26h-4.627c0.025,0.639,0.247,1.084,0.664,1.342c0.254,0.158,0.559,0.238,0.916,0.238
				c0.378,0,0.686-0.098,0.923-0.291c0.129-0.105,0.242-0.25,0.342-0.438h1.695c-0.044,0.377-0.25,0.76-0.615,1.148
				c-0.569,0.617-1.366,0.928-2.391,0.928c-0.846,0-1.592-0.262-2.238-0.783s-0.969-1.369-0.969-2.543
				c0-1.102,0.291-1.945,0.875-2.531c0.583-0.588,1.341-0.881,2.271-0.881C212.765,42.545,213.263,42.643,213.705,42.842z
				 M211.221,44.277c-0.235,0.242-0.383,0.568-0.443,0.982h2.862c-0.03-0.441-0.178-0.775-0.442-1.004s-0.594-0.342-0.985-0.342
				C211.785,43.914,211.455,44.035,211.221,44.277z"/>
			<path fill="#868686" d="M219.573,42.814c0.299,0.17,0.542,0.404,0.729,0.703v-3.031h1.685v8.58h-1.614v-0.881
				c-0.237,0.377-0.508,0.652-0.811,0.822c-0.303,0.172-0.68,0.258-1.131,0.258c-0.742,0-1.367-0.301-1.874-0.902
				c-0.507-0.6-0.761-1.369-0.761-2.311c0-1.084,0.25-1.938,0.749-2.559s1.167-0.934,2.002-0.934
				C218.932,42.561,219.273,42.646,219.573,42.814z M219.981,47.342c0.244-0.35,0.367-0.803,0.367-1.359
				c0-0.777-0.196-1.332-0.589-1.666c-0.241-0.203-0.521-0.303-0.84-0.303c-0.485,0-0.842,0.184-1.069,0.551
				s-0.341,0.822-0.341,1.365c0,0.588,0.115,1.057,0.347,1.408s0.582,0.527,1.052,0.527
				C219.379,47.865,219.736,47.691,219.981,47.342z"/>
			<path fill="#868686" d="M225.205,41.955h-1.685v-1.533h1.685V41.955z M223.521,42.713h1.685v6.354h-1.685V42.713z"/>
			<path fill="#868686" d="M229.33,45.201c0.309-0.037,0.53-0.086,0.663-0.145c0.239-0.102,0.358-0.258,0.358-0.473
				c0-0.26-0.092-0.439-0.274-0.539c-0.184-0.1-0.452-0.148-0.807-0.148c-0.398,0-0.68,0.098-0.845,0.291
				c-0.119,0.145-0.197,0.338-0.236,0.584h-1.604c0.035-0.557,0.191-1.014,0.469-1.371c0.44-0.559,1.198-0.84,2.271-0.84
				c0.698,0,1.318,0.139,1.861,0.414c0.542,0.277,0.813,0.797,0.813,1.562v2.914c0,0.203,0.004,0.447,0.012,0.734
				c0.012,0.219,0.045,0.367,0.1,0.443c0.054,0.078,0.136,0.143,0.244,0.193v0.244h-1.807c-0.051-0.129-0.086-0.248-0.104-0.361
				c-0.02-0.113-0.035-0.24-0.047-0.385c-0.23,0.248-0.497,0.461-0.798,0.635c-0.359,0.207-0.766,0.311-1.22,0.311
				c-0.578,0-1.056-0.164-1.433-0.494c-0.378-0.328-0.566-0.793-0.566-1.395c0-0.781,0.304-1.348,0.91-1.697
				c0.333-0.189,0.822-0.326,1.468-0.408L229.33,45.201z M230.346,45.977c-0.106,0.066-0.214,0.121-0.322,0.16
				c-0.108,0.041-0.257,0.08-0.446,0.115l-0.378,0.068c-0.354,0.062-0.609,0.139-0.764,0.229c-0.262,0.15-0.393,0.387-0.393,0.705
				c0,0.283,0.08,0.488,0.24,0.615c0.159,0.125,0.354,0.189,0.583,0.189c0.363,0,0.697-0.105,1.003-0.314
				c0.306-0.211,0.465-0.594,0.477-1.148V45.977z"/>
		</g>
	</g>
	<g>
		<polygon fill="#FFFFFF" points="125.994,135.979 125.994,140.393 123.786,140.393 123.786,133.77 121.579,133.77 121.579,138.186 
			119.372,138.186 119.372,131.562 117.165,131.562 117.165,138.186 114.959,138.186 114.959,122.736 110.544,122.736 
			110.544,144.805 108.336,144.805 108.336,140.393 106.129,140.393 106.129,138.186 103.922,138.186 103.922,135.979 
			99.509,135.979 99.509,140.393 101.716,140.393 101.716,142.6 103.922,142.6 103.922,147.014 106.129,147.014 106.129,149.221 
			108.336,149.221 108.336,151.428 110.544,151.428 110.544,155.844 123.786,155.844 123.786,151.428 125.994,151.428 
			125.994,147.014 128.199,147.014 128.199,135.979 		"/>
		<path fill="#000100" d="M97.302,140.393h2.207v-4.414h-2.207V140.393z M99.509,133.77v2.209h4.413v-2.209H99.509z
			 M103.922,135.979v2.207h2.207v-2.207H103.922z M108.336,138.186h-2.207v2.207h2.207v4.412h2.208v-22.068h-2.208V138.186z
			 M110.544,120.529v2.207h4.415v-2.207H110.544z M101.716,142.6v-2.207h-2.207v2.207H101.716z M103.922,147.014V142.6h-2.206v4.414
			H103.922z M106.129,149.221v-2.207h-2.207v2.207H106.129z M108.336,151.428v-2.207h-2.207v2.207H108.336z M110.544,155.844v-4.416
			h-2.208v4.416H110.544z M125.994,133.77v-2.207h-4.415v-2.207h-4.414v-6.619h-2.206v15.449h2.206v-6.623h2.207v6.623h2.207v-4.416
			h2.207v6.623h2.208v-4.414h2.205v11.035h2.207V133.77H125.994z M125.994,151.428h2.205v-4.414h-2.205V151.428z M123.786,155.844
			h2.208v-4.416h-2.208V155.844z"/>
	</g>
	<path d="M170.366,95.717c-1.783,0-4.771,1.617-8.387-1.371c-1.972-1.633-2.676-3.842-2.922-5.035
		c-0.072-0.359-0.103-0.73-0.108-1.084c0.006-0.354,0.036-0.723,0.108-1.084c0.246-1.193,0.95-3.4,2.922-5.037
		c3.616-2.988,6.604-1.367,8.387-1.367c4.503,0,8.145-3.645,8.145-8.146c0-4.496-3.642-8.143-8.145-8.143
		c-4.497,0-8.146,3.646-8.146,8.143c0,1.184,0.585,2.979-2.906,6.227c-2.942,2.742-6.604,1.348-8.397,1.348
		c-4.445,0-8.047,3.559-8.137,7.98h-0.013c0,0,0,0,0,0.002c0,0.023,0.003,0.049,0.003,0.078c0,0.027-0.003,0.051-0.003,0.08v0.002
		h0.013c0.09,4.42,3.691,7.98,8.137,7.98c1.794,0,5.455-1.395,8.397,1.344c3.491,3.246,2.906,5.043,2.906,6.23
		c0,4.496,3.648,8.139,8.146,8.139c4.503,0,8.145-3.643,8.145-8.139C178.511,99.359,174.869,95.717,170.366,95.717z"/>
	<path fill="#35A8E0" d="M108.371,81.621v-9.912l16.518,16.516l-16.518,16.52v-9.91c-11.69,0-22.005,1.654-27.505,9.91
		C82.031,93.525,91.848,83,108.371,81.621"/>
</g>
</svg>
