<?xml version="1.0" encoding="utf-8"?>
<!-- Generator: Adobe Illustrator 16.0.0, SVG Export Plug-In . SVG Version: 6.00 Build 0)  -->
<!DOCTYPE svg PUBLIC "-//W3C//DTD SVG 1.1//EN" "http://www.w3.org/Graphics/SVG/1.1/DTD/svg11.dtd">
<svg version="1.1" id="Layer_1" xmlns="http://www.w3.org/2000/svg" xmlns:xlink="http://www.w3.org/1999/xlink" x="0px" y="0px"
	 width="341.271px" height="85.919px" viewBox="0 0 341.271 85.919" enable-background="new 0 0 341.271 85.919"
	 xml:space="preserve">
<g>
	<polygon fill="#FF0000" points="28.646,-0.001 28.646,28.644 0.001,28.644 0.001,57.28 28.646,57.28 28.646,85.919 57.283,85.919 
		57.283,57.28 85.923,57.28 85.923,28.644 57.283,28.644 57.283,-0.001 	"/>
	<g>
		<g>
			<path fill="#1D1D1B" d="M118.924,9.532c-0.416-0.795-1.172-1.192-2.27-1.192c-0.604,0-1.104,0.163-1.494,0.487
				c-0.393,0.324-0.701,0.852-0.926,1.579c-0.223,0.729-0.381,1.681-0.469,2.856c-0.09,1.177-0.135,2.616-0.135,4.318
				c0,1.815,0.061,3.283,0.184,4.402c0.123,1.121,0.314,1.989,0.572,2.605s0.582,1.031,0.975,1.243
				c0.391,0.214,0.846,0.319,1.361,0.319c0.426,0,0.822-0.072,1.193-0.219c0.369-0.145,0.688-0.437,0.957-0.873
				c0.27-0.438,0.482-1.053,0.639-1.849s0.234-1.843,0.234-3.143h4.84c0,1.3-0.1,2.532-0.303,3.696
				c-0.201,1.166-0.576,2.186-1.125,3.059c-0.549,0.874-1.322,1.558-2.318,2.051c-0.998,0.492-2.291,0.738-3.883,0.738
				c-1.814,0-3.26-0.291-4.334-0.873c-1.076-0.582-1.9-1.423-2.471-2.521c-0.572-1.098-0.941-2.408-1.109-3.933
				c-0.168-1.523-0.252-3.203-0.252-5.041c0-1.814,0.084-3.488,0.252-5.023s0.537-2.852,1.109-3.949
				c0.57-1.098,1.395-1.955,2.471-2.57c1.074-0.617,2.52-0.925,4.334-0.925c1.725,0,3.086,0.28,4.084,0.841
				c0.996,0.56,1.742,1.271,2.234,2.133c0.492,0.863,0.801,1.793,0.924,2.79s0.186,1.933,0.186,2.806h-4.84
				C119.545,11.6,119.338,10.328,118.924,9.532z"/>
			<path fill="#1D1D1B" d="M136.281,5.247c2.016,0,3.584,0.511,4.705,1.529c1.121,1.021,1.68,2.571,1.68,4.655
				c0,1.612-0.324,2.929-0.975,3.948c-0.648,1.02-1.658,1.676-3.023,1.967v0.066c1.209,0.18,2.094,0.572,2.654,1.177
				s0.908,1.579,1.043,2.924c0.043,0.448,0.078,0.936,0.1,1.462s0.045,1.115,0.068,1.764c0.043,1.277,0.111,2.252,0.201,2.924
				c0.135,0.673,0.426,1.133,0.873,1.379v0.201h-5.242c-0.246-0.336-0.404-0.723-0.471-1.16c-0.066-0.436-0.113-0.89-0.135-1.36
				l-0.135-4.604c-0.045-0.941-0.279-1.68-0.705-2.218s-1.143-0.807-2.15-0.807h-2.588v10.149h-4.84V5.247H136.281z M134.197,15.733
				c1.166,0,2.062-0.274,2.689-0.824c0.627-0.549,0.941-1.473,0.941-2.771c0-2.219-1.121-3.328-3.361-3.328h-2.285v6.924H134.197z"
				/>
			<path fill="#1D1D1B" d="M151.236,21.983c0,0.605,0.037,1.16,0.117,1.664c0.078,0.504,0.223,0.941,0.436,1.311
				c0.213,0.37,0.506,0.662,0.875,0.874c0.369,0.214,0.834,0.319,1.395,0.319c0.582,0,1.053-0.105,1.412-0.319
				c0.357-0.212,0.643-0.504,0.855-0.874c0.213-0.369,0.359-0.807,0.438-1.311s0.117-1.059,0.117-1.664V5.247h4.84v16.736
				c0,1.524-0.213,2.785-0.639,3.781c-0.426,0.998-0.996,1.787-1.713,2.369c-0.719,0.583-1.535,0.975-2.455,1.177
				c-0.918,0.202-1.869,0.302-2.855,0.302s-1.938-0.09-2.857-0.269c-0.918-0.179-1.736-0.543-2.453-1.092s-1.289-1.327-1.713-2.336
				c-0.426-1.009-0.639-2.319-0.639-3.933V5.247h4.84V21.983z"/>
			<path fill="#1D1D1B" d="M172.744,9.214h-8.234V5.247h13.812v3.664l-8.973,16.366h9.107v3.966h-14.551v-3.529L172.744,9.214z"/>
			<path fill="#1D1D1B" d="M194.756,22.992h0.102l3.562-17.745h5.006l-5.51,23.996h-6.219l-5.512-23.996h5.176L194.756,22.992z"/>
			<path fill="#1D1D1B" d="M218.617,9.214h-8.57v5.646h8.066v3.966h-8.066v6.452h8.906v3.966h-13.744V5.247h13.408V9.214z"/>
			<path fill="#1D1D1B" d="M230.312,5.247c2.016,0,3.584,0.511,4.705,1.529c1.119,1.021,1.68,2.571,1.68,4.655
				c0,1.612-0.326,2.929-0.975,3.948c-0.65,1.02-1.658,1.676-3.025,1.967v0.066c1.211,0.18,2.096,0.572,2.656,1.177
				c0.559,0.604,0.906,1.579,1.041,2.924c0.045,0.448,0.078,0.936,0.102,1.462c0.021,0.526,0.043,1.115,0.066,1.764
				c0.045,1.277,0.111,2.252,0.201,2.924c0.135,0.673,0.426,1.133,0.875,1.379v0.201h-5.244c-0.246-0.336-0.402-0.723-0.469-1.16
				c-0.068-0.436-0.113-0.89-0.135-1.36l-0.135-4.604c-0.045-0.941-0.281-1.68-0.705-2.218c-0.428-0.538-1.145-0.807-2.152-0.807
				h-2.588v10.149h-4.838V5.247H230.312z M228.229,15.733c1.164,0,2.061-0.274,2.688-0.824c0.627-0.549,0.941-1.473,0.941-2.771
				c0-2.219-1.121-3.328-3.361-3.328h-2.285v6.924H228.229z"/>
			<path fill="#1D1D1B" d="M247.35,5.247l3.43,16.938h0.066l3.461-16.938h7.158v23.996h-4.436V10.087h-0.066l-4.27,19.156h-3.764
				l-4.268-19.156h-0.066v19.156h-4.438V5.247H247.35z"/>
			<path fill="#1D1D1B" d="M278.336,9.214h-8.57v5.646h8.066v3.966h-8.066v6.452h8.906v3.966h-13.744V5.247h13.408V9.214z"/>
			<path fill="#1D1D1B" d="M281.092,5.247h4.838v20.03h8.57v3.966h-13.408V5.247z"/>
			<path fill="#1D1D1B" d="M301.49,5.247v9.176h5.646V5.247h4.84v23.996h-4.84V18.59h-5.646v10.653h-4.838V5.247H301.49z"/>
			<path fill="#1D1D1B" d="M325.99,5.247l6.352,23.996h-5.041l-1.109-5.074h-6.385l-1.109,5.074h-5.041l6.352-23.996H325.99z
				 M325.352,20.203l-2.318-10.788h-0.066l-2.32,10.788H325.352z"/>
			<path fill="#1D1D1B" d="M117.395,34.644c0.986,0,1.898,0.102,2.738,0.303c0.84,0.202,1.562,0.538,2.168,1.009
				c0.605,0.47,1.076,1.098,1.412,1.882c0.336,0.785,0.504,1.748,0.504,2.891c0,1.299-0.303,2.414-0.908,3.344
				c-0.604,0.93-1.512,1.562-2.721,1.898v0.067c1.344,0.18,2.408,0.751,3.191,1.714c0.785,0.963,1.176,2.252,1.176,3.865
				c0,0.94-0.123,1.837-0.369,2.688c-0.246,0.853-0.666,1.598-1.26,2.235c-0.594,0.639-1.367,1.148-2.318,1.529
				c-0.953,0.382-2.135,0.571-3.547,0.571h-8.166V34.644H117.395z M115.512,44.491c1.346,0,2.324-0.24,2.941-0.723
				c0.615-0.481,0.924-1.294,0.924-2.437s-0.279-1.949-0.84-2.42c-0.561-0.47-1.445-0.706-2.654-0.706h-1.748v6.285H115.512z
				 M116.016,55.077c1.166,0,2.107-0.258,2.824-0.773c0.717-0.515,1.074-1.467,1.074-2.855c0-0.695-0.096-1.271-0.285-1.731
				c-0.189-0.459-0.447-0.829-0.773-1.108c-0.324-0.28-0.711-0.477-1.158-0.588c-0.449-0.112-0.941-0.169-1.479-0.169h-2.084v7.226
				H116.016z"/>
			<path fill="#1D1D1B" d="M136.92,34.644c2.016,0,3.584,0.511,4.705,1.529c1.121,1.021,1.68,2.571,1.68,4.655
				c0,1.612-0.324,2.929-0.975,3.948c-0.648,1.02-1.658,1.676-3.023,1.967v0.066c1.209,0.18,2.094,0.572,2.654,1.177
				s0.908,1.579,1.043,2.924c0.043,0.448,0.078,0.936,0.1,1.462s0.045,1.115,0.068,1.764c0.043,1.277,0.111,2.252,0.201,2.924
				c0.135,0.673,0.426,1.133,0.873,1.379v0.201h-5.242c-0.246-0.336-0.404-0.723-0.471-1.16c-0.066-0.436-0.113-0.89-0.135-1.36
				l-0.135-4.604c-0.045-0.941-0.279-1.68-0.705-2.218s-1.143-0.807-2.15-0.807h-2.588V58.64h-4.84V34.644H136.92z M134.836,45.13
				c1.166,0,2.062-0.274,2.689-0.824c0.627-0.549,0.941-1.473,0.941-2.771c0-2.219-1.121-3.328-3.361-3.328h-2.285v6.924H134.836z"
				/>
			<path fill="#1D1D1B" d="M157.32,34.644l6.352,23.996h-5.041l-1.109-5.074h-6.385l-1.109,5.074h-5.041l6.352-23.996H157.32z
				 M156.682,49.6l-2.32-10.788h-0.066L151.977,49.6H156.682z"/>
			<path fill="#1D1D1B" d="M169.25,51.851c0,0.561,0.045,1.07,0.135,1.529c0.09,0.46,0.258,0.846,0.504,1.16
				c0.246,0.313,0.576,0.561,0.992,0.738c0.414,0.18,0.934,0.27,1.562,0.27c0.738,0,1.404-0.24,2-0.723
				c0.592-0.481,0.891-1.227,0.891-2.234c0-0.538-0.074-1.003-0.219-1.395c-0.146-0.393-0.387-0.745-0.723-1.059
				c-0.336-0.314-0.779-0.6-1.328-0.857s-1.227-0.521-2.033-0.79c-1.076-0.358-2.006-0.751-2.789-1.177
				c-0.785-0.425-1.439-0.924-1.967-1.495c-0.525-0.571-0.912-1.231-1.158-1.982c-0.248-0.751-0.371-1.618-0.371-2.604
				c0-2.375,0.662-4.145,1.984-5.311c1.32-1.164,3.135-1.747,5.443-1.747c1.076,0,2.066,0.118,2.975,0.353
				c0.906,0.235,1.691,0.617,2.352,1.143c0.662,0.527,1.178,1.199,1.547,2.017c0.369,0.818,0.555,1.798,0.555,2.94v0.672h-4.639
				c0-1.143-0.201-2.021-0.604-2.638c-0.404-0.616-1.076-0.924-2.018-0.924c-0.537,0-0.986,0.079-1.344,0.235
				c-0.359,0.156-0.645,0.364-0.857,0.621c-0.213,0.258-0.359,0.555-0.438,0.891s-0.117,0.684-0.117,1.042
				c0,0.739,0.156,1.361,0.471,1.865s0.986,0.97,2.016,1.395l3.73,1.613c0.92,0.403,1.67,0.823,2.252,1.261
				c0.582,0.437,1.047,0.906,1.395,1.411c0.348,0.504,0.588,1.059,0.723,1.663c0.135,0.605,0.203,1.277,0.203,2.017
				c0,2.532-0.734,4.375-2.203,5.528c-1.467,1.154-3.512,1.73-6.133,1.73c-2.732,0-4.688-0.593-5.863-1.781
				c-1.178-1.187-1.766-2.89-1.766-5.107v-0.975h4.84V51.851z"/>
			<path fill="#1D1D1B" d="M183.029,34.644h4.838V58.64h-4.838V34.644z"/>
			<path fill="#1D1D1B" d="M191.465,34.644h4.838v20.03h8.57v3.966h-13.408V34.644z"/>
			<path fill="#1D1D1B" d="M220.434,38.61h-8.57v5.646h8.064v3.966h-8.064v6.452h8.906v3.966h-13.746V34.644h13.41V38.61z"/>
			<path fill="#1D1D1B" d="M223.424,34.644h4.84V58.64h-4.84V34.644z"/>
			<path fill="#1D1D1B" d="M240.799,34.644c2.016,0,3.584,0.511,4.705,1.529c1.119,1.021,1.68,2.571,1.68,4.655
				c0,1.612-0.326,2.929-0.975,3.948c-0.65,1.02-1.658,1.676-3.025,1.967v0.066c1.211,0.18,2.096,0.572,2.656,1.177
				c0.559,0.604,0.906,1.579,1.041,2.924c0.045,0.448,0.078,0.936,0.102,1.462c0.021,0.526,0.043,1.115,0.066,1.764
				c0.045,1.277,0.111,2.252,0.201,2.924c0.135,0.673,0.426,1.133,0.875,1.379v0.201h-5.244c-0.246-0.336-0.402-0.723-0.469-1.16
				c-0.068-0.436-0.113-0.89-0.135-1.36l-0.135-4.604c-0.045-0.941-0.281-1.68-0.705-2.218c-0.428-0.538-1.145-0.807-2.152-0.807
				h-2.588V58.64h-4.838V34.644H240.799z M238.715,45.13c1.164,0,2.061-0.274,2.688-0.824c0.627-0.549,0.941-1.473,0.941-2.771
				c0-2.219-1.121-3.328-3.361-3.328h-2.285v6.924H238.715z"/>
			<path fill="#1D1D1B" d="M261.197,34.644l6.352,23.996h-5.041l-1.109-5.074h-6.385l-1.109,5.074h-5.041l6.352-23.996H261.197z
				 M260.559,49.6l-2.318-10.788h-0.066l-2.32,10.788H260.559z"/>
		</g>
		<g>
			<path fill="#1D1D1B" d="M116.34,70.471c-0.635-0.46-1.445-0.69-2.434-0.69c-0.4,0-0.795,0.039-1.184,0.119
				c-0.387,0.08-0.73,0.215-1.031,0.401s-0.541,0.438-0.721,0.751c-0.18,0.314-0.271,0.705-0.271,1.172
				c0,0.441,0.131,0.799,0.391,1.072c0.262,0.273,0.609,0.498,1.043,0.671c0.434,0.174,0.924,0.317,1.473,0.431
				c0.547,0.113,1.105,0.237,1.672,0.371c0.568,0.133,1.125,0.29,1.674,0.471c0.547,0.18,1.039,0.424,1.473,0.73
				c0.434,0.309,0.781,0.695,1.041,1.162c0.262,0.469,0.391,1.056,0.391,1.764c0,0.762-0.17,1.412-0.51,1.953
				c-0.342,0.541-0.779,0.982-1.312,1.322c-0.535,0.341-1.133,0.588-1.793,0.742c-0.662,0.152-1.32,0.229-1.975,0.229
				c-0.801,0-1.559-0.101-2.273-0.3c-0.715-0.201-1.342-0.504-1.883-0.912c-0.541-0.407-0.969-0.928-1.283-1.562
				c-0.312-0.635-0.471-1.386-0.471-2.254h1.803c0,0.602,0.117,1.119,0.352,1.553s0.541,0.791,0.922,1.072
				c0.381,0.279,0.824,0.487,1.332,0.621c0.508,0.133,1.029,0.199,1.562,0.199c0.428,0,0.857-0.039,1.293-0.119
				c0.434-0.08,0.824-0.217,1.172-0.411c0.348-0.193,0.627-0.458,0.842-0.792c0.213-0.333,0.32-0.761,0.32-1.281
				c0-0.494-0.131-0.895-0.391-1.203c-0.262-0.307-0.609-0.557-1.043-0.751c-0.434-0.193-0.924-0.351-1.473-0.471
				c-0.547-0.12-1.105-0.243-1.672-0.37c-0.568-0.127-1.125-0.273-1.674-0.441c-0.547-0.166-1.037-0.387-1.473-0.661
				c-0.434-0.273-0.781-0.628-1.041-1.062s-0.391-0.979-0.391-1.633c0-0.721,0.146-1.346,0.441-1.873
				c0.293-0.527,0.684-0.962,1.172-1.303c0.486-0.34,1.041-0.594,1.662-0.762c0.621-0.166,1.26-0.25,1.914-0.25
				c0.734,0,1.414,0.088,2.043,0.261c0.627,0.174,1.178,0.447,1.652,0.821s0.848,0.845,1.123,1.412
				c0.273,0.568,0.424,1.246,0.451,2.033h-1.805C117.344,71.677,116.975,70.932,116.34,70.471z"/>
			<path fill="#1D1D1B" d="M128.15,68.518l5.59,14.305h-2.104l-1.562-4.308h-6.051l-1.604,4.308h-1.943l5.57-14.305H128.15z
				 M127.92,65.853c-0.248-0.106-0.49-0.227-0.73-0.36c-0.242-0.134-0.488-0.253-0.742-0.36s-0.514-0.16-0.781-0.16
				c-0.561,0-1.012,0.188-1.352,0.561c-0.342,0.374-0.578,0.969-0.713,1.783h0.943c0.119-0.682,0.486-1.021,1.102-1.021
				c0.24,0,0.477,0.053,0.711,0.16c0.232,0.107,0.471,0.227,0.711,0.36s0.48,0.254,0.721,0.36c0.24,0.107,0.494,0.16,0.762,0.16
				c0.521,0,0.965-0.17,1.332-0.51c0.367-0.342,0.617-0.979,0.752-1.914h-0.982c-0.039,0.348-0.143,0.618-0.311,0.812
				c-0.166,0.194-0.396,0.29-0.691,0.29C128.41,66.013,128.166,65.96,127.92,65.853z M129.473,76.912l-2.385-6.672h-0.039
				l-2.424,6.672H129.473z"/>
			<path fill="#1D1D1B" d="M134.771,72.854c0.287-0.9,0.719-1.699,1.293-2.394s1.289-1.249,2.143-1.663
				c0.855-0.414,1.85-0.621,2.986-0.621c1.135,0,2.129,0.207,2.984,0.621s1.57,0.969,2.145,1.663s1.004,1.493,1.291,2.394
				c0.287,0.902,0.432,1.84,0.432,2.815s-0.145,1.913-0.432,2.815c-0.287,0.9-0.717,1.699-1.291,2.394s-1.289,1.245-2.145,1.653
				c-0.855,0.406-1.85,0.61-2.984,0.61c-1.137,0-2.131-0.204-2.986-0.61c-0.854-0.408-1.568-0.959-2.143-1.653
				s-1.006-1.493-1.293-2.394c-0.287-0.902-0.43-1.84-0.43-2.815S134.484,73.757,134.771,72.854z M136.525,77.804
				c0.186,0.701,0.48,1.332,0.881,1.893c0.4,0.562,0.914,1.012,1.543,1.354c0.627,0.34,1.375,0.51,2.244,0.51
				c0.867,0,1.615-0.17,2.244-0.51c0.627-0.342,1.141-0.792,1.541-1.354c0.402-0.561,0.695-1.191,0.883-1.893
				c0.186-0.701,0.279-1.412,0.279-2.134s-0.094-1.433-0.279-2.134c-0.188-0.701-0.48-1.332-0.883-1.893
				c-0.4-0.562-0.914-1.012-1.541-1.354c-0.629-0.34-1.377-0.51-2.244-0.51c-0.869,0-1.617,0.17-2.244,0.51
				c-0.629,0.342-1.143,0.792-1.543,1.354c-0.4,0.561-0.695,1.191-0.881,1.893c-0.188,0.701-0.281,1.412-0.281,2.134
				S136.338,77.103,136.525,77.804z"/>
			<path fill="#1D1D1B" d="M162.209,68.518c1.443,0,2.535,0.37,3.275,1.112c0.742,0.74,1.111,1.779,1.111,3.115
				s-0.369,2.377-1.111,3.125c-0.74,0.748-1.832,1.115-3.275,1.102h-4.367v5.851h-1.904V68.518H162.209z M161.568,75.369
				c1.082,0.014,1.873-0.206,2.373-0.661c0.502-0.453,0.752-1.108,0.752-1.963c0-0.855-0.25-1.506-0.752-1.953
				c-0.5-0.447-1.291-0.672-2.373-0.672h-3.727v5.249H161.568z"/>
			<path fill="#1D1D1B" d="M173.428,68.518l5.59,14.305h-2.104l-1.562-4.308h-6.051l-1.602,4.308h-1.943l5.568-14.305H173.428z
				 M174.75,76.912l-2.383-6.672h-0.041l-2.424,6.672H174.75z"/>
			<path fill="#1D1D1B" d="M190.377,81.771c-0.975,0.915-2.363,1.372-4.166,1.372c-1.844,0-3.283-0.437-4.318-1.312
				s-1.553-2.268-1.553-4.178v-9.136h1.904v9.136c0,1.282,0.34,2.254,1.021,2.915s1.662,0.991,2.945,0.991
				c1.215,0,2.141-0.33,2.775-0.991c0.633-0.661,0.951-1.633,0.951-2.915v-9.136h1.902v9.136
				C191.84,79.483,191.354,80.856,190.377,81.771z"/>
			<path fill="#1D1D1B" d="M196.789,68.518V81.22h7.572v1.603h-9.477V68.518H196.789z"/>
			<path fill="#1D1D1B" d="M205.654,72.854c0.287-0.9,0.717-1.699,1.291-2.394s1.289-1.249,2.145-1.663
				c0.854-0.414,1.85-0.621,2.984-0.621s2.131,0.207,2.986,0.621c0.854,0.414,1.568,0.969,2.143,1.663s1.006,1.493,1.293,2.394
				c0.287,0.902,0.43,1.84,0.43,2.815s-0.143,1.913-0.43,2.815c-0.287,0.9-0.719,1.699-1.293,2.394s-1.289,1.245-2.143,1.653
				c-0.855,0.406-1.852,0.61-2.986,0.61s-2.131-0.204-2.984-0.61c-0.855-0.408-1.57-0.959-2.145-1.653s-1.004-1.493-1.291-2.394
				c-0.289-0.902-0.432-1.84-0.432-2.815S205.365,73.757,205.654,72.854z M207.406,77.804c0.188,0.701,0.48,1.332,0.881,1.893
				c0.402,0.562,0.916,1.012,1.543,1.354c0.629,0.34,1.377,0.51,2.244,0.51c0.869,0,1.617-0.17,2.244-0.51
				c0.627-0.342,1.143-0.792,1.543-1.354c0.4-0.561,0.693-1.191,0.881-1.893s0.281-1.412,0.281-2.134s-0.094-1.433-0.281-2.134
				s-0.48-1.332-0.881-1.893c-0.4-0.562-0.916-1.012-1.543-1.354c-0.627-0.34-1.375-0.51-2.244-0.51c-0.867,0-1.615,0.17-2.244,0.51
				c-0.627,0.342-1.141,0.792-1.543,1.354c-0.4,0.561-0.693,1.191-0.881,1.893s-0.279,1.412-0.279,2.134
				S207.219,77.103,207.406,77.804z"/>
		</g>
	</g>
</g>
</svg>
