<?xml version="1.0" encoding="utf-8"?>
<!-- Generator: Adobe Illustrator 16.0.0, SVG Export Plug-In . SVG Version: 6.00 Build 0)  -->
<!DOCTYPE svg PUBLIC "-//W3C//DTD SVG 1.1//EN" "http://www.w3.org/Graphics/SVG/1.1/DTD/svg11.dtd">
<svg version="1.1" id="Layer_1" xmlns="http://www.w3.org/2000/svg" xmlns:xlink="http://www.w3.org/1999/xlink" x="0px" y="0px"
	 width="277.136px" height="85.872px" viewBox="0 0 277.136 85.872" enable-background="new 0 0 277.136 85.872"
	 xml:space="preserve">
<g>
	<polygon fill="#FF0000" points="28.632,0 28.632,28.625 0.002,28.625 0.002,57.248 28.632,57.248 28.632,85.872 57.253,85.872 
		57.253,57.248 85.876,57.248 85.876,28.625 57.253,28.625 57.253,0 	"/>
	<g>
		<path fill="#1D1D1B" d="M114.44,36.846h2.805c1.186,0,3.325,0.055,3.325,2.52c0,2.445-2.164,2.504-3.292,2.504h-2.838V36.846
			 M107.618,32.328v21.537h6.822v-7.584h2.01l4.177,7.584h7.558l-5.237-8.679c1.009-0.392,1.914-0.729,2.775-1.646
			c1.543-1.586,1.643-3.504,1.643-4.319c0-2.074-0.86-5.001-3.72-6.218c-1.311-0.551-3.259-0.676-5.303-0.676H107.618"/>
		<path fill="#1D1D1B" d="M136.904,41.444c0.846,0,1.824,0.481,2.098,1.608c0.066,0.248,0.066,0.488,0.096,0.735h-4.571
			C134.676,43.084,135.009,41.444,136.904,41.444 M128.069,45.917c0,4.392,2.861,8.595,8.707,8.595c3.783,0,6.52-1.492,8.382-4.333
			l-5.179-2.161c-0.641,1.285-1.428,2.043-2.865,2.043c-1.154,0-1.734-0.577-1.886-0.728c-0.702-0.704-0.738-1.525-0.765-2.224
			h11.035c-0.062-2.411-0.093-5.027-2.414-7.312c-1.919-1.863-4.416-2.349-6.333-2.349
			C131.628,37.448,128.069,40.768,128.069,45.917"/>
		<path fill="#1D1D1B" d="M153.967,49.06c-0.421-0.46-0.888-1.315-0.888-3.112c0-0.73,0.062-1.309,0.186-1.859
			c0.548-1.979,2.041-1.979,2.256-1.979c0.578,0,1.739,0.339,2.194,1.822c0.215,0.646,0.242,1.314,0.242,1.985
			c0,0.794,0,2.258-0.825,3.108c-0.425,0.428-0.997,0.699-1.579,0.699C154.942,49.725,154.367,49.483,153.967,49.06 M157.808,32.364
			v6.827c-0.639-0.587-1.648-1.561-4.021-1.561c-3.446,0-6.888,2.472-6.888,7.979c0,4.968,2.592,8.651,7.102,8.651
			c0.635,0,1.486-0.057,2.374-0.394c0.885-0.334,1.184-0.671,1.616-1.153v1.153h6.096V32.364H157.808"/>
		<path fill="#1D1D1B" d="M174.166,43.236c0,5.522,3.479,11.303,11.159,11.303c3.084,0,6.154-1.005,8.35-3.163
			c1.038-1.034,1.554-2.013,2.102-3.048l-5.786-2.802c-0.251,0.725-1.192,3.526-4.364,3.526c-3.345,0-4.538-3.018-4.538-6.21
			c0-0.854,0-3.294,1.618-4.843c0.458-0.454,1.401-1.158,2.894-1.158c2.865,0,3.904,2.283,4.444,3.562l5.705-2.831
			c-0.455-0.853-0.887-1.586-1.799-2.531c-2.256-2.318-5.367-3.473-8.625-3.473C178.044,31.568,174.166,37.448,174.166,43.236"/>
		<path fill="#1D1D1B" d="M203.337,39.465V38H197.3v15.868h6.254v-7.433c0.024-1.035,0.086-3.439,3.771-3.439
			c0.43,0,0.857,0.03,1.281,0.057v-5.301C206.197,37.752,205.043,37.934,203.337,39.465"/>
		<path fill="#1D1D1B" d="M215.983,45.92c0-1.766,0.516-4.024,2.892-4.078c2.869-0.097,2.928,3.07,2.928,4.019
			c0,2.371-0.699,4.231-2.893,4.231C216.347,50.092,215.983,47.446,215.983,45.92 M209.732,46.101c0,4.237,2.624,8.381,8.996,8.381
			c5.962,0,9.409-3.499,9.409-8.468c0-2.497-0.971-4.876-2.465-6.311c-1.218-1.155-3.411-2.255-6.611-2.287
			c-0.022,0-0.044,0-0.069,0C213.215,37.418,209.732,40.941,209.732,46.101"/>
		<path fill="#1D1D1B" d="M231.554,39.275c-0.946,0.918-1.579,2.195-1.579,3.594c0,3.35,2.895,4.207,4.354,4.634
			c1.431,0.428,2.741,0.641,3.288,0.729c0.641,0.1,1.593,0.25,1.593,1.038c0,0.699-0.891,0.975-1.658,0.975
			c-0.512,0-1.365-0.06-2.492-0.52c-1.217-0.518-1.8-1.036-2.379-1.61l-3.501,3.202c1.339,1.096,3.929,3.169,8.438,3.169
			c4.903,0,7.495-2.745,7.495-5.856c0-1.794-0.878-3.259-2.46-4.111c-0.763-0.399-1.438-0.548-4.242-1.184
			c-2.101-0.525-2.531-0.611-2.531-1.195c0-0.824,1.099-0.824,1.343-0.824c1.675,0,2.982,0.824,4.054,1.494l3.382-3.076
			c-0.885-0.667-1.8-1.338-3.964-1.854c-1.188-0.277-2.374-0.434-3.562-0.434C236.089,37.445,233.415,37.51,231.554,39.275"/>
		<path fill="#1D1D1B" d="M248.438,39.275c-0.946,0.918-1.59,2.195-1.59,3.594c0,3.35,2.896,4.207,4.358,4.634
			c1.441,0.428,2.748,0.641,3.3,0.729c0.639,0.1,1.58,0.25,1.58,1.038c0,0.699-0.886,0.975-1.647,0.975
			c-0.517,0-1.372-0.06-2.49-0.52c-1.231-0.518-1.802-1.036-2.386-1.61l-3.509,3.202c1.348,1.096,3.939,3.169,8.452,3.169
			c4.903,0,7.489-2.745,7.489-5.856c0-1.794-0.88-3.259-2.465-4.111c-0.76-0.399-1.439-0.548-4.239-1.184
			c-2.101-0.525-2.522-0.611-2.522-1.195c0-0.824,1.098-0.824,1.336-0.824c1.674,0,2.984,0.824,4.053,1.494l3.384-3.076
			c-0.881-0.667-1.798-1.338-3.961-1.854c-1.191-0.277-2.38-0.434-3.561-0.434C252.979,37.445,250.296,37.51,248.438,39.275"/>
	</g>
</g>
</svg>
